<?xml version="1.0" encoding="utf-8"?>
<!-- Generator: Adobe Illustrator 21.1.0, SVG Export Plug-In . SVG Version: 6.00 Build 0)  -->
<svg version="1.1" id="Layer_1" xmlns="http://www.w3.org/2000/svg" xmlns:xlink="http://www.w3.org/1999/xlink" x="0px" y="0px"
	 viewBox="0 0 45 45" style="enable-background:new 0 0 45 45;" xml:space="preserve">
<style type="text/css">
	.icon-pitching-clients-st0{fill:currentColor;}
</style>
<title>pitching_clients</title>
<desc>Created with Sketch.</desc>
<g id="The-Yearly-Carnage" transform="translate(-1220.000000, -4847.000000)">
	<g id="pitching_clients" transform="translate(1218.000000, 4847.000000)">
		<path id="Shape" class="icon-pitching-clients-st0" d="M24.5,33.8c-3.7,0-6.8-3-6.8-6.8s3-6.8,6.8-6.8s6.8,3,6.8,6.8S28.2,33.8,24.5,33.8z M24.5,22.5
			c-2.5,0-4.5,2-4.5,4.5s2,4.5,4.5,4.5s4.5-2,4.5-4.5S27,22.5,24.5,22.5z"/>
		<path id="Shape_1_" class="icon-pitching-clients-st0" d="M37.4,3c-0.4-1.7-2.1-3-3.9-3h-18c-1.8,0-3.5,1.3-3.9,3l-0.4,1.6C9.8,5,8.7,6.3,8.7,7.9v2.2
			c0,1.5,1,2.8,2.3,3.2l2,28.4c0.1,1.8,1.7,3.3,3.5,3.3h15.8c1.8,0,3.4-1.5,3.5-3.3l2-28.4c1.3-0.4,2.3-1.7,2.3-3.2V7.9
			c0-1.5-1-2.9-2.5-3.2L37.4,3z M33.5,2.2c0.7,0,1.5,0.6,1.7,1.3l0.2,0.9H13.6l0.2-0.9c0.2-0.7,1-1.3,1.7-1.3H33.5z M13.5,15.8
			l-0.2-2.2h22.3l-0.2,2.2H13.5z M14.9,36l-1.3-18h21.7l-1.3,18H14.9z M16.6,42.8c-0.7,0-1.2-0.5-1.3-1.2l-0.2-3.3h18.8l-0.2,3.3
			c0,0.7-0.6,1.2-1.3,1.2H16.6z M36.9,11.2H12.1c-0.6,0-1.1-0.5-1.1-1.1V7.9c0-0.6,0.5-1.1,1.1-1.1c0,0,8.3,0,24.8,0
			c0.6,0,1.1,0.5,1.1,1.1v2.2C38,10.7,37.5,11.2,36.9,11.2z"/>
	</g>
</g>
</svg>
