<?xml version="1.0" encoding="utf-8"?>
<!-- Generator: Adobe Illustrator 21.1.0, SVG Export Plug-In . SVG Version: 6.00 Build 0)  -->
<svg version="1.1" id="Layer_1" xmlns="http://www.w3.org/2000/svg" xmlns:xlink="http://www.w3.org/1999/xlink" x="0px" y="0px"
	 viewBox="0 0 48 48" style="enable-background:new 0 0 48 48;" xml:space="preserve">
<style type="text/css">
	.icon-copywriting-st0{fill:currentColor;}
</style>
<title>copywriting</title>
<desc>Created with Sketch.</desc>
<g id="The-Yearly-Carnage" transform="translate(-1211.000000, -5102.000000)">
	<g id="copywriting" transform="translate(1211.000000, 5101.000000)">
		<path id="Shape" class="icon-copywriting-st0" d="M11.2,33c-0.7,0-1.2,0.6-1.2,1.2v0C9,33.5,7.7,33,6.2,33C2.8,33,0,35.8,0,39.2s2.8,6.2,6.2,6.2
			c1.4,0,2.7-0.5,3.8-1.3v0c0,0.7,0.6,1.2,1.2,1.2s1.2-0.6,1.2-1.2v-10C12.5,33.6,11.9,33,11.2,33z M6.2,43c-2.1,0-3.8-1.7-3.8-3.8
			s1.7-3.8,3.8-3.8s3.8,1.7,3.8,3.8S8.3,43,6.2,43z"/>
		<path id="Shape_1_" class="icon-copywriting-st0" d="M21.2,33c-1.4,0-2.7,0.5-3.8,1.3v-10c0-0.7-0.6-1.2-1.2-1.2c-0.7,0-1.2,0.6-1.2,1.2v20
			c0,0.7,0.6,1.2,1.2,1.2c0.7,0,1.2-0.6,1.2-1.2v0c1,0.8,2.3,1.3,3.8,1.3c3.4,0,6.2-2.8,6.2-6.2S24.7,33,21.2,33z M21.2,43
			c-2.1,0-3.8-1.7-3.8-3.8s1.7-3.8,3.8-3.8s3.8,1.7,3.8,3.8S23.3,43,21.2,43z"/>
		<path id="Shape_2_" class="icon-copywriting-st0" d="M36.2,45.5c-3.4,0-6.2-2.8-6.2-6.2s2.8-6.2,6.2-6.2c1.1,0,2.2,0.3,3.1,0.8
			c0.6,0.3,0.8,1.1,0.5,1.7c-0.3,0.6-1.1,0.8-1.7,0.5c-0.6-0.3-1.2-0.5-1.9-0.5c-2.1,0-3.8,1.7-3.8,3.8c0,2.1,1.7,3.8,3.8,3.8
			c0.7,0,1.3-0.2,1.9-0.5c0.6-0.3,1.4-0.1,1.7,0.5s0.1,1.4-0.5,1.7C38.4,45.2,37.3,45.5,36.2,45.5L36.2,45.5z"/>
		<path id="Shape_3_" class="icon-copywriting-st0" d="M28.8,24.2c-0.3,0-0.6-0.1-0.9-0.4l-7.5-7.5c-0.5-0.5-0.5-1.3,0-1.8c0.5-0.5,1.3-0.5,1.8,0
			l6.6,6.6L45.4,4.6c0.5-0.5,1.3-0.5,1.8,0s0.5,1.3,0,1.8L29.6,23.9C29.4,24.1,29.1,24.2,28.8,24.2L28.8,24.2z"/>
	</g>
</g>
</svg>
