<svg id="svg-frequency" xmlns="http://www.w3.org/2000/svg" viewBox="0 0 364.77 376.46">
  <defs>
    <style>
      .svg-frequency-cls-1, .svg-frequency-cls-13, .svg-frequency-cls-18, .svg-frequency-cls-22, .svg-frequency-cls-8 {
        fill: #272727;
      }

      .svg-frequency-cls-1, .svg-frequency-cls-3, .svg-frequency-cls-5, .svg-frequency-cls-7 {
        stroke: #222;
      }

      .svg-frequency-cls-1 {
        stroke-width: 5px;
      }

      .svg-frequency-cls-10, .svg-frequency-cls-12, .svg-frequency-cls-14, .svg-frequency-cls-15, .svg-frequency-cls-17, .svg-frequency-cls-19, .svg-frequency-cls-2, .svg-frequency-cls-20, .svg-frequency-cls-21, .svg-frequency-cls-23, .svg-frequency-cls-24, .svg-frequency-cls-3, .svg-frequency-cls-5, .svg-frequency-cls-7, .svg-frequency-cls-9 {
        fill: none;
      }

      .svg-frequency-cls-4 {
        fill: #fff;
      }

      .svg-frequency-cls-10, .svg-frequency-cls-15, .svg-frequency-cls-20, .svg-frequency-cls-5 {
        stroke-width: 2px;
      }

      .svg-frequency-cls-6 {
        fill: #222;
      }

      .svg-frequency-cls-12, .svg-frequency-cls-17, .svg-frequency-cls-21, .svg-frequency-cls-7 {
        stroke-width: 4px;
      }

      .svg-frequency-cls-10, .svg-frequency-cls-12, .svg-frequency-cls-8, .svg-frequency-cls-9 {
        stroke: #333;
      }

      .svg-frequency-cls-8 {
        stroke-width: 6px;
      }

      .svg-frequency-cls-11 {
        fill: #333;
      }

      .svg-frequency-cls-13, .svg-frequency-cls-14, .svg-frequency-cls-15, .svg-frequency-cls-17 {
        stroke: #535353;
      }

      .svg-frequency-cls-13, .svg-frequency-cls-18, .svg-frequency-cls-23, .svg-frequency-cls-24 {
        stroke-width: 8px;
      }

      .svg-frequency-cls-16 {
        fill: #535353;
      }

      .svg-frequency-cls-18, .svg-frequency-cls-19, .svg-frequency-cls-20, .svg-frequency-cls-21, .svg-frequency-cls-23, .svg-frequency-cls-24 {
        stroke: #fff;
      }

      .svg-frequency-cls-24 {
        stroke-linecap: round;
      }
    </style>
  </defs>
  <title>Frequency</title>
  <g id="svg-frequency_pages">
    <g id="svg-frequency_page-5">
      <path class="svg-frequency-cls-1" d="M153.53,229.78V3.42H335.34V168.27" transform="translate(-6.76 -0.92)"/>
      <g>
        <g>
          <rect class="svg-frequency-cls-2" x="258.67" y="88.25" width="69.42" height="50.11"/>
          <rect class="svg-frequency-cls-3" x="259.17" y="88.75" width="68.42" height="49.11"/>
        </g>
        <path class="svg-frequency-cls-4" d="M304.34,116.06l-5.54-3.42v6.85Z" transform="translate(-6.76 -0.92)"/>
        <g>
          <circle class="svg-frequency-cls-2" cx="293.75" cy="115.09" r="14.92"/>
          <circle class="svg-frequency-cls-5" cx="293.75" cy="115.09" r="13.92"/>
        </g>
      </g>
      <g>
        <g>
          <rect class="svg-frequency-cls-2" x="146.77" y="2.5" width="182.93" height="86.26"/>
          <rect class="svg-frequency-cls-3" x="147.27" y="3" width="181.93" height="85.26"/>
        </g>
        <path class="svg-frequency-cls-3" d="M214.33,60.22,226,43.7l10.46,10L253.16,32.8,275.6,60.22Z" transform="translate(-6.76 -0.92)"/>
        <g>
          <path class="svg-frequency-cls-2" d="M219,25.77A6.21,6.21,0,1,1,212.82,32,6.21,6.21,0,0,1,219,25.77Z" transform="translate(-6.76 -0.92)"/>
          <path class="svg-frequency-cls-6" d="M219,26.77A5.21,5.21,0,1,0,224.23,32,5.21,5.21,0,0,0,219,26.77m0-1A6.21,6.21,0,1,1,212.82,32,6.21,6.21,0,0,1,219,25.77Z" transform="translate(-6.76 -0.92)"/>
        </g>
      </g>
      <g>
        <rect class="svg-frequency-cls-2" x="147.04" y="88.25" width="112.66" height="114.34"/>
        <rect class="svg-frequency-cls-3" x="147.54" y="88.75" width="111.66" height="113.34"/>
      </g>
      <g>
        <line class="svg-frequency-cls-7" x1="164.47" y1="107.22" x2="241.57" y2="107.22"/>
        <line class="svg-frequency-cls-7" x1="164.47" y1="115.08" x2="232.76" y2="115.08"/>
        <line class="svg-frequency-cls-7" x1="164.47" y1="122.94" x2="241.57" y2="122.94"/>
        <line class="svg-frequency-cls-7" x1="164.47" y1="130.8" x2="232.76" y2="130.8"/>
        <line class="svg-frequency-cls-7" x1="164.47" y1="138.66" x2="209.08" y2="138.66"/>
      </g>
      <g>
        <line class="svg-frequency-cls-7" x1="164.47" y1="154.39" x2="241.57" y2="154.39"/>
        <line class="svg-frequency-cls-7" x1="164.47" y1="162.25" x2="232.76" y2="162.25"/>
        <line class="svg-frequency-cls-7" x1="164.47" y1="170.11" x2="241.57" y2="170.11"/>
        <line class="svg-frequency-cls-7" x1="164.47" y1="177.97" x2="232.76" y2="177.97"/>
        <line class="svg-frequency-cls-7" x1="164.47" y1="185.83" x2="209.08" y2="185.83"/>
      </g>
    </g>
    <g id="svg-frequency_page-4">
      <path class="svg-frequency-cls-8" d="M118.82,267.42v-252h202.4V198.94" transform="translate(-6.76 -0.92)"/>
      <g>
        <g>
          <rect class="svg-frequency-cls-2" x="236.62" y="109.96" width="77.28" height="55.79"/>
          <rect class="svg-frequency-cls-9" x="237.12" y="110.46" width="76.28" height="54.79"/>
        </g>
        <path class="svg-frequency-cls-4" d="M286.71,140.82,280.54,137v7.62Z" transform="translate(-6.76 -0.92)"/>
        <g>
          <circle class="svg-frequency-cls-2" cx="275.67" cy="139.84" r="16.61"/>
          <circle class="svg-frequency-cls-10" cx="275.67" cy="139.84" r="15.61"/>
        </g>
      </g>
      <g>
        <g>
          <rect class="svg-frequency-cls-2" x="112.06" y="14.5" width="203.64" height="96.03"/>
          <rect class="svg-frequency-cls-9" x="112.56" y="15" width="202.64" height="95.03"/>
        </g>
        <path class="svg-frequency-cls-9" d="M186.5,78.65l13-18.39,11.64,11.16,18.57-23.29,25,30.52Z" transform="translate(-6.76 -0.92)"/>
        <g>
          <path class="svg-frequency-cls-2" d="M191.73,40.3a6.91,6.91,0,1,1-6.91,6.91,6.91,6.91,0,0,1,6.91-6.91Z" transform="translate(-6.76 -0.92)"/>
          <path class="svg-frequency-cls-11" d="M191.73,41.3a5.91,5.91,0,1,0,5.91,5.91,5.92,5.92,0,0,0-5.91-5.91m0-1a6.91,6.91,0,1,1-6.91,6.91A6.91,6.91,0,0,1,191.73,40.3Z" transform="translate(-6.76 -0.92)"/>
        </g>
      </g>
      <g>
        <rect class="svg-frequency-cls-2" x="112.35" y="109.96" width="125.42" height="127.29"/>
        <rect class="svg-frequency-cls-9" x="112.85" y="110.46" width="124.42" height="126.29"/>
      </g>
      <g>
        <line class="svg-frequency-cls-12" x1="131.76" y1="131.08" x2="217.59" y2="131.08"/>
        <line class="svg-frequency-cls-12" x1="131.76" y1="139.83" x2="207.78" y2="139.83"/>
        <line class="svg-frequency-cls-12" x1="131.76" y1="148.58" x2="217.59" y2="148.58"/>
        <line class="svg-frequency-cls-12" x1="131.76" y1="157.33" x2="207.78" y2="157.33"/>
        <line class="svg-frequency-cls-12" x1="131.76" y1="166.08" x2="181.42" y2="166.08"/>
      </g>
      <g>
        <line class="svg-frequency-cls-12" x1="131.76" y1="183.58" x2="217.59" y2="183.58"/>
        <line class="svg-frequency-cls-12" x1="131.76" y1="192.33" x2="207.78" y2="192.33"/>
        <line class="svg-frequency-cls-12" x1="131.76" y1="201.09" x2="217.59" y2="201.09"/>
        <line class="svg-frequency-cls-12" x1="131.76" y1="209.84" x2="207.78" y2="209.84"/>
        <line class="svg-frequency-cls-12" x1="131.76" y1="218.59" x2="181.42" y2="218.59"/>
      </g>
    </g>
    <g id="svg-frequency_page-3">
      <path class="svg-frequency-cls-13" d="M79.79,309.2V32.42h222.3V234" transform="translate(-6.76 -0.92)"/>
      <g>
        <g>
          <rect class="svg-frequency-cls-2" x="209.85" y="136.35" width="84.88" height="61.28"/>
          <rect class="svg-frequency-cls-14" x="210.35" y="136.85" width="83.88" height="60.28"/>
        </g>
        <path class="svg-frequency-cls-4" d="M264.19,170.15,257.41,166v8.37Z" transform="translate(-6.76 -0.92)"/>
        <g>
          <circle class="svg-frequency-cls-2" cx="252.74" cy="169.16" r="18.25"/>
          <circle class="svg-frequency-cls-15" cx="252.74" cy="169.16" r="17.25"/>
        </g>
      </g>
      <g>
        <g>
          <rect class="svg-frequency-cls-2" x="73.03" y="31.5" width="223.67" height="105.47"/>
          <rect class="svg-frequency-cls-14" x="73.53" y="32" width="222.67" height="104.47"/>
        </g>
        <path class="svg-frequency-cls-14" d="M154.13,101.87l14.29-20.2,12.79,12.25,20.39-25.58L229,101.87Z" transform="translate(-6.76 -0.92)"/>
        <g>
          <path class="svg-frequency-cls-2" d="M159.87,59.75a7.59,7.59,0,1,1-7.59,7.59,7.59,7.59,0,0,1,7.59-7.59Z" transform="translate(-6.76 -0.92)"/>
          <path class="svg-frequency-cls-16" d="M159.87,60.75a6.59,6.59,0,1,0,6.59,6.59,6.6,6.6,0,0,0-6.59-6.59m0-1a7.59,7.59,0,1,1-7.59,7.59A7.59,7.59,0,0,1,159.87,59.75Z" transform="translate(-6.76 -0.92)"/>
        </g>
      </g>
      <g>
        <rect class="svg-frequency-cls-2" x="73.36" y="136.35" width="137.75" height="139.81"/>
        <rect class="svg-frequency-cls-14" x="73.86" y="136.85" width="136.75" height="138.81"/>
      </g>
      <g>
        <line class="svg-frequency-cls-17" x1="94.67" y1="159.55" x2="188.94" y2="159.55"/>
        <line class="svg-frequency-cls-17" x1="94.67" y1="169.16" x2="178.17" y2="169.16"/>
        <line class="svg-frequency-cls-17" x1="94.67" y1="178.77" x2="188.94" y2="178.77"/>
        <line class="svg-frequency-cls-17" x1="94.67" y1="188.38" x2="178.17" y2="188.38"/>
        <line class="svg-frequency-cls-17" x1="94.67" y1="197.99" x2="149.21" y2="197.99"/>
      </g>
      <g>
        <line class="svg-frequency-cls-17" x1="94.67" y1="217.21" x2="188.94" y2="217.21"/>
        <line class="svg-frequency-cls-17" x1="94.67" y1="226.83" x2="178.17" y2="226.83"/>
        <line class="svg-frequency-cls-17" x1="94.67" y1="236.44" x2="188.94" y2="236.44"/>
        <line class="svg-frequency-cls-17" x1="94.67" y1="246.05" x2="178.17" y2="246.05"/>
        <line class="svg-frequency-cls-17" x1="94.67" y1="255.66" x2="149.21" y2="255.66"/>
      </g>
    </g>
    <g id="svg-frequency_page-2">
      <path class="svg-frequency-cls-18" d="M49.76,338.37v-288H281V260.13" transform="translate(-6.76 -0.92)"/>
      <g>
        <g>
          <rect class="svg-frequency-cls-2" x="185.34" y="158.58" width="88.3" height="63.75"/>
          <rect class="svg-frequency-cls-19" x="185.84" y="159.08" width="87.3" height="62.75"/>
        </g>
        <path class="svg-frequency-cls-4" d="M241.61,193.71l-7.05-4.36v8.71Z" transform="translate(-6.76 -0.92)"/>
        <g>
          <circle class="svg-frequency-cls-2" cx="229.96" cy="192.72" r="18.98"/>
          <circle class="svg-frequency-cls-20" cx="229.96" cy="192.72" r="17.98"/>
        </g>
      </g>
      <g>
        <g>
          <rect class="svg-frequency-cls-2" x="43" y="49.5" width="232.69" height="109.73"/>
          <rect class="svg-frequency-cls-19" x="43.5" y="50" width="231.69" height="108.73"/>
        </g>
        <path class="svg-frequency-cls-19" d="M127.11,122.67l14.86-21,13.31,12.75,21.22-26.61L205,122.67Z" transform="translate(-6.76 -0.92)"/>
        <g>
          <path class="svg-frequency-cls-2" d="M133.08,78.85a7.9,7.9,0,1,1-7.9,7.9,7.9,7.9,0,0,1,7.9-7.9Z" transform="translate(-6.76 -0.92)"/>
          <path class="svg-frequency-cls-4" d="M133.08,79.85a6.9,6.9,0,1,0,6.9,6.9,6.9,6.9,0,0,0-6.9-6.9m0-1a7.9,7.9,0,1,1-7.9,7.9A7.9,7.9,0,0,1,133.08,78.85Z" transform="translate(-6.76 -0.92)"/>
        </g>
      </g>
      <g>
        <line class="svg-frequency-cls-21" x1="65.51" y1="182.72" x2="163.59" y2="182.72"/>
        <line class="svg-frequency-cls-21" x1="65.51" y1="192.72" x2="152.38" y2="192.72"/>
        <line class="svg-frequency-cls-21" x1="65.51" y1="202.71" x2="163.59" y2="202.71"/>
        <line class="svg-frequency-cls-21" x1="65.51" y1="212.71" x2="152.38" y2="212.71"/>
        <line class="svg-frequency-cls-21" x1="65.51" y1="222.71" x2="122.26" y2="222.71"/>
      </g>
      <g>
        <line class="svg-frequency-cls-21" x1="65.51" y1="242.71" x2="163.59" y2="242.71"/>
        <line class="svg-frequency-cls-21" x1="65.51" y1="252.71" x2="152.38" y2="252.71"/>
        <line class="svg-frequency-cls-21" x1="65.51" y1="262.71" x2="163.59" y2="262.71"/>
        <line class="svg-frequency-cls-21" x1="65.51" y1="272.71" x2="152.38" y2="272.71"/>
        <line class="svg-frequency-cls-21" x1="65.51" y1="282.7" x2="122.26" y2="282.7"/>
      </g>
    </g>
    <g id="svg-frequency_page-1">
      <path id="svg-frequency_page-1_border" class="svg-frequency-cls-18" d="M10.76,377.37V70.72H257V294" transform="translate(-6.76 -0.92)"/>
      <g id="svg-frequency_page-1_video-block">
        <g>
          <rect class="svg-frequency-cls-2" x="155.59" y="185.96" width="94.04" height="67.89"/>
          <rect class="svg-frequency-cls-19" x="156.09" y="186.46" width="93.04" height="66.89"/>
        </g>
        <path class="svg-frequency-cls-4" d="M215.06,223.32l-7.51-4.64V228Z" transform="translate(-6.76 -0.92)"/>
        <g>
          <circle class="svg-frequency-cls-2" cx="203.11" cy="222.32" r="20.21"/>
          <circle class="svg-frequency-cls-20" cx="203.11" cy="222.32" r="19.21"/>
        </g>
      </g>
      <g id="svg-frequency_page-1_image-block">
        <g>
          <rect class="svg-frequency-cls-2" x="4" y="69.8" width="247.8" height="116.86"/>
          <rect class="svg-frequency-cls-19" x="4.5" y="70.3" width="246.8" height="115.86"/>
        </g>
        <path class="svg-frequency-cls-19" d="M93.13,147.67,109,125.29l14.17,13.57,22.59-28.34,30.4,37.14Z" transform="translate(-6.76 -0.92)"/>
        <g>
          <path class="svg-frequency-cls-2" d="M99.49,101a8.41,8.41,0,1,1-8.41,8.41h0A8.41,8.41,0,0,1,99.49,101Z" transform="translate(-6.76 -0.92)"/>
          <path class="svg-frequency-cls-4" d="M99.49,102a7.41,7.41,0,1,0,7.41,7.41A7.42,7.42,0,0,0,99.49,102m0-1a8.41,8.41,0,1,1-8.41,8.41A8.41,8.41,0,0,1,99.49,101Z" transform="translate(-6.76 -0.92)"/>
        </g>
      </g>
      <g id="svg-frequency_page-1_text-block">
        <g>
          <rect class="svg-frequency-cls-2" x="4.36" y="185.96" width="152.62" height="154.89"/>
          <rect class="svg-frequency-cls-19" x="4.86" y="186.46" width="151.62" height="153.89"/>
        </g>
        <g>
          <line class="svg-frequency-cls-21" x1="27.97" y1="211.67" x2="132.42" y2="211.67"/>
          <line class="svg-frequency-cls-21" x1="27.97" y1="222.32" x2="120.48" y2="222.32"/>
          <line class="svg-frequency-cls-21" x1="27.97" y1="232.96" x2="132.42" y2="232.96"/>
          <line class="svg-frequency-cls-21" x1="27.97" y1="243.61" x2="120.48" y2="243.61"/>
          <line class="svg-frequency-cls-21" x1="27.97" y1="254.26" x2="88.4" y2="254.26"/>
        </g>
        <g>
          <line class="svg-frequency-cls-21" x1="27.97" y1="275.56" x2="132.42" y2="275.56"/>
          <line class="svg-frequency-cls-21" x1="27.97" y1="286.21" x2="120.48" y2="286.21"/>
          <line class="svg-frequency-cls-21" x1="27.97" y1="296.85" x2="132.42" y2="296.85"/>
          <line class="svg-frequency-cls-21" x1="27.97" y1="307.5" x2="120.48" y2="307.5"/>
          <line class="svg-frequency-cls-21" x1="27.97" y1="318.15" x2="88.4" y2="318.15"/>
        </g>
      </g>
    </g>
  </g>
  <g id="svg-frequency_clock">
    <g id="svg-frequency_clock_border">
      <circle class="svg-frequency-cls-22" cx="296.77" cy="288.5" r="68"/>
      <circle class="svg-frequency-cls-23" cx="296.77" cy="288.5" r="64"/>
    </g>
    <line id="svg-frequency_clock_minute-hand" class="svg-frequency-cls-24" x1="297.27" y1="292.01" x2="297.27" y2="244.84"/>
    <line id="svg-frequency_clock_hour-hand" class="svg-frequency-cls-24" x1="297.27" y1="292.01" x2="327.11" y2="318"/>
  </g>
</svg>
