<?xml version="1.0" encoding="utf-8"?>
<!-- Generator: Adobe Illustrator 21.1.0, SVG Export Plug-In . SVG Version: 6.00 Build 0)  -->
<svg version="1.1" id="Layer_1" xmlns="http://www.w3.org/2000/svg" xmlns:xlink="http://www.w3.org/1999/xlink" x="0px" y="0px"
	 viewBox="0 0 43 43" style="enable-background:new 0 0 43 43;" xml:space="preserve">
<style type="text/css">
	.icon-social-strategy-st0{fill:currentColor;}
</style>
<title>social strategu</title>
<desc>Created with Sketch.</desc>
<g id="The-Yearly-Carnage" transform="translate(-596.000000, -5101.000000)">
	<g id="social-strategu" transform="translate(596.333333, 5101.000000)">
		<path id="Shape" class="icon-social-strategy-st0" d="M25.9,15.8c-0.6,0-1.1-0.5-1.1-1.1c0-3.1-2.5-5.6-5.6-5.6C18.5,9,18,8.5,18,7.9s0.5-1.1,1.1-1.1
			c3.1,0,5.6-2.5,5.6-5.6c0-0.6,0.5-1.1,1.1-1.1S27,0.5,27,1.1c0,3.1,2.5,5.6,5.6,5.6c0.6,0,1.1,0.5,1.1,1.1S33.2,9,32.6,9
			c-3.1,0-5.6,2.5-5.6,5.6C27,15.2,26.5,15.8,25.9,15.8z M23.2,7.9c1.1,0.7,2,1.6,2.7,2.7c0.7-1.1,1.6-2,2.7-2.7
			c-1.1-0.7-2-1.6-2.7-2.7C25.2,6.3,24.3,7.2,23.2,7.9z"/>
		<path id="Shape_1_" class="icon-social-strategy-st0" d="M3.4,22.5c-0.6,0-1.1-0.5-1.1-1.1s-0.5-1.1-1.1-1.1S0,19.7,0,19.1S0.5,18,1.1,18
			s1.1-0.5,1.1-1.1s0.5-1.1,1.1-1.1s1.1,0.5,1.1,1.1S5,18,5.6,18s1.1,0.5,1.1,1.1s-0.5,1.1-1.1,1.1s-1.1,0.5-1.1,1.1
			S4,22.5,3.4,22.5z"/>
		<path id="Shape_2_" class="icon-social-strategy-st0" d="M40.8,35.9L17,12c-0.6-0.6-1.5-1-2.4-1s-1.8,0.4-2.4,1l-1.3,1.3c-0.6,0.6-1,1.5-1,2.4
			c0,0.9,0.4,1.8,1,2.4L34.7,42c0.6,0.6,1.5,1,2.4,1s1.8-0.4,2.4-1l1.3-1.3c0.6-0.6,1-1.5,1-2.4S41.5,36.5,40.8,35.9z M12.5,15
			l1.3-1.3c0.2-0.2,0.5-0.3,0.8-0.3s0.6,0.1,0.8,0.3l3.2,3.2l-2.9,2.9l-3.2-3.2C12.1,16.1,12.1,15.4,12.5,15L12.5,15z M39.2,39
			l-1.3,1.3c-0.2,0.2-0.5,0.3-0.8,0.3s-0.6-0.1-0.8-0.3l-19-19l2.9-2.9l19,19C39.7,37.9,39.7,38.6,39.2,39L39.2,39z"/>
		<path id="Shape_3_" class="icon-social-strategy-st0" d="M7.9,11.2c-0.6,0-1.1-0.5-1.1-1.1c0-1.9-1.5-3.4-3.4-3.4c-0.6,0-1.1-0.5-1.1-1.1
			s0.5-1.1,1.1-1.1c1.9,0,3.4-1.5,3.4-3.4C6.8,0.5,7.3,0,7.9,0S9,0.5,9,1.1c0,1.9,1.5,3.4,3.4,3.4c0.6,0,1.1,0.5,1.1,1.1
			S13,6.8,12.4,6.8C10.5,6.8,9,8.3,9,10.1C9,10.7,8.5,11.2,7.9,11.2z M6.7,5.6c0.4,0.3,0.8,0.7,1.1,1.1C8.2,6.3,8.6,5.9,9,5.6
			C8.6,5.3,8.2,4.9,7.9,4.5C7.6,4.9,7.2,5.3,6.7,5.6z"/>
		<path id="Shape_4_" class="icon-social-strategy-st0" d="M7.9,33.8c-0.6,0-1.1-0.5-1.1-1.1c0-1.9-1.5-3.4-3.4-3.4c-0.6,0-1.1-0.5-1.1-1.1S2.8,27,3.4,27
			c1.9,0,3.4-1.5,3.4-3.4c0-0.6,0.5-1.1,1.1-1.1S9,23,9,23.6c0,1.9,1.5,3.4,3.4,3.4c0.6,0,1.1,0.5,1.1,1.1s-0.5,1.1-1.1,1.1
			c-1.9,0-3.4,1.5-3.4,3.4C9,33.2,8.5,33.8,7.9,33.8z M6.7,28.1c0.4,0.3,0.8,0.7,1.1,1.1c0.3-0.4,0.7-0.8,1.1-1.1
			c-0.4-0.3-0.8-0.7-1.1-1.1C7.6,27.4,7.2,27.8,6.7,28.1z"/>
	</g>
</g>
</svg>
