<svg id="svg-distribution" xmlns="http://www.w3.org/2000/svg" viewBox="0 0 378.29 302.37">
  <defs>
    <style>
      .svg-distribution-cls-4,.svg-distribution-cls-6,.svg-distribution-cls-7,.svg-distribution-cls-8{stroke:#fff;fill:none}.svg-distribution-cls-5{fill:#fff}.svg-distribution-cls-6{stroke-width:1px}.svg-distribution-cls-7{stroke-width:4px}.cls-8{stroke-width:3px;stroke-dasharray:10 5;isolation:isolate}
    </style>
  </defs>
  <g id="svg-distribution_page" class="cls-1">
    <path d="M118.38 213.29V4.04h168.1v152.38" stroke="#fff" fill="#272727" stroke-width="3"/>
    <rect class="svg-distribution-cls-4" x="223" y="88" width="60" height="46.33"/>
    <path class="svg-distribution-cls-5 triangle" d="M257.82 146.11l-5.12-3.17v6.33z" transform="translate(0 -34.96)"/>
    <circle class="svg-distribution-cls-6" cx="254.27" cy="111.1" r="12"/>
    <rect class="svg-distribution-cls-4" x="122" y="8" width="161.13" height="77.76"/>
    <path class="svg-distribution-cls-4 mountain" d="M174.59 94.48l10.8-15.27 9.67 9.26 15.42-19.34 20.75 25.35z" transform="translate(0 -37.96)"/>
    <circle class="svg-distribution-cls-6 sun" cx="178.93" cy="30.1" r="5"/>
    <rect class="svg-distribution-cls-4" x="122" y="88" width="98.16" height="104.72"/>
    <g class="text">
      <line class="svg-distribution-cls-7 l1" x1="134.74" y1="100.83" x2="206.03" y2="100.83"/>
      <line class="svg-distribution-cls-7 l2" x1="134.74" y1="108.09" x2="197.88" y2="108.09"/>
      <line class="svg-distribution-cls-7 l3" x1="134.74" y1="115.36" x2="206.03" y2="115.36"/>
      <line class="svg-distribution-cls-7 l4" x1="134.74" y1="122.63" x2="197.88" y2="122.63"/>
      <line class="svg-distribution-cls-7 l5" x1="134.74" y1="129.9" x2="175.98" y2="129.9"/>
      <line class="svg-distribution-cls-7" x1="134.74" y1="144.43" x2="206.03" y2="144.43"/>
      <line class="svg-distribution-cls-7" x1="134.74" y1="151.7" x2="197.88" y2="151.7"/>
      <line class="svg-distribution-cls-7" x1="134.74" y1="158.97" x2="206.03" y2="158.97"/>
      <line class="svg-distribution-cls-7" x1="134.74" y1="166.23" x2="197.88" y2="166.23"/>
      <line class="svg-distribution-cls-7" x1="134.74" y1="173.5" x2="175.98" y2="173.5"/>
    </g>
  </g>
  <g id="svg-distribution_social-icons">
    <path class="svg-distribution-cls-5" d="M237.24 272.05h-72.3c-4.94 0-9 4.39-9 9.88v48.51c0 5.49 4 9.89 9 9.89h72.31c4.94 0 9-4.39 9-9.89v-48.32c-.04-5.49-4.07-10.07-9.01-10.07zm-4.58 6.77l-30.2 21.42a2.75 2.75 0 0 1-3.3 0l-30.39-21.42zm4.58 55.1h-72.3a3.1 3.1 0 0 1-2.93-3.26v-49.09l34.23 24.16a8.22 8.22 0 0 0 4.94 1.46 9.7 9.7 0 0 0 4.94-1.46l34.23-24.16v49.06a3.25 3.25 0 0 1-3.11 3.29z" transform="translate(0 -37.96)" id="svg-distribution_email-icon"/>
    <g id="svg-distribution_facebook-icon">
      <path class="svg-distribution-cls-5" d="M352.45 188.82a1.73 1.73 0 0 1 1.74 1.22l.17.52v.17c1.57 3.83 3.83 9.58-5.4 23a5.55 5.55 0 0 0-1 3 6.19 6.19 0 0 0 .35 1.74c1 2.61 4.36 3.83 10.45 3.83h4a16.28 16.28 0 0 1 5.92 1c1.57.7 4.36 1.92 4.88 4.18.17 1.22.35 3.31-.7 4.36a4.37 4.37 0 0 0-.35 6.1 5 5 0 0 1 1.22 3.14c0 .52-.17 1.74-2.09 3.31h-.17l-.17.17a4.54 4.54 0 0 0-.87 5.92c.7 1 .52 2.61-.52 4.88-.17.17-.17.35-.35.35a4.39 4.39 0 0 0-1.74 5.23 3 3 0 0 1 .17 1.22 3.68 3.68 0 0 1-3.66 3.66l-42 .52H322a5 5 0 0 1-2-1.34 4.36 4.36 0 0 0-3.13-1.4h-3.14a4 4 0 0 0-3.83 2.44 2.36 2.36 0 0 1-1.92 1.22h-17.21a2.31 2.31 0 0 1-2.27-2.26v-34.89a2.68 2.68 0 0 1 2.61-2.61h18.47a2.62 2.62 0 0 1 2.44 1.74 4.3 4.3 0 0 0 4 2.79h3.66a4 4 0 0 0 3.49-1.92c3.14-4.36 11.5-16.2 12.89-17.6.52-.52 1.22-1 1.74-1.57a27.52 27.52 0 0 0 2.79-2.44l.87-.87c7-7.66 10.11-13.24 9.93-17.77v-.35a1 1 0 0 1 .52-.87 1.35 1.35 0 0 0 .52.17m0-4.36a2.21 2.21 0 0 0-1 .17 5 5 0 0 0-4 5.58c.17 4.7-6.62 12.2-8.71 14.64l-.87.87a20.88 20.88 0 0 1-2.09 1.92 22.07 22.07 0 0 0-2.26 1.92c-1.74 1.74-11.33 15.16-13.42 18.12h-3.66a7 7 0 0 0-6.62-4.53h-18.68a7 7 0 0 0-7 7v35a6.62 6.62 0 0 0 6.61 6.62H308a6.77 6.77 0 0 0 5.92-3.66h3.14c2.09 2.44 4 2.79 4.88 2.79h.35l42.34-.52a7.85 7.85 0 0 0 7.84-7.85v-.16a7.22 7.22 0 0 0-.52-2.79 6 6 0 0 0 1.74-1.92c2.61-4.88 1.39-7.84.35-9.41l.52-.52c2.26-2.09 3.49-4.18 3.66-6.62A9.75 9.75 0 0 0 376 235c1.22-1.22 3-3.66 2.09-8.36-.52-3.14-3.14-5.75-7.49-7.32a22.76 22.76 0 0 0-7.49-1.39h-4c-4.88 0-6.45-.87-6.45-1 0 0 0-.17.35-.7 10.46-15.33 7.49-22.65 5.75-27l-.17-.52a6.83 6.83 0 0 0-6.14-4.25z" transform="translate(0 -37.96)"/>
      <path d="M315.33 229.76v35.37" transform="translate(0 -37.96)" stroke-linecap="round" fill="none" stroke="#fff"/>
      <circle class="svg-distribution-cls-5" cx="303.31" cy="222.99" r="2.61"/>
    </g>
    <path id="svg-distribution_twitter-icon" class="svg-distribution-cls-5" d="M86.52 209.48a35.86 35.86 0 0 1-10.23 2.82 17.93 17.93 0 0 0 7.85-9.88 35.71 35.71 0 0 1-11.29 4.32 17.84 17.84 0 0 0-30.78 12.17 20.41 20.41 0 0 0 .44 4.06 50.52 50.52 0 0 1-36.6-18.52 17.82 17.82 0 0 0 5.56 23.72 17.6 17.6 0 0 1-8-2.2v.18a17.88 17.88 0 0 0 14.29 17.46 16.6 16.6 0 0 1-4.67.62 14 14 0 0 1-3.35-.35 17.86 17.86 0 0 0 16.58 12.35 35.68 35.68 0 0 1-22 7.58 34.1 34.1 0 0 1-4.32-.26 50.34 50.34 0 0 0 27.25 7.94c32.72 0 50.54-27.08 50.54-50.54a19.93 19.93 0 0 0-.09-2.29 34.94 34.94 0 0 0 8.82-9.18z" transform="translate(0 -37.96)"/>
  </g>
</svg>
