<?xml version="1.0" encoding="utf-8"?>
<!-- Generator: Adobe Illustrator 21.1.0, SVG Export Plug-In . SVG Version: 6.00 Build 0)  -->
<svg version="1.1" id="Layer_1" xmlns="http://www.w3.org/2000/svg" xmlns:xlink="http://www.w3.org/1999/xlink" x="0px" y="0px"
	 viewBox="0 0 45 45" style="enable-background:new 0 0 45 45;" xml:space="preserve">
<style type="text/css">
	.icon-content-curation-st0{opacity:0.9;}
	.icon-content-curation-st1{filter:url(#filter-3);}
	.icon-content-curation-st2{fill:currentColor;}
</style>
<filter  filterUnits="objectBoundingBox" height="433.3%" id="filter-3" width="433.3%" x="-166.7%" y="-133.3%">
	<feOffset  dx="0" dy="15" in="SourceAlpha" result="shadowOffsetOuter1"></feOffset>
	<feGaussianBlur  in="shadowOffsetOuter1" result="shadowBlurOuter1" stdDeviation="22.5"></feGaussianBlur>
	<feColorMatrix  in="shadowBlurOuter1" type="matrix" values="0 0 0 0 0   0 0 0 0 0   0 0 0 0 0  0 0 0 0.1 0"></feColorMatrix>
</filter>
<title>content-curation</title>
<desc>Created with Sketch.</desc>
<g id="The-Yearly-Carnage" transform="translate(-196.000000, -4820.000000)" class="icon-content-curation-st0">
	<g id="content-curation" transform="translate(238.000000, 4847.000000)">
		<g id="Shape">
			<g class="icon-content-curation-st1">
				<path id="path-2_2_" d="M1.8-17.5h-7.1c0.7-1,1.2-2.2,1.2-3.6c0-3.3-2.7-5.9-5.9-5.9c-3.3,0-6.1,2.6-7.4,4.2
					c-0.8,0.9-1.5,1.9-2.1,2.9c-0.5-1-1.2-2-2.1-2.9c-1.4-1.6-4.1-4.2-7.4-4.2c-3.3,0-5.9,2.7-5.9,5.9c0,1.3,0.4,2.6,1.2,3.6h-7.1
					c-0.7,0-1.2,0.5-1.2,1.2v7.1c0,0.7,0.5,1.2,1.2,1.2h1.2v22.5c0,2,1.6,3.6,3.6,3.6h33.2c2,0,3.6-1.6,3.6-3.6V-8.1h1.2
					C2.5-8.1,3-8.6,3-9.2v-7.1C3-17,2.5-17.5,1.8-17.5z M-15.6-21.3c1.9-2.1,3.9-3.3,5.6-3.3c2,0,3.6,1.6,3.6,3.6s-1.6,3.6-3.6,3.6
					h-8C-17.6-18.6-16.8-20-15.6-21.3z M-15.9,15.6h-7.1v-30.8h7.1V15.6z M-32.5-21.1c0-2,1.6-3.6,3.6-3.6c1.7,0,3.8,1.2,5.6,3.3
					c1.1,1.3,2,2.7,2.4,3.8h-8C-30.9-17.5-32.5-19.1-32.5-21.1z M-39.6-15.2h14.2v4.7h-14.2V-15.2z M-37.3,14.4V-8.1h11.8v23.7
					h-10.7C-36.7,15.6-37.3,15.1-37.3,14.4z M-1.7,14.4c0,0.7-0.5,1.2-1.2,1.2h-10.7V-8.1h11.8V14.4z M0.6-10.4h-14.2v-4.7H0.6
					V-10.4z"/>
			</g>
			<g>
				<path id="path-2_1_" class="icon-content-curation-st2" d="M1.8-17.5h-7.1c0.7-1,1.2-2.2,1.2-3.6c0-3.3-2.7-5.9-5.9-5.9c-3.3,0-6.1,2.6-7.4,4.2
					c-0.8,0.9-1.5,1.9-2.1,2.9c-0.5-1-1.2-2-2.1-2.9c-1.4-1.6-4.1-4.2-7.4-4.2c-3.3,0-5.9,2.7-5.9,5.9c0,1.3,0.4,2.6,1.2,3.6h-7.1
					c-0.7,0-1.2,0.5-1.2,1.2v7.1c0,0.7,0.5,1.2,1.2,1.2h1.2v22.5c0,2,1.6,3.6,3.6,3.6h33.2c2,0,3.6-1.6,3.6-3.6V-8.1h1.2
					C2.5-8.1,3-8.6,3-9.2v-7.1C3-17,2.5-17.5,1.8-17.5z M-15.6-21.3c1.9-2.1,3.9-3.3,5.6-3.3c2,0,3.6,1.6,3.6,3.6s-1.6,3.6-3.6,3.6
					h-8C-17.6-18.6-16.8-20-15.6-21.3z M-15.9,15.6h-7.1v-30.8h7.1V15.6z M-32.5-21.1c0-2,1.6-3.6,3.6-3.6c1.7,0,3.8,1.2,5.6,3.3
					c1.1,1.3,2,2.7,2.4,3.8h-8C-30.9-17.5-32.5-19.1-32.5-21.1z M-39.6-15.2h14.2v4.7h-14.2V-15.2z M-37.3,14.4V-8.1h11.8v23.7
					h-10.7C-36.7,15.6-37.3,15.1-37.3,14.4z M-1.7,14.4c0,0.7-0.5,1.2-1.2,1.2h-10.7V-8.1h11.8V14.4z M0.6-10.4h-14.2v-4.7H0.6
					V-10.4z"/>
			</g>
		</g>
	</g>
</g>
</svg>
