<svg id="svg-style" xmlns="http://www.w3.org/2000/svg" viewBox="0 0 238.88 274.88">
  <defs>
    <style>
      .svg-style-cls-1 {
        opacity: 0.1;
      }

      .svg-style-cls-2 {
        fill: #fff;
      }

      .svg-style-cls-3 {
        fill: none;
        stroke: #fff;
        stroke-width: 4px;
      }
    </style>
  </defs>
  <title>Style</title>
  <g id="svg-style_head" class="svg-style-cls-1">
    <path class="svg-style-cls-2" d="M77.14,233.91a24.67,24.67,0,0,0,3.54,1.52L91.82,239v33.4a25.06,25.06,0,0,0,24.82,25.3H151l6.58,23.28c1,3.54,4,6.07,7.59,5.57,4.56-.51,7.59-5.06,6.07-9.11l-8.6-28.34A7,7,0,0,0,156.1,284H116.62a11.23,11.23,0,0,1-11.13-11.13v-39a7,7,0,0,0-5.06-6.58l-15.69-5.06c-1,0-1.52-1-1-2h0l16.7-37.45A59.59,59.59,0,0,0,105.48,160a94.28,94.28,0,0,1,94.13-94.13h1a93.21,93.21,0,0,1,93.63,92.78q0,.67,0,1.35c0,24.29-9.62,47.07-26.32,64.78-1.52,2-2.53,4.55-1.52,7.09l15.18,53.65a7.6,7.6,0,0,0,7.59,5.57c4.55-.51,7.59-5.06,6.07-9.11h0L281.1,231.38c19.23-21.26,28.85-49.6,27.33-78.44A108,108,0,0,0,200.63,51.71h-.51A107.79,107.79,0,0,0,91.32,158.46q0,.52,0,1h0a40.35,40.35,0,0,1-3.54,17.21l-16.7,36.94C68,220.75,70.06,228.84,77.14,233.91Z" transform="translate(-69.7 -51.7)"/>
  </g>
  <g id="svg-style_equalizer">
    <g id="svg-style_equalizer_bars">
      <line class="svg-style-cls-3" x1="76.4" y1="101.96" x2="76.4" y2="101.96"/>
      <line class="svg-style-cls-3" x1="89.007" y1="101.96" x2="89.007" y2="101.96"/>
      <line class="svg-style-cls-3" x1="101.613" y1="101.96" x2="101.613" y2="101.96"/>
      <line class="svg-style-cls-3" x1="114.22" y1="101.96" x2="114.22" y2="101.96"/>
      <line class="svg-style-cls-3" x1="126.827" y1="101.96" x2="126.827" y2="101.96"/>
      <line class="svg-style-cls-3" x1="139.434" y1="101.96" x2="139.434" y2="101.96"/>
      <line class="svg-style-cls-3" x1="152.04" y1="101.96" x2="152.04" y2="101.96"/>
      <line class="svg-style-cls-3" x1="164.647" y1="101.96" x2="164.647" y2="101.96"/>
      <line class="svg-style-cls-3" x1="177.254" y1="101.96" x2="177.254" y2="101.96"/>
      <line class="svg-style-cls-3" x1="189.86" y1="101.96" x2="189.86" y2="101.96"/>
    </g>
    <line class="svg-style-cls-3" x1="67.78" y1="101.96" x2="35.48" y2="101.96"/>
    <line class="svg-style-cls-3" x1="223.27" y1="101.96" x2="199.13" y2="101.96"/>
  </g>
</svg>
