<svg id="svg-audience" xmlns="http://www.w3.org/2000/svg" viewBox="0 0 283.99 287.56">
  <defs>
    <style>
      .svg-audience-cls-1 {
        fill: #fff;
      }

      .svg-audience-cls-2 {
        fill: none;
        stroke: #fff;
        stroke-width: 2px;
        stroke-dasharray: 10 5;
        opacity: 0.2;
        isolation: isolate;
      }
    </style>
  </defs>
  <title>Audience</title>
  <g id="svg-audience_users">
    <g id="svg-audience_user-5">
      <path id="svg-audience_user-5_head" class="svg-audience-cls-1" d="M48.92,177.82a5.88,5.88,0,0,0,.84.36l2.66.85v8a6,6,0,0,0,5.92,6h8.21l1.57,5.55a1.69,1.69,0,0,0,1.81,1.33,1.67,1.67,0,0,0,1.45-2.17L69.33,191a1.67,1.67,0,0,0-1.57-1.21H58.34a2.68,2.68,0,0,1-2.66-2.66v-9.3a1.67,1.67,0,0,0-1.21-1.57L50.74,175c-.24,0-.36-.24-.24-.48h0l4-8.93a14.22,14.22,0,0,0,1.21-5.43,22.49,22.49,0,0,1,22.45-22.45h.24a22.23,22.23,0,0,1,22.34,22.13q0,.16,0,.33a22.46,22.46,0,0,1-6.28,15.45,1.73,1.73,0,0,0-.36,1.69l3.62,12.8a1.81,1.81,0,0,0,1.81,1.32,1.67,1.67,0,0,0,1.45-2.17h0l-3.38-12.07a25.7,25.7,0,0,0-19.2-42.86h-.12a25.71,25.71,0,0,0-26,25.47q0,.12,0,.25h0a9.63,9.63,0,0,1-.85,4.1l-4,8.81A3.91,3.91,0,0,0,48.92,177.82Z" transform="translate(-47.15 -45.36)"/>
      </g>
      <g id="svg-audience_user-4">
        <path id="svg-audience_user-4_head" class="svg-audience-cls-1" d="M88.92,310.82a5.88,5.88,0,0,0,.84.36l2.66.85v8a6,6,0,0,0,5.92,6h8.21l1.57,5.55a1.69,1.69,0,0,0,1.81,1.33,1.67,1.67,0,0,0,1.45-2.17L109.33,324a1.67,1.67,0,0,0-1.57-1.21H98.34a2.68,2.68,0,0,1-2.66-2.66v-9.3a1.67,1.67,0,0,0-1.21-1.57L90.74,308c-.24,0-.36-.24-.24-.48h0l4-8.93a14.22,14.22,0,0,0,1.21-5.43,22.49,22.49,0,0,1,22.45-22.45h.24a22.23,22.23,0,0,1,22.34,22.13q0,.16,0,.33a22.46,22.46,0,0,1-6.28,15.45,1.73,1.73,0,0,0-.36,1.69l3.62,12.8a1.81,1.81,0,0,0,1.81,1.32,1.67,1.67,0,0,0,1.45-2.17h0l-3.38-12.07a25.7,25.7,0,0,0-19.2-42.86h-.12a25.71,25.71,0,0,0-26,25.47q0,.12,0,.25h0a9.63,9.63,0,0,1-.85,4.1l-4,8.81A3.91,3.91,0,0,0,88.92,310.82Z" transform="translate(-47.15 -45.36)"/>
      <g id="svg-audience_user-4_cart">
        <path class="svg-audience-cls-1" d="M124.42,297.06a3.74,3.74,0,0,0,3.74-3.62v-6.15a1.65,1.65,0,0,0-1.61-1.69H111.26v-2.9a1.86,1.86,0,0,0-1.81-1.81h-4c-.24,0-.36.12-.6.24-1.33,1.45-.36,3.14,1.09,3.14h1.69a.39.39,0,0,1,.36.36v13.76a4.84,4.84,0,0,0,4.83,4.83h12.91a1.59,1.59,0,0,0,1.69-1.33,1.79,1.79,0,0,0-1.37-2.13l-.32,0h-13a1.4,1.4,0,0,1-1.45-1.35s0-.07,0-.1v-1.21ZM111.26,289h13.52v4.47a.26.26,0,0,1-.24.24H111.26Z" transform="translate(-47.15 -45.36)"/>
        <circle class="svg-audience-cls-1" cx="66.52" cy="262.69" r="2.29"/>
        <circle class="svg-audience-cls-1" cx="75.82" cy="262.69" r="2.29"/>
      </g>
    </g>
    <g id="svg-audience_user-3">
      <path id="svg-audience_user-3_head" class="svg-audience-cls-1" d="M235.92,310.82a5.88,5.88,0,0,0,.84.36l2.66.85v8a6,6,0,0,0,5.92,6h8.21l1.57,5.55a1.69,1.69,0,0,0,1.81,1.33,1.67,1.67,0,0,0,1.45-2.17L256.33,324a1.67,1.67,0,0,0-1.57-1.21h-9.42a2.68,2.68,0,0,1-2.66-2.66v-9.3a1.67,1.67,0,0,0-1.21-1.57L237.74,308c-.24,0-.36-.24-.24-.48h0l4-8.93a14.22,14.22,0,0,0,1.21-5.43,22.49,22.49,0,0,1,22.45-22.45h.24a22.23,22.23,0,0,1,22.34,22.13q0,.16,0,.33a22.46,22.46,0,0,1-6.28,15.45,1.73,1.73,0,0,0-.36,1.69l3.62,12.8a1.81,1.81,0,0,0,1.81,1.32,1.67,1.67,0,0,0,1.45-2.17h0l-3.38-12.07a25.7,25.7,0,0,0-19.2-42.86h-.12a25.71,25.71,0,0,0-26,25.47q0,.12,0,.25h0a9.63,9.63,0,0,1-.85,4.1l-4,8.81A3.91,3.91,0,0,0,235.92,310.82Z" transform="translate(-47.15 -45.36)"/>
    </g>
    <g id="svg-audience_user-2">
      <path id="svg-audience_user-2_head" class="svg-audience-cls-1" d="M275.92,177.82a5.88,5.88,0,0,0,.84.36l2.66.85v8a6,6,0,0,0,5.92,6h8.21l1.57,5.55a1.69,1.69,0,0,0,1.81,1.33,1.67,1.67,0,0,0,1.45-2.17L296.33,191a1.67,1.67,0,0,0-1.57-1.21h-9.42a2.68,2.68,0,0,1-2.66-2.66v-9.3a1.67,1.67,0,0,0-1.21-1.57L277.74,175c-.24,0-.36-.24-.24-.48h0l4-8.93a14.22,14.22,0,0,0,1.21-5.43,22.49,22.49,0,0,1,22.45-22.45h.24a22.23,22.23,0,0,1,22.34,22.13q0,.16,0,.33a22.46,22.46,0,0,1-6.28,15.45,1.73,1.73,0,0,0-.36,1.69l3.62,12.8a1.81,1.81,0,0,0,1.81,1.32,1.67,1.67,0,0,0,1.45-2.17h0l-3.38-12.07a25.7,25.7,0,0,0-19.2-42.86h-.12a25.71,25.71,0,0,0-26,25.47q0,.12,0,.25h0a9.63,9.63,0,0,1-.85,4.1l-4,8.81A3.91,3.91,0,0,0,275.92,177.82Z" transform="translate(-47.15 -45.36)"/>
    </g>
    <g id="svg-audience_user-1">
      <path id="svg-audience_user-1_head" class="svg-audience-cls-1" d="M156.92,88.82a5.88,5.88,0,0,0,.84.36l2.66.85v8a6,6,0,0,0,5.92,6h8.21l1.57,5.55a1.69,1.69,0,0,0,1.81,1.33,1.67,1.67,0,0,0,1.45-2.17L177.33,102a1.67,1.67,0,0,0-1.57-1.21h-9.42a2.68,2.68,0,0,1-2.66-2.66v-9.3a1.67,1.67,0,0,0-1.21-1.57L158.74,86c-.24,0-.36-.24-.24-.48h0l4-8.93a14.22,14.22,0,0,0,1.21-5.43,22.49,22.49,0,0,1,22.45-22.45h.24a22.23,22.23,0,0,1,22.34,22.13q0,.16,0,.33a22.46,22.46,0,0,1-6.28,15.45,1.73,1.73,0,0,0-.36,1.69l3.62,12.8a1.81,1.81,0,0,0,1.81,1.32,1.67,1.67,0,0,0,1.45-2.17h0l-3.38-12.07a25.7,25.7,0,0,0-19.2-42.86h-.12a25.71,25.71,0,0,0-26,25.47q0,.12,0,.25h0a9.63,9.63,0,0,1-.85,4.1l-4,8.81A3.91,3.91,0,0,0,156.92,88.82Z" transform="translate(-47.15 -45.36)"/>
      <g id="svg-audience_user-1_cart">
        <path class="svg-audience-cls-1" d="M192.42,75.06a3.74,3.74,0,0,0,3.74-3.62V65.28a1.65,1.65,0,0,0-1.61-1.69H179.26v-2.9a1.86,1.86,0,0,0-1.81-1.81h-4c-.24,0-.36.12-.6.24-1.33,1.45-.36,3.14,1.09,3.14h1.69a.39.39,0,0,1,.36.36V76.39a4.84,4.84,0,0,0,4.83,4.83h12.91a1.59,1.59,0,0,0,1.69-1.33,1.79,1.79,0,0,0-1.37-2.13l-.32,0h-13a1.4,1.4,0,0,1-1.45-1.35s0-.07,0-.1V75.06ZM179.26,67h13.52v4.47a.26.26,0,0,1-.24.24H179.26Z" transform="translate(-47.15 -45.36)"/>
        <circle class="svg-audience-cls-1" cx="134.52" cy="40.69" r="2.29"/>
        <circle class="svg-audience-cls-1" cx="143.82" cy="40.69" r="2.29"/>
      </g>
    </g>
  </g>
  <g id="svg-audience_lines">
    <line class="svg-audience-cls-2" x1="143.83" y1="65.22" x2="143.83" y2="154.22"/>
    <line class="svg-audience-cls-2" x1="226.83" y1="135.22" x2="143.83" y2="154.22"/>
    <line class="svg-audience-cls-2" x1="199.83" y1="228.22" x2="143.83" y2="154.22"/>
    <line class="svg-audience-cls-2" x1="90.83" y1="222.22" x2="143.83" y2="154.22"/>
    <line class="svg-audience-cls-2" x1="143.83" y1="154.22" x2="56.83" y2="122.22"/>
  </g>
  <circle id="svg-audience_circle" class="svg-audience-cls-1" cx="143.33" cy="155.72" r="8"/>
</svg>
