<?xml version="1.0" encoding="utf-8"?>
<!-- Generator: Adobe Illustrator 21.1.0, SVG Export Plug-In . SVG Version: 6.00 Build 0)  -->
<svg version="1.1" id="Layer_1" xmlns="http://www.w3.org/2000/svg" xmlns:xlink="http://www.w3.org/1999/xlink" x="0px" y="0px"
	 viewBox="0 0 56.2 56.2" style="enable-background:new 0 0 56.2 56.2;" xml:space="preserve">
<style type="text/css">
	.icon-building-relationship-st0{fill:currentColor;}
</style>
<title>building relations</title>
<desc>Created with Sketch.</desc>
<g id="The-Yearly-Carnage" transform="translate(-231.000000, -5101.000000)">
	<g id="building-relations" transform="translate(231.000000, 5101.000000)">
		<path id="Shape" class="icon-building-relationship-st0" d="M52,49.2H21.1c-2.3,0-4.2-1.9-4.2-4.2c0-0.1,0-3.3,2.6-6.5c1.5-1.8,3.5-3.3,6-4.3
			c3-1.2,6.8-1.9,11.1-1.9s8.1,0.6,11.1,1.9c2.5,1,4.5,2.5,6,4.3c2.6,3.2,2.6,6.4,2.6,6.5C56.2,47.3,54.4,49.2,52,49.2z M19.7,45
			c0,0.8,0.6,1.4,1.4,1.4H52c0.8,0,1.4-0.6,1.4-1.4c0-0.1-0.1-2.5-2.1-4.9c-2.7-3.3-7.9-5-14.8-5s-12.1,1.7-14.8,5
			C19.8,42.5,19.7,44.9,19.7,45z"/>
		<path id="Shape_1_" class="icon-building-relationship-st0" d="M36.6,29.5c-6.2,0-11.2-5-11.2-11.2S30.4,7,36.6,7s11.2,5,11.2,11.2S42.8,29.5,36.6,29.5z
			 M36.6,9.8c-4.7,0-8.4,3.8-8.4,8.4s3.8,8.4,8.4,8.4s8.4-3.8,8.4-8.4S41.2,9.8,36.6,9.8z"/>
		<path id="Shape_2_" class="icon-building-relationship-st0" d="M12.7,49.2H4.2C1.9,49.2,0,47.3,0,45c0-0.1,0-2.6,1.9-5.1c1.1-1.4,2.5-2.5,4.3-3.3
			c2.1-1,4.8-1.4,7.9-1.4c0.5,0,1,0,1.5,0c0.8,0,1.4,0.7,1.3,1.5c0,0.8-0.7,1.4-1.5,1.3c-0.4,0-0.9,0-1.3,0c-11,0-11.2,6.7-11.2,7
			c0,0.8,0.6,1.4,1.4,1.4h8.4c0.8,0,1.4,0.6,1.4,1.4C14.1,48.6,13.4,49.2,12.7,49.2L12.7,49.2z"/>
		<path id="Shape_3_" class="icon-building-relationship-st0" d="M14.1,32.3c-4.7,0-8.4-3.8-8.4-8.4s3.8-8.4,8.4-8.4s8.4,3.8,8.4,8.4S18.7,32.3,14.1,32.3z
			 M14.1,18.3c-3.1,0-5.6,2.5-5.6,5.6s2.5,5.6,5.6,5.6s5.6-2.5,5.6-5.6S17.2,18.3,14.1,18.3z"/>
	</g>
</g>
</svg>
