<?xml version="1.0" encoding="utf-8"?>
<!-- Generator: Adobe Illustrator 21.1.0, SVG Export Plug-In . SVG Version: 6.00 Build 0)  -->
<svg version="1.1" id="Layer_1" xmlns="http://www.w3.org/2000/svg" xmlns:xlink="http://www.w3.org/1999/xlink" x="0px" y="0px"
	 viewBox="0 0 72 72" style="enable-background:new 0 0 72 72;" xml:space="preserve">
<style type="text/css">
	.icon-email-marketing-st0{fill:currentColor;}
</style>
<title>email markting</title>
<desc>Created with Sketch.</desc>
<g id="The-Yearly-Carnage" transform="translate(-888.000000, -5101.000000)">
	<g id="email-markting" transform="translate(888.666667, 5101.000000)">
		<path id="Shape" class="icon-email-marketing-st0" d="M65.6,13.5h-60C2.5,13.5,0,16,0,19.1v33.8c0,3.1,2.5,5.6,5.6,5.6h60c3.1,0,5.6-2.5,5.6-5.6V19.1
			C71.2,16,68.7,13.5,65.6,13.5z M65.6,17.2c0.1,0,0.2,0,0.3,0L37.7,36.1c-1.1,0.7-3.1,0.7-4.2,0L5.3,17.3c0.1,0,0.2,0,0.3,0H65.6
			L65.6,17.2z M65.6,54.8h-60c-1,0-1.9-0.8-1.9-1.9V20.8l27.7,18.5c1.2,0.8,2.7,1.2,4.2,1.2s3-0.4,4.2-1.2l27.7-18.5v32.1
			C67.5,53.9,66.7,54.8,65.6,54.8z"/>
	</g>
</g>
</svg>
