<svg xmlns="http://www.w3.org/2000/svg" viewBox="0 0 100 100">
  <path d="M70.121 64.484c-5.156 1.746-12.414 2.272-14.103.862-1.691-1.412-3.691-4.468-3.384-5.713.307-1.241 5.685-.453 7.156.214 1.474.672 1.498 3.574-1.317 3.908 3.977.578 5.344-2.05 3.841-5.363-1.503-3.315-3.758-10.926-3.553-14.808.202-3.877.06-8.58 3.75-7.613 3.689.967 13.974 6.713 19.423 6.639 5.708-.076 12.434-2.064 13.795-4.634-.336 2.079-1.717 9.961-8.666 16.265s-11.687 8.468-16.942 10.243zM13.134 23.095s7.79 57.715 8.342 58.934c.55 1.222 4.794 1.529 4.965-.219.172-1.75-2.069-18.589-2.5-22.663-.429-4.072-.995-11.183-1.014-11.595-.017-.41-4.439-24.695-4.439-24.695l-5.354.238zm2.57-6.082c-4.282.576-8.249 10.176.469 10.49 8.713.321 6.02-11.364-.469-10.49zm4.977 45.094s1.741-2.732 6.465-4.046c4.72-1.317 22.364-1.422 33.297 0-5.218-8.518-2.734-28.01-5.465-30.611-5.966-3.844-27.088-2.369-36.39-.233l2.093 34.89z"/>
</svg>