<svg data-name="Layer 1" xmlns="http://www.w3.org/2000/svg" viewBox="0 0 928.5 928.6"><path d="M914.1 579.1a464.28 464.28 0 1 0-900.4-3h-.1L16 585l1 3.8a464.28 464.28 0 0 0 893.7 2.6l1.1-4.1 2.3-8.2zM47.6 288.2a452.2 452.2 0 0 1 868.9 176 456.66 456.66 0 0 1-15 115.6h-.8c-.9 0-1.8.1-2.7.1s-1.9.1-2.9.1h-5.6c-1 0-2 0-3-.1a22.61 22.61 0 0 1-2.6-.1c-1 0-2.1-.1-3.1-.2a21 21 0 0 1-2.5-.2c-1.1-.1-2.1-.2-3.2-.2-.8-.1-1.6-.1-2.5-.2l-3.2-.3-2.5-.3c-1.1-.1-2.1-.3-3.2-.4a21.65 21.65 0 0 1-2.5-.4c-1.1-.2-2.1-.3-3.2-.5-.8-.1-1.7-.3-2.5-.4l-3.1-.6c-.9-.2-1.7-.3-2.6-.5l-3.1-.6-2.7-.6c-1-.2-2-.5-3-.7s-1.9-.5-2.8-.7-1.9-.5-2.9-.8-2-.6-3-.8-1.8-.5-2.7-.8c-1.1-.3-2.1-.7-3.2-1-.8-.3-1.7-.5-2.5-.8-1.2-.4-2.4-.8-3.7-1.3-.7-.2-1.4-.5-2-.7l-5.7-2.1c-25.1-9.6-50.2-23.7-74.5-41.9-7.8-5.8-15-11.7-21.6-17.5-28.6-24.8-45.4-46.5-45.6-46.8l-5.1-6.7-4.7 7c-1.1 1.6-2.1 3.2-3.2 4.8-.4.5-.7 1-1.1 1.6-.7 1.1-1.4 2.1-2.2 3.2a20.28 20.28 0 0 1-1.3 1.8c-.7.9-1.3 1.9-2 2.8-.4.6-.9 1.3-1.3 1.9-.6.9-1.3 1.8-1.9 2.7-.5.6-.9 1.3-1.4 1.9-.6.9-1.3 1.8-1.9 2.6-.5.6-.9 1.2-1.4 1.9-.6.9-1.3 1.7-1.9 2.6-.4.6-.9 1.2-1.3 1.8-.7.9-1.3 1.8-2 2.7-.4.5-.8 1.1-1.2 1.6-.7 1-1.5 1.9-2.2 2.9-.3.4-.7.9-1 1.3-2.2 2.8-4.4 5.5-6.6 8.2-.3.4-.7.8-1 1.2-.8.9-1.5 1.8-2.3 2.7a17.39 17.39 0 0 1-1.3 1.5l-2.1 2.4c-.4.5-.9 1-1.3 1.6l-2 2.3c-.5.5-.9 1-1.4 1.6-.7.7-1.3 1.5-2 2.2-.5.5-.9 1-1.4 1.5-.7.7-1.3 1.4-2 2.2-.5.5-.9 1-1.4 1.5-.7.7-1.4 1.5-2 2.2-.4.5-.9.9-1.3 1.4-.7.8-1.5 1.6-2.2 2.3a11.41 11.41 0 0 1-1.1 1.1c-1.1 1.1-2.1 2.2-3.2 3.2l-.1.1-3.3 3.3a10 10 0 0 1-1.1 1c-.8.7-1.5 1.4-2.3 2.2-.4.4-.9.8-1.3 1.2-.7.6-1.4 1.3-2 1.9-.5.4-.9.9-1.4 1.3-.7.6-1.3 1.2-2 1.8a17.89 17.89 0 0 0-1.4 1.3c-.6.6-1.3 1.1-1.9 1.7a17.39 17.39 0 0 0-1.5 1.3l-1.9 1.6-1.5 1.2c-.7.5-1.3 1.1-2 1.6a13.44 13.44 0 0 1-1.4 1.1c-.7.6-1.4 1.1-2.1 1.7a14.7 14.7 0 0 1-1.3 1c-.9.7-1.9 1.4-2.8 2.2a3 3 0 0 1-.7.5c-1.1.8-2.1 1.6-3.2 2.4-.4.3-.9.6-1.3.9a20.28 20.28 0 0 0-1.8 1.3 656.14 656.14 0 0 0 7.4-98.1c0-123-34.6-241.6-97.6-334l-5-7.3-5 7.3C397.7 229 363 347.6 363 470.5a655.28 655.28 0 0 0 8.5 104.7c-.4-.3-.9-.5-1.3-.8s-1-.6-1.4-.9l-1.8-1.2c-.5-.3-.9-.6-1.4-.9l-1.8-1.2c-.4-.3-.9-.6-1.3-.9l-2-1.4-1.1-.8c-.8-.6-1.6-1.2-2.4-1.7a2.09 2.09 0 0 0-.6-.4c-1-.7-2-1.5-3-2.2a4.23 4.23 0 0 0-.7-.5c-.8-.6-1.5-1.2-2.3-1.8-.3-.3-.7-.5-1-.8-.6-.5-1.3-1-1.9-1.5-.4-.3-.7-.6-1.1-.9a22 22 0 0 0-1.8-1.4 10.59 10.59 0 0 1-1.2-1l-1.7-1.4c-.4-.3-.8-.7-1.2-1-.5-.5-1.1-.9-1.6-1.4-.4-.3-.8-.7-1.2-1-.5-.5-1.1-.9-1.6-1.4-.4-.3-.8-.7-1.2-1-.5-.5-1-.9-1.5-1.4s-.8-.7-1.2-1.1-1-.9-1.5-1.4a11.42 11.42 0 0 1-1.1-1.1c-.5-.5-1-.9-1.5-1.4a11.41 11.41 0 0 1-1.1-1.1c-.5-.5-1-.9-1.5-1.4-.4-.3-.7-.7-1.1-1a19.2 19.2 0 0 0-1.5-1.4 9.43 9.43 0 0 1-1-1l-1.5-1.5-1-1-1.5-1.5-1-1-1.5-1.5-.9-.9c-.5-.5-1-1.1-1.5-1.6-.3-.3-.5-.6-.8-.9-.6-.6-1.1-1.2-1.6-1.8-.2-.2-.4-.5-.6-.7-.6-.7-1.3-1.4-1.9-2.1-.1-.1-.2-.3-.3-.4-1.5-1.7-3-3.3-4.4-4.9-.1-.1-.2-.3-.3-.4-.6-.7-1.2-1.4-1.8-2-.2-.2-.4-.5-.6-.7-.5-.6-1-1.1-1.5-1.7-.2-.3-.5-.5-.7-.8-.4-.5-.9-1-1.3-1.6-.2-.3-.5-.6-.7-.9l-1.2-1.5c-.2-.3-.5-.6-.7-.9a17.41 17.41 0 0 0-1.2-1.4c-.2-.3-.5-.6-.7-.9a13.45 13.45 0 0 1-1.1-1.4c-.2-.3-.5-.6-.7-.9l-1.1-1.4c-.2-.3-.5-.6-.7-.9l-1.1-1.4c-.2-.3-.5-.6-.7-.9s-.7-.9-1-1.3a5.5 5.5 0 0 0-.7-.9c-.3-.4-.7-.9-1-1.3a5.55 5.55 0 0 0-.6-.8c-.3-.4-.7-.9-1-1.3s-.4-.5-.6-.8a11.31 11.31 0 0 0-1-1.3c-.2-.3-.4-.5-.6-.8a11.31 11.31 0 0 0-1-1.3c-.2-.2-.3-.5-.5-.7-.3-.5-.7-.9-1-1.4-.1-.2-.3-.4-.4-.6-.3-.5-.7-.9-1-1.4-.1-.2-.2-.3-.3-.5a15.26 15.26 0 0 1-1.1-1.6c-.1-.1-.1-.2-.2-.2-1.3-1.8-2.5-3.6-3.6-5.2 0-.1-.1-.1-.1-.2-.3-.5-.6-.9-.9-1.4-.1-.1-.1-.2-.2-.3-.3-.4-.5-.8-.8-1.2-.1-.1-.2-.3-.3-.4-.2-.4-.5-.7-.7-1.1-.1-.1-.2-.3-.3-.4-.2-.3-.4-.7-.6-1a.52.52 0 0 1-.2-.4l-.6-.9c-.1-.1-.1-.2-.2-.3l-.6-.9c-.1-.1-.1-.2-.2-.3-.2-.3-.3-.5-.5-.8-.1-.1-.1-.2-.2-.3a4.23 4.23 0 0 0-.5-.7.35.35 0 0 0-.1-.2 4.23 4.23 0 0 0-.5-.7c0-.1-.1-.1-.1-.2a2.51 2.51 0 0 1-.4-.7.1.1 0 0 0-.1-.1 2.51 2.51 0 0 1-.4-.7c-.8-1.4-1.3-2.2-1.3-2.3l-4.6-8.1-5.4 7.6c-1 1.4-2.1 2.9-3.1 4.3a.1.1 0 0 1-.1.1c-1 1.4-2 2.7-3 4.1a5.55 5.55 0 0 1-.6.8c-.8 1.1-1.7 2.2-2.5 3.3a7.63 7.63 0 0 0-.8 1.1c-.8 1-1.5 2-2.3 2.9-.3.4-.7.9-1 1.3l-2.1 2.7c-.4.4-.7.9-1.1 1.3-.7.9-1.4 1.7-2.1 2.6-.4.4-.7.9-1.1 1.3-.7.8-1.4 1.7-2.1 2.5-.4.4-.7.9-1.1 1.3l-2.1 2.4a12.68 12.68 0 0 0-1.1 1.3l-2.1 2.4a6.89 6.89 0 0 0-1.1 1.3c-.7.8-1.4 1.5-2.1 2.3a15.38 15.38 0 0 0-1.2 1.3c-.7.8-1.4 1.5-2.1 2.2l-1.2 1.2c-.7.7-1.4 1.5-2.1 2.2l-1.2 1.2c-.7.7-1.4 1.5-2.1 2.2l-1.1 1.1c-.7.7-1.4 1.4-2.2 2.1a11.42 11.42 0 0 0-1.1 1.1c-.7.7-1.5 1.4-2.2 2.1l-1.1 1.1c-.7.7-1.5 1.4-2.2 2.1-.4.3-.7.7-1.1 1-.7.7-1.5 1.4-2.2 2a10 10 0 0 0-1.1 1l-2.3 2c-.4.3-.7.6-1.1.9l-2.3 2c-.4.3-.7.6-1.1.9-.8.6-1.5 1.3-2.3 1.9-.4.3-.7.6-1.1.9-.8.6-1.6 1.3-2.4 1.9-.3.3-.7.5-1 .8-.8.6-1.6 1.2-2.4 1.9-.3.3-.7.5-1 .8l-2.4 1.8-1 .7-2.4 1.8-1 .7c-.8.6-1.7 1.2-2.5 1.7-.3.2-.6.4-1 .7-.8.6-1.7 1.1-2.5 1.7a8.79 8.79 0 0 1-1 .6c-.8.6-1.7 1.1-2.5 1.7l-.9.6c-.9.5-1.7 1.1-2.6 1.6l-.9.6c-.9.5-1.7 1.1-2.6 1.6a4.05 4.05 0 0 1-.9.5c-.9.5-1.8 1-2.6 1.5-.3.2-.6.3-.9.5l-2.7 1.5c-.3.2-.6.3-.9.5-.9.5-1.8 1-2.7 1.4a5.93 5.93 0 0 0-.8.4c-.9.5-1.8.9-2.8 1.4a5.93 5.93 0 0 0-.8.4c-.9.5-1.9.9-2.8 1.3-.3.1-.5.3-.8.4-.9.4-1.9.9-2.8 1.3a3 3 0 0 0-.8.4c-1 .4-1.9.8-2.9 1.2-.3.1-.5.2-.8.3-1 .4-1.9.8-2.9 1.2-.3.1-.5.2-.8.3-1 .4-1.9.8-2.9 1.1-.2.1-.5.2-.7.3-1 .4-2 .7-3 1.1-.2.1-.5.2-.7.3-1 .4-2 .7-3 1a1.85 1.85 0 0 1-.7.2c-1 .3-2 .7-3 1-.2.1-.5.1-.7.2l-3 .9a6.39 6.39 0 0 1-.7.2c-1 .3-2 .6-3.1.9a6.39 6.39 0 0 1-.7.2c-1 .3-2.1.5-3.1.8-.2.1-.4.1-.6.2-1 .3-2.1.5-3.1.7-.2 0-.4.1-.6.1-1.1.2-2.1.5-3.2.7-.2 0-.4.1-.6.1l-3.2.6c-.2 0-.4.1-.6.1-1.1.2-2.1.4-3.2.5-.2 0-.4.1-.6.1-1.1.2-2.2.3-3.2.5-.2 0-.4.1-.6.1-1.1.1-2.2.3-3.3.4a1.27 1.27 0 0 0-.6.1c-1.1.1-2.2.2-3.3.4a1.27 1.27 0 0 0-.6.1l-3.3.3h-.6c-1.1.1-2.2.2-3.3.2h-.6c-1.1.1-2.2.1-3.3.2h-.6c-1.1 0-2.2.1-3.3.1h-8.5c-1.1 0-2.2-.1-3.2-.1h-.7c-1.1 0-2.1-.1-3.2-.2h-.8c-1-.1-2.1-.1-3.1-.2a2.77 2.77 0 0 1-.9-.1l-3-.3c-.3 0-.7-.1-1-.1l-2.8-.3c-.4 0-.8-.1-1.2-.1l-2.5-.3c-.5-.1-1-.1-1.5-.2h-.1a451.55 451.55 0 0 1-14.6-113.9C12.1 403.2 24 344 47.6 288.2zM507 747.3a110.24 110.24 0 0 1 2.9 21.5 159.66 159.66 0 0 1 0 17 51.94 51.94 0 0 0-12.4-9.5c-2.3-1.3-4.6-2.5-6.6-3.4.3-.4.5-.9.8-1.3zm-25.6 18.2l-4.6 7.2-4.2 6.6h.1a16.6 16.6 0 0 1-1.4 1.3V159.1c55.1 88 85.2 197.9 85.2 311.5a638.09 638.09 0 0 1-9.5 109.7c-11.5 66.5-34.2 130.2-65.6 185.2zm-43.6 7.5a59.74 59.74 0 0 0-6.6 3.4 52.51 52.51 0 0 0-12.4 9.5c-.2-4.7-.3-10.5 0-17a109.09 109.09 0 0 1 2.9-21.5zm-51.7-187.1a634.85 634.85 0 0 1-10.5-115.3c0-112.7 29.7-221.7 83.8-309.3v618.1a16.41 16.41 0 0 1-1.9-2.5C423 720.2 399 656 386.1 585.9zm453.3 130.9a451.53 451.53 0 0 1-652.3 104.6 456.21 456.21 0 0 1-98.7-106 446.45 446.45 0 0 1-58.3-124.7c.5.1 1 .1 1.4.2s1 .1 1.5.2c.7.1 1.5.1 2.2.2.5 0 1 .1 1.5.1.8.1 1.5.1 2.3.2.5 0 1 .1 1.5.1a19.27 19.27 0 0 0 2.4.1c.4 0 .9.1 1.3.1 1.2.1 2.4.1 3.6.2h.7c1 0 2 .1 3.1.1h9a13.41 13.41 0 0 0 2-.1 9.15 9.15 0 0 0 1.7-.1c.6 0 1.3-.1 1.9-.1s1.2-.1 1.7-.1 1.3-.1 1.9-.1 1.2-.1 1.8-.1 1.3-.1 1.9-.2 1.2-.1 1.7-.2 1.3-.1 1.9-.2 1.2-.1 1.7-.2a12.26 12.26 0 0 1 1.9-.2c.6-.1 1.1-.1 1.7-.2l1.9-.3a9.85 9.85 0 0 1 1.7-.2l2-.3 1.6-.3c.8-.1 1.5-.3 2.3-.4a5.85 5.85 0 0 1 1.3-.2c1.2-.2 2.3-.5 3.5-.7.4-.1.8-.2 1.3-.3.8-.2 1.5-.3 2.3-.5a8.33 8.33 0 0 0 1.5-.4c.7-.2 1.4-.3 2-.5s1-.3 1.6-.4 1.3-.3 2-.5c.5-.1 1.1-.3 1.6-.4a13.32 13.32 0 0 1 1.9-.5c.5-.2 1.1-.3 1.6-.5s1.3-.4 1.9-.6 1.1-.3 1.6-.5 1.3-.4 1.9-.6 1.1-.3 1.6-.5 1.3-.4 1.9-.6a7.49 7.49 0 0 1 1.6-.5c.6-.2 1.3-.5 1.9-.7l1.5-.6a16.68 16.68 0 0 0 2-.8l1.5-.6a18 18 0 0 1 2.1-.8c.5-.2.9-.4 1.4-.6a22.87 22.87 0 0 0 2.3-1 11.73 11.73 0 0 0 1.1-.5c1.1-.5 2.3-1 3.4-1.5 41.8-19 81-52.7 116.5-100.5a6.07 6.07 0 0 0 .7 1c.1.2.3.5.4.7s.2.3.3.4l.6.9c.1.1.1.2.2.3a10.54 10.54 0 0 0 .7 1.1v.1c.2.4.5.7.7 1.1 0 .1.1.1.1.2.2.4.5.7.7 1.1.1.1.1.1.1.2a4.44 4.44 0 0 0 .8 1.1c.1.1.1.2.2.2.3.4.5.8.8 1.2.1.1.1.2.2.2.3.4.5.8.8 1.2.1.1.1.2.2.3.3.4.5.8.8 1.2.1.1.2.2.2.3l.9 1.2c.1.1.1.2.2.3a14.63 14.63 0 0 1 .9 1.3c.1.1.1.2.2.3a14.63 14.63 0 0 1 .9 1.3 1.38 1.38 0 0 1 .3.4c.3.4.6.9.9 1.3a1.38 1.38 0 0 1 .3.4 11.31 11.31 0 0 0 1 1.3c.1.1.2.3.3.4a17 17 0 0 1 1 1.4c.1.1.2.3.3.4.3.5.7.9 1 1.4.1.1.2.3.3.4.3.5.7.9 1 1.4.1.1.2.3.3.4l1.1 1.4c.1.1.2.3.3.4l1.1 1.4c.1.1.2.3.3.4.4.5.7 1 1.1 1.5.1.1.2.3.3.4l1.2 1.5a1.76 1.76 0 0 0 .4.5l1.2 1.5c.1.2.3.3.4.5l1.2 1.5c.1.2.3.3.4.5l1.2 1.5c.1.2.3.3.4.5l1.2 1.5a2.18 2.18 0 0 0 .4.5l1.2 1.5c.2.2.3.4.5.5a17.38 17.38 0 0 0 1.3 1.5c.2.2.3.4.5.6a17.38 17.38 0 0 0 1.3 1.5c.2.2.3.4.5.6.4.5.9 1 1.3 1.5.2.2.3.4.5.6.4.5.9 1 1.3 1.5a2.65 2.65 0 0 1 .5.6c.4.5.9 1 1.3 1.5l.6.6c.4.5.9 1 1.3 1.5l.6.6c.5.5.9 1 1.4 1.5l.6.6c.5.5.9 1 1.4 1.5a4.35 4.35 0 0 1 .6.7c.5.5.9 1 1.4 1.5a4.35 4.35 0 0 1 .6.7c.5.5.9 1 1.4 1.5a4.62 4.62 0 0 0 .7.7 18.48 18.48 0 0 0 1.4 1.4l.7.7a18.48 18.48 0 0 0 1.4 1.4l.7.7 1.4 1.4.7.7a18.48 18.48 0 0 1 1.4 1.4c.3.2.5.5.8.7.5.5 1 .9 1.5 1.4.3.2.5.5.8.7.5.5 1 .9 1.5 1.4.3.2.5.5.8.7.5.5 1 .9 1.5 1.4a6 6 0 0 1 .8.8c.5.4 1 .9 1.5 1.3a6 6 0 0 1 .8.8c.5.4 1 .9 1.5 1.3.3.3.6.5.9.8.5.4 1 .9 1.5 1.3.3.3.6.5.9.8.5.4 1 .9 1.5 1.3.3.3.6.5.9.8.5.4 1 .9 1.5 1.3a8.74 8.74 0 0 0 1 .8 17.39 17.39 0 0 1 1.5 1.3c.3.3.7.5 1 .8l1.5 1.2c.3.3.7.5 1 .8l1.5 1.2c.3.3.7.5 1 .8l1.5 1.2 1.1.8a14.3 14.3 0 0 0 1.5 1.1l1.1.8c.5.4 1 .7 1.5 1.1s.8.6 1.1.8c.5.4 1 .7 1.5 1.1a8.34 8.34 0 0 0 1.2.8c.5.4 1 .7 1.5 1.1a8.34 8.34 0 0 0 1.2.8c.5.3 1 .7 1.5 1a5.67 5.67 0 0 0 1.3.8c.5.3 1 .7 1.5 1a9.13 9.13 0 0 0 1.3.8 13 13 0 0 1 1.5 1c.4.3.9.6 1.3.9l1.5.9c.5.3.9.6 1.4.9s1 .6 1.4.9 1 .6 1.4.9a10 10 0 0 0 1.4.8l1.5.9c.5.3.9.5 1.4.8.1 0 .1.1.2.1a593.71 593.71 0 0 0 43.6 137.9l-1.9 2c-12.6 13.3-11.1 63.3-7.1 72 1.9 4.1 5.2 4.6 6.5 4.6h.3c3.2-.2 5.6-2.3 7-6.4 3.3-9.5 16.8-16.2 23.6-18.7a5.58 5.58 0 0 0 .5.8c4.5 7.3 11.3 11.5 18.9 11.5 7.4 0 14.2-4.1 18.7-11.2 7.2 3.1 17.9 9.3 20.8 17.6 1.4 4.1 3.8 6.2 7 6.4h.3c1.3 0 4.6-.4 6.5-4.6 3.9-8.6 5.4-57.5-6.7-71.5a598.94 598.94 0 0 0 45.9-146.2c.2-.1.4-.3.6-.4.6-.4 1.1-.7 1.7-1.1l1.8-1.2c.6-.4 1.1-.8 1.7-1.2l1.8-1.2c.6-.4 1.1-.8 1.7-1.2a20.28 20.28 0 0 0 1.8-1.3c.6-.4 1.1-.8 1.7-1.2s1.2-.9 1.8-1.3 1.2-.9 1.7-1.3 1.2-.9 1.7-1.3 1.2-.9 1.7-1.3 1.2-.9 1.7-1.4 1.2-.9 1.7-1.4 1.2-.9 1.7-1.4 1.2-1 1.7-1.4 1.2-1 1.7-1.5 1.2-1 1.7-1.5 1.1-1 1.7-1.5l1.8-1.5c.6-.5 1.1-1 1.7-1.5a12.88 12.88 0 0 0 1.7-1.6c.6-.5 1.1-1 1.7-1.6s1.2-1.1 1.7-1.6 1.1-1.1 1.7-1.6a13.65 13.65 0 0 0 1.7-1.7c.6-.5 1.1-1.1 1.7-1.6s1.2-1.1 1.7-1.7l1.7-1.7 1.7-1.7c.6-.6 1.1-1.2 1.7-1.7s1.1-1.2 1.7-1.8 1.1-1.2 1.7-1.8 1.1-1.2 1.7-1.8 1.1-1.2 1.7-1.8 1.1-1.2 1.7-1.8 1.1-1.2 1.7-1.9 1.1-1.2 1.7-1.9 1.1-1.3 1.7-1.9 1.1-1.3 1.7-1.9l1.7-2c.6-.6 1.1-1.3 1.7-1.9s1.2-1.4 1.7-2l1.7-2c.6-.7 1.2-1.4 1.7-2.1s1.1-1.3 1.6-2 1.2-1.4 1.7-2.1 1.1-1.3 1.6-2 1.2-1.5 1.8-2.2 1.1-1.3 1.6-2 1.2-1.5 1.8-2.3 1-1.3 1.6-2l1.8-2.4c.5-.7 1-1.3 1.5-2s1.2-1.7 1.9-2.5c.5-.7 1-1.3 1.5-2 .7-.9 1.3-1.8 2-2.7.5-.6.9-1.2 1.4-1.9.7-.9 1.4-1.9 2.1-2.9.4-.6.9-1.2 1.3-1.8.7-1 1.5-2.1 2.2-3.2.4-.5.7-1 1.1-1.6l3.3-4.8a403.68 403.68 0 0 0 64.1 59.9c25.2 18.9 51.3 33.6 77.5 43.6 2 .8 3.9 1.5 5.9 2.2a14.59 14.59 0 0 1 1.9.7c1.3.5 2.7.9 4 1.4.8.2 1.5.5 2.3.7 1.2.4 2.4.8 3.7 1.1.8.2 1.6.5 2.4.7 1.2.3 2.4.7 3.6 1l2.4.6c1.2.3 2.4.6 3.5.9l2.4.6c1.2.3 2.4.6 3.6.8.8.2 1.6.3 2.4.5 1.2.3 2.4.5 3.7.7.8.1 1.5.3 2.3.4 1.3.2 2.5.4 3.8.7a15.52 15.52 0 0 1 2.1.4l4.1.6 1.8.3 5.1.6c.3 0 .6.1.8.1 2 .2 4 .4 6 .5a2.77 2.77 0 0 1 .9.1l5 .3a13.41 13.41 0 0 1 2 .1c1.3 0 2.6.1 3.9.1h10.4a442.17 442.17 0 0 1-58.5 124.6z" fill="#231f20"/></svg>
