<svg xmlns="http://www.w3.org/2000/svg" viewBox="0 0 100 100">
  <path style="text-indent:0;text-transform:none;block-progression:tb" d="M68.346 15.408h.929c2.211 0 3.936 1.631 3.936 3.507v52.032c0 1.876-1.725 3.507-3.936 3.507h-.93c-2.211 0-3.936-1.631-3.936-3.507V18.915c0-1.876 1.725-3.507 3.937-3.507zM62.398 21.336L15.46 35.586c-5.247 1.966-7.536 5.732-7.469 9.438.068 3.707 2.528 7.447 7.47 9.25l46.937 14.25V21.336zm-8.97 7.875a1 1 0 0 1 .095 0 1 1 0 0 1 .344 1.938l-5.063 1.594a1.003 1.003 0 0 1-.625-1.907l5.094-1.593a1 1 0 0 1 .156-.032zM42.71 32.586a1 1 0 0 1 .125 0 1 1 0 0 1 .281 1.969L24.304 40.18a1 1 0 1 1-.594-1.906l18.844-5.625a1 1 0 0 1 .156-.063zM22.096 58.376L33.05 61.7v17.796c0 2.77-2.43 5.096-5.48 5.096-3.051 0-5.481-2.326-5.481-5.096V58.582a4 4 0 0 1 .006-.206zM82.106 43.93a1 1 0 1 0 0 2h8.89a1 1 0 1 0 0-2h-8.89zM90.674 28.155a1 1 0 0 0-.449.123l-8.587 4.55a1 1 0 1 0 .937 1.767l8.586-4.55a1 1 0 0 0-.487-1.89zM82.094 55.143a1 1 0 0 0-.455 1.89l8.587 4.54a1 1 0 1 0 .935-1.767l-8.587-4.54a1 1 0 0 0-.48-.123z" overflow="visible"/>
</svg>
