<?xml version="1.0" encoding="utf-8"?>
<!-- Generator: Adobe Illustrator 21.1.0, SVG Export Plug-In . SVG Version: 6.00 Build 0)  -->
<svg version="1.1" id="Layer_1" xmlns="http://www.w3.org/2000/svg" xmlns:xlink="http://www.w3.org/1999/xlink" x="0px" y="0px"
	 viewBox="0 0 45 45" style="enable-background:new 0 0 45 45;" xml:space="preserve">
<style type="text/css">
	.icon-brand-voice-st0{fill:currentColor;}
</style>
<title>brandvoice</title>
<desc>Created with Sketch.</desc>
<g id="The-Yearly-Carnage" transform="translate(-602.000000, -4847.000000)">
	<g id="brandvoice" transform="translate(602.333333, 4847.000000)">
		<path id="Shape" class="icon-brand-voice-st0" d="M21.9,30.8c-4.6,0-8.3-3.7-8.3-8.3V8.3c0-4.6,3.7-8.3,8.3-8.3s8.3,3.7,8.3,8.3v14.2
			C30.2,27.1,26.5,30.8,21.9,30.8z M21.9,2.4C18.6,2.4,16,5,16,8.3v14.2c0,3.3,2.7,5.9,5.9,5.9s5.9-2.7,5.9-5.9V8.3
			C27.8,5,25.2,2.4,21.9,2.4z"/>
		<path id="Shape_1_" class="icon-brand-voice-st0" d="M37.3,22.5c0-0.7-0.5-1.2-1.2-1.2c-0.7,0-1.2,0.5-1.2,1.2c0,7.2-5.8,13-13,13s-13-5.8-13-13
			c0-0.7-0.5-1.2-1.2-1.2s-1.2,0.5-1.2,1.2c0,8.1,6.3,14.7,14.2,15.3v4.8h-3.6c-0.7,0-1.2,0.5-1.2,1.2c0,0.7,0.5,1.2,1.2,1.2h9.5
			c0.7,0,1.2-0.5,1.2-1.2c0-0.7-0.5-1.2-1.2-1.2h-3.6v-4.8C31,37.2,37.3,30.6,37.3,22.5z"/>
	</g>
</g>
</svg>
