<?xml version="1.0" encoding="utf-8"?>
<!-- Generator: Adobe Illustrator 21.1.0, SVG Export Plug-In . SVG Version: 6.00 Build 0)  -->
<svg version="1.1" id="Layer_1" xmlns="http://www.w3.org/2000/svg" xmlns:xlink="http://www.w3.org/1999/xlink" x="0px" y="0px"
	 viewBox="0 0 52 52" style="enable-background:new 0 0 52 52;" xml:space="preserve">
<style type="text/css">
	.icon-paid-social-st0{fill:currentColor;}
</style>
<title>paidsocial</title>
<desc>Created with Sketch.</desc>
<g id="The-Yearly-Carnage" transform="translate(-899.000000, -4847.000000)">
	<g id="paidsocial" transform="translate(899.666667, 4847.000000)">
		<path id="Shape" class="icon-paid-social-st0" d="M51,20v-3c0-0.2-0.1-0.5-0.2-0.7l-6-12c-0.3-0.5-0.8-0.8-1.3-0.8h-36c-0.6,0-1.1,0.3-1.3,0.8
			l-6,12C0.1,16.5,0,16.8,0,17v3c0,2.4,1.2,4.6,3,6v19.5H1.5C0.7,45.5,0,46.2,0,47s0.7,1.5,1.5,1.5h48c0.8,0,1.5-0.7,1.5-1.5
			s-0.7-1.5-1.5-1.5H48V26C49.8,24.6,51,22.5,51,20z M31.5,24.5c-2.5,0-4.5-2-4.5-4.5v-1.5h9V20C36,22.5,34,24.5,31.5,24.5z M3,20
			v-1.5h9V20c0,2.5-2,4.5-4.5,4.5S3,22.5,3,20z M24,6.5v9h-8.6l2.2-9H24z M33.3,6.5l2.2,9H27v-9H33.3z M15,18.5h9V20
			c0,2.5-2,4.5-4.5,4.5S15,22.5,15,20V18.5z M39,18.5h9V20c0,2.5-2,4.5-4.5,4.5S39,22.5,39,20V18.5z M47.1,15.5h-8.4l-2.2-9h6.2
			L47.1,15.5z M8.4,6.5h6.2l-2.2,9H3.9L8.4,6.5z M6,27.4c0.5,0.1,1,0.1,1.5,0.1c2.5,0,4.6-1.2,6-3c1.4,1.8,3.5,3,6,3s4.6-1.2,6-3
			c1.1,1.4,2.7,2.5,4.5,2.9v18.2H6V27.4L6,27.4z M45,45.5H33V27.4c1.8-0.4,3.4-1.4,4.5-2.9c1.4,1.8,3.5,3,6,3c0.5,0,1-0.1,1.5-0.1
			V45.5L45,45.5z"/>
		<path id="Shape_1_" class="icon-paid-social-st0" d="M39,35c0,0.8-0.7,1.5-1.5,1.5S36,35.8,36,35s0.7-1.5,1.5-1.5S39,34.2,39,35z"/>
		<path id="Shape_2_" class="icon-paid-social-st0" d="M10.5,36.5c-0.4,0-0.8-0.1-1.1-0.4c-0.6-0.6-0.6-1.5,0-2.1l3-3c0.6-0.6,1.5-0.6,2.1,0
			s0.6,1.5,0,2.1l-3,3C11.3,36.4,10.9,36.5,10.5,36.5L10.5,36.5z"/>
		<path id="Shape_3_" class="icon-paid-social-st0" d="M13.5,42.5c-0.4,0-0.8-0.1-1.1-0.4c-0.6-0.6-0.6-1.5,0-2.1l9-9c0.6-0.6,1.5-0.6,2.1,0
			s0.6,1.5,0,2.1l-9,9C14.3,42.4,13.9,42.5,13.5,42.5L13.5,42.5z"/>
		<path id="Shape_4_" class="icon-paid-social-st0" d="M22.5,42.5c-0.4,0-0.8-0.1-1.1-0.4c-0.6-0.6-0.6-1.5,0-2.1l3-3c0.6-0.6,1.5-0.6,2.1,0
			c0.6,0.6,0.6,1.5,0,2.1l-3,3C23.3,42.4,22.9,42.5,22.5,42.5L22.5,42.5z"/>
	</g>
</g>
</svg>
