<svg id="Layer_1" data-name="Layer 1" xmlns="http://www.w3.org/2000/svg" viewBox="0 0 105 107.28"><defs><style>.logo-art-van-cls-1{fill:#fff}</style></defs><path class="logo-art-van-cls-1" d="M33.63 31.79L37 21h.11l3.14 10.75h-6.62zm-3.35 10.07l1.61-5.06h10l1.64 5.06h7.73L41.52 16h-8.34l-9.74 25.86h6.83zM59 26.07h.08c.78-3 3-4 6-3.91v5.77h-1.43c-3.56 0-4.77 2.15-4.67 5.59v7.18h-6.76V27.33A43.21 43.21 0 0 0 52 22.7h6.92l.1 3.37zm11.49-3v-4.26l6.81-2.58v6.86h3.94v4.3h-3.91v7.13c0 .47-.28 2.8 1.29 2.8a20.1 20.1 0 0 0 2.62-.11v4a18.94 18.94 0 0 1-3.66.36c-4.63 0-7.43-.65-7.06-6.17v-8.01h-2.74v-4.3h2.74zm-26.87 22h7.14L41.35 71h-8.57l-9.14-25.93h7.92l5.85 18.75h.07zm10.9 20.12a2.64 2.64 0 0 1 1.8-2.41 9.18 9.18 0 0 1 3.73-.39c0 2.4-.25 5.16-3.19 5.16a2.36 2.36 0 0 1-2.31-2.36zM66.85 71c-.25-2.15-.4-2.94-.4-3.7V58c.07-4.06-4.34-5.6-8-5.6a15.29 15.29 0 0 0-6.2 1.08 4.87 4.87 0 0 0-3.12 4.85h6.42c0-1.08.49-2.7 2.15-2.77 2.72-.1 2.36 2.19 2.36 3.76h-2.14c-5.88 0-9.9 1.79-10 6.16-.07 3.7 2.15 6 6.42 6a6.22 6.22 0 0 0 5.74-3h.08a10.47 10.47 0 0 0 .14 2.44h6.52zm9.87-16a6.88 6.88 0 0 1 5.63-2.5c3.87 0 6.73 2.5 6.73 6.49V71h-6.82V60.38c-.07-1.75-.5-3.65-2.61-3.65-3.37 0-2.94 3.69-2.94 3.9V71H69.9V57.59a43.29 43.29 0 0 0-.22-4.59h6.92z"/><path class="logo-art-van-cls-1" d="M105 0H0v107.28h105zM0 0zm20.11 100.22l5.69-8.15 52.39-6 8.9 14.12h-67zm78.85 0h-6.11l-9.66-24.91-53.07 3-10.7-33.52 10-29.15v-4.82H26.7L12.58 43.41l5.92 45.67-5.86 11.13H6V7.06h93v93.16z"/></svg>
