<svg xmlns="http://www.w3.org/2000/svg" viewBox="0 0 284.81 27.96" aria-labelledby="biofire-logo-title">
  <title id="biofire-logo-title">Biofire</title>>
  <path fill="#999" d="M445.41 324.05l-24.32-.05a7.82 7.82 0 0 1-7.21-4.82l31.45.05a3 3 0 0 0 3-3 3 3 0 0 0-3-3l-31.43-.05a7.81 7.81 0 0 1 7.16-4.73l24.28.08a3 3 0 0 0 3-3 3 3 0 0 0-3-3l-24.29-.08a13.88 13.88 0 0 0 0 27.76l24.31.07a3 3 0 0 0 3-3 3 3 0 0 0-2.95-3.23zM260.52 302.34l-13.44-.06a13.88 13.88 0 0 0 0 27.76l13.43.06a13.88 13.88 0 0 0 0-27.76zm0 21.69l-13.44-.03a7.81 7.81 0 0 1 0-15.62l13.44.06a7.81 7.81 0 0 1 0 15.62zM341.18 302.19a3 3 0 0 0-3 3l-.06 21.85a3 3 0 0 0 3 3 3 3 0 0 0 3-3l.06-21.85a3 3 0 0 0-3-3zM323.4 313.16l-31.22-.06a7.66 7.66 0 0 1 7.1-4.82h24.12a3 3 0 0 0 0-6.1h-24.13a13.77 13.77 0 0 0-13.75 13.76v11.11a3 3 0 0 0 3 3 3 3 0 0 0 3-3.06v-7.86l31.74.06a3 3 0 0 0 3-3 3 3 0 0 0-2.86-3.03zM219.21 302.19a3 3 0 0 0-3 3l-.06 21.85a3 3 0 0 0 3 3 3 3 0 0 0 3-3l.06-21.85a3 3 0 0 0-3-3zM204.94 310.67a8.52 8.52 0 0 0-8.51-8.51h-29.7a3 3 0 0 0-3 3l-.06 21.85a3 3 0 0 0 3 3h29.77a8.5 8.5 0 0 0 6.51-14 8.47 8.47 0 0 0 1.99-5.34zM196.43 324h-26.72v-4.8h26.7a2.41 2.41 0 0 1 0 4.82zm0-10.94h-26.69v-4.82h26.68a2.41 2.41 0 0 1 0 4.82zM396.38 316.11a8.5 8.5 0 0 0-6.54-14h-29.7a3 3 0 0 0-3 3l-.14 21.95a3 3 0 0 0 3 3 3 3 0 0 0 3-3v-7.88h26.9a2.41 2.41 0 0 1 2.41 2.41v5.44a3 3 0 0 0 3 3 3 3 0 0 0 3-3v-5.47a8.46 8.46 0 0 0-1.93-5.45zm-4.12-5.44a2.42 2.42 0 0 1-2.41 2.41h-26.69v-4.82h26.68a2.41 2.41 0 0 1 2.42 2.41z" transform="translate(-163.63 -302.16)"/>
</svg>
