<svg xmlns="http://www.w3.org/2000/svg" viewBox="0 0 720 88.59">
  <path d="M5.55 53.1V31.52H2.09A2.06 2.06 0 0 1 0 29.43v-2a2 2 0 0 1 2.09-2.09h1.73a11.13 11.13 0 0 0 11.11-9.2 2.61 2.61 0 0 1 2.46-2.36h2.09a2.27 2.27 0 0 1 2.46 2.36v9.2h9.38a2.06 2.06 0 0 1 2.09 2.09v2a2.06 2.06 0 0 1-2.09 2.09h-9.38v21.85c0 3.09 1.82 4.91 4.1 4.91a6.29 6.29 0 0 0 6-3.36c1.28-1.65 3.46-1.1 3.46.63 0 7-5.19 14.39-15.11 14.39-9.01 0-14.84-5.83-14.84-16.84zM89.3 66.93v.37c0 1.09-.82 1.72-2.19 1.72H69c-1.37 0-2.19-.63-2.19-1.72v-.37c0-2.64 3.46-3.73 3.28-7.92l-.91-16.93c-.46-8.28-2.18-11.65-6.37-11.65-4 0-5.92 3.54-5.92 8.83V59.1c0 4.19 4.1 5.19 4.1 7.83v.37c.01 1.09-.92 1.7-2.19 1.7H39.05c-1.28 0-2.1-.63-2.1-1.72v-.37c0-2.64 4-3.64 4-7.83V16.86c0-4.28-4.46-4.73-4.46-7.28v-.27a2.94 2.94 0 0 1 2.09-2.55L53 .39c2.1-.91 3.46-.19 3.46 1.9V28.7a15 15 0 0 1 11.11-4.28c7.92 0 16.29 4.46 17.3 18.21L86 59c.38 4.2 3.3 5.29 3.3 7.93zm43.61-11c-.18 5-6.55 14-18.48 14-13.2 0-22.48-9.2-22.48-23a22.05 22.05 0 0 1 22.39-22.49c11.93 0 17.39 6.73 17.39 12.47a6.12 6.12 0 0 1-3.55 5.65l-18.12 10.17a11.93 11.93 0 0 0 10.38 5.92c3.92 0 7.47-1.82 9.11-4 1.27-1.28 3.45-.74 3.36 1.27zm-26.3-17.48A30.73 30.73 0 0 0 108 48l8.47-5.1a5.63 5.63 0 0 0 2.36-4.64c0-2.92-1.45-9.38-6.1-9.38-3.73 0-6.12 4.28-6.12 9.56zm97.75 28.49v.37c0 1.09-.82 1.72-2.09 1.72h-13a2.18 2.18 0 0 1-2.37-2.27v-.82a16.07 16.07 0 0 1-11.1 4c-11 0-21.49-7.83-21.49-22.76 0-13.57 10.11-22.76 21.58-22.76a16.53 16.53 0 0 1 9.36 2.58V14.86c0-4.28-4.83-4.83-4.83-7.47v-.27a2.65 2.65 0 0 1 2.1-2.36l14.2-4.29c2.64-.81 4-.27 4 2.19V59.1c0 4.19 3.64 5.28 3.64 7.83zm-19.11-9.1V40.26c0-5.83-4-11.38-8.2-11.38-4.46 0-6.92 3.91-7.19 11.2-.27 7.64 2.73 25.12 9.56 25.4 3.1.09 5.83-2.74 5.83-7.65zm71 8.74c0 2.36-5.28 3-10.29 3-5.46 0-8.1-1.09-8.83-4.37-1.91 2.64-5.55 4.74-11.56 4.74-9.74 0-17.2-4.46-17.2-13.84 0-9.19 7.73-13.93 16.38-13.93a17.76 17.76 0 0 1 9.2 2.28v-.28c-1.1-10.74-1.73-15.38-6.47-15.38-6.28 0-3.73 12.2-11.83 12.2-3.82 0-6.37-2.37-6.37-5.92 0-7.46 8.92-10.65 18.2-10.65 12.2 0 20.67 7.1 22.12 18.39l2 16.29c.81 6.46 4.63 4.89 4.63 7.46zm-20.94-7.83l-.36-4.19c-.64-5.46-3-7.56-5.65-7.56s-4.64 2.47-4.64 6.19c0 6.47 2.19 12.11 5.92 12.11 2.98-.01 4.71-3.46 4.71-6.56zm24 8.56v-.37c0-2.64 3.64-3.73 3.64-7.92V41.71c0-4.18-3.64-5.46-3.64-7.64v-.37c0-1 .82-1.45 2.09-2.09l13.75-6.74c2.55-1.27 4.1.19 4.1 1.92V59c0 4.19 4.09 5.28 4.09 7.92v.37c0 1.09-.91 1.72-2.27 1.72h-19.63c-1.36-.01-2.18-.62-2.18-1.71zm1.46-56.44c0-5.19 4.18-9.11 10.46-9.11s10.38 3.92 10.38 9.11S277.37 20 271.18 20s-10.46-4-10.46-9.14zm26.01 56.43v-.37c0-2.64 3.55-3.64 3.55-7.83V17.5c0-4.28-3.55-5.46-3.55-7.74V9.4c0-1 .82-1.46 2-2.1L302.53.57c2.55-1.28 4.19.27 4.19 1.91V59.1c0 4.19 4 5.19 4 7.83v.37c0 1.09-.91 1.72-2.18 1.72h-19.67c-1.27-.02-2.09-.63-2.09-1.72zm76.35-40.24v.36c0 2.64-3.09 3.92-4.91 8L341 72.48c-2.55 5.65-7.64 16.11-17.2 16.11-8.92 0-14.48-5.27-14.48-10.56 0-3.81 2.37-6.36 6.47-6.36 8.73 0 5.91 12.1 10.19 12.1 2.82 0 6.19-6.19 8.56-11.83l-18.47-36.51c-2.19-4.28-5.1-5.37-5.1-8v-.36c0-1.1.82-1.73 2.09-1.73h19.58a1.82 1.82 0 0 1 2 1.82v.36c0 2.55-3.46 3-1.27 8.11l9.28 21.85L351 37.16c2.54-6.19-4.28-7.1-4.28-9.65v-.36a1.9 1.9 0 0 1 2.09-1.82H361c1.31 0 2.13.67 2.13 1.73zm19 20c0-14.2 10.74-22.57 23.12-22.66 10.66-.09 19.39 5.37 19.39 13.47 0 2.73-1.73 5.46-6.64 5.28-9.29-.54-8.47-14.38-15.2-14.29-3.83.09-6.38 4.64-6.38 10.19 0 11.84 5.83 19.67 14.84 19.67a12.2 12.2 0 0 0 10.11-5.28c1.18-1.46 3.46-1 3.46 1-.28 7.92-6.56 15.48-19 15.48-14.31.02-23.69-10.92-23.69-22.84zm95.41 19.49c0 2.36-5.28 3-10.29 3-5.46 0-8.1-1.09-8.82-4.37-1.92 2.64-5.56 4.74-11.57 4.74-9.74 0-17.2-4.46-17.2-13.84 0-9.19 7.73-13.93 16.39-13.93a17.75 17.75 0 0 1 9.19 2.28v-.28c-1.1-10.74-1.73-15.38-6.46-15.38C442.5 28.79 445.05 41 437 41c-3.82 0-6.37-2.37-6.37-5.92 0-7.46 8.92-10.65 18.21-10.65 12.19 0 20.66 7.1 22.11 18.39l2 16.29c.78 6.46 4.6 4.89 4.6 7.46zm-20.94-7.83l-.36-4.19c-.64-5.46-3-7.56-5.64-7.56s-4.6 2.49-4.6 6.21c0 6.47 2.19 12.11 5.92 12.11 2.96 0 4.69-3.45 4.69-6.55zm62.67-25.31c0 4.55-1.73 8.56-7 8.56-8.28 0-4.55-8.56-9.1-8.56-2.92 0-3.37 4.74-3.37 8.74V59.1c0 4.19 4.82 5.28 4.82 7.83v.37c0 1.09-.91 1.72-2.18 1.72h-19.57c-1.28 0-2.19-.63-2.19-1.72v-.37c0-2.55 3.64-3.64 3.64-7.83V41c0-4.28-4.37-4.64-4.37-7.29v-.27c0-1.09.73-1.91 2.1-2.64l12.83-6c2.37-1.09 3.28.18 3.28 2v6.64c2-5.82 6.28-9 12.56-9 5.37-.02 8.56 3.9 8.56 8.99zM575.16 67v.37c0 1.09-.91 1.73-2.18 1.73h-18.21c-1.36 0-2.19-.64-2.19-1.73V67c0-2.64 3.56-3.73 3.28-7.92L555 42.81c-.45-9-2.18-12.38-6.28-12.38s-5.92 3.54-5.92 8.83V59.1c0 4.19 4 5.28 4 7.92v.37c0 1.09-.82 1.73-2.19 1.73h-19.7c-1.36 0-2.18-.64-2.18-1.73V67c0-2.64 4-3.73 4-7.92V41.17c0-4.37-4.82-4.92-4.82-7.56v-.27c0-1.09.91-1.64 2.18-2.28l12.75-6.28c2.27-1.18 3.46.37 3.46 2.19v4.28c2.45-4.37 7-6.83 13-6.83 7.92 0 16.3 4.46 17.39 18.93l1.18 15.75c.29 4.19 3.29 5.28 3.29 7.9zm51.13-.45c0 2.36-5.28 3-10.28 3-5.46 0-8.11-1.09-8.84-4.37-1.9 2.64-5.55 4.74-11.55 4.74-9.75 0-17.21-4.46-17.21-13.84 0-9.19 7.74-13.93 16.38-13.93a17.76 17.76 0 0 1 9.2 2.28v-.28c-1.09-10.74-1.73-15.38-6.46-15.38-6.28 0-3.73 12.2-11.84 12.2-3.82 0-6.37-2.37-6.37-5.92 0-7.46 8.92-10.65 18.21-10.65 12.19 0 20.66 7.1 22.12 18.39l2 16.29c.82 6.49 4.64 4.92 4.64 7.49zm-20.94-7.83l-.35-4.17c-.63-5.46-3-7.56-5.64-7.56s-4.64 2.47-4.64 6.19c0 6.47 2.18 12.11 5.91 12.11 3 0 4.72-3.45 4.72-6.55zm70.45-30.4c-.36 3.54-3.91 3.18-6.83 4.09a17.29 17.29 0 0 1 4.47 11.29 17.11 17.11 0 0 1-9.83 15.66c8.19 1.73 10.74 5.18 10.74 9.74 0 7.28-10.47 12.19-23.76 12.19-13 0-21.49-4.18-21.49-11.92a6 6 0 0 1 6.29-6c8.28 0 6.91 13.47 15.29 13.56 4.82.1 7.55-3.09 7.55-7.64 0-3.92-1.27-6.65-3.82-7.38-1 .09-2.19.19-3.28.19-12.74 0-22.12-7.47-22.12-18.3 0-11.56 9.19-19.39 22.3-19.39 5.74 0 9.65.91 17.85.91 5.92.01 6.91.92 6.64 3.02zm-22.39 29.23c3.1 0 4.92-2.91 4.92-7.64 0-7.56-3.92-21-9.38-21-2.92 0-4.74 2.82-4.74 7.64 0 9.08 4.28 21 9.2 21zM720 55.92c-.18 5-6.56 14-18.48 14-13.2 0-22.49-9.2-22.49-23a22.05 22.05 0 0 1 22.4-22.49c11.92 0 17.38 6.73 17.38 12.47a6.12 6.12 0 0 1-3.55 5.65l-18.11 10.18a11.92 11.92 0 0 0 10.37 5.92c3.92 0 7.47-1.82 9.11-4 1.27-1.28 3.46-.74 3.37 1.27zm-26.31-17.48a30.73 30.73 0 0 0 1.36 9.56l8.47-5.1a5.63 5.63 0 0 0 2.36-4.64c0-2.92-1.45-9.38-6.09-9.38-3.74 0-6.1 4.28-6.1 9.56z" fill="#fff"/>
</svg>
