<svg xmlns="http://www.w3.org/2000/svg" viewBox="0 0 775.29 184.49" aria-labelledby="washington-prime-logo-title">
  <title id="washington-prime-logo-title">Washington Prime Group</title>>
  <path d="M78.8 69.48H65.41L53.78 45.84 42.53 69.48H29.14L0 1.22h16.53l20.11 48.23 17.14-32.83 17.28 32.82L91.34 1.22h16.55zm81.37 0L154 54.26h-28.77L119 69.46h-15.23L132.9 1.21h13.78l29.12 68.25zm-20.58-50.36l-9 22h18.05zm71.6 51.31a43.3 43.3 0 0 1-28.83-10.84L191.19 49c6.12 5 12.53 8.23 20.29 8.23 6.12 0 9.81-2.42 9.81-6.39v-.19c0-3.78-2.33-5.71-13.69-8.62-13.69-3.48-22.52-7.26-22.52-20.72v-.19c0-12.3 9.9-20.43 23.78-20.43a39.4 39.4 0 0 1 25.24 8.65l-7.76 11.23c-6-4.16-11.94-6.68-17.67-6.68s-8.74 2.61-8.74 5.9V20c0 4.45 2.91 5.9 14.66 8.91 13.79 3.58 21.55 8.52 21.55 20.33v.19c0 13.45-10.29 21-24.95 21zm85.36-1V42.07h-27.77v27.39h-15V1.22h15v27h27.77v-27h15.05v68.24zm36.72 0V1.22h15.05v68.24zm84.68 0l-33.13-43.35v43.38H370V1.22h13.88l32.06 42v-42h14.86v68.24zm145.89-54.4v54.4h-15.05V15.06H528V1.22h56.7v13.84zm64.4 55.56c-21 0-36-15.58-36-34.85v-.19c0-19.27 15.24-35 36.21-35s36 15.59 36 34.85v.2c0 19.24-15.24 35.02-36.21 35.02zm20.58-35c0-11.62-8.54-21.3-20.58-21.3s-20.39 9.48-20.39 21.1v.2c0 11.61 8.54 21.3 20.58 21.3s20.39-9.49 20.39-21.11zm80.42 33.88L696.1 26.08v43.38h-14.86V1.22h13.88l32.06 42v-42H742v68.24zM37 162.53H25.63v20.34H10.68v-67.78h27.76c16.21 0 26 9.59 26 23.43v.2c.02 15.68-12.21 23.81-27.44 23.81zm12.33-23.72c0-6.68-4.66-10.26-12.13-10.26H25.63v20.72h11.84c7.47 0 11.84-4.45 11.84-10.26zm69.63 44.06l-14.56-21.69H92.63v21.69H77.68v-67.78h31.06c16 0 25.63 8.43 25.63 22.37v.19c0 10.94-5.92 17.82-14.56 21l16.6 24.21zm.29-44.64c0-6.39-4.47-9.68-11.75-9.68H92.63V148h15.14c7.28 0 11.46-3.87 11.46-9.58zm32.49 44.64v-67.78h14.95v67.78zm88.29 0v-44.25l-19.12 28.95-19.32-28.66v44h-14.68v-67.82H203l17.86 28.66 17.86-28.66h16.12v67.78zm35 0v-67.78h51.27v13.27h-36.4v13.75h30.83v13.26H289.9v14.23h36.89v13.27zm226.29 0l-14.56-21.69H475v21.69h-14.92v-67.78h31.06c16 0 25.63 8.43 25.63 22.37v.19c0 10.94-5.92 17.82-14.56 21l16.6 24.21zm.29-44.64c0-6.39-4.47-9.68-11.75-9.68H475V148h15.14c7.28 0 11.46-3.87 11.46-9.58zM563.75 184c-21 0-36-15.59-36-34.86V149c0-19.27 15.24-35 36.21-35s36 15.59 36 34.86v.14c.04 19.25-15.24 35-36.21 35zm20.58-35c0-11.62-8.55-21.3-20.58-21.3s-20.39 9.49-20.39 21.11v.19c0 11.62 8.54 21.3 20.58 21.3s20.39-9.49 20.39-21.11zm59 35c-18.25 0-29.42-10.16-29.42-30.11v-38.8h14.95v38.34c0 11 5.54 16.75 14.66 16.75s14.66-5.51 14.66-16.26v-38.83h14.95v38.25c.05 20.52-11.5 30.59-29.75 30.59zm73.88-21.4H705.9v20.34H691v-67.85h27.77c16.21 0 26 9.59 26 23.43v.2c-.04 15.68-12.27 23.81-27.51 23.81zm12.33-23.72c0-6.68-4.66-10.26-12.14-10.26h-11.5v20.72h11.85c7.47 0 11.84-4.45 11.84-10.26zm-320.74 2.17v13.83h22.3c-2.83 9.78-10.8 15.79-21.11 15.79-11.73 0-21.64-10-21.64-21.86S398.26 127 410 127a20.46 20.46 0 0 1 17.29 9.16l11.91-8.92a36.6 36.6 0 0 0-29.2-14c-20.6 0-36.73 15.67-36.73 35.67s16.13 35.68 36.73 35.68c26 0 36.74-21.86 36.74-33.57v-9.87zm73.69-113.13v13.82h22.31c-2.8 9.78-10.8 15.79-21.12 15.79C472 57.53 462 47.52 462 35.67s10-21.86 21.68-21.86A20.46 20.46 0 0 1 501 23l11.91-8.92a36.57 36.57 0 0 0-29.2-14C463.09 0 447 15.67 447 35.67s16.14 35.69 36.73 35.69c26 0 36.74-21.87 36.74-33.58v-9.86zM755.31 128.8h-3v-10.58h-4v-2.66h10.92v2.66h-4zm13.49-3.14h-.25l-3.66-5.8v8.94h-2.83v-13.24h3.18l3.48 5.59 3.48-5.59h3.09v13.24h-2.83v-8.94z" fill="#999"/>
</svg>
