<svg xmlns="http://www.w3.org/2000/svg" viewBox="0 0 191.9 12.4" aria-labelledby="logo-ae-title">
  <defs>
    <style>
      .b{clip-path:url(#a)}.c{fill:#231f20}
    </style>
    <clipPath id="a">
      <path fill="none" d="M0 .4h190.1v12.1H0z"/>
    </clipPath>
  </defs>
  <title id="logo-ae-title">
    American Eagle ®
  </title>
  <g class="b">
    <path class="c" d="M8.1 9.1H3.4L2 12.3H0L5.1.7h1.2c1 2.4 5.1 11.6 5.1 11.6H9.5zm-.6-1.6L5.8 3.4 4 7.5z"/>
  </g>
  <g class="b">
    <path class="c" d="M141.1 9.1h-4.8l-1.4 3.2h-2L138 .7h1.2c1 2.4 5.1 11.6 5.1 11.6h-2zm-.6-1.6l-1.7-4.1-1.7 4.1z"/>
  </g>
  <path class="c" d="M33.6.7v11.5h6.5v-1.5h-4.7V6.8h4.5V5.1h-4.5V2.3h4.7V.7h-6.5z"/>
  <g class="b">
    <path class="c" d="M49.8 7.4l3.6 5h-2.2l-3.3-4.8h-.3v4.8h-1.7V.7H48a4.83 4.83 0 0 1 3.3.9 3 3 0 0 1 1.1 2.5 3.52 3.52 0 0 1-.7 2.1 3.47 3.47 0 0 1-1.9 1.2M47.6 6h.5c1.7 0 2.5-.6 2.5-1.9s-.8-1.8-2.4-1.8h-.6z"/>
  </g>
  <path class="c" d="M58.7.7h1.7v11.7h-1.7z"/>
  <g class="b">
    <path class="c" d="M75 1.3v2.1a4.67 4.67 0 0 0-3.1-1.3 3.8 3.8 0 0 0-3 1.3 4.47 4.47 0 0 0-1.2 3.1 3.92 3.92 0 0 0 1.2 3 3.72 3.72 0 0 0 3 1.2 4.15 4.15 0 0 0 1.6-.3c.3-.1.5-.3.8-.4a4.17 4.17 0 0 0 .8-.6v2.1a6.13 6.13 0 0 1-3.1.9 6.31 6.31 0 0 1-4.3-1.7A6 6 0 0 1 66 6.4a5.61 5.61 0 0 1 1.5-3.9A5.94 5.94 0 0 1 72.2.4a5.7 5.7 0 0 1 2.8.9"/>
  </g>
  <path class="c" d="M122.1.7v11.5h6.4v-1.5h-4.7V6.8h4.5V5.1h-4.5V2.3h4.7V.7h-6.4z"/>
  <g class="b">
    <path class="c" d="M153.9 6.2h4.8v.3a8.75 8.75 0 0 1-.3 2.4 4.25 4.25 0 0 1-1 1.7 5.1 5.1 0 0 1-4.1 1.8 5.89 5.89 0 0 1-4.2-1.7 6.13 6.13 0 0 1-1.7-4.3 6.13 6.13 0 0 1 1.7-4.3 5.73 5.73 0 0 1 4.3-1.7 7 7 0 0 1 2.5.5 7.25 7.25 0 0 1 2.3 1.8L157 3.9a4.21 4.21 0 0 0-3.5-1.9 4 4 0 0 0-3.1 1.3 4.06 4.06 0 0 0-1.2 3.1 3.85 3.85 0 0 0 1.4 3.2 4 4 0 0 0 2.8 1.1 3.58 3.58 0 0 0 2.4-.9 3.11 3.11 0 0 0 1.1-2.1H154l-.1-1.5z"/>
  </g>
  <path class="c" d="M164 .7v11.5h5.2v-1.5h-3.4V.7H164zM174.6.7v11.5h6.3v-1.5h-4.6V6.8h4.5V5.1h-4.5V2.3h4.6V.7h-6.3z"/>
  <g class="b">
    <path class="c" d="M87.7 9.1h-4.8l-1.4 3.2h-2L84.6.7h1.2c1 2.4 5.1 11.6 5.1 11.6h-2zM87 7.5l-1.7-4.1-1.7 4.1z"/>
  </g>
  <path class="c" d="M25.8.6L22 8.8 18.3.6h-.4l-2.4 11.6h1.8l1.3-6.9 3.1 6.9h.5l3.1-6.9 1.2 6.9h1.8L26.2.6h-.4zM95.6.6v11.6h1.7V4.1l8.2 8.1h.6V.7h-1.7v8.1L96.2.6h-.6z"/>
  <path d="M189 5.8a2.9 2.9 0 1 1 2.9-2.9 2.9 2.9 0 0 1-2.9 2.9m0-5.5a2.61 2.61 0 0 0-2.6 2.7 2.52 2.52 0 0 0 2.6 2.6 2.61 2.61 0 0 0 2.6-2.7A2.52 2.52 0 0 0 189 .3m.6 2.9l.8 1.2h-.7l-.7-1.1h-.6v1.1h-.6V1.3h1.4c.7 0 1.2.4 1.2 1a1 1 0 0 1-.8.9m-.5-1.4h-.8v1h.8c.4 0 .6-.2.6-.5s-.2-.5-.6-.5"/>
</svg>
