<svg xmlns="http://www.w3.org/2000/svg" viewBox="0 0 520.29 123.63" aria-labelledby="missfits-logo-title">
  <title id="missfits-logo-title">Marketing MissFits</title>
  <g class="missfits-logo__missfits">
    <path d="M46.92,127.49,13.56,47.81l-.62.06c-.08.87-.22,1.74-.22,2.62q0,33.79,0,67.6c0,5.57.56,6.26,6.13,7,3.28.43,6.59.57,9.84,1.66H1c0-.26-.07-.51-.11-.77,1.8-.2,3.61-.36,5.41-.6,4.45-.6,5.29-1.44,5.29-5.84,0-23.88,0-47.76,0-71.64,0-3.67-1.52-5.44-5.18-5.56-1.85-.06-3.7-.41-5.55-.63,0-.31,0-.61,0-.92,1.13-.08,2.26-.23,3.39-.24,6,0,12,.14,18-.08,2.67-.1,3.84.9,4.82,3.27C35.21,63.14,43.4,82.5,51.57,101.88c.52,1.23,1.09,2.44,1.92,4.27.68-1.69,1.2-2.87,1.63-4.08,7-19.33,13.94-38.63,20.75-58,1-2.78,2.27-3.75,5.23-3.63,6.17.26,12.36.08,18.54.08,0,.35.06.69.1,1-1.17.2-2.34.44-3.52.61-5.47.77-5.77,1.1-5.77,6.76q0,30.67,0,61.35c0,3.06,0,6.12,0,9.18,0,4.61.84,5.49,5.47,6a6.76,6.76,0,0,1,3.77,1.18H67.15c0-.19-.07-.38-.11-.57a22.77,22.77,0,0,1,2.56-.52c6.22-.61,6.68-1.09,6.71-7.47q.12-23.52.21-47c0-7.46,0-14.92-.63-22.57l-28,79.07C47.54,127.53,47.23,127.51,46.92,127.49Zm-18.42-.26H.5a.51.51,0,0,1-.5-.5H0a.5.5,0,0,1,.5-.5h28a.5.5,0,0,1,.5.5h0A.5.5,0,0,1,28.5,127.23ZM201.69,65.59c-.44-1.25-.82-2.31-1.19-3.37-2.14-6.2-5.07-11.94-9.95-16.48-5.08-4.72-11.07-6.09-17.71-4.52-10.45,2.48-14,15-6.34,23.28,3.17,3.43,7.34,6,11.32,8.6,5.34,3.43,11.17,6.13,16.4,9.72,9.85,6.77,13.3,16.05,10.56,26.73-2.52,9.81-10.67,16.62-21.7,18.17-10.23,1.43-20-.4-29.42-4.28a4.18,4.18,0,0,1-3-4.35c-.14-6.17-.58-12.32-.9-18.49l.88-.17c.29.82.51,1.68.88,2.47,2.44,5.15,4.21,10.82,7.55,15.31,5.35,7.19,13.09,10.17,22.1,8.21,12.22-2.66,16.88-18.52,8-28-3.09-3.32-7.27-5.72-11.18-8.16-6.41-4-13.53-7.06-19.44-11.68a20.88,20.88,0,0,1,3.28-35.29c12.73-6.62,25.63-4.45,38.24.94a2.69,2.69,0,0,1,1.38,1.87c.45,6.22.77,12.45,1.1,18.68C202.58,64.92,202.26,65.08,201.69,65.59Zm16,34.9c.49,1.69.93,3.41,1.48,5.08,3.4,10.28,8.91,18.56,20.36,21,7.93,1.7,15.51-1.36,18.75-7.46,3.87-7.27,2.86-16.17-3-21.65a58.71,58.71,0,0,0-10.17-7.13c-5.46-3.25-11.25-6-16.64-9.31-8.35-5.22-12.39-12.84-10.65-22.75s8.51-15.49,17.9-17.74c10.45-2.51,20.67-1,30.46,3.31.88.39,2.09,1.31,2.16,2.08.57,6.39.91,12.81,1.31,19.22l-1,.29c-.41-1-.86-2-1.21-3-2.11-6.22-5-11.95-9.87-16.53-5-4.75-11-6.19-17.67-4.69-10.65,2.4-14.27,15.06-6.41,23.46,3.11,3.33,7.16,5.88,11,8.37,5.45,3.49,11.38,6.26,16.7,9.92,9.68,6.68,13.1,15.86,10.48,26.45-2.42,9.78-10.56,16.72-21.58,18.33-10.35,1.51-20.2-.36-29.77-4.32a4,4,0,0,1-2.83-4.09c-.16-6.22-.59-12.43-.92-18.64Zm247.66,0c.94,2.85,1.72,5.76,2.84,8.54,3.57,8.87,9.27,15.51,19.13,17.54,7.77,1.6,15.3-1.34,18.55-7.21,4-7.31,3.07-16.41-2.92-22-3.1-2.87-6.87-5.06-10.5-7.28-6.35-3.89-13.33-6.92-19.14-11.48-12.82-10.05-10.43-29.19,4.36-36,12.4-5.72,24.84-3.71,37,1.5.59.25,1.38.92,1.42,1.45.51,6.51.9,13,1.32,19.54l-1,.26c-.4-1-.83-2-1.19-3.08-2.12-6.21-5-12-9.9-16.51-5.05-4.74-11-6.16-17.68-4.63C477.09,43.6,473.4,56.05,481,64.41c3.15,3.45,7.31,6.07,11.29,8.64,5.44,3.5,11.38,6.26,16.7,9.93,9.66,6.67,13.05,15.89,10.41,26.47-2.45,9.81-10.58,16.69-21.62,18.28-10.35,1.49-20.2-.39-29.77-4.35a4,4,0,0,1-2.77-4.13c-.16-6.21-.59-12.41-.91-18.62ZM287,40.87h62.87V60.68l-.49.16c-.71-2-1.39-4-2.14-6-3.62-9.54-8.72-13.08-18.85-13.09H310.64V85.1c5.77-.37,11.65-.22,17.3-1.26,4.81-.89,6.7-5.31,7.92-9.72a7.49,7.49,0,0,1,1.45-3.34V99.9l-.59.17c-.24-.92-.5-1.84-.71-2.77-1.77-7.77-6-11.21-14-11.32-3.67,0-7.33,0-11.45,0-.07,1.45-.18,2.73-.18,4q0,14.15,0,28.29c0,6.2.5,6.71,6.86,7.29a3.55,3.55,0,0,1,2.38,1H287.08c-.05-.21-.09-.41-.14-.62,1.56-.2,3.12-.44,4.68-.6,3.2-.33,4.7-1.92,4.69-5.29q-.1-36.18,0-72.37c0-3.46-1.34-5.28-4.88-5.43-1.5-.06-3-.4-4.48-.61C287,41.4,287,41.14,287,40.87ZM408.69,126a12.05,12.05,0,0,1,1.65-.41c7.44-.81,7.52-.89,7.53-8.17V42c-6.43-.5-12.84-1.22-17.14,3.87-3.63,4.3-6,9.65-8.55,13.89v-19h65.48v20C454,48.12,447.44,39.49,432,42.17v75.69c0,6.8.18,7,7.15,7.71a2.88,2.88,0,0,1,2.08,1.17H408.74C408.72,126.5,408.71,126.25,408.69,126Zm-267.83.85H108.33c0-.27-.09-.54-.14-.81,1.4-.2,2.79-.49,4.19-.6,3.47-.28,5.22-1.81,5.21-5.59q-.14-36,0-72c0-3.64-1.38-5.5-5.09-5.62A7.82,7.82,0,0,1,108.25,41H140.9c0,.24.06.47.1.71l-4.08.6c-4.68.66-5.25,1.28-5.25,6.13q0,32.31,0,64.63c0,1,0,2,0,2.94.15,7-1.69,9.26,8.21,9.71a3.76,3.76,0,0,1,1.15.48C141,126.38,140.91,126.61,140.86,126.85Zm246.61-.13H354.91c-.05-.23-.09-.46-.14-.69,1.4-.2,2.79-.48,4.2-.6,3.47-.28,5.21-1.82,5.2-5.6q-.14-36,0-72c0-3.65-1.4-5.5-5.1-5.61a7.8,7.8,0,0,1-4.24-1.31h32.66c0,.24.06.49.1.73-1.73.24-3.45.55-5.19.7-2.82.25-4.15,1.73-4.15,4.54q0,36.9,0,73.81c0,2.65,1.25,4.11,3.84,4.46l5.49.75C387.54,126.21,387.5,126.47,387.47,126.72Z" transform="translate(0 -4.62)"/>
  </g>
  <g class="missfits-logo__marketing">
    <path d="M3.5,27.39s0,.14.06.12l0-.17ZM4,27.7a.38.38,0,0,0,.13-.37c-.08.16-.1.09-.19.28a.09.09,0,0,1-.11-.11s-.11,0-.15.07a.2.2,0,0,0,.33,0S4,27.67,4,27.7Zm6.91.26,0,0A.05.05,0,0,0,10.89,28Zm4.28.09a0,0,0,0,0-.05,0S15.18,28.06,15.17,28.05Zm.74.18h0S15.89,28.24,15.91,28.23Zm-5-.27L11,28C11,28,11,28,10.89,28Zm-6-.66-.06,0,.06,0ZM9,28.09H9l0,.07Zm-1.45,0s0-.13.06-.2,0,.09-.07.1A.38.38,0,0,0,7.55,28.12Zm-2.29-.25,0,0Zm4.78.25a.43.43,0,0,0,0,.05A.11.11,0,0,0,10,28.12Zm38.78-6.81,0,0S48.83,21.3,48.82,21.31Zm1.71-.56v0l0,.06ZM17.24,28.41Zm12.29-.1c-.14-.13.23-.16,0-.3C29.57,28.06,29.36,28.23,29.53,28.31ZM5,27.32H5S5,27.31,5,27.32ZM29.55,28h0l0,0Zm-9.22.32,0-.06A.08.08,0,0,0,20.33,28.33Zm-2.3-.2.06,0Zm3.49,0s0,0,.08,0v0A0,0,0,0,1,21.52,28.13Zm1.24,0,0,0h0Zm23.05-4.7.11.08C45.86,23.43,46,23.31,45.81,23.43ZM4.93,27.38s0-.05,0-.06h0A0,0,0,0,0,4.93,27.38ZM21.57,27l.2,0Zm16.16-.42,0,0S37.74,26.58,37.73,26.6ZM22.35,27a.33.33,0,0,0,.11.1.05.05,0,0,0,0,0Zm23.58-3.51Zm.9-1c-.16.1,0,.2.05.31-.16.16-.16-.06-.27-.1-.09.12-.09.32-.18.37s0,0,0-.07c-.05.2-.37.22-.42.47l0,0a.69.69,0,0,1,.15.21c-.07.05-.07.18-.16.09s0-.07,0-.11l0,.09c-.15-.11.07-.11,0-.22-.12.13-.22.36-.35.38s.23-.2,0-.25l.21-.05c-.27-.15.11,0-.15-.22-.25.09-.21.23-.46.31,0,.11.08.11.08.22-.25.32-.46-.24-.6.09,0,.13.06.34-.16.33l0-.2c-.23.1,0,.32-.3.32,0-.09.15-.15.11-.15-.22-.05-.06.15-.18.21l-.1-.14c-.23.14-.45.38-.71.53,0-.05,0-.12-.07-.14a2.14,2.14,0,0,1-1.13.34l-.08.19s-.08,0-.06-.08c-.15,0,0,.09,0,.17a.07.07,0,0,1-.1-.1c-.18.22-.58.51-.88.44l0-.06c-.21,0-.12.36-.35.29l0,0c-.44.08-.88.37-1.27.23,0,.22-.45,0-.41.31-.28-.08-.23-.15-.6-.15-.1,0-.1.22-.2.28l0-.15-.12.19-.12-.16-.1.06s.11.05.11.09a.41.41,0,0,1-.46-.1l-.38.2c0-.06.06-.1.11-.15-.19.2-.07-.15-.24,0,0,0,0,.09,0,.12a.64.64,0,0,0-.5,0l0-.11c-.3,0-.63.13-1,.17a.13.13,0,0,1,0,.25L35.43,27c0,.11.11.05,0,.19s-.11-.17,0-.24l-.15.07s0-.08,0-.14c0,.11-.28-.13-.35.05v-.05c-.34,0-.49.11-.76.13,0,.14-.11.11-.18.23a2.49,2.49,0,0,0-.69-.12c-.17.08,0,.12-.12.21,0-.13-.26-.11-.14-.2a3.88,3.88,0,0,0-.76.15c0,.05.09.08.06.12a.12.12,0,0,1-.15-.12h0c-.43.19-1-.37-1.33-.11h0l-.36.14c-.16,0,.1-.1,0-.18-.38.21-.61,0-.92.11-.24-.38-.87,0-1.2-.21l0,.09c-.09.09-.1-.05-.17-.07s.09.08,0,.13A9,9,0,0,1,26,26.9c-.27,0-.15.46-.49.25l.1-.17c-.55.2-1.12,0-1.65.16,0,0,0-.09.08-.09-.11-.12-.42,0-.42.09s0-.09-.07-.14-.28.15-.34,0,0,0,.05-.05-.34,0-.27.12c-.2-.07-.38.06-.54,0-.1.15-.34-.07-.38.14,0-.23-.35-.18-.48-.08,0-.07-.11-.07-.06-.17-.14,0-.28.05-.25.16-.27-.27-.54.22-.69-.13a10.6,10.6,0,0,1-1.21.26c0-.23.43,0,.41-.26-.37.09-.58.29-.94.23-.09,0,.05-.1.09-.14-.37.09-.71,0-1,.1,0,0,0,0,.07-.06s-.15,0-.14.07l.06,0c.1.15-.26.31-.27.39.11-.29-.32-.07-.15-.45a.15.15,0,0,0-.09.14c-.06,0-.08-.06,0-.14-.23.06-.15.16-.36.16,0-.05,0-.07.06-.13a.4.4,0,0,1-.39.15s0-.07,0-.07c-.3,0-.52.26-.85.16.1-.22-.11-.07-.13-.26l-.16.13.07.09c-.16,0-.29.13-.43.07l.12-.08-.29,0,.17.07c-.16.1,0,.24-.19.18,0,0-.16,0-.24-.11h0a.27.27,0,0,1-.27.08c0-.06,0-.21,0-.25-.08.16-.37,0-.46.21a.24.24,0,0,0,0-.16l-.06.13c-.07,0-.08-.06-.07-.14-.22,0,.07.24-.19.13,0,0,0,0,.05-.05-.26-.05-.5.08-.74,0-.07-.19.21-.05.13-.2a4.81,4.81,0,0,1-1.05.18l.06,0c-.05.27-.25-.13-.42,0,0,0,0-.15,0-.12a2.3,2.3,0,0,0-.81.15l0-.07a2.62,2.62,0,0,0-.5-.07c0,.07-.13.06-.08.16-.45-.39-.85.21-1.25-.12,0,0,.11-.06.08-.06L9,27.4c0,.12,0,.07.12.16a.27.27,0,0,1-.22.12c.15-.08,0-.19-.07-.25s0,.07,0,.11c-.18-.21,0,.23-.27.09v-.06c-.09,0-.17.11-.27.09s.1-.06.1-.17-.27.25-.39.12a1.59,1.59,0,0,1,.2-.07c-.13-.16-.15-.12-.25-.14h0l-.23-.07.06,0c-.17.35-.35.06-.58.29.22-.22,0-.12,0-.28s-.15-.09-.12-.13c-.11.12-.18-.1-.34.08,0,0-.12,0-.09-.13-.14,0,0,.08,0,.15-.22.17-.51-.2-.83,0s-.32.26-.57.34c-.08-.08.07-.18.07-.18a.38.38,0,0,0-.37,0s0-.08,0-.13-.07.18-.21.11a.75.75,0,0,1,.1-.2c-.12,0-.24.14-.37.18s.08-.13.12-.18c-.14,0-.37.08-.41.21l.09,0s0-.12,0-.14.18,0,.18.1l-.09,0c.09.29.36-.05.54,0l-.08.21L5,27.58c0,.05.07.17,0,.2.13.1.11-.07.23,0s0,0,0,0l.13-.06s0,.15-.06.12c.23.12.37-.16.45,0h0c.32-.07,0-.15.27-.33l.16.38,0-.15s.1,0,.09.08c.12-.1,0-.07,0-.17.16.14.43-.07.47.18.06-.12-.15-.09,0-.17,0,.26.19,0,.34.08,0,.13-.18.06,0,.18.09-.23.28,0,.4,0s.26-.08.47-.14c0,.06.38.1.57.17v0c0-.18.23-.15.37-.19a.21.21,0,0,1-.11.2H9A.2.2,0,0,1,9.12,28l0,.14c.18,0,.36-.16.59-.07,0-.13-.18-.36.06-.44,0,.07,0,.19-.05.22s.07-.06.12,0l-.1.12c.1,0,0-.1.14-.09s.06.07.05.15-.07,0-.1,0a.37.37,0,0,1,.24.15c0-.06,0-.13.07-.15s.06.12.16.17.16,0,.16-.15.06.07.08.11.43,0,.33-.18h0c.3-.15.62.08.92,0V28c.18-.06.4,0,.52-.14a.14.14,0,0,1,.1.15c.14,0,.15-.09.35,0-.14.09,0,.08-.14.06.18,0,.22.12.41,0-.06.13.13.16.22.12l-.12-.09a.76.76,0,0,1,.26,0l0,.17c.36.2.65-.34.93,0,.1-.12-.2-.08-.11-.22.17,0,.34.26.39.26.23.09.21-.24.45-.18a.18.18,0,0,1,.12-.27c.17,0,.2.25.1.3s-.06,0-.06,0-.12.05-.06.11l0-.06c.08.06.31.05.26.15.13-.06.05-.1,0-.13.21.09.33,0,.55.06,0,0-.07-.1,0-.1.32.07.14-.11.36-.14s0,.22.18.14,0,.16,0,.21c.2-.11.37.08.49.1l-.11,0a.34.34,0,0,1,.17,0l-.06-.12c.06,0,.11,0,.11.07s-.05-.2.08-.3c.08.06.25-.06.28.09-.26-.05,0,.16-.19.18a.22.22,0,0,1,.16,0s0,0,0,0c.25.14.11-.18.37-.17,0,.09.06.17.1.15s0-.15.05-.22.18-.05.27,0l-.1,0c0-.09.12-.08.23-.11s-.1.05-.06.08c.13-.16.29.16.47.06.08.06,0,.17.08.21.2-.12.22.12.43,0-.06-.12-.07-.09.08-.21l-.35.08.22-.17c-.1,0-.22.07-.28.05.11-.1.09-.07,0-.17.14.18.28-.1.45,0v.3c.25.13.44-.15.76-.08l-.1-.05c0-.12.2,0,.3-.06s.06.13.1.2.24,0,.27-.19l.14.13c.26.05.3-.28.55-.25-.08.11,0,.18-.13.25.08,0,.16,0,.16-.05s.23-.13.31,0,0-.15.14-.14a.08.08,0,0,1,0,.05c0-.05.15-.07.06-.18.26.31.72,0,.94.24.18,0,.4-.06.57-.07,0,0,0,.05,0,0,.23.09.14-.28.4-.18s-.14.09-.06.15c0,.32.31,0,.49.15l0,0c.13.11.33-.12.54-.1a.08.08,0,0,0,0,0,1.23,1.23,0,0,1,.64-.27c-.07.13-.1.07-.06.2s0-.21.16-.24.2.13.21.27h-.18c.09.18.23,0,.32,0v.08c.27,0,.28-.22.57-.21l0-.06c.16-.19.13.11.29,0l.05.2a3.07,3.07,0,0,1,.56-.23c-.11.15-.33.22-.46.31.1,0,.35,0,.41-.11s-.1.07-.14,0a.61.61,0,0,1,.5-.23c0,.38.54.1.69.39.37-.14.73.06,1.16,0-.15-.3.13,0,.1-.31.1,0,.14,0,.15,0l.3.18c.07.09-.09.07-.09.14.22,0,.09.13.24.21,0-.11.08-.16.2-.11L30,28.3c.31-.16.26.26.57.1l-.1.1c.16-.06.58,0,.74-.24,0,0,.06.12,0,.14.38,0,.84-.26,1.13-.11l0,.07c.07,0,.12-.14.21-.07s0,.08,0,.08.19-.14.29-.1l-.08.09c.38.08.57-.23.88-.29,0,.22.31.28.46.31v0a3,3,0,0,0,1.12-.36c.28.21.86,0,1.28.09-.07,0,0-.17.05-.2s.23-.2.25,0h0c.1.18.29.09.44.07l0-.26c.46.3,1-.33,1.28,0,.08-.09.19-.12.27-.21l0,.14a2.28,2.28,0,0,0,.71-.17l0,.11c.18,0,.12-.45.28-.5l.12.16c.31-.08.68,0,.92-.3,0,0,0,.09,0,.12.15,0,.61,0,.46-.31.06.18.32-.09.46-.22l0,.14c.08-.21.06-.27.24-.39s.08.09,0,.08c.18,0,.07-.17.28-.17l0,.11c.16-.05.13-.09.18-.22a.29.29,0,0,1,.38,0c0-.08,0-.21.14-.21a.09.09,0,0,1,0,.1c.3,0,.32-.3.55-.26q0,.06.06.06a2.33,2.33,0,0,1-.36.14c0,.12.23.07.16.29.1-.14.23-.44.42-.46l0,0v0a.13.13,0,0,0,.09-.07.37.37,0,0,0,.15,0c.06.09.21,0,.29-.07s.05-.15-.1-.21c0,0,0,0-.06.05l0,0h0l-.2.1c0-.09.07-.18.2-.15s0-.21,0-.26c.19.13.45.12.54.22.21-.19.55-.35.57-.66.05-.07.11,0,.16.05s-.08.07-.08.11c.1-.13.39-.24.34-.42.21,0,0,.2.21.05v.07c.61,0,.5-.84,1.19-.81,0,0-.07,0-.09,0,.65-.22,1.06-.87,1.74-1,.18-.06.13-.17.17-.31l.12.1,0-.26c.14-.27.61,0,.73-.41l-.1-.05c.11-.06.27-.3.33-.19s0-.11,0-.1l.05.06.14-.3c.22-.12.18.26.45,0,.08-.11.12-.43,0-.43a.14.14,0,0,1-.19,0l.06-.11c-.15-.18-.26-.4-.56-.34l0,.23-.12,0,.11-.11c-.14,0-.12.09-.12.18a.2.2,0,0,0-.14,0V21c-.08-.05,0-.19-.18-.15s.2.1.13.25c-.14,0-.17-.1-.2,0a.1.1,0,0,1,0-.13c0,.12-.18.19-.14.31-.16,0-.23.24-.36.06a.45.45,0,0,1-.1.3c0-.31-.28.19-.41-.06,0,.27-.28.35-.39.58,0,0,0-.07,0-.07a.51.51,0,0,1-.27,0c.1.17,0,.31,0,.47-.23-.07-.06-.24-.2-.36.1.13-.12.28,0,.36-.16,0-.11,0-.25-.1.12.21-.07.09-.06.27-.2,0-.16-.17-.27,0C46.74,22.72,46.83,22.56,46.83,22.56ZM43.26,25h0l.08,0Zm-.32.16.15-.06s0,.09,0,.1S43,25.16,42.94,25.15Zm1.11.55s-.08,0-.09,0l.09-.06v0A.21.21,0,0,0,44.05,25.7Zm0-.21,0,0H44v.05ZM10.84,27.94h0a0,0,0,0,0,0,0Zm27.27-1.49v0l0,0Zm-29.3,1a.05.05,0,0,0,0,0S8.79,27.44,8.81,27.45Zm-.88,0-.12-.05Zm-.68-.07a.13.13,0,0,0,0,.06h0ZM18,27.19h0C18.07,27.15,18,27.16,18,27.19Zm-3.19.33.1-.07C14.84,27.44,14.79,27.44,14.79,27.52Zm6.76-.5ZM15,27.45a.16.16,0,0,0-.15,0A.26.26,0,0,0,15,27.45ZM4.33,27.29h0v0Zm0,0,0,0S4.29,27.32,4.29,27.31Zm-.11.05.08,0A.07.07,0,0,0,4.18,27.36Zm1,0V27.3A.43.43,0,0,0,5.22,27.35Zm.27,0c-.06,0-.16-.11-.25-.08v0C5.28,27.23,5.43,27.42,5.49,27.34ZM6.63,28l-.23,0c0,.05.09.13,0,.14C6.68,28.23,6.33,28,6.63,28Zm.7.08c-.12,0,0,.08,0,.11S7.42,28.1,7.33,28.05Zm5.1,0v.13C12.51,28.16,12.42,28.13,12.43,28.05Zm1-.66-.09-.08,0,.11Zm.58.91,0,0,.16-.05Zm8.56-.05,0-.16C22.45,28.12,22.43,28.3,22.54,28.25Zm3.7-.16c0,.08.14.13.21.05C26.36,28.13,26.28,28.07,26.24,28.09Zm11.17-.22-.07.07.13-.07Z" transform="translate(0 -4.62)" />
    <path d="M79.08,19.63a.54.54,0,0,1-.22.78,4.78,4.78,0,0,0-.75.53,13.79,13.79,0,0,1-2,1.23.56.56,0,0,0-.25.15,4.59,4.59,0,0,1-.92.61c-.35.18-.73.37-1.16.57l-.93.45A22.5,22.5,0,0,0,70.65,25l-1.1.5a1.58,1.58,0,0,1-.75,0,1.11,1.11,0,0,1-.34-.22,2.4,2.4,0,0,1-.6-1.25,3.68,3.68,0,0,1,0-1.48c.06-.18.19-.5.36-.95s.31-.8.39-1.05v-.25a.29.29,0,0,1-.15.06,13.1,13.1,0,0,0-1.91.91,3.46,3.46,0,0,0-1.07.66,6.76,6.76,0,0,0-.67.4c-.28.19-.47.31-.55.35l-1.32.78L61,24.86a.8.8,0,0,1-.34.19c-.36.23-.64.19-.85-.13a4.59,4.59,0,0,1-.44-1c-.08-.13,0-.38.1-.75a2.35,2.35,0,0,0,.18-.49c.07-.22.12-.38.16-.48.23-.55.52-1.36.88-2.43s.56-1.7.62-1.87l.13-.56a.34.34,0,0,0-.2,0,.46.46,0,0,0-.15.09c0,.05-.07.07-.09.07l-.44.22a.41.41,0,0,1-.28.22l-.41.28a1.12,1.12,0,0,0-.18.14.85.85,0,0,1-.22.14c-.65.56-1.44,1.2-2.35,1.91l-.27.24c-.12.09-.2.16-.27.2A5.57,5.57,0,0,1,55.49,22a14.38,14.38,0,0,0-1.44,1.41c-.09.08-.23.24-.44.48a4.73,4.73,0,0,1-.54.55q0,.09,0,.09a7,7,0,0,0-1,1,12.87,12.87,0,0,1-1,1,6.64,6.64,0,0,0-1,.88.5.5,0,0,1-.35.12c-.12.06-.29,0-.5-.12a2.18,2.18,0,0,1-.63-2.2l.38-1a14.45,14.45,0,0,1,1.54-3s.14-.21.37-.58a2.67,2.67,0,0,0,.41-.89.4.4,0,0,1,.56-.22,2,2,0,0,1,.79.69.72.72,0,0,1-.07,1,5.13,5.13,0,0,0-.39.64,2.64,2.64,0,0,1-.48.67,2.28,2.28,0,0,0-.24.39,3.67,3.67,0,0,1-.2.36c-.13.21-.3.52-.52.91s-.39.69-.52.88a.6.6,0,0,0-.06.31l.72-.59,3.23-3.29a10.16,10.16,0,0,1,.83-.72c.38-.32.67-.57.86-.76S57,19,58.53,17.72q.24-.2.81-.6c.38-.27.67-.47.88-.59a4.2,4.2,0,0,1,1.13-.63.66.66,0,0,1,.94.09.14.14,0,0,0,0,.11.28.28,0,0,0,.11.08h.07a.81.81,0,0,1,.5,1,11.51,11.51,0,0,1-.5,2.07,1.11,1.11,0,0,0-.22.63,1.94,1.94,0,0,1-.29.66c-.16.27-.27.45-.31.53-.19.77-.28,1.17-.28,1.19a1.75,1.75,0,0,0-.16.25q-.06.12-.12.27A1.33,1.33,0,0,0,61,23v.07a.19.19,0,0,0,.13.06l0,0a.27.27,0,0,1,.12,0L63.08,22l2.06-1.32a14.08,14.08,0,0,1,3.25-1.53l.63-.35a1,1,0,0,1,.78-.06c.15,0,.22,0,.22.16s.11.25.19.25c.25,0,.38.1.38.31a2.91,2.91,0,0,1,0,.5A7.9,7.9,0,0,0,70.18,21a12.77,12.77,0,0,1-.72,1.44c0,.08-.12.23-.22.45s-.19.41-.25.57a2.62,2.62,0,0,0-.13.48.31.31,0,0,0,0,.19s.08,0,.14,0c.59-.21,1.42-.57,2.51-1.09l1.82-.88a20.61,20.61,0,0,0,3.72-2c.86-.46,1.37-.72,1.54-.78S79,19.36,79.08,19.63ZM57,19.75c.27,0,.43-.11.47-.34C57.28,19.41,57.13,19.52,57,19.75Zm1-.75a.29.29,0,0,0,.28-.22A.28.28,0,0,0,57.93,19Zm.41-.37a.62.62,0,0,0,.47-.29A.55.55,0,0,0,58.34,18.63Zm18.17,2.78c.27-.1.43-.23.47-.37A.59.59,0,0,0,76.51,21.41Zm.88-.53a.3.3,0,0,0,.34-.31A.3.3,0,0,0,77.39,20.88Z" transform="translate(0 -4.62)"/>
    <path d="M95.12,20.88a1,1,0,0,0-.69.38,1.46,1.46,0,0,0-.91.56,19.52,19.52,0,0,0-2,.78.4.4,0,0,0-.06.13l.12.09.28-.09.35-.13a1.81,1.81,0,0,1,.31-.09v0h0a1.38,1.38,0,0,0-.82.6h-.09a.4.4,0,0,0-.39.17.89.89,0,0,1-.24.23l-.91.32a6,6,0,0,1-1.94.78l-.64.11-.89.17h-.32c-.23.17-.63.16-1.22,0a1.3,1.3,0,0,1-.88-.66.45.45,0,0,0,0-.17c0-.07-.06-.14-.08-.2a2.27,2.27,0,0,1-.38-2.16,4,4,0,0,1,.19-.71c.11-.3.17-.48.19-.55v-.06c-.06-.06-.11-.07-.13,0l-2.22,1.57a14.15,14.15,0,0,0-1.25.78c-.86.63-1.33,1-1.41,1s-.71.46-1.69,1.07a.43.43,0,0,0-.15.06.38.38,0,0,1-.17.06H76a1.45,1.45,0,0,1-.91-.48,2.27,2.27,0,0,1-.38-1.08,2.09,2.09,0,0,1,.22-1c.07-.08.19-.24.36-.47s.31-.4.39-.53Q76,21,77.76,19.22a23.64,23.64,0,0,1,2.16-1.69,8.7,8.7,0,0,1,2.17-.88,1.1,1.1,0,0,1,.86.06,1.45,1.45,0,0,1,.73.54.54.54,0,0,1,.1.2.17.17,0,0,1,0,.17.12.12,0,0,1-.16,0,.89.89,0,0,0-.58-.07l-.52.07-.45.16-.39.16a11.29,11.29,0,0,0-2,1.5l-1.09,1.1a3.36,3.36,0,0,0-.5.44c-.17.16-.35.35-.54.56s-.33.37-.43.47a.37.37,0,0,0-.18.28.43.43,0,0,1-.14.28c-.39.4-.57.63-.53.69l.06,0a.7.7,0,0,0,.25,0,1.11,1.11,0,0,0,.27-.13L77.1,23a16.87,16.87,0,0,0,2.6-1.59c.61-.38,1.5-1,2.67-1.82.56-.42,1.21-.85,1.94-1.29a.58.58,0,0,0,.2-.11.4.4,0,0,1,.14-.07.25.25,0,0,1,.19-.07.8.8,0,0,0,.49.3,2.43,2.43,0,0,1,.39.11s.07.05.22.09c-.06.09,0,.17.06.26s.16.15.16.21a.66.66,0,0,0,0,.29c0,.14,0,.22-.06.22a1.49,1.49,0,0,0-.14.53c0,.23-.06.37-.08.44a11.32,11.32,0,0,0-.57,1.28,4.36,4.36,0,0,0-.31.78.61.61,0,0,1-.14.32c-.1.12-.11.23,0,.31a2.64,2.64,0,0,0,.78.1,6.2,6.2,0,0,0,2.35-.51l1.7-.75c3-1.17,4.75-1.8,5.1-1.91L96,19.85a.49.49,0,0,0,.25-.06l.06.09,0,.12-.13.13a5.4,5.4,0,0,0-1.66.41v0a2.37,2.37,0,0,0,.41.11,1.37,1.37,0,0,1,.31.08Zm-14.51.44.07-.06h-.07Zm.13-.12c.06,0,.09-.06.09-.16S80.74,21.09,80.74,21.2Zm.12-.16c.25,0,.39-.1.41-.28C81.15,20.76,81,20.85,80.86,21Zm.47-.28a.36.36,0,0,0,.44-.32A.55.55,0,0,0,81.33,20.76Zm.54-.38c.27,0,.41-.08.44-.25C82,20.13,81.89,20.21,81.87,20.38Zm.44-.25a.51.51,0,0,0,.47-.34A.46.46,0,0,0,82.31,20.13Zm.5-.34a.62.62,0,0,0,.47-.32C83,19.51,82.85,19.62,82.81,19.79Zm.47-.32a.47.47,0,0,0,.47-.31A.47.47,0,0,0,83.28,19.47Zm.47-.34c.25,0,.39-.05.43-.28A.39.39,0,0,0,83.75,19.13Zm.53-.38,0,0h0Zm4.2,5a2.08,2.08,0,0,1,.55-.23,1.5,1.5,0,0,0,.61-.33H89c-.25,0-.61.12-1.07.24l-.84.2-.07,0a.47.47,0,0,1-.12.09v.07s0,0,.06,0,0,0,.06,0l.44-.14a1.7,1.7,0,0,1,.46-.11,2.09,2.09,0,0,1,.51.12Zm1.38-1.44h.06c0-.06,0-.09-.1-.09h-.06Zm.21.91v0a.07.07,0,0,0,0-.06S90.05,23.17,90.07,23.23Zm.41-.09a.13.13,0,0,0,0-.1l0,0,0,0c-.15,0-.22.05-.22.16Zm0-1v-.06h-.09Zm.31-.09c.11,0,.16-.06.16-.19l-.19,0a.36.36,0,0,0-.25.16Zm1-.41v-.06a.79.79,0,0,0-.79.28A.86.86,0,0,0,91.77,21.63Zm0-.09a.75.75,0,0,0,.78-.28A1,1,0,0,0,91.77,21.54Zm.78,1a.09.09,0,0,1,.06,0Zm.09-1.25a.47.47,0,0,0,.44-.22h-.37S92.64,21.11,92.64,21.26Zm.44-.22a3.59,3.59,0,0,0,1.38-.38h0a2.4,2.4,0,0,0-1.41.35Zm.66.12.06,0v0Zm1.47-.72h.29a.35.35,0,0,0-.13.22h0C95.21,20.58,95.17,20.51,95.21,20.44Zm.38-.06-.06.06A.05.05,0,0,1,95.59,20.38Z" transform="translate(0 -4.62)"/>
    <path d="M107.65,19.47s.06.09.06.19a1.23,1.23,0,0,1-.25.5,7.49,7.49,0,0,1-1.34,1.13,9.12,9.12,0,0,0-1.35,1.1,1.81,1.81,0,0,1-1.5.56.55.55,0,0,1-.47-.25c0-.06-.06-.14-.1-.24a.58.58,0,0,1-.06-.2,2,2,0,0,1-.28-1.53c0-.05,0-.09-.1-.13a.15.15,0,0,0-.15,0l-.47.19a2.34,2.34,0,0,0-.47.22l-1.24.76c-.62.39-1.12.72-1.51,1a13,13,0,0,0-1.11.88l-.56.37a2.63,2.63,0,0,1-.28.25l-.29.25a6.23,6.23,0,0,0-1.06,1.16l-.63.74a10,10,0,0,0-.84,1.11,2.27,2.27,0,0,1-.3.43,1.83,1.83,0,0,0-.27.36c-.1.18-.24.24-.4.15l-.11,0a.16.16,0,0,1-.08-.05h-.07a1.28,1.28,0,0,0-.23-.31,2.91,2.91,0,0,1-.24-.32V27a1.76,1.76,0,0,1,.26-.44l1.53-2.79c.48-.83,1.08-2,1.79-3.35.41-.85.65-1.37.72-1.53a.71.71,0,0,1,1-.29l.5.29c.15.23.17.38.06.47a3.42,3.42,0,0,0-.45.78c-.16.36-.27.58-.33.69l-.85,1.53s0,0,0,.07a.12.12,0,0,0,0,.09h.1a23.67,23.67,0,0,1,4.1-2.72c.25-.13.63-.3,1.15-.52s.9-.39,1.17-.52a1.25,1.25,0,0,1,.83-.08,1.48,1.48,0,0,1,.71.43l.5.53c.16.21.13.43-.1.66a1.48,1.48,0,0,0-.4.5,1.3,1.3,0,0,1-.25.48,1.18,1.18,0,0,0-.25.49,9.24,9.24,0,0,0,2-1.13C106.84,19.94,107.46,19.56,107.65,19.47Z" transform="translate(0 -4.62)"/>
    <path d="M121.47,9.23a.43.43,0,0,0-.22.12c-.13,0-.13.11,0,.19a.44.44,0,0,0-.08.16.52.52,0,0,1-.09.17.18.18,0,0,1-.18,0,1.28,1.28,0,0,0-.15.26.94.94,0,0,1-.19.25c-.15.18-.48.54-1,1.06a.67.67,0,0,1-.54.19.39.39,0,0,1-.12.28l-.32.16a.18.18,0,0,1,.1.09l0,.06a.4.4,0,0,1,.06.13q0,.09-.06.09a3.52,3.52,0,0,0-.6.52,4,4,0,0,1-.47.45.59.59,0,0,1-.1.16.57.57,0,0,0-.11.16,2.69,2.69,0,0,0-1,1c0,.11-.06.16-.12.16a1,1,0,0,0-.41.3,3,3,0,0,1-.31.29,1.17,1.17,0,0,0-.3.27,1.64,1.64,0,0,1-.27.27l-.94.87a36,36,0,0,1-2.91,2.2,5.93,5.93,0,0,1-2.32,1.12,1.24,1.24,0,0,0-.22.12.4.4,0,0,1-.19.07l-.22.22a.81.81,0,0,1-.06.33,1.81,1.81,0,0,1-.2.33l-.18.25a3.1,3.1,0,0,0-.32.41l-.3.41a1.19,1.19,0,0,0-.28.75,4.63,4.63,0,0,0,.5-.25,11.22,11.22,0,0,1,1.28-1c.59-.41.94-.68,1.07-.78a7.84,7.84,0,0,1,1.12-.66.66.66,0,0,1,.41-.25c.21-.21.39-.28.53-.22a1.85,1.85,0,0,0,.18-.19l.2-.22a1.82,1.82,0,0,0,.5-.21,5.52,5.52,0,0,0,1.41-.66,1.64,1.64,0,0,1,1.07-.44l.15-.06a.84.84,0,0,0,.16-.07,2.69,2.69,0,0,1,1.32-.25,1.47,1.47,0,0,1,1.34.91.28.28,0,0,1,.07.22,5.79,5.79,0,0,1-.47,1.16,2.18,2.18,0,0,1-.69,1c-.8.63-1.3,1-1.51,1.13l-1.19.85c-.08.1-.15.15-.22.15a2.43,2.43,0,0,0-.87.36,3.81,3.81,0,0,1-.79.4,6.92,6.92,0,0,1-1.81.53.4.4,0,0,0-.38.28,1,1,0,0,1-.06.25.88.88,0,0,0-.07.31c0,.78,0,1.37-.06,1.79a.57.57,0,0,0,.13.25.24.24,0,0,0,.25.19,5.51,5.51,0,0,0,2.54-.28A23.72,23.72,0,0,0,115.89,26c.29-.13.71-.33,1.25-.6l.74-.4c.41-.23.7-.41.89-.54a11.73,11.73,0,0,1,1.73-.94c.12-.06.8-.46,2-1.19a3.45,3.45,0,0,0,.38-.23,1.91,1.91,0,0,1,.41-.24.63.63,0,0,0,.37-.22,18.49,18.49,0,0,1,1.69-.94,3.32,3.32,0,0,0,.76-.41.79.79,0,0,1,.84-.12c.23,0,.35.08.35.12a.77.77,0,0,0,.2.21.8.8,0,0,1,.2.22.53.53,0,0,1,.07.26v.13a.23.23,0,0,1-.13,0,4,4,0,0,0-1.66.69,1.58,1.58,0,0,1-.5,0,.2.2,0,0,0-.13,0s-.06,0-.06,0a.74.74,0,0,1-.66.5v-.12c-.21,0-.32,0-.34.12h0l0,0v0c-.17,0-.17.09,0,.13,0,.17,0,.25-.06.25a1.5,1.5,0,0,0-.6.38,2.05,2.05,0,0,1-.5.37,3.45,3.45,0,0,0-.72.28l-.57.29a2.71,2.71,0,0,0-.72.5c-.62.39-1,.63-1.22.72-.62.35-1.14.67-1.53.94l-.16.12c-.06.05-.09.08-.09.1l-1,.51-.8.43a7.34,7.34,0,0,1-1.78.87,5.52,5.52,0,0,1-1.66.6,3.12,3.12,0,0,1-1.82,0,2.24,2.24,0,0,1-1.69-1.16,4.15,4.15,0,0,1-.5-2.66,6.16,6.16,0,0,0,.21-1c.07-.05.1-.17.1-.38a.52.52,0,0,1,0-.56.23.23,0,0,1-.13-.1s-.06,0-.06.07a8.59,8.59,0,0,0-1.32,1.06c-.25.19-.59.49-1,.89s-.74.69-.91.83l-.19.16a.82.82,0,0,1-.28.22.38.38,0,0,0-.19.31c0,.19,0,.28-.22.28a.46.46,0,0,0-.4.38c0,.15-.12.19-.35.13a.75.75,0,0,1-.25-1.13,1.34,1.34,0,0,0,.13-.63,1.6,1.6,0,0,1,.34-.94,8.34,8.34,0,0,1,.44-1,.51.51,0,0,0,.08-.14.68.68,0,0,1,.11-.19.56.56,0,0,1,.16-.14,2.26,2.26,0,0,1,.65-1.07c0,.09,0,.11.13.06s-.06-.06-.13-.06a.62.62,0,0,1,.35-.5c0-.33.14-.54.31-.63a.85.85,0,0,1,.35-.5,1,1,0,0,1,.5-.81v.31c.12-.08.12-.19,0-.31a1.34,1.34,0,0,0,.12-.3.82.82,0,0,1,.22-.36c.13.11.22.11.28,0v-.09l-.09-.07a.68.68,0,0,1,.44-.59.1.1,0,0,1,.06.09.23.23,0,0,0,0-.09h-.09a.43.43,0,0,1,.31-.47l-.06,0h.06v0c0,.06.08.05.19,0a1.08,1.08,0,0,0,.13-.38l.09,0-.09-.09c0-.17,0-.26.12-.29s.13.09.19,0h-.19c0-.14.06-.22.19-.22-.06-.1,0-.25.31-.43.08.14.13.14.13,0h-.13c0-.38.16-.6.47-.66.06.06.12.06.16,0h-.1c-.08-.13,0-.22.1-.28v.28a.27.27,0,0,0,.15-.28v0s.06,0,.1-.07a.3.3,0,0,1,.12-.11h-.22a1.14,1.14,0,0,1,.51-.63v.38a.48.48,0,0,0,.12-.38h-.12c.16-.44.37-.69.62-.75,0,.08.11.08.19,0h-.19c0-.21.07-.34.19-.38v.38a.72.72,0,0,0,.19-.38h-.19a.77.77,0,0,1,.19-.28c.29-.4.74-.94,1.35-1.64s.93-1.09,1-1.15a17.76,17.76,0,0,1,3-2.94,11.05,11.05,0,0,1,2.47-1.73,8.28,8.28,0,0,1,2.16-.9.71.71,0,0,1,.44-.1,1.48,1.48,0,0,0,.6.1,1.68,1.68,0,0,1,1.31.53.42.42,0,0,1,.13.33.81.81,0,0,1-.06.33,3.3,3.3,0,0,0-.47.78,6,6,0,0,0-1.23,1.41,1.05,1.05,0,0,1-.43.47,1.94,1.94,0,0,0-.4.33l-.26.26ZM106,23.14a.78.78,0,0,0,.09-.28c-.19,0-.28.15-.28.4,0,0-.06.1-.06.22h.12A.55.55,0,0,1,106,23.14Zm.25-.28a1.47,1.47,0,0,1,.25-.57.76.76,0,0,0,.11-.19c.05-.1.09-.15.12-.14a1,1,0,0,0,.24,0l.06,0-.15-.25c0-.07,0-.09-.1-.07l-.09.07a2.41,2.41,0,0,0-.6,1.16Zm0,0q0,.15.12,0A.17.17,0,0,1,106.21,22.86Zm1.25-2.35-.12,0a.21.21,0,0,0-.11.08.46.46,0,0,0-.07.1l0,.1a.61.61,0,0,1-.05.11s0,.07,0,.14a.9.9,0,0,0,0,.15l.13-.1a.37.37,0,0,0,.15-.19,1.15,1.15,0,0,1,.19-.15Zm1.6-2.67c-.08,0-.12.15-.12.38h.12Zm.6,4.86H110a1.37,1.37,0,0,1,.88.41l.07.15.1.16a.14.14,0,0,0,.11.06l.23-.09.21-.1a1,1,0,0,0,.26-.14,1.78,1.78,0,0,1,.27-.14,5.14,5.14,0,0,0,1-.44,20.64,20.64,0,0,0,2.45-1.91A3.69,3.69,0,0,0,116.74,19v-.22h-.16l-.75.3a8.77,8.77,0,0,1-1,.36c-.23.12-.37.2-.43.22s-.45.26-.9.55-.81.49-1.08.64a7.52,7.52,0,0,0-1.19.75l-.59.39-.6.39A.84.84,0,0,0,109.66,22.7Zm.06-5.61c.12-.14.16-.27.09-.38S109.72,16.86,109.72,17.09Zm4-4.51c-.07.08-.15.19-.25.33a2.15,2.15,0,0,0-.25.36,1.33,1.33,0,0,0-.16.34.59.59,0,0,1-.22.38l-.31.28a2.88,2.88,0,0,0-.35.36,1,1,0,0,0-.15.42l-.26.38a1.68,1.68,0,0,0-.53.75c0,.07-.25.32-.62.75a.22.22,0,0,0,0,.16,2,2,0,0,1-.59.78.36.36,0,0,0,0,.29c.12,0,.2,0,.22-.07l.72-.5q2.48-1.82,5.07-4A34.47,34.47,0,0,0,118.77,11s0,0-.06-.09-.09-.09,0-.16l.37-.34.35-.31.28-.29,1.44-1.47,0,.13s.08,0,.1-.13h-.13c0-.1,0-.16.13-.16l.09-.06.06,0a.1.1,0,0,1,.07,0v.12a.11.11,0,0,0,.12-.12h-.12a.27.27,0,0,1,.15-.22s0-.06.1-.06a1.67,1.67,0,0,1,.53-.75v.37l.22-.16V7.19s0,0-.09-.06a.22.22,0,0,0-.13-.06l.08-.11a.48.48,0,0,1,.09-.13.2.2,0,0,1,.14,0l.19-.18a.61.61,0,0,1,.16-.29,4.38,4.38,0,0,1,.5-.69c0-.25,0-.4-.09-.47a.69.69,0,0,0-.85,0,3.43,3.43,0,0,1-.75.47,14,14,0,0,1-1.26.65l-.5.27-.53.28a2.6,2.6,0,0,0-.47.3,2.46,2.46,0,0,0-.44.41,2.45,2.45,0,0,1-.72.5l-.66.53a3.36,3.36,0,0,1-.39.41,5.64,5.64,0,0,0-.42.41,3.83,3.83,0,0,0-.35.4,2.75,2.75,0,0,0-.28.47.48.48,0,0,1-.12.08.42.42,0,0,0-.13.08,1.94,1.94,0,0,1-.34.25L115,11a2.36,2.36,0,0,0-.19.32.77.77,0,0,1-.22.31C114.51,11.75,114.22,12.06,113.7,12.58Zm-2.85,2.94a.78.78,0,0,0-.51.54C110.64,16,110.8,15.86,110.85,15.52Zm1.44-2a.51.51,0,0,0-.32.28.7.7,0,0,0,.29,0A.52.52,0,0,0,112.29,13.55Zm3.13,1.13a2,2,0,0,0,.69-.66A2,2,0,0,0,115.42,14.68Zm1.07-.94a.29.29,0,0,0,.31-.19C116.61,13.55,116.51,13.61,116.49,13.74Zm9.83,7.33c.15-.1.22-.2.22-.28h-.28c-.23.12-.94.47-2.13,1a5.88,5.88,0,0,1-.81.47c-.38.19-.63.33-.76.41s-.6.27-1.06.44l-1,.59a2.54,2.54,0,0,1-.39.24l-.36.2-2,1.19a4.27,4.27,0,0,0-1.16.85h.28l.44-.24.4-.2c.32-.17.79-.44,1.43-.81s1.11-.65,1.43-.82a7.17,7.17,0,0,0,.83-.42l.73-.43c1-.62,2.18-1.26,3.48-1.91a1.8,1.8,0,0,0,.41-.14Zm-8.71-8.36a.31.31,0,0,0,.27-.07.37.37,0,0,0,.17-.19A.42.42,0,0,0,117.61,12.71Zm3.86-3.48q.15,0,0,.12Zm1.09-2.42c0,.09.16.13.35.13l0-.06s0-.07.06-.07V6.72a.58.58,0,0,0,0-.16s0,0-.11,0a.1.1,0,0,0-.1.06l0,0C122.75,6.77,122.69,6.81,122.56,6.81Z" transform="translate(0 -4.62)"/>
    <path d="M138.76,20.69a.52.52,0,0,1,.22.3.31.31,0,0,1-.06.33c0,.06-.06.09-.19.09a9.3,9.3,0,0,0-1.5.54l-1.24.5c-.53.21-.89.35-1.08.44a.31.31,0,0,1-.13.06.33.33,0,0,0-.12.06,4.49,4.49,0,0,1-1.08.53,7.78,7.78,0,0,0-1,.44c-.61.25-1.28.56-2,.91A8.34,8.34,0,0,1,127.48,26a1.24,1.24,0,0,0-.44.22,2.69,2.69,0,0,1-1.69-.16,1.75,1.75,0,0,1-.81-.47,2.19,2.19,0,0,1-.66-1.07,3.93,3.93,0,0,1,0-1.37l.22-.41a7.51,7.51,0,0,1,2.19-2.79,13.11,13.11,0,0,1,2.85-2.1,2.29,2.29,0,0,1,1.13-.47,4.13,4.13,0,0,1,.47-.14,3.58,3.58,0,0,0,.47-.14.93.93,0,0,1,1.13-.09.17.17,0,0,0,.12,0,.21.21,0,0,1,.16.06,1.92,1.92,0,0,1,.35.12,3.41,3.41,0,0,1,.5.69,1,1,0,0,1-.07,1.23l-.32.47a3.1,3.1,0,0,1-.47.54,1.84,1.84,0,0,1-.49.3l-.44.28a5.93,5.93,0,0,1-2.91,1.16,2.56,2.56,0,0,1-.91.1l-.67-.05c-.33,0-.57,0-.74,0a.39.39,0,0,0-.28.13c-.09.1-.25.32-.49.64s-.43.6-.58.83a3.38,3.38,0,0,0-.34.72.44.44,0,0,0,.25.6,1.9,1.9,0,0,0,1.06.09,9.84,9.84,0,0,0,2-.38,5.06,5.06,0,0,0,.86-.29c.36-.16.61-.26.74-.3q.56-.26,1.59-.81c.09.08.14.12.16.12s.07,0,.16-.12a2.57,2.57,0,0,1,.81-.51,1,1,0,0,1,.41-.18l1.53-.69c.69-.32,1.21-.55,1.54-.69a1.59,1.59,0,0,1,.52-.22,2.64,2.64,0,0,0,.39-.13,2.9,2.9,0,0,0,.78-.41.74.74,0,0,1,.91.26A1.61,1.61,0,0,0,138.76,20.69Zm-11.9.38c-.15.15-.21.25-.19.31H127a1,1,0,0,1,.41-.06v.06l.46-.08.45-.07c.44-.15.79-.29,1.07-.41a6.93,6.93,0,0,0,2.19-1.13,1.9,1.9,0,0,0,.78-.94.68.68,0,0,0,.1-.44c0-.08,0-.2-.16-.34s-.19-.06-.25.12-.15.16-.38.16a4.07,4.07,0,0,0-2,.63,12.17,12.17,0,0,0-2,1.37Z" transform="translate(0 -4.62)"/>
    <path d="M142.93,15.65h1.5a.65.65,0,0,0,.32-.09.24.24,0,0,0,.28,0,.56.56,0,0,1,.28,0h1.53a.57.57,0,0,0,.38-.09h.22c.42,0,1-.06,1.82-.06a1,1,0,0,0,.28,0,.37.37,0,0,1,.25-.07h1.85a1.56,1.56,0,0,0,.66-.12l.14,0,.11,0a.1.1,0,0,1,.12,0l.1,0h.84a.09.09,0,0,0,.06,0,.11.11,0,0,1,.07,0s.07,0,.09,0a1.23,1.23,0,0,0,.66,0,.22.22,0,0,1,.16,0,1.2,1.2,0,0,0,.5.06l.09-.1c.08-.16.17-.16.25,0a.13.13,0,0,0-.09,0l0,.06a.23.23,0,0,0,.06-.16.14.14,0,0,1,.13.06.38.38,0,0,0,.17-.06.18.18,0,0,1,.2,0h.47a1.41,1.41,0,0,0,.47,0,.91.91,0,0,1,.41-.06s.09,0,.16.15a.21.21,0,0,0,.09.19.78.78,0,0,1,.28.5v.44c0,.15-.06.22-.19.22h-6a.36.36,0,0,0-.25.06.36.36,0,0,1-.19,0h-1q-.48,0-1.29,0h-.19a.86.86,0,0,1-.43.09h-1.73a.65.65,0,0,0-.41.09.21.21,0,0,1-.18.07h-.91a1.27,1.27,0,0,0-.6.09h-.18c-.34,0-.6,0-.79,0A.91.91,0,0,0,143,17a.44.44,0,0,1-.19,0h-.78a1.61,1.61,0,0,0-.44.09.6.6,0,0,0-.47.28.75.75,0,0,1-.15.24.64.64,0,0,0-.16.23.66.66,0,0,1-.16.24.73.73,0,0,0-.15.23l-.43.66c-.22.33-.38.6-.48.78a.82.82,0,0,0-.22.29.5.5,0,0,0-.19.34q0,.09-.06.09a5.45,5.45,0,0,0-.32.6,1.06,1.06,0,0,0-.12.19,1.26,1.26,0,0,1-.16.22l-.06.09,0,.1c0,.08-.1.19-.17.34a2.53,2.53,0,0,0-.15.31.58.58,0,0,1-.15.35.9.9,0,0,0-.19.28V23a.09.09,0,0,0,0,.07,2.41,2.41,0,0,1-.35.75,1.74,1.74,0,0,1-.12.4.71.71,0,0,0-.06.38c0,.1,0,.17,0,.19a.63.63,0,0,0-.09.41.49.49,0,0,1-.06.25.59.59,0,0,0,0,.11c0,.05,0,.08,0,.1a.24.24,0,0,1,0,.08.28.28,0,0,0,0,.08.21.21,0,0,0,0,.13s0,.07,0,.09v.06a1.12,1.12,0,0,0,0,.38.08.08,0,0,0,.09.09.18.18,0,0,1,.13.19V27l.09.09a1.23,1.23,0,0,0,.34,0h.22a1.24,1.24,0,0,0,.57.1.54.54,0,0,0,.31-.1A.58.58,0,0,0,139,27a.69.69,0,0,1,.24-.06l.09-.06.29-.19h.09l.13,0a.92.92,0,0,0,.18-.13l.19-.12a2,2,0,0,1,.47-.32,1,1,0,0,0,.41-.34.62.62,0,0,0,.25-.1h.09a3.5,3.5,0,0,1,.66-.4.27.27,0,0,0,.13-.05.21.21,0,0,1,.09,0l.08-.09.08-.09c0-.07,0-.1.09-.1a.45.45,0,0,0,.17-.11l.18-.17.15-.13a1.13,1.13,0,0,1,.28-.18l.29-.29a2,2,0,0,0,.56-.43,1.36,1.36,0,0,1,.38-.29s.05,0,.11-.09a.22.22,0,0,1,.17-.09v.09a.34.34,0,0,1-.1.28c-.1.11-.15.19-.15.25s-.11.05-.13.13v0c-.17,0-.26,0-.28.12s-.19.22-.19.28-.15,0-.15.1a.25.25,0,0,0-.19.06l-.3.22a1.75,1.75,0,0,0-.39.35,1,1,0,0,1-.38.25l-.2.15c-.1.06-.16.11-.21.13a.69.69,0,0,0-.21.14.85.85,0,0,1-.22.14.45.45,0,0,0-.22.25.48.48,0,0,1-.19.09.25.25,0,0,0-.16.1l-.14.08a.23.23,0,0,0-.14.11l0,0a.21.21,0,0,1-.16.06l-.09.09v0q.09.09.09,0c.11-.05.16-.11.16-.19h.37a.12.12,0,0,0,.13-.1s0-.08.16-.12l.28-.19a1.76,1.76,0,0,0,.28-.25.58.58,0,0,0,.31-.19.94.94,0,0,1,.25-.2.86.86,0,0,0,.26-.21l.56-.37a3.63,3.63,0,0,1,.38-.41v-.06c.1,0,.15,0,.15-.13l.32-.09q.09,0,.09,0v.09l-.66.57-.09.09a.57.57,0,0,1-.13.1l-.14.07-.11.08s0,0,0,0a.11.11,0,0,0,.1,0q.09,0,.09.15V25.3a.18.18,0,0,0-.09.16c-.09,0-.13,0-.13.12a.14.14,0,0,0-.16.16l-.09,0H143s0,0,0-.1.16,0,.16-.09.09-.1.09-.12h.13v.18l-.31.41c-.07,0-.13.05-.19.14s-.12.14-.16.14l-.34.35a1,1,0,0,0-.36.25,1.31,1.31,0,0,1-.3.22,2.22,2.22,0,0,0-.38.19,1.47,1.47,0,0,1-.34.15l-.31.25a4.4,4.4,0,0,1-.88.41.05.05,0,0,1-.06.06c-.07,0-.22,0-.48.1l-.18,0-.22.06a2.51,2.51,0,0,1-.44,0,.19.19,0,0,0-.13.07.3.3,0,0,1-.4,0,1,1,0,0,1-.54-.29,2.9,2.9,0,0,0-.37-.28,3.44,3.44,0,0,0-.28-.25.42.42,0,0,1-.11-.17.64.64,0,0,0-.08-.14,1,1,0,0,0-.22-.29l-.13-.21a.3.3,0,0,1-.09-.19.64.64,0,0,0-.08-.25.74.74,0,0,1-.08-.22,4.15,4.15,0,0,0,0-.49c0-.15,0-.33,0-.51s0-.34,0-.44a.76.76,0,0,1,.1-.47.73.73,0,0,0,.06-.35.6.6,0,0,1,.09-.28q0-.09,0-.09a.89.89,0,0,1,0-.32.7.7,0,0,0,.09-.28.77.77,0,0,1,.09-.28,3.53,3.53,0,0,0,.35-.66c-.08-.1,0-.18.09-.22s0,0,0-.09l.07-.1,0-.06a4,4,0,0,0,.22-.37,2.94,2.94,0,0,1,.22-.41V20.6h0a.74.74,0,0,0,.12-.16l.07-.06a.47.47,0,0,0,.09-.28s.05-.06,0-.13a.24.24,0,0,1-.05-.12l0,0c.13,0,.21,0,.25-.07a.38.38,0,0,0,.09-.28s0,0,0,0,0-.06,0-.06v-.13s0-.09.1-.15l0,.09a.08.08,0,0,0,.09-.09.11.11,0,0,0,.1,0s0,0,0-.06l-.07.1h-.12a.45.45,0,0,1,.25-.38q0,.09.06.09h0q-.09-.09-.12-.09s0,0,0,0v0a2.23,2.23,0,0,1,.34-.66,1.47,1.47,0,0,0,.16-.27,1.74,1.74,0,0,1,.16-.26v0c0-.05,0-.07,0-.07h-1a1,1,0,0,1-.58.14l-.45,0a1.33,1.33,0,0,0-.56.09h-.25l-.4,0h-.39a.8.8,0,0,0-.4.07.5.5,0,0,1-.19,0h-.75a.25.25,0,0,0-.19.06,1,1,0,0,1-.39.06,1,1,0,0,0-.36,0,.58.58,0,0,0-.19,0,.62.62,0,0,1-.32.06h-.36a2.57,2.57,0,0,1-.36,0,.76.76,0,0,0-.43.09c-.09.09-.17.08-.26,0s-.16-.06-.37-.06a.26.26,0,0,1-.19-.12.55.55,0,0,1-.22-.47v-.38a.21.21,0,0,1,.1-.19,1.5,1.5,0,0,1,.5-.34.27.27,0,0,1,.25,0,.25.25,0,0,0,.28.06.12.12,0,0,1,.12-.06s0,0,.1,0a2,2,0,0,0,.75-.1h.6a.84.84,0,0,0,.37-.09.22.22,0,0,1,.16,0,.25.25,0,0,0,.28.06,1,1,0,0,1,.5-.09h.75a.63.63,0,0,0,.41-.1h.16a3.14,3.14,0,0,0,.69-.06.42.42,0,0,0,.18,0A.57.57,0,0,1,137,16h1.34a.62.62,0,0,0,.41-.1.22.22,0,0,1,.16,0,.69.69,0,0,0,.4.1H140a.5.5,0,0,0,.41-.22l.12-.18.16-.2a.6.6,0,0,1,.11-.14l.14-.13a.13.13,0,0,0,.06-.11,8.06,8.06,0,0,1,.76-.84.62.62,0,0,0,.18-.24,1.64,1.64,0,0,1,.16-.23,1.67,1.67,0,0,0,.38-.38,15.45,15.45,0,0,1,1.34-1.44,3.63,3.63,0,0,0,.38-.41.23.23,0,0,0,.11-.11c0-.05.06-.07.08-.07s.11-.16.28-.16a.2.2,0,0,1,.11,0l.08,0h.06l.09,0c.17.07.27.15.29.25a1.62,1.62,0,0,0,.25.29s0,.09,0,.22a.87.87,0,0,0,0,.14.67.67,0,0,1,0,.17,1.86,1.86,0,0,1,0,.22c0,.08,0,.14,0,.17a.28.28,0,0,0,0,.09.14.14,0,0,1-.05.1l-.09.09-.17.17a10.16,10.16,0,0,1-.94.94l-.32.32a2.23,2.23,0,0,1-.26.2.76.76,0,0,0-.27.27.45.45,0,0,1-.11.17l-.16.17-.11.13a.3.3,0,0,0-.09.28.14.14,0,0,0-.13.06l0,0Q143,15.71,142.93,15.65Zm-6,.85c.07,0,.1,0,.1,0l0-.06h-.16l0,0a.09.09,0,0,1-.06,0,.24.24,0,0,0,.15,0Zm.07,5.13c-.07,0-.1,0-.1-.09h0A.09.09,0,0,1,137,21.63Zm.4-5.13h.35a.1.1,0,0,1,.09,0l-.08,0-.07,0h-.38l0,.06s0,0,0,0h.09Zm.07,4.1a.13.13,0,0,1-.1,0l0-.06C137.46,20.55,137.48,20.58,137.48,20.6Zm.65-1.13q-.09,0-.09,0s0-.06.09-.06Zm1.63-3.29q-.12.2-.18,0c-.11,0-.17,0-.19,0a.34.34,0,0,0-.13,0l-.12,0h-.76l-.21,0s0,0,0,.09,0,0,0,.06a.58.58,0,0,1,.31-.06h1.21l.07,0,.1-.06,0,0c0-.05,0-.07.06-.07S139.89,16.18,139.76,16.18Zm-.94,11.16h-.25l0,0a.23.23,0,0,0,0,.09l.18.06a.31.31,0,0,0,.26,0,.45.45,0,0,1,.28.1s0,0,.1,0l.2-.06.17,0,0-.06,0,0a.38.38,0,0,1-.25-.06.41.41,0,0,0-.22,0A1.37,1.37,0,0,0,138.82,27.34ZM142.61,16a.2.2,0,0,0-.15.06l.06,0a.12.12,0,0,0,0-.09.69.69,0,0,1,.38.06H143a1.66,1.66,0,0,1,.57-.06h.4a1.39,1.39,0,0,0,.57-.1h.09l.1.06a.52.52,0,0,1,.23-.07h.27a.72.72,0,0,0,.25,0h.75c0-.06.23-.09.56-.09a4.22,4.22,0,0,0,.91-.07h.16q0-.09,0-.09a.09.09,0,0,1,.06,0l0,0,.1,0s.12,0,.25,0a.35.35,0,0,0,.37,0,.88.88,0,0,1,.47-.09h.72a2.19,2.19,0,0,0,.82-.09h0a.19.19,0,0,0,.28,0l.1,0,.09,0a.9.9,0,0,0,.22-.1h.19c.16.07.28.08.34,0a4,4,0,0,1,.6,0h2.28a.09.09,0,0,0,.07,0l0,0a.13.13,0,0,0-.1,0h-4.1a.45.45,0,0,0-.22,0c-.06.06-.11.06-.16,0a.31.31,0,0,0-.37,0,.4.4,0,0,1-.22.06h-1.63a.33.33,0,0,0-.19,0s-.06.07-.06.09l-.09,0-.07,0-.06,0a.7.7,0,0,1-.44.09h-1a.27.27,0,0,0-.19.06,1.83,1.83,0,0,1-.5,0,8,8,0,0,1-1.25.07.52.52,0,0,0-.25,0,.65.65,0,0,1-.32.06h-1l-.09,0S142.61,16,142.61,16Zm.82,9.27v.06q.09,0,.09,0c0,.05,0,.07-.09.07Zm.91-8.8h.12l.07,0-.07-.06h-.12a.09.09,0,0,0-.06,0l0,0,0,0Zm0-.32,0,0h0Zm.19,7.68v0l0,.09-.1-.09v0Zm0-.13c.06,0,.09,0,.09.1h-.09v-.1Zm.37-.75c0-.08,0-.12.13-.12s0,.12-.13.12a.14.14,0,0,1-.12.13C144.81,23,144.85,23,144.93,23Zm0-6.77v0l-.06,0Zm0,.29a.19.19,0,0,0,.1,0l-.07,0,0,0,0,0a.09.09,0,0,1-.06,0,.07.07,0,0,1,.06,0Zm.13,6.36a.1.1,0,0,1,.06-.1l0,0A.11.11,0,0,1,145.06,22.86Zm.16-6.4s0,0,0,0,0,0,.06,0l-.06-.06Zm.18,6.14,0,0a.09.09,0,0,1,0-.06v0a.09.09,0,0,0,.06,0l0,0,.07,0a.17.17,0,0,1,0,.12A.12.12,0,0,1,145.4,22.6Zm.47-6.23h0l0-.06h-.06Zm.41,0h.09q0-.12-.09-.06t0,.06S146.28,16.39,146.28,16.37Zm.35,0h0a.11.11,0,0,0-.1-.06Zm0-.28h0s0,0,0,0A0,0,0,0,1,146.66,16.09Zm.25,0H147v0a.05.05,0,0,0-.06-.06s-.05,0-.1.06S146.86,16.12,146.91,16.12Zm.31.19h-.09l0,0H147l-.08,0,.15.09a.28.28,0,0,0,.13,0Zm.09-.22,0,0a.2.2,0,0,0,.25,0l0,0,0,0-.07,0A.43.43,0,0,0,147.31,16.09Zm.19.28-.06-.06A.05.05,0,0,0,147.5,16.37Zm1.35-.25v.06h-.75a.13.13,0,0,0,0,.1l0,.09a.54.54,0,0,1,.25-.09h.91c.1,0,.16,0,.18-.07h.07l-.07,0A2.07,2.07,0,0,1,148.85,16.12Zm-.66-.19V16h.06v-.06Zm.94.1h.19s0,0,0,0,0-.06-.09-.06H149s-.07,0-.07.06H149Zm1.63.09a.23.23,0,0,0,0-.09h-.28a.47.47,0,0,0-.21.09.28.28,0,0,1-.23.06,0,0,0,0,0,0,0,.41.41,0,0,0,.47,0s.08,0,.19,0S150.76,16.18,150.76,16.12Zm.44-.22,0-.06a0,0,0,0,0,0,0v.09Zm.19.22h.25l.06,0-.06-.06h-.41l0,.06a0,0,0,0,0,0,0Zm.15-.22h.35a.1.1,0,0,1,.09-.06l-.09,0h-.35v.09Zm.66.22V16l0,.06A0,0,0,0,0,152.2,16.12Zm.16-.28s0,0-.06,0,0,0,0,.09Zm.31,0,.06.06h0l.06-.06s0,0-.06,0S152.67,15.82,152.67,15.84Zm.72,0,0,.06.07-.06s0,0-.07,0A0,0,0,0,1,153.39,15.84Zm.53.19h-.18l-.1.06.1,0H154l.09,0-.08,0A.13.13,0,0,0,153.92,16Zm1.29-.51a.12.12,0,0,0,.12-.06.12.12,0,0,0-.09,0l-.09,0Zm.31-.06s0,.06.07.06v-.09Zm.32,0,0,0s0,.05,0,.09S155.82,15.46,155.84,15.46Z" transform="translate(0 -4.62)"/>
    <path d="M160.1,20.51a4.19,4.19,0,0,1-1,1.28V21.6a.37.37,0,0,0-.37.19.44.44,0,0,0-.25.06.86.86,0,0,0-.51.38.19.19,0,0,1-.09.05h-.11a.11.11,0,0,0-.08,0l-.06.07a.49.49,0,0,0-.47.34h.31v.13l-.4.26-.49.32a1.59,1.59,0,0,0-.33.29,2.26,2.26,0,0,0-.42.19,4.29,4.29,0,0,0-.49.35l-.37.28q-.26.12-1.29.75c-1.42.77-2.21,1.19-2.38,1.25s-.56.19-1.19.44a4.14,4.14,0,0,1-2.47.06.33.33,0,0,1-.25-.09s-.12-.19-.3-.44a2.44,2.44,0,0,1-.36-.66,3,3,0,0,1-.28-1.63c.06-.33.17-.81.34-1.44a12,12,0,0,1,1.91-3.19,5,5,0,0,1,.44-.47c.21-.21.35-.37.44-.47a.83.83,0,0,1,1-.19,6.27,6.27,0,0,1,.78.63.3.3,0,0,1,0,.26c0,.1-.08.14-.14.14h-.09a.8.8,0,0,0-.94.54c-.11.18-.26.42-.46.7s-.34.5-.42.64A8.59,8.59,0,0,0,148,23.61a2.61,2.61,0,0,1-.37.81,2.08,2.08,0,0,0-.06,1.16,1.3,1.3,0,0,0,1.16.13c.66-.21,1.06-.35,1.19-.41a7.42,7.42,0,0,0,1.16-.44,3.38,3.38,0,0,1,.53-.27,2.35,2.35,0,0,0,.59-.32c.15-.07.89-.48,2.23-1.26.16-.08.44-.24.83-.48a10.24,10.24,0,0,1,1-.55,1.08,1.08,0,0,0,.54-.28,6.4,6.4,0,0,1,1.25-.82c.21-.1.54-.3,1-.59a2,2,0,0,1,1.1-.44s.05.06,0,.12l-.08.24A.4.4,0,0,0,160.1,20.51Zm-8.34-5a.65.65,0,0,1-.44-.55.67.67,0,0,1,.32-.68,1.62,1.62,0,0,1,1-.31.29.29,0,0,1,.1.05.16.16,0,0,0,.09,0l.17.19c.07.09.14.16.19.24a.4.4,0,0,1,.08.23,2.23,2.23,0,0,1,0,.53,3.19,3.19,0,0,1-.76.35h-.28l-.2,0Zm7.05,5.82.22-.22a6.07,6.07,0,0,0-1.35.57l-1,.59-1,.57c-.21.1-.31.19-.31.25a1.87,1.87,0,0,0,.84-.28l1.18-.69C158,21.81,158.48,21.55,158.81,21.38Z" transform="translate(0 -4.62)"/>
    <path d="M182.28,19.75a2.36,2.36,0,0,0,0,.25,1,1,0,0,1,0,.25.72.72,0,0,1-.09.24.81.81,0,0,1-.3.27c-.14.08-.34.17-.59.28s-.94.34-1.88.66a1.07,1.07,0,0,1-.63.18c-.23,0-.31.1-.25.29a.82.82,0,0,0-.19.09L175,23.64c-1.19.46-2.1.79-2.73,1a6,6,0,0,1-1.38.53,2.85,2.85,0,0,1-1.53.1,1.57,1.57,0,0,0-.28-.19l-.25-.12a6,6,0,0,1-.54-.6,1.11,1.11,0,0,1-.18-.6,8.2,8.2,0,0,1,.34-3,4,4,0,0,0,.31-.94,1.73,1.73,0,0,0,.1-.69c0-.19-.06-.22-.19-.1-.4.13-1.11.39-2.13.79a4.35,4.35,0,0,0-.55.29l-.48.3-.71.45-.83.58a1.13,1.13,0,0,1-.38.19.83.83,0,0,0-.4.28,17.75,17.75,0,0,0-2.73,2.29l-.44.44a2.91,2.91,0,0,1-1.19,1.06l-.15.19-.16.19A.44.44,0,0,1,158,26a1.48,1.48,0,0,1-.25-1.44,5.77,5.77,0,0,1,.37-.88l.27-.52a4.15,4.15,0,0,0,.24-.52.79.79,0,0,1,.25-.4,11.65,11.65,0,0,0,1.56-3.45c.15-.33.37-.45.66-.34a2.28,2.28,0,0,1,.85.69c.06.06.06.14,0,.25a2,2,0,0,0-.51,1,1.13,1.13,0,0,0-.21.41c-.61,1-1,1.69-1.07,1.94a2.45,2.45,0,0,0-.19.44.44.44,0,0,0,.19,0c.94-.65,1.54-1.08,1.79-1.29a14.49,14.49,0,0,1,2-1.44,4.43,4.43,0,0,1,.72-.45l.56-.3,1.38-.88a5.86,5.86,0,0,0,.91-.47,8.82,8.82,0,0,1,.91-.44,1.85,1.85,0,0,1,.88-.15s.11.05.22.15.13.18.26.35l.3.37a.71.71,0,0,1,0,.41c-.06.34-.24,1.1-.53,2.29,0,.29-.17.87-.38,1.72a1,1,0,0,0-.15.6c0,.17,0,.28.11.34a.52.52,0,0,0,.42,0,19.29,19.29,0,0,0,2.41-.5,6.65,6.65,0,0,1,1-.42l.88-.33.66-.28c.37-.17.68-.29.91-.38a8.53,8.53,0,0,0,1.11-.39,9.77,9.77,0,0,1,1.08-.39l.63-.25.72-.28.65-.25a6.36,6.36,0,0,1,.9-.38,6.66,6.66,0,0,0,.89-.38l.81-.09C182.25,19.66,182.28,19.69,182.28,19.75Zm-10.65,4.39a.25.25,0,0,0,.25-.16h-.35l0,.07,0,0A.1.1,0,0,0,171.63,24.14Zm.5-.19c.12,0,.19,0,.19-.09-.26,0-.39,0-.41.09ZM174.6,23c.23.09.39,0,.47-.15l-.11,0-.14,0C174.76,22.82,174.69,22.89,174.6,23Zm.53-.19a.91.91,0,0,0,.76-.25.89.89,0,0,0-.76.19Zm.76-.25c.27,0,.42-.07.47-.22h-.22C176,22.35,175.89,22.43,175.89,22.57Zm5.67-2,.06,0-.06-.07,0,0a3.25,3.25,0,0,0-1,.28c-.1.1-.19.13-.25.09a1.09,1.09,0,0,0-.36,0,2,2,0,0,0-.41.14,1.43,1.43,0,0,1-.36.14s0,.05-.07.14a.23.23,0,0,1-.24.15.61.61,0,0,0-.31.09,1.67,1.67,0,0,1-.44.13l-.69.23c-.33.11-.59.2-.75.27s-.22.1-.22.18a.57.57,0,0,0,.2.07l.21-.05.21-.05c.23-.06.6-.2,1.12-.4a5.41,5.41,0,0,1,1.2-.38.84.84,0,0,1,.19-.09.44.44,0,0,1,.33-.21,1.39,1.39,0,0,0,.3-.08A8.36,8.36,0,0,0,181.56,20.57Z" transform="translate(0 -4.62)"/>
    <path d="M186.26,26.74s-.07,0-.07-.06l-.18.09c0,.34-.12.53-.35.6a.26.26,0,0,0-.06.37l0,.16a.44.44,0,0,0-.25.06c-.07,0-.08.11,0,.19a.4.4,0,0,0-.22.38c0,.08,0,.12-.11.11a.26.26,0,0,0-.18,0q-.24.47-.75,1.29a3.61,3.61,0,0,1-.88,1.16l-.39.47c-.15.18-.25.31-.29.37s-.3.31-.44.31a.76.76,0,0,1-.32.6,8.65,8.65,0,0,1-1,1,3.5,3.5,0,0,0-.31.27,1.43,1.43,0,0,1-.38.27.61.61,0,0,1-.22.15,1,1,0,0,1-1.53-.37,2.67,2.67,0,0,1-.57-2.07,2.59,2.59,0,0,1,.54-1.51l.62-.84a9.23,9.23,0,0,1,.85-1,6.22,6.22,0,0,1,.48-.44c.22-.19.39-.34.49-.44a8.34,8.34,0,0,1,.89-.77l1.15-.83c.43-.31.75-.54.94-.69a.52.52,0,0,1,.25,0,.2.2,0,0,1-.07.16.83.83,0,0,1-.17.12l-.14.1c-.5.35-.79.57-.88.65a.44.44,0,0,0-.18.38l.34-.22a2.34,2.34,0,0,0,.38-.28,9.74,9.74,0,0,1,2-1.32l.22-.28a3.17,3.17,0,0,0,1-.47l.22-.22c.08-.1.05-.19-.09-.25l.12-.25a2.58,2.58,0,0,0,.72-.88,1.37,1.37,0,0,1,.41-.59.33.33,0,0,1,.13-.25,1.38,1.38,0,0,1,.53-.94.33.33,0,0,0,0,.15.18.18,0,0,0,.06.13c0-.08,0-.13,0-.13V21h-.12a1.78,1.78,0,0,1,.14-.5,5.5,5.5,0,0,1,.27-.55,4.83,4.83,0,0,0,.21-.46c.09-.16.17-.34.26-.53s.17-.39.28-.61.19-.39.25-.52a.14.14,0,0,0,0-.06.13.13,0,0,1,0-.06h-.07l-.06,0-.09.06-.16.16a10.65,10.65,0,0,1-1.57,1.44,6.25,6.25,0,0,0-.54.44,4.91,4.91,0,0,1-.58.44l-1.29,1.12c-.17.17-.43.41-.8.72a8.09,8.09,0,0,0-.76.73A9.39,9.39,0,0,1,182.09,24s-.16.08-.36.18a2.36,2.36,0,0,0-.42.23,2,2,0,0,1-.79.13,1.19,1.19,0,0,1-1.19-.82,1.84,1.84,0,0,1,0-1.5,3.26,3.26,0,0,1,.72-1.07,12.51,12.51,0,0,1,2.54-2.28,28.8,28.8,0,0,1,2.73-1.66l.83-.35.83-.34a.63.63,0,0,1,.37-.07,3.11,3.11,0,0,1,1.54.63c.06.11.15.09.28,0a10.16,10.16,0,0,1,1.13-1s.06,0,.12-.1a.92.92,0,0,1,.16-.12c.31-.44.62-.4.91.12a.54.54,0,0,0,0,.11.89.89,0,0,1,0,.11c-.08.21-.2.52-.35.93s-.28.77-.4,1.11a6,6,0,0,1-.41.88,11.5,11.5,0,0,1-.56,1,4.54,4.54,0,0,0-.63,1.28c0,.19,0,.3-.13.32a2,2,0,0,0-.31.72,1,1,0,0,0,.35-.06,2.11,2.11,0,0,0,.32-.18,1.27,1.27,0,0,1,.3-.14,1.8,1.8,0,0,1,.75-.25v0a10.19,10.19,0,0,1-1.31.72H189a.57.57,0,0,0-.22,0v-.15a.09.09,0,0,0-.06.08s0,0,.06.07a.43.43,0,0,1-.17.24.65.65,0,0,0-.17.17.13.13,0,0,1,0,.07s0,0,0,.06,0,.09,0,.09,0,0,0-.09c.56-.25,1-.44,1.19-.57.42-.2.89-.41,1.41-.62.17-.07.35-.14.55-.24l.67-.33.57-.28s.06,0,.06-.09a2.34,2.34,0,0,0-.79.15.65.65,0,0,1-.62.16l0-.06a.44.44,0,0,1,.06-.1,9.47,9.47,0,0,1,2-.72,9.59,9.59,0,0,1,1.72-.44c.4-.22.82-.09,1.26.41l.14.1.18.12a.21.21,0,0,1,.08.19c0,.23-.08.34-.25.34h-.12a2.57,2.57,0,0,0-1.82.16.36.36,0,0,0-.25.06q-.26.2-.66-.06s.08-.07.25-.16l0,0,.16-.12a2.32,2.32,0,0,0-.81.15.27.27,0,0,0-.07.08l-.06.08h.41c0,.17,0,.25,0,.25a5.39,5.39,0,0,1-.66,0l.12-.12a.28.28,0,0,1,.16-.16,2.37,2.37,0,0,0-1.29.41v.06a.84.84,0,0,0-.78.34,1,1,0,0,0,.78-.15,1.18,1.18,0,0,1-.12.31.27.27,0,0,1-.25.06c-.13,0-.22,0-.28,0a.9.9,0,0,1-.25,0,.81.81,0,0,0-.25,0v-.16c-.17,0-.28.05-.32.16H191a.56.56,0,0,1-.38.56,1.05,1.05,0,0,1-.3,0,.8.8,0,0,0-.3,0l-.06-.07A.05.05,0,0,1,190,23l.32-.16c.23-.08.34-.2.34-.34s-.29.09-.81.28a5.75,5.75,0,0,0-.94.53c-.11,0-.16.09-.16.13a.78.78,0,0,0,.47,0l.28-.1a.24.24,0,0,1,.22-.12s0,0,0,.12l.07.1-.36.17-.3.14c0,.06-.11.06-.2,0a.52.52,0,0,0-.21-.09v-.19c-.06,0-.3.13-.72.34a.58.58,0,0,0-.12.44H188v.06s0,0,0,0l0,0h-.09v-.06a.91.91,0,0,1-.35.25s0,0,0,.06l0,.1-.56.84c-.15.25-.24.38-.29.38a.53.53,0,0,1-.37.53c-.08,0-.13.11-.13.25v.1A.1.1,0,0,1,186.26,26.74Zm-1.07.75a3.43,3.43,0,0,0,.25-.39,2.47,2.47,0,0,1,.22-.33v-.31a.39.39,0,0,1-.28.12.37.37,0,0,1-.19.38.45.45,0,0,1,.13-.38c.06-.25.17-.38.34-.4s.05-.14.08-.24l.08-.23c0-.09,0-.13,0-.13h-.13a2.61,2.61,0,0,1-1,.78l-.25.19-.25.19c-.44.31-1.1.8-2,1.47a6.28,6.28,0,0,0-.69.65c-.28.28-.45.46-.54.54a6.61,6.61,0,0,0-.53.54,2.15,2.15,0,0,0-.66.81l-.25.31a6.07,6.07,0,0,0-1,2l0,.12a.65.65,0,0,0,.15.47.49.49,0,0,0,.54.1,1.82,1.82,0,0,0,.69-.25c.12-.09.52-.4,1.19-.94a1.34,1.34,0,0,1,.28-.35l.25-.25a2.16,2.16,0,0,1,.85-1,.5.5,0,0,1-.1.31,2,2,0,0,1-.25.29,2,2,0,0,0-.25.28l-.09,0a.29.29,0,0,0-.1.06l-.06.16a.28.28,0,0,1-.13.15,12,12,0,0,1-.81,1c-.13,0-.17.12-.13.31a.48.48,0,0,0,.24-.06.84.84,0,0,0,.2-.18l.13-.14a4,4,0,0,1,.88-.91c.14-.2.38-.52.72-.94A12.58,12.58,0,0,0,184,29.4l.06-.37-.28.15c0-.27.1-.41.28-.43a.32.32,0,0,1,.13-.35c.08-.12.16-.19.22-.19.06-.21.1-.31.12-.31,0,.17,0,.27-.09.31s-.07.19-.16.19a.43.43,0,0,1-.22.35V29a.27.27,0,0,1,.08-.1.2.2,0,0,1,.11,0l.06,0A5.57,5.57,0,0,0,185.19,27.49ZM179.93,34c.25,0,.45-.11.59-.44A.64.64,0,0,0,179.93,34Zm1.44-6.24c-.52.48-.83.78-.91.88s0,.07,0,.22a3.48,3.48,0,0,0,1.06-1.1A.07.07,0,0,0,181.37,27.74Zm6.42-9.43A.42.42,0,0,0,188,18h-.25c.15-.27.23-.42.25-.44v-.35s-.07-.06-.15-.06a.38.38,0,0,0-.22.06l-.22.16a1.33,1.33,0,0,1-.29.25,2,2,0,0,0-.62.33,2.29,2.29,0,0,1-.57.33,4.88,4.88,0,0,0-.67.44,4.39,4.39,0,0,1-.64.41,2.53,2.53,0,0,0-1.13.94s-.06,0-.06.09a13.06,13.06,0,0,0-2.35,2.16,2.1,2.1,0,0,0-.41.79,2.67,2.67,0,0,0,.91-.22c.15-.07.34-.18.6-.33a5.41,5.41,0,0,1,.56-.33l.37-.22,2-1.47C185.7,20.07,186.58,19.34,187.79,18.31Zm-6.11,9.15v.09a1,1,0,0,0,.79-.59A1,1,0,0,0,181.68,27.46Zm1.44,2.7a.47.47,0,0,1,.29-.47.61.61,0,0,1-.26.5,1.51,1.51,0,0,1-.68.78A1.29,1.29,0,0,1,183.12,30.16Zm.47-.63a.34.34,0,0,1,.19-.35A.35.35,0,0,1,183.59,29.53Zm2.13-5a.47.47,0,0,0-.4.31.4.4,0,0,0-.47.19l-.24.09-.17.07v-.16c.9-.5,1.41-.77,1.53-.82h0A.6.6,0,0,1,185.72,24.55Zm-1.19,3.35a.41.41,0,0,1,.38-.44A.41.41,0,0,1,184.53,27.9Zm.38-.44a.48.48,0,0,1,.28-.5A.56.56,0,0,1,184.91,27.46Zm.81-1c.19,0,.29-.2.29-.47a.82.82,0,0,0-.29.22Zm.13-1.35s0,.06.12.06l0,.07.12-.13a.46.46,0,0,0,.13-.19h0A1,1,0,0,1,185.85,25.08Zm.47-1c0,.14-.15.18-.31.12C186.05,24.09,186.15,24.05,186.32,24.05ZM186,26c.12,0,.18-.12.18-.29C186.07,25.7,186,25.79,186,26Zm.43-.6a.2.2,0,0,0-.06-.15l-.06.06a.56.56,0,0,0-.13.4A1.11,1.11,0,0,0,186.44,25.36Zm4.67-3.88a.57.57,0,0,1-.53.31q-.09-.06,0-.12a.19.19,0,0,1,.16-.07l.17-.06A.6.6,0,0,1,191.11,21.48Zm.22.65h-.06a.33.33,0,0,0-.31.16C191.19,22.29,191.31,22.24,191.33,22.13Zm1.22-.34a1.06,1.06,0,0,1,.5-.09.12.12,0,0,1,0,.09l-.09.09-.09.1c-.21.1-.36.13-.44.09a.24.24,0,0,1-.14-.06.26.26,0,0,0-.15-.06v-.13h.22A.54.54,0,0,0,192.55,21.79Zm.35-.78c.19,0,.3-.07.34-.19a.17.17,0,0,1-.12,0,.35.35,0,0,0-.16,0S192.9,20.94,192.9,21Zm.63-.19c.1,0,.15,0,.15-.13-.25,0-.4,0-.44.13Zm.53-.16.09-.06-.12,0a.23.23,0,0,0-.32.09Zm.28.35a1.47,1.47,0,0,0,1.1-.32,2.13,2.13,0,0,0-1,.25Zm.91-.82c-.21,0-.35,0-.41.1h.47a.07.07,0,0,0,.06,0,.06.06,0,0,1-.06,0Z" transform="translate(0 -4.62)"/>
    <path d="M318,23.8c.06-.05,0-.14-.16-.12l-.12.17Zm-1.22-.27c-.21.09-.45.23-.31.38.2-.16.26-.1.48-.29.18,0,.32,0,.29.11s.28,0,.37-.08a1.06,1.06,0,0,0-.84,0C316.72,23.6,316.78,23.56,316.79,23.53Zm-17.59-.05.11,0Zm-10.89-.31c.08,0,.12,0,.12,0S288.29,23.16,288.31,23.17Zm-1.86-.24h.11A.22.22,0,0,0,286.45,22.93Zm12.75.55-.29-.06C298.89,23.48,299.06,23.47,299.2,23.48Zm15.18.51.16,0-.15,0ZM304,23.35h.09a.23.23,0,0,0,.07-.07Zm3.69,0c-.08,0-.11.14-.14.2a.27.27,0,0,1,.18-.1A.16.16,0,0,0,307.69,23.31Zm5.85.13.1,0Zm-12.18-.1,0-.05S301.34,23.32,301.36,23.34Zm-102.57-2.8s0,0,0,0S198.77,20.55,198.79,20.54Zm-4.3.33,0,0a.22.22,0,0,0,0-.08Zm88.57,1.75h0C283.17,22.61,283.12,22.61,283.06,22.62ZM251.91,20.4c.34.16-.59.1-.08.29C251.79,20.64,252.34,20.53,251.91,20.4ZM314.28,24h0ZM251.84,20.7h0l0,0Zm23.39,1.61s0,.05.08.07S275.29,22.34,275.23,22.31Zm5.82.5-.14,0Zm-8.86-.49a.35.35,0,0,0-.21,0l0,0A.22.22,0,0,1,272.19,22.32ZM269,22.11l.06,0h.1ZM208.2,18.94a.5.5,0,0,1-.16-.11C208.1,18.92,207.65,19,208.2,18.94Zm106.17,5s0,.05-.09.06h.11S314.4,23.92,314.37,23.91ZM272,23.42l-.5-.05Zm-41.31-4.64h-.12A.13.13,0,0,0,230.68,18.78ZM270,23.29a1,1,0,0,0-.28-.12l-.06,0Zm-62-4.46Zm-3.21.77c.47-.07.19-.21.28-.33.55-.14.28.09.48.16a7.59,7.59,0,0,1,.85-.33s.08,0,0,.08c.35-.19,1.1-.15,1.51-.39l.06,0a.35.35,0,0,1-.1-.24c.21,0,.38-.17.47-.05-.13,0-.14.06-.19.11l.22-.08c.22.15-.3.09-.28.22a5.17,5.17,0,0,1,1.26-.28c.09.16-.77.14-.31.24h-.52c.42.23-.31,0,.08.26.68,0,.75-.16,1.43-.18.14-.11-.06-.13.08-.24,1-.26.79.34,1.48.06.17-.13.23-.35.74-.27l-.16.2c.66,0,.35-.3,1.05-.22-.12.08-.51.1-.41.12.46.12.31-.13.65-.16l.08.16c.7-.09,1.46-.23,2.24-.3,0,0-.17.11,0,.16a13.33,13.33,0,0,1,3,0l.36-.15c.08,0,.16.06.07.09.37.05,0-.09.19-.15s.28.08.14.13a6.52,6.52,0,0,1,2.53-.09l-.13,0c.53.07.61-.29,1.1-.14l-.1,0a15.63,15.63,0,0,1,3.31.3c.18-.2,1.14.17,1.23-.12a10.1,10.1,0,0,0,1.37.42c.24,0,.38-.15.69-.14v.15l.43-.12.2.21h.29c-.11,0-.23-.09-.21-.14a1.77,1.77,0,0,1,1.07.3,9.55,9.55,0,0,1,1.07,0c0,.06-.21.05-.36.07.58-.06.07.18.61.12-.06-.05.05-.08.07-.11a4,4,0,0,0,1.27.26l-.1.09c.78.15,1.67.21,2.55.33-.31-.09-.21-.27,0-.25l.08.18c.18-.08-.26-.1.1-.17s.2.22,0,.24h.41c0,.05-.08.06-.11.12.18-.08.67.26.93.12l0,.05c.88.13,1.29.12,2,.21,0-.14.31-.07.54-.15a16.32,16.32,0,0,0,1.74.38c.46,0,.15-.1.36-.16,0,.13.66.2.31.25a17.82,17.82,0,0,0,2,.11c-.1-.06-.21-.1-.15-.14s.39.1.36.16h0c1.11-.05,2.47.68,3.37.51h0l.92,0c.41.07-.26.07,0,.18,1-.1,1.53.2,2.34.15.58.44,2.2.2,3,.52l0-.09c.22-.06.26.08.41.11,0-.07-.23-.1-.09-.14,1.84.09,3.77.5,5.64.74.69.09.43-.42,1.28-.14l-.26.14c1.4-.07,2.84.25,4.21.18-.08,0-.09.08-.22.07.28.14,1.06.09,1.07,0,.21,0,0,.09.17.15.28.09.73-.1.88,0s-.08,0-.14,0c.19,0,.87.08.7-.07.51.1,1,0,1.38.13.28-.13.87.13,1-.08-.05.22.88.24,1.21.15-.11.06.28.09.14.17.37,0,.71,0,.65-.12.66.31,1.38-.13,1.74.24,1.1-.06,2.12-.07,3.1-.07-.05.23-1.09,0-1.06.2a15.07,15.07,0,0,1,2.41-.11c.24,0-.14.09-.22.13.94-.05,1.8.1,2.64,0,0,0-.09,0-.18.05.16,0,.38.05.37-.05l-.16,0c-.25-.16.66-.28.7-.36-.29.28.82.11.36.46.11,0,.25-.06.22-.13.16,0,.21.07,0,.14.59,0,.38-.15.92-.12,0,.05-.11.06-.17.12a2.1,2.1,0,0,1,1-.11s0,.07-.11.06a15.24,15.24,0,0,1,2.17-.09c-.26.21.29.08.32.27l.46,0-.18-.1a8.39,8.39,0,0,1,1.1,0l-.3.07h.75l-.42-.08c.41-.08,0-.24.49-.17-.11,0,.4,0,.6.13h0a1.41,1.41,0,0,1,.7,0c.07.06-.07.2,0,.25.2-.15.93,0,1.18-.17-.08,0-.09.13-.06.16l.17-.12c.18.05.21.07.18.14.55,0-.17-.24.49-.12-.05,0,0,0-.14,0,.66.08,1.28-.05,1.89,0,.18.19-.53,0-.33.2.88,0,1.82-.2,2.67-.15l-.16,0c.12-.26.63.14,1.06,0-.11,0-.14.15-.11.12a13.84,13.84,0,0,0,2.07-.12l-.11.07c.34.07.9.05,1.27.08.11-.07.32-.05.19-.15,1.14.41,2.18-.21,3.19.11-.12,0-.29.06-.19.06l.86-.07c-.07-.12-.11-.07-.29-.16a1.24,1.24,0,0,1,.57-.12c-.39.08,0,.19.17.25,0,0,0-.07,0-.11.45.2.07-.23.69-.1l0,.06a3.82,3.82,0,0,1,.69-.1c.1.13-.24.06-.26.17.35,0,.69-.26,1-.13-.15,0-.36,0-.51.08a1.3,1.3,0,0,0,.64.14h0l.59.07-.15,0c.43-.35.89-.07,1.47-.3-.57.22-.09.13-.13.28.15,0,.38.09.32.13.28-.12.47.1.85-.09,0,.05.3,0,.24.12.36-.05-.09-.08-.06-.14.55-.18,1.31.17,2.11-.08s.81-.28,1.45-.38c.22.07-.17.18-.17.18a2.47,2.47,0,0,0,.94,0c-.07,0,0,.08.11.13.26,0,.17-.18.52-.12a.84.84,0,0,1-.26.2c.31-.05.61-.15.93-.2.09.08-.19.13-.3.19.36-.05.93-.1,1-.24l-.23,0c.13,0,.07.11,0,.14-.31.11-.45,0-.47-.08l.23,0c-.24-.28-.92.07-1.38.06l.19-.21-.47.18c-.1-.05-.17-.17,0-.2-.33-.09-.29.08-.58,0,0,0,0,0,0,0l-.32.07c.06-.05-.06-.15.14-.12-.58-.11-.93.18-1.15,0h.05c-.8.09-.07.15-.67.35l-.41-.37-.08.15c-.08,0-.25,0-.22-.07-.31.11.05.07-.12.17-.4-.13-1.1.09-1.19-.15-.14.12.38.08,0,.17-.13-.26-.49.05-.86-.07.11-.14.46-.07.09-.18-.22.23-.71,0-1,0,0,.18-.67.08-1.18.14a14.38,14.38,0,0,0-1.45-.16v0c-.09.18-.59.15-1,.19,0-.11.08-.15.27-.2h-.34a.78.78,0,0,1-.41.11l.08-.14a6.94,6.94,0,0,1-1.49.08c0,.13.46.35-.15.44,0-.07-.05-.19.12-.22a.63.63,0,0,1-.29,0l.25-.12c-.26-.05-.14.1-.35.09,0-.1-.16-.07-.13-.15s.18,0,.27,0a1.43,1.43,0,0,1-.62-.15c0,.06,0,.13-.17.15-.45,0-.15-.12-.42-.17-.11.07-.4,0-.41.14s-.16-.07-.21-.11c-.23.06-1.09,0-.83.16h0a20.44,20.44,0,0,1-2.35-.05V23.4a9.63,9.63,0,0,0-1.33.12c-.13,0-.32-.09-.26-.15a2.19,2.19,0,0,1-.89,0c.35-.08-.12-.08.36-.06a2,2,0,0,0-1,0c.17-.12-.34-.16-.55-.13l.31.09a4.77,4.77,0,0,1-.66,0l.12-.16c-.92-.22-1.67.3-2.36-.06-.25.11.5.1.28.23a7.87,7.87,0,0,1-1-.29c-.58-.11-.55.23-1.15.14.08.06.14.22-.31.26s-.51-.26-.24-.3c.1,0,.15,0,.15,0s.32,0,.15-.11l-.06.06c-.21-.07-.79-.08-.65-.17-.32.05-.14.09.1.13-.54-.1-.85,0-1.41-.1.09,0,.17.11.08.1-.82-.1-.37.1-.92.11-.31-.1.12-.21-.44-.15-.34-.07-.07-.16.07-.2a3.13,3.13,0,0,1-1.24-.15l.27,0a3.16,3.16,0,0,1-.43,0l.15.13c-.16,0-.29,0-.29-.08-.17.07.12.2-.21.29-.21-.07-.64,0-.71-.13.66.08-.07-.16.49-.16a1.42,1.42,0,0,1-.4,0s0,0,.07,0c-.63-.17-.3.16-.95.13.09-.08-.14-.18-.25-.16.26,0,.12.15-.13.21-.42-.09-.46,0-.68,0l.25,0c-.09.08-.3.06-.59.08,0-.07.27,0,.17-.07-.33.14-.73-.2-1.19-.11-.21-.07,0-.17-.19-.22-.51.09-.54-.15-1.08-.08.15.13.18.1-.21.2l.88,0-.57.15c.27,0,.56,0,.72,0-.27.08-.24.06-.12.16-.35-.2-.72.07-1.14-.07l0-.29c-.62-.16-1.13.09-1.94,0l.26.07c-.12.11-.51,0-.77,0,0-.1-.13-.14-.24-.21s-.6,0-.68.15l-.36-.15c-.66-.09-.77.23-1.4.16.2-.1-.09-.18.34-.23-.21,0-.4,0-.41,0s-.6.1-.79,0c-.09,0-.13.14-.37.12,0,0,0-.05,0-.05s-.38,0-.18.16c-.63-.34-1.83-.09-2.38-.41-.46,0-1,0-1.44,0,0,0,0-.05.08,0-.57-.14-.38.26-1,.1-.32-.18.36-.06.15-.14-.07-.33-.8,0-1.23-.24h.11c-.33-.14-.84.06-1.39,0,0,0,0,0,0-.05a5.67,5.67,0,0,1-1.65.13c.18-.11.25-.05.16-.18-.24,0,0,.21-.43.21-.15-.08-.49-.17-.52-.32l.45,0c-.21-.2-.58,0-.82-.1l0-.07c-.69,0-.72.16-1.46.08l.07.07c-.42.16-.33-.14-.75,0l-.1-.21c-.27,0-.95.11-1.43.1a6.11,6.11,0,0,1,1.21-.2,3.28,3.28,0,0,0-1.05,0,.83.83,0,0,1,.35,0,2.91,2.91,0,0,1-1.3.11c.13-.37-1.36-.24-1.71-.57a25.76,25.76,0,0,1-2.93-.33c.35.34-.32,0-.28.29a1.06,1.06,0,0,1-.37,0l-.74-.27c-.17-.11.25,0,.23-.11-.55-.09-.22-.16-.57-.28.06.12-.21.13-.52.06l.43.19c-.79.07-.64-.33-1.43-.26l.26-.07a6.31,6.31,0,0,0-1.89,0c-.07,0-.15-.14,0-.14a23.21,23.21,0,0,1-2.87-.24l.08-.07c-.18,0-.33.1-.54,0,0,0,.08-.07,0-.08a2.14,2.14,0,0,1-.72,0l.21-.06a11.29,11.29,0,0,0-2.24,0c0-.22-.69-.39-1-.47l0,0a25.79,25.79,0,0,0-2.87-.13,28.86,28.86,0,0,0-3.06-.69c.15.06-.05.17-.23.16s-.67.05-.6-.14l.08,0c-.14-.22-.63-.25-1-.32l-.1.25c-.93-.56-2.62-.15-3.12-.57-.25,0-.55,0-.79,0l0-.14a11.85,11.85,0,0,0-1.82-.16l.18-.09c-.47,0-.61.37-1,.35l-.12-.22a8.63,8.63,0,0,0-2.43-.11s0-.09.17-.1c-.38,0-1.48-.18-1.34.11,0-.19-.84,0-1.28,0l.07-.14a1.88,1.88,0,0,1-.9.28c-.12,0-.11-.11.06-.08-.41-.07-.32.14-.81.07l.18-.09a.84.84,0,0,0-.62.15,1.23,1.23,0,0,1-.86-.15.65.65,0,0,1-.53.15c0-.05.05-.08.1-.09-.7-.08-1,.2-1.52.08a.1.1,0,0,0-.08-.08l1,0c0-.13-.46-.13-.1-.32a4.27,4.27,0,0,1-1.41.31l-.06,0,0,0a.86.86,0,0,0-.28,0,1.53,1.53,0,0,0-.37,0c-.06-.1-.52,0-.74,0,0,.14-.27.14,0,.23,0,0,0,0,.19,0l.09,0h0l.56,0a.82.82,0,0,1-.61.08,3.45,3.45,0,0,1-.3.24c-.32-.17-.91-.24-1-.35a6.48,6.48,0,0,0-2,.46c-.19.05-.23,0-.31-.09a2.25,2.25,0,0,0,.3-.09c-.38.11-1.15.14-1.22.33-.5,0,.26-.2-.41-.1l.08-.07c-1.36-.17-2.09.7-3.59.51.1,0,.16,0,.18,0-1.69.05-3.39.66-5.06.69a1.25,1.25,0,0,0-.76.3l-.13-.13-.45.27c-.66.25-1.26-.12-2.07.3l.13.08c-.31,0-1,.28-.94.16a.2.2,0,0,1-.21.1l0-.07-.72.31c-.6.09,0-.33-.84-.12-.31.11-.84.47-.71.49s.34,0,.37,0l-.28.12c0,.24-.13.52.6.49l.45-.27.19.07-.41.11a.65.65,0,0,0,.53-.19.33.33,0,0,0,.24.07l.43-.33c.08.07-.17.23.16.2s-.27-.15.09-.3c.26.05.21.15.47,0,.05.05,0,.1-.1.15.23-.13.64-.18.75-.33.28.07.83-.22.85,0a1.82,1.82,0,0,1,.63-.32c-.36.34.86-.15.8.15.26-.29,1.09-.33,1.62-.54,0,0-.08.07-.13.07a2.84,2.84,0,0,1,.62,0c0-.2.48-.33.72-.49.41.12-.19.27,0,.43,0-.16.63-.27.48-.37.31.07.26,0,.43.16,0-.25.26-.08.48-.27.44.06.14.21.59.07C205.22,19.45,204.83,19.6,204.83,19.6Zm11-1.48h0l-.23,0Zm.94,0h-.41c0-.05,0-.1.09-.1S216.64,18,216.78,18.08Zm-2-.89c.15,0,.2,0,.22,0l-.26,0,0,0A.12.12,0,0,1,214.75,17.19Zm-.26.19h-.06l.09,0,0-.05Zm84.84,6.13h0l0,0Zm-69.69-4.76v0l-.09,0ZM304.5,24l.07,0S304.54,24,304.5,24Zm2.24,0,.32,0Zm1.72.06a.09.09,0,0,0,0-.06h0Zm-27.33-.31h-.07C280.9,23.78,281,23.77,281.13,23.76Zm8.14,0a2.44,2.44,0,0,1-.26.06C289.15,23.81,289.26,23.82,289.27,23.74ZM272,23.42Zm16.59.36a1,1,0,0,0,.38,0A1.63,1.63,0,0,0,288.63,23.78Zm27.28.18H316s0,0,0,0Zm.09,0,.09,0Zm.29-.06-.19,0A.31.31,0,0,0,316.29,23.88Zm-2.66.07,0,.05A.06.06,0,0,0,313.63,24Zm-.69,0a2.57,2.57,0,0,0,.65.06l0,0C313.5,24.08,313.1,23.9,312.94,24Zm-2.89-.56.58,0c-.1-.05-.24-.12,0-.14C309.92,23.17,310.8,23.43,310.05,23.43Zm-1.8-.05c.31,0,0-.08,0-.11C308.07,23.32,308,23.33,308.25,23.38Zm-13,0,0-.13C295.08,23.23,295.32,23.27,295.29,23.34Zm-2.5.63.23.08.12-.11ZM291.35,23l.1,0-.4,0Zm-21.74-1,.06.16C269.83,22.17,269.88,22,269.61,22Zm-9.38-.6a.6.6,0,0,0-.52-.1A4.12,4.12,0,0,0,260.23,21.43Zm-27.94-3.67.2,0h-.37Z" transform="translate(0 -4.62)"/>
  </g>
</svg>
