<svg xmlns="http://www.w3.org/2000/svg" viewBox="0 0 167.66 30"><defs><style>.a{fill:#999}</style></defs><path class="a" d="M0 0v30h57V0zm28.49 17.25A2.31 2.31 0 1 1 30.84 15a2.32 2.32 0 0 1-2.35 2.3z"/><path d="M28.13 12.72A2.32 2.32 0 0 0 25.81 15a2.3 2.3 0 0 0 2.31 2.31 2.32 2.32 0 1 0 0-4.63z" fill="none"/><path class="a" d="M80.33 8H78v14.77h2.36v-5.93h.71c3.34 0 5.26-1.62 5.26-4.43 0-3.08-1.8-4.4-6-4.4zm.3 6.65h-.26v-4.46h.17c1.65 0 3.55.25 3.55 2.18s-1.66 2.29-3.46 2.29zM89.81 8h2.36v14.77h-2.36zm20.36 0h-2.36v9.5L97.18 7.79v15h2.36v-9.57l10.63 9.72m15.66-.17V8h-2.36v5.71h-6.14V8H115v14.77h2.36V16h6.15v6.79m13.29-15a7.71 7.71 0 0 0-7.71 7.68 7.72 7.72 0 0 0 15.43 0 7.7 7.7 0 0 0-7.71-7.67zm0 13.1a5.39 5.39 0 0 1-5.35-5.42 5.36 5.36 0 1 1 10.72 0 5.4 5.4 0 0 1-5.35 5.43zM147.84 8v14.77h7.79v-2.21h-5.43V8m17.46 2.21V8h-8.17v14.77h8.17v-2.21h-5.81v-4.12h5.48v-2.21h-5.48v-4"/></svg>
