<svg id="Layer_1" data-name="Layer 1" xmlns="http://www.w3.org/2000/svg" viewBox="0 0 799.62 321.24"><defs><style>.cls-1{fill:#fff}</style></defs><path class="cls-1" d="M46.29 321.18c-18.7 1-31.4-9.7-42.3-22.8-5.9-7.2-4.9-26 .7-33.3 4.4-5.9 13.4-4.9 17.5 2.1a39.91 39.91 0 0 1 3.3 8.3c1.8 5.5 5.5 9.2 11 10.5 10.3 2.6 20.1 2.8 28.2-5.8 2.2-2.4 5.4-3.8 8-5.9 10-7.9 8.9-20.4-2.3-26.2-10-5.2-20-10.5-29.9-15.8a30.19 30.19 0 0 1-14.8-16.8 30.55 30.55 0 0 0-1.3-3.2c-10.8-19.3-4.6-37.2 5.5-54 3.3-5.6 10-9.7 15.9-13.1 15.5-9.1 32-8.8 48.6-3.2a34 34 0 0 0 7.8 1.8c7.3.5 11.9 4.5 15 10.8 1.9 3.9 4.2 7.6 5.9 11.5a54.43 54.43 0 0 1 2.5 9c.8 3.7 1 7.6 2.1 11.1a22.13 22.13 0 0 1-2.5 19.1c-3.3 5.2-8.7 6.6-14.3 4.2a20 20 0 0 0-4.6-1.8c-8.6-1.3-12.3-7-13.6-15-.6-3.9-1.1-7.9-2-11.8-1.3-5.6-3.7-7.4-9.5-7.5q-3 0-6 .3c-12.3 1.2-16.8 5-20.2 17-1.7 6.1-.5 9.9 5.2 13 7.5 4.2 15.2 8.2 22.9 12 15.8 7.9 24.6 21.4 30 37.4a17.32 17.32 0 0 1 .4 9.3c-2.6 10.3-5.6 20.5-8.8 30.7-2.2 7.1-8.9 10.2-14.5 13.9-10.8 7.1-23 10.9-35.7 13.4a34 34 0 0 1-8.2.8zM743.79 154.18c-8.1-.5-14.1-.8-20-1.4-15.9-1.6-27.5-12.4-29.9-27.5-1.4-8.8 5.1-23 12.7-27.3a5.27 5.27 0 0 1 4.4.4 10.4 10.4 0 0 1 3.7 4.6c3.2 7.2 9.9 10.3 16.2 13.2 7.1 3.2 14.1.9 20.2-3.5 4.9-3.5 5.5-8.7 4.6-14.4-.9-5.5-5.1-7.4-9.5-9.1-5.9-2.3-11.9-4.3-17.5-7.2-9.3-4.8-13.6-13.4-16.6-23.1-2.5-8.1-2-16-1-24.1 1-8.3 6-14.4 11.9-19.6 12.8-11.4 28-16.2 45.1-15 2.9.2 5.6 1.6 8.4 2.7 1.7.6 3.2 2 4.9 2.4 12.9 2.8 16.6 12.7 18 24a31.16 31.16 0 0 1-.8 11.8c-2.7 10-11.3 13.5-20.3 8.4-2.7-1.5-4.7-4.1-7-6.2s-5-6-7.2-5.8a44.59 44.59 0 0 0-15.3 5.1c-1.1.6-.4 5.2 0 7.9.2.9 1.9 2.1 3 2.3 9 1.8 15.5 7.8 22.6 12.9 7.4 5.3 13.6 11.2 14.7 20.9a54.87 54.87 0 0 0 1.8 7.8 33.08 33.08 0 0 1-3.2 25.6c-4.2 7.4-8.5 14.9-14.2 21.1a40.54 40.54 0 0 1-29.7 13.1zM582.49 142.88c1.2-7.6 1.9-13.4 3.1-19.1 2.3-10.7 5.1-21.2 7.5-31.9a99.06 99.06 0 0 0 1.9-13.3c.8-8.9 2-17.6 8.1-24.7 6.6-7.8 16.6-6.5 21.6 2.3 6.4 11.1 13.3 21.8 20.2 32.6 2.8 4.3 5.5 4.2 7.4-.7 1.9-5.1 2.7-10.6 4.2-15.8 2.9-10.3 5.4-20.9 9.3-30.9 2.6-6.5 9-10.3 15.8-11.9 7.4-1.8 14.1 5.5 12.6 13-2.2 11-3.6 22.2-6.2 33.1-2.7 11.6-6.3 23-9.8 34.5a105.07 105.07 0 0 1-5.9 15.3c-2.3 4.5-4.8 9.2-8.2 12.8-7.7 8.3-18.6 6.5-24.4-3.5-4.2-7.1-8.6-14.2-13.3-21-1.2-1.7-3.5-2.6-5.3-3.9-.9 1.9-2.1 3.7-2.6 5.7-2.7 11.2-5.2 22.4-7.9 33.5-1.1 4.4-2.7 8.7-7.3 10.7-6 2.7-11.7 1.1-15.1-4.6-2.6-4.08-4.3-8.9-5.7-12.2zM156.29 270.18c-12.7.1-23.3-12.9-21.5-23.3a20.92 20.92 0 0 1 .8-3.4c7-15.7 7-32.7 9.3-49.3 1.4-9.8 4.1-19.4 6-29.1a41.86 41.86 0 0 0 .4-7.9c0-4.8 2.2-7.4 6.6-9.4 9.1-4.2 18.6-5.7 28.5-6.4 6.1-.4 12-2.2 18-3.5 11.8-2.5 21.9 7.4 19 19a11.1 11.1 0 0 1-5.2 6.6c-10.2 4.5-20.6 8.5-31.9 9.3a8.57 8.57 0 0 0-5.9 3.7c-3.1 5-.9 8.5 5 8.3a31.06 31.06 0 0 0 7.9-1.3c5.2-1.5 8.4.8 11.5 4.6 3.4 4.1 5.5 8.5 2.5 13.1a27 27 0 0 1-9 8.8c-7.1 3.9-14.8 6.9-22.2 10.2-4.3 1.9-6.2 5.3-6 10 .3 6 2.6 7.1 8 4.3a128.76 128.76 0 0 1 19.4-8.6c4.1-1.3 8.9-1 13.3-.8 5.8.3 10.7 5 12.2 10.9 1.3 5.1-.5 9.6-5.7 13.3a40.67 40.67 0 0 1-7.3 4.2c-9.9 4.2-19.7 9-30 12.1-8.4 2.8-17.4 3.5-23.7 4.6zM476.89 143.68c-.3-11.6 1.8-22.6 9.3-31.9.3-.4.7-.8.7-1.3.9-8.6 7.6-13.1 13.2-18.3a30.73 30.73 0 0 0 5.3-6.6c7.8-13.8 20.9-18 35.4-19.1a14.3 14.3 0 0 1 8.8 2.9c7.4 5.5 14.9 11 17.2 21.1 1.6 7.1 4.4 13.9 6.8 20.8 2 5.9.4 11.5-1.6 17-2.4 6.5-4.8 13.1-7.7 19.5-1.3 2.9-3.6 5.4-5.6 8-.8 1-2.2 1.6-2.9 2.7-7.5 11-18.8 16.1-30.8 19.5-5.2 1.5-11.4 2.3-16.5 1-10.4-2.7-19.1-9.3-26.6-17-4.89-5.1-5-11.8-5-18.3zm64-34.3c-.9-1.5-2-6-4-6.4-3-.6-6.7 1.4-9.8 2.8-1.3.6-2 2.6-3.1 3.8a44.21 44.21 0 0 1-5 4.7c-6.6 5.5-10.1 12.7-9.6 21.2.5 8 8.6 11.7 14.4 6.4 8.9-8.2 15.4-18.2 17.1-32.5zM376.19 96.58c13.4-3.5 22.7 4.8 32.5 12 .7.5 1.5 1.2 1.6 1.9.6 7.8 2.7 16 1.2 23.4-1.7 8.4-14.3 9.1-20.9 1.9a23.49 23.49 0 0 1-2.3-3.2c-5.4-8.1-14.8-8.6-21.4-1.3-3.3 3.7-2.7 6.3 1.6 8.7 6.8 3.8 13.7 7.5 20.1 11.9 13.4 9.3 18 22.5 15.5 38.4a21.09 21.09 0 0 1-1.2 4.3c-9.8 25.8-45.9 34.3-66 15.4a51.58 51.58 0 0 1-9.4-12.8c-4-7.3 3.3-20.4 11.6-20.5 2.4 0 5.3 2.8 7.1 5 6.1 7.7 16.2 10.7 24.5 6.7 3.5-1.7 7.6-3.9 6.9-8.2-.4-2.7-3.4-5.4-5.9-7.1-5.2-3.5-10.5-7.2-16.4-9.4-10.9-4-17.2-10.4-20-22.4-2.6-11.1-.4-20 6.4-27.7 9-10.2 19-19.3 34.5-17zM281.59 117.18c2.7 0 5.3-.1 8 0 5.1.1 10 1 13.6 5.1a2.41 2.41 0 0 0 .8.6c11.4 4.1 13.1 13.6 13.6 24 .3 6.2-1.8 11.6-6.1 13.7s-12.6 0-16.1-3.9a38.12 38.12 0 0 1-2.4-3.2c-5.5-8.1-14.6-8.6-21.3-1.3-3.3 3.6-2.7 6.2 1.7 8.7 6.9 3.9 14 7.7 20.5 12.2a36.68 36.68 0 0 1 14.7 39.5 13.09 13.09 0 0 1-.9 2.8c-10.1 25.9-45.8 34.3-66 15.4a51.58 51.58 0 0 1-9.4-12.8c-3.9-7.3 2.8-19.3 11.1-20.7 4-.7 5.5 2.2 7.4 4.8 6.4 8.7 17.3 11.4 26 6.4a13.79 13.79 0 0 0 2.5-1.7c4.6-3.7 4.6-8.4-.3-11.4-7.1-4.3-14.2-8.8-21.7-12.1-8.9-3.9-13.8-9.5-16.6-19.3-4.7-16.1 1.6-26.8 12.9-36.7 8-7.28 16.9-11.5 28-10.1zM465.49 104c-1.3 9.5-3 19.8-4 30.2-1.5 15.5-9.1 29.8-8.7 45.8.1 4.6-1.8 9.4-3.3 14s-5.1 6.5-10.1 6.3c-13.5-.7-19.9-9.3-17-22.6 3.7-17 7.4-34 10.5-51.2 1.5-8.3 1.6-16.9 2.5-25.3.6-6.1 4.5-10.3 9.1-13.7a9.82 9.82 0 0 1 6.1-1.3c8.9.88 14.9 7.88 14.9 17.8zM489.39 220.08a2.61 2.61 0 0 1 1.1.3 4.73 4.73 0 0 1 1.2.7 1.46 1.46 0 0 1 .5.8c0 .3-.1.5-.4.5a1.62 1.62 0 0 1-1-.4 2.24 2.24 0 0 0-1-.3 3.36 3.36 0 0 0-2.4 1.1 6.51 6.51 0 0 0-1.5 2.7 10.32 10.32 0 0 0-.4 3 24.62 24.62 0 0 0 .6 5.3 32.61 32.61 0 0 0 1.6 5c.6 1.5 1.4 3.1 2.1 4.8l.6 1.3a45.82 45.82 0 0 1 1.9 4.6 25.75 25.75 0 0 1 1.2 4.2 28.8 28.8 0 0 1 .6 5.9 19 19 0 0 1-.5 3.9 17.06 17.06 0 0 1-1.3 3.8 8.34 8.34 0 0 1-2.4 3.1 5.16 5.16 0 0 1-3.3 1.2 6.66 6.66 0 0 1-1.6-.1 5.64 5.64 0 0 1-1.2-.4 2.35 2.35 0 0 1-1.1-1.1c0-.5.2-.8.6-.8a5.06 5.06 0 0 1 1.7.5 4.66 4.66 0 0 0 1.6.5 3.48 3.48 0 0 0 2.5-1.2 8.34 8.34 0 0 0 1.7-3.1 22.51 22.51 0 0 0 .9-3.5 18 18 0 0 0 .3-3.1 28 28 0 0 0-.8-6.4 32.58 32.58 0 0 0-2.2-6.2l-.8-1.7c-1-2-1.7-3.7-2.3-5.1a47.17 47.17 0 0 1-1.6-4.5 22.84 22.84 0 0 1-.9-6.3 11.41 11.41 0 0 1 .7-4.1 8.3 8.3 0 0 1 2-3.4 4.27 4.27 0 0 1 3.3-1.5zM518.09 260.38a1.23 1.23 0 0 1-.4-.8v-8.5c0-.3-.5-.7-1.5-1a26.1 26.1 0 0 0-3.5-.8 22.41 22.41 0 0 0-3.1-.3 7.59 7.59 0 0 0-.8 2.5c-.3 1.4-.7 3.1-1.1 4.9s-.6 3.1-.8 3.8a.63.63 0 0 1-.6.5 1.61 1.61 0 0 1-.9-.3.91.91 0 0 1-.4-.8v-.2l.7-3.2 1.2-6 .9-4.3c.6-2.8 1.4-7.1 2.3-12.9 1-6.2 1.7-10.4 2.2-12.6.3-1.6.7-3.2 1.1-4.6a13.07 13.07 0 0 1 .9-2.6c.3-.7.6-1.1.9-1.1a1.68 1.68 0 0 1 1.4.6 51.45 51.45 0 0 1 1 6.5c.4 4 .8 7.9 1.1 11.8l.8 10.8c0 1.9.1 4.7.4 8.5.2 4 .3 6.8.3 8.5v.3a3.92 3.92 0 0 1-.2 1.3c-.1.4-.5.5-1.1.5a5.59 5.59 0 0 1-.8-.5zm-.4-12.9c0-2.7-.1-6.4-.4-11.1s-.6-8.8-.9-12.4c-.2-1.9-.4-4.4-.7-7.6l-.1-.7a2.49 2.49 0 0 1-.1-.8q-.45 1.5-.9 3.6c-.3 1.4-.6 3.6-1 6.4-.9 6.4-1.7 11.3-2.5 14.6-.1.5-.3 1.2-.5 2.2s-.5 2-.7 2.8a18 18 0 0 0-.2 2.2v.4a18.25 18.25 0 0 0 6.1.9h.8c.7.1 1.1-.1 1.1-.5zM536.09 210c0 .6-.1 1.5-.1 2.7v23.6c0 1.6 0 4.7.1 9.3s.1 7.7.1 9.3l-.4.5h-1.3l-.2-.5a14.32 14.32 0 0 0 .1-2.6l-.1-11.4c-.1-5-.1-8.8-.1-11.3v-14.7l-.1-6.1v-1.4a1.25 1.25 0 0 1 .4-1.1 2.13 2.13 0 0 1 1.2-.3 1 1 0 0 1 .8.4 2.1 2.1 0 0 1 .6.8c.1.4.4 2.1 1 4.9l.3 1.5c.6 3.1 1.1 5.4 1.4 6.9.1.6 1.6 6.5 4.4 17.7 1.2 5.4 2.3 9.6 3.1 12.4a7.64 7.64 0 0 0 .4-3.1c0-3.1 0-6.9.1-11.4s.1-8.3.1-11.3l.1-5.1v-5l-.1-9.2a1 1 0 0 1 1.2-.9c.3 0 .5.6.5 1.9v1.3l-.1 1.1v4.2l-.1 15.5c-.1 6.8-.1 11.9-.1 15.4 0 .8 0 2.5-.1 5.1s-.1 4.3-.1 5.2c0 1.3-.5 1.9-1.5 1.9a1 1 0 0 1-.8-.5 4.67 4.67 0 0 1-.5-1c0-.1-.1-.6-.2-1.3l-.2-1c-4.4-17.3-6.9-27-7.4-29.4-.2-1-1-5.32-2.4-13zM575.09 241.58a3.62 3.62 0 0 1 .5-1.3c.3-.6.5-1 .4-1.3l-.2-5.7-.4-17.8c0-.1-.1-2.5-.1-7v-.8a89.57 89.57 0 0 0-.4-9.1 11.74 11.74 0 0 0-.4-1.6 5.35 5.35 0 0 1-.4-1.8c0-1 1.5-1.6 4.5-1.6h.3a7.17 7.17 0 0 1 2.9.6 8.07 8.07 0 0 1 2.4 1.7 9.92 9.92 0 0 1 1.7 2.5 16.92 16.92 0 0 1 1.3 3.1q.45 1.5.9 3.3a24.46 24.46 0 0 1 .6 3.4c.1.9.2 2 .3 3.2s.1 2.1.1 2.8v2.1a40.94 40.94 0 0 1-1 8.8 51.28 51.28 0 0 1-2.8 8.9 20.16 20.16 0 0 1-2.8 4.7 17.11 17.11 0 0 1-3.3 3.3 4.6 4.6 0 0 1-2.1 1.2 2.82 2.82 0 0 1-1.5-.4 2.37 2.37 0 0 1-.5-1.2zm2.8-9.3v7.3h.3a11.4 11.4 0 0 0 3.9-3.7 20.07 20.07 0 0 0 2.8-5.2 37.75 37.75 0 0 0 1.5-5.6 45.62 45.62 0 0 0 .8-5.7c.1-1.6.2-3.1.2-4.5 0-12.7-3.2-19.1-9.7-19.1-.8 0-1.3.2-1.3.7q0 1.8.3 5.4t.3 5.4c0 3 .2 7.1.5 12.4.2 5.7.4 9.8.4 12.6zM602 230.88h2.4c0-4.2-.1-10.5-.4-18.9l-.3-8.2-.2-6.2V190a24.73 24.73 0 0 0-.2-4.1h-2.1q-.6 0-.6-.9a.94.94 0 0 1 .5-.9 8.82 8.82 0 0 1 2.2-.2h4a1.88 1.88 0 0 1 .8.2.91.91 0 0 1 .3.7 1.45 1.45 0 0 1-.2.7.55.55 0 0 1-.5.3h-2.5c-.1 0-.2.1-.3.1s-.1.1-.1.3c0 4 .3 10.8.8 20.5.5 9.3.7 16.2.7 20.6v3.6h2.2c.9 0 1.4.3 1.4.9a.91.91 0 0 1-.3.7c-.2.2-.4.4-.6.4h-6.9a1.33 1.33 0 0 1-.8-.3 1.08 1.08 0 0 1-.3-.7c0-.82.29-1.02 1-1.02zM623.89 225.88v-2.5l.1-9.5-.1-26.9c0-2.1 0-4.5-.1-7.3a2.5 2.5 0 0 1 .3-1.3 1 1 0 0 1 .8-.5h4.4a1.27 1.27 0 0 1 .6.1c.4.1.6.5.6 1.1a.91.91 0 0 1-.4.8 3 3 0 0 1-.8.4h-1l-1-.1-1-.1c-.3 0-.5 0-.6.1s-.1.3-.1.6V200c0 .1 0 .1.1.1h.2c1.4-.1 2.4-.1 3.3-.1.7 0 1 .3 1 1a1.29 1.29 0 0 1-.2.8c-.1.2-.4.2-.7.2h-3.4c-.2 0-.2.1-.2.3 0 2.5 0 5.7.1 9.7s.1 7.4.1 10.3v2.4h5.7c.7 0 1.1.3 1.1.9s-.2 1.1-.6 1.2a8.45 8.45 0 0 1-2.9.3h-2.7a4.92 4.92 0 0 1-2-.3c-.4.08-.6-.32-.6-.92zM643.19 189.88c0-2.1 0-4 .1-5.6a26.89 26.89 0 0 1 .3-3.2c.1-.9.3-2 .5-3.3a18.44 18.44 0 0 1 .8-3 21.4 21.4 0 0 1 1.2-2.8 9.61 9.61 0 0 1 1.6-2.2 5.55 5.55 0 0 1 2.2-1.4 6.63 6.63 0 0 1 2.8-.5c1.2 0 1.8.4 1.8 1.1 0 .5-.3.8-.9.8a5.07 5.07 0 0 1-.9-.2 5.07 5.07 0 0 0-.9-.2 4.14 4.14 0 0 0-1.9.5 4.71 4.71 0 0 0-1.5 1.3 6.79 6.79 0 0 0-1.1 1.9 25 25 0 0 0-.9 2.5 30.85 30.85 0 0 0-.9 5.8 48.49 48.49 0 0 0-.3 5.8l-.1 4.3v3.6c0 2.1.1 4.1.2 5.9s.4 3.7.7 5.6a30.05 30.05 0 0 0 1.4 5.4 11.55 11.55 0 0 0 2.2 3.6 4.27 4.27 0 0 0 3.3 1.5 5.88 5.88 0 0 0 5.1-3.2 42.14 42.14 0 0 0-.3-4.6 10.81 10.81 0 0 0-.5-2.7c-.2-.7-.5-1.1-.8-1.1a5.74 5.74 0 0 0-1.2.1 5.74 5.74 0 0 1-1.2.1c-.9 0-1.4-.4-1.4-1.1 0-.4.6-.7 1.7-1a11 11 0 0 1 2.8-.4 1.6 1.6 0 0 1 1.4.8 3.94 3.94 0 0 1 .5 2 41.71 41.71 0 0 0 .6 5.8 44.77 44.77 0 0 1 .6 5.8c0 .7-.3 1-.8 1a1.22 1.22 0 0 1-1.4-1.4v-.4a12.62 12.62 0 0 1-6.1 2.2c-3 0-5.3-2.3-6.7-7s-2-12.1-2-22.1zM668.09 181.18v-2.6c0-2 0-3.7.1-5.1a34.89 34.89 0 0 1 .5-4.4 18.53 18.53 0 0 1 1-4.2 7.34 7.34 0 0 1 1.7-2.7 3.63 3.63 0 0 1 2.6-1.1 6 6 0 0 1 2.7.6 5.26 5.26 0 0 1 2 1.6 6.74 6.74 0 0 1 1.2 2.4 15.68 15.68 0 0 1 .8 2.9c.2 1.2.4 2.3.5 3.1a145.85 145.85 0 0 1 1.4 19.8v.2c0 2.2 0 4.2-.1 6-.1 1.3-.1 2.4-.2 3.3s-.2 2.1-.5 3.6a16.71 16.71 0 0 1-.7 3c-.3.8-.7 1.7-1.1 2.6a4 4 0 0 1-3.6 2.4c-5.5 0-8.3-10.5-8.3-31.4zm6.2-18.3a2.12 2.12 0 0 0-1.8 1 8.73 8.73 0 0 0-1.2 2.9c-.3 1.4-.6 2.7-.8 4s-.3 2.6-.4 4.1c-.1 2.6-.2 4.8-.2 6.6v3.2a104.57 104.57 0 0 0 .8 11.1c.4 2.9.8 5.4 1.2 7.4a19.56 19.56 0 0 0 1.9 5.2c.8 1.5 1.7 2.3 2.8 2.3a2.42 2.42 0 0 0 1.8-1.2 10.42 10.42 0 0 0 1.2-3.3 58.11 58.11 0 0 0 1.1-9c.1-2.8.2-5.1.2-6.8v-.3c0-2.1 0-4.3-.1-6.5-.1-2.4-.3-5.1-.6-8.3l-.1-.9a22.43 22.43 0 0 0-.8-4.2 34.31 34.31 0 0 0-1.2-3.9 7.22 7.22 0 0 0-1.6-2.6 3.72 3.72 0 0 0-2.2-.8z"/></svg>
