<svg xmlns="http://www.w3.org/2000/svg" viewBox="0 0 500 126.5"><title>carney</title><path d="M485.8 1.3c-8.5 0-14.5 3.9-14.5 3.9v55.2s-3 12.9-12.9 12.9c-9.8 0-9.8-10.3-9.8-10.3s-.1-45.9-.1-58.1c0 0-5.6-3.7-14.1-3.7-8.6 0-14.5 3.9-14.5 3.9V52c-3.3 6.3-13.8 22.3-34.5 22.3-18.6 0-24.3-17.6-24.3-31.9 0-16.6 3.9-37.6 13-37.6 3.8 0 5 5.3 5 10.3 0 10.8-2.1 26.2-12.9 34.8 0 0-.4 1.2.2 2.6.5 1.2 1.6 1.5 1.6 1.5 9.4.3 39.4-10.9 39.4-30.7C407.4 6.2 388.5-.1 373-.1c-21.1 0-42.5 16.1-41.4 45.8.3 7.7 2.1 14.1 4.8 19.2-3.7 3.7-9.4 8.7-13.6 8.7-5.7 0-5.4-6.2-5.4-6.2v-37c0-19.4-17.5-30.5-34.1-30.5C260.9 0 253 14.7 253 14.7c0 5.8-3.7 17.2-15.5 22.1V81s5.9 3.9 14.1 3.9c8.9 0 14.6-3.8 14.6-3.8V25.7S268.1 15 278.8 15c9.9 0 10.4 10.3 10.4 10.3v38.4c0 14.6 10 21.6 22.3 21.6 11.5 0 22.4-10 28-16.1 8.9 12 24.1 16.1 36.6 16.1 22.2 0 37.7-12.8 45-20.2 2.8 13.7 12.7 20.2 29.3 20.2 9.8 0 17-5.3 21.2-9.7v9c0 24.9-9.5 36.7-19.9 36.7-4.4 0-6.5-2.1-6.5-4.9 0-5.4 3.4-5.1 3.4-12.1 0-9.5-8-13.9-13.9-13.9-5.8 0-13.9 4.6-13.9 13.9 0 11.2 10 22.2 28.9 22.2 23.2 0 50.6-16.4 50.6-46.7V5.1s-6-3.8-14.5-3.8zM241.5 11C240 2.4 232.1-1.4 220.3.6c-7.7 1.3-13.5 4-18 7.3-4.2-4.7-12.7-6.4-29.4-6.4v.4c5.3 0 4.4 10.2 4.4 13.7v48.9c-3.8 3.8-10 9.3-14.4 9.3-5.5 0-4.9-6.2-4.9-6.2V25.7c0-7-2.1-25.6-39.8-25.6-15.2-.1-32 10.5-32 22.1 0 8.8 7.3 13.9 13.9 13.9 6.9 0 13.9-5.2 13.9-13.9 0-9.1-6.4-10.3-6.4-14.6 0-2.3 4.6-3.6 9.1-3.6 7.5 0 13 5.7 13 16.2 0 2.6-.1 7.5-2.8 9.6-14.8 11.1-42 8.9-43.6 32.9-6.5 5.3-17.1 11.7-29.5 11.7-16.5 0-24.2-14.1-24.2-33.2 0-16.5 9.6-37.1 18-37.1 1.9 0 3.7 1 3.7 3.5 0 5.2-6 5.8-6 14.6 0 7.9 6.4 13.9 13.9 13.9 7.2 0 13.9-5.8 13.9-13.9C73 11 63.2 0 44.4 0 19.5 0 0 16.4 0 43.5c0 29.2 21.7 41.7 42.4 41.7 19 0 33-7.4 41.7-14.1 2.3 10.4 10.5 14.1 18.5 14.1 14 0 24.7-10.2 27.9-13.7 2.4 8.1 8.7 13.7 18.3 13.7 11.7 0 22.3-8.1 28.6-14.1V81s5.9 3.8 14 3.8C200 84.8 206 81 206 81V21.3c0-2.8-.2-5.3-.7-7.4 1.2-1.2 2.6-1.9 4.1-1.9 2.2 0 4.8 1.3 5.2 3.6 1.1 7 7.2 12.9 15.8 11.3 6.8-1 12.6-7.6 11.1-15.9zM119.7 69.2c-3.9 0-7.8-3.5-7.8-12.6 0-16.1 16.2-19.5 17.5-19.7l-.1 26.8v.4c-.7 1-4.1 5.1-9.6 5.1z"/></svg>
