<svg xmlns="http://www.w3.org/2000/svg" viewBox="0 0 108.6 31.5"><defs><style>.a{fill:#999}</style></defs><path class="a" d="M12.1 31.5H0L6.1 21h12.1zm12.2 0h12.1L30.3 21H18.2zm0-21L18.2 0l-6.1 10.5L18.2 21zM41.8 27h4.9v-1.7h-4.9v-2.2h5.5v-1.8h-7.5v10.2h7.6v-1.8h-5.6zm-.1-14.9l2.1 7.6h2l2.2-7.6v7.6h1.9V9.5H47l-2.2 7.1-2.1-7.1h-2.9v10.2h1.9zm44.7-2.6h2v10.2h-2zm1.7 11.8h2v10.2h-2zm18.5-11.8h2v10.2h-2zm-55.9 0h2v10.2h-2zm53.1 4h-4.1v-4h-2v10.2h2v-4.5h4.1v4.5h2V9.5h-2zm-48 6.2h2.1v-8.4h2.4V9.5h-7v1.8h2.5zm18.6 11.8h2.1v-8.4H79v-1.8h-7v1.8h2.4zM73 19.9c2.6 0 4.1-1.2 4.1-3.5v-7h-2v7.2c0 .9-.7 1.6-2 1.6-1.5 0-2-.9-2-1.6V9.5h-2v7c-.1 2.4 1.5 3.4 3.9 3.4zM57.6 27h4.8v-1.7h-4.8v-2.2H63v-1.8h-7.5v10.2h7.7v-1.8h-5.6zm22.3-7.3h2.9c1.9 0 3.1-1.1 3.1-2.7a2.82 2.82 0 0 0-2-2.7 2.23 2.23 0 0 0 1.6-2.3c0-1.5-1.1-2.5-3.2-2.5h-4.6v10.2zm2.4-1.6h-2.4v-2.9h2.4a1.44 1.44 0 0 1 1.6 1.5 1.62 1.62 0 0 1-1.6 1.4zm.1-7a1.22 1.22 0 0 1 1.2 1.2 1.26 1.26 0 0 1-1.3 1.3h-2.4v-2.5zm3.2 15.5a2.46 2.46 0 0 0 1.8-2.5c0-1.8-1.2-2.8-3.3-2.8h-4.6v10.2h2.1v-4h1.7a1.61 1.61 0 0 1 1.8 1.3c.2.8.1 2 .3 2.7h2.1a21.87 21.87 0 0 1-.4-2.7 2.06 2.06 0 0 0-1.5-2.2zm-4-.7v-2.8H84a1.37 1.37 0 0 1 1.4 1.4 1.41 1.41 0 0 1-1.3 1.4zm-31.5-4.6h-2v10.2h6.8v-1.8h-4.8zm13.7-5.9c1.7.3 2.6.6 2.6 1.6 0 .7-.7 1.3-2 1.3a1.87 1.87 0 0 1-2.1-1.7h-2c0 1.8 1.1 3.4 4.1 3.4 2.8 0 4.1-1.5 4.1-3.2s-1-2.6-2.9-3-3-.4-3-1.6c0-.8.7-1.2 1.8-1.2s1.8.6 1.8 1.6h2c0-1.6-1.2-3.3-3.9-3.3-1.9 0-3.8 1.1-3.8 3.1 0 1.6 1.2 2.6 3.3 3zm28.6 0c1.6.3 2.6.6 2.6 1.6 0 .7-.7 1.3-2 1.3s-2.1-.8-2.1-1.7h-2c0 1.8 1.1 3.4 4.1 3.4 2.8 0 4.1-1.5 4.1-3.2s-1-2.6-2.9-3-3-.4-3-1.6c0-.8.7-1.2 1.8-1.2s1.8.6 1.8 1.6h2c0-1.6-1.2-3.3-3.9-3.3-1.9 0-3.8 1.1-3.8 3.1 0 1.6 1.3 2.6 3.3 3zM67.8 29.9c-1.7 0-2.6-1.6-2.6-3.6s.9-3.6 2.6-3.6a2.19 2.19 0 0 1 2.2 1.7h2.1a4.13 4.13 0 0 0-4.4-3.5c-3.1 0-4.7 2.4-4.7 5.3s1.6 5.3 4.7 5.3a4.12 4.12 0 0 0 4.4-3.6H70c-.3 1.3-.9 2-2.2 2zm27.5 0c-1.7 0-2.6-1.6-2.6-3.6s.9-3.6 2.6-3.6a2.19 2.19 0 0 1 2.2 1.7h2.1a4.13 4.13 0 0 0-4.4-3.5c-3.1 0-4.7 2.4-4.7 5.3s1.6 5.3 4.7 5.3a4.12 4.12 0 0 0 4.4-3.6h-2.1c-.3 1.3-.9 2-2.2 2z"/></svg>
