<svg viewBox="0 0 72 72" xmlns="http://www.w3.org/2000/svg"><path fill="#999" fill-rule="evenodd" d="M-.001 71.998V-.003H72v72.001H-.001zm58.41-6.838l-5.564-8.88-34.061 4.062-3.859 4.818h43.484zm6.739-58.32H6.846v58.32h4.052l3.269-6.279-3.918-29.237s4.16-9.423 8.515-19.346c.243-.554.733-2.585 2.203-2.066 1.396.491.469 2.571.469 2.571l-6.24 18.631 6.218 22.093 34.919-2.016 5.988 15.649h2.827V6.84zm-9.691 35.809s.345-3.899-2.45-2.613c-1.046.481-.939 1.513-1.024 2.415v6.321h-4.639l.02-12.433 4.299-.02s-.099 2.208.037 2.014c2.335-3.216 6.247-2.704 7.484-.881.969 1.422.925 3.331.925 3.331v7.989h-4.652v-6.123zm-.792-16.479s.372 3.373.372 3.211c-7.897 1.99-7.223-2.955-7.306-3.573-.048-.395-.04-5.236-.04-5.236h-1.713v-3.507h1.683l-.031-2.296 4.649-2.405-.016 4.672h2.527v3.518h-2.527s.086 2.506 0 4.732c-.066 1.825 2.402.884 2.402.884zm-8.083 22.586l-4.382.01s-.484-.497-.484-1.545c0-.082-1.204 1.303-2.468 1.595-1.591.366-4.164.164-5.374-.631-1.417-.93-2.04-4.995.885-5.906 4.117-1.278 6.668-1.439 6.687-1.905.089-2.272-2.47-1.444-2.797-1.392-.852.144-1.172 1.386-1.172 1.386l-4.451-.518s.227-3.09 3.805-3.65c3.638-.565 6.815 0 7.931 1.138.482.488 1.188 1.902 1.188 2.811v6.389s.233 2.222.632 2.218zm-5.073-5.954s-1.965.679-2.313.766c-1.529.393-1.744.972-1.744.972s-.621 1.859 1.09 1.882c2.942.047 3.027-2.675 2.967-3.62zm-1.158-17.989c0 4.087.02 4.621.027 4.676h-4.53V17.112l4.22-.03.047 1.977s1.243-3.667 5.109-1.658c-.815 2.154-1.35 3.395-1.35 3.395s-3.523-1.951-3.523 4.017zM28.65 26.624h-5.844l-.802 2.874h-5.246l6.308-17.154 5.513.008L34.9 29.498h-5.446l-.804-2.874zm-2.897-9.8l-1.788 6.164h3.633l-1.845-6.164zm.173 27.019l3.699-12.225h5.217L28.57 48.694l-5.516.035-6.237-17.111h5.331l3.778 12.225z"/></svg>
