<svg xmlns="http://www.w3.org/2000/svg" viewBox="0 0 799.724 321.244">
  <defs>
    <style>
      .cls-1{fill:#fff}
    </style>
  </defs>
  <g id="Group_83" data-name="Group 83" transform="translate(-.014 -.021)">
    <g id="Group_81" data-name="Group 81">
      <path id="Path_43" data-name="Path 43" class="cls-1" d="M46.3 321.2c-18.7 1-31.4-9.7-42.3-22.8-5.9-7.2-4.9-26 .7-33.3 4.4-5.9 13.4-4.9 17.5 2.1a39.912 39.912 0 0 1 3.3 8.3c1.8 5.5 5.5 9.2 11 10.5 10.3 2.6 20.1 2.8 28.2-5.8 2.2-2.4 5.4-3.8 8-5.9 10-7.9 8.9-20.4-2.3-26.2-10-5.2-20-10.5-29.9-15.8a30.194 30.194 0 0 1-14.8-16.8 30.542 30.542 0 0 0-1.3-3.2c-10.8-19.3-4.6-37.2 5.5-54 3.3-5.6 10-9.7 15.9-13.1 15.5-9.1 32-8.8 48.6-3.2a34.043 34.043 0 0 0 7.8 1.8c7.3.5 11.9 4.5 15 10.8 1.9 3.9 4.2 7.6 5.9 11.5a54.431 54.431 0 0 1 2.5 9c.8 3.7 1 7.6 2.1 11.1a22.134 22.134 0 0 1-2.5 19.1c-3.3 5.2-8.7 6.6-14.3 4.2a19.965 19.965 0 0 0-4.6-1.8c-8.6-1.3-12.3-7-13.6-15-.6-3.9-1.1-7.9-2-11.8-1.3-5.6-3.7-7.4-9.5-7.5q-3 0-6 .3c-12.3 1.2-16.8 5-20.2 17-1.7 6.1-.5 9.9 5.2 13 7.5 4.2 15.2 8.2 22.9 12 15.8 7.9 24.6 21.4 30 37.4a17.324 17.324 0 0 1 .4 9.3c-2.6 10.3-5.6 20.5-8.8 30.7-2.2 7.1-8.9 10.2-14.5 13.9-10.8 7.1-23 10.9-35.7 13.4-2.9.8-5.6.6-8.2.8z"/>
      <path id="Path_44" data-name="Path 44" class="cls-1" d="M743.9 154.2c-8.1-.5-14.1-.8-20-1.4-15.9-1.6-27.5-12.4-29.9-27.5-1.4-8.8 5.1-23 12.7-27.3a5.267 5.267 0 0 1 4.4.4 10.4 10.4 0 0 1 3.7 4.6c3.2 7.2 9.9 10.3 16.2 13.2 7.1 3.2 14.1.9 20.2-3.5 4.9-3.5 5.5-8.7 4.6-14.4-.9-5.5-5.1-7.4-9.5-9.1-5.9-2.3-11.9-4.3-17.5-7.2-9.3-4.8-13.6-13.4-16.6-23.1-2.5-8.1-2-16-1-24.1 1-8.3 6-14.4 11.9-19.6 12.8-11.4 28-16.2 45.1-15 2.9.2 5.6 1.6 8.4 2.7 1.7.6 3.2 2 4.9 2.4 12.9 2.8 16.6 12.7 18 24a31.159 31.159 0 0 1-.8 11.8c-2.7 10-11.3 13.5-20.3 8.4-2.7-1.5-4.7-4.1-7-6.2-2.4-2.1-5-6-7.2-5.8a44.587 44.587 0 0 0-15.3 5.1c-1.1.6-.4 5.2 0 7.9.2.9 1.9 2.1 3 2.3 9 1.8 15.5 7.8 22.6 12.9 7.4 5.3 13.6 11.2 14.7 20.9a54.87 54.87 0 0 0 1.8 7.8 33.08 33.08 0 0 1-3.2 25.6c-4.2 7.4-8.5 14.9-14.2 21.1a41.252 41.252 0 0 1-29.7 13.1z"/>
      <path id="Path_45" data-name="Path 45" class="cls-1" d="M582.5 142.9c1.2-7.6 1.9-13.4 3.1-19.1 2.3-10.7 5.1-21.2 7.5-31.9a99.058 99.058 0 0 0 1.9-13.3c.8-8.9 2-17.6 8.1-24.7 6.6-7.8 16.6-6.5 21.6 2.3 6.4 11.1 13.3 21.8 20.2 32.6 2.8 4.3 5.5 4.2 7.4-.7 1.9-5.1 2.7-10.6 4.2-15.8 2.9-10.3 5.4-20.9 9.3-30.9 2.6-6.5 9-10.3 15.8-11.9 7.4-1.8 14.1 5.5 12.6 13-2.2 11-3.6 22.2-6.2 33.1-2.7 11.6-6.3 23-9.8 34.5a105.067 105.067 0 0 1-5.9 15.3c-2.3 4.5-4.8 9.2-8.2 12.8-7.7 8.3-18.6 6.5-24.4-3.5-4.2-7.1-8.6-14.2-13.3-21-1.2-1.7-3.5-2.6-5.3-3.9-.9 1.9-2.1 3.7-2.6 5.7-2.7 11.2-5.2 22.4-7.9 33.5-1.1 4.4-2.7 8.7-7.3 10.7-6 2.7-11.7 1.1-15.1-4.6-2.6-4.1-4.2-8.9-5.7-12.2z"/>
      <path id="Path_46" data-name="Path 46" class="cls-1" d="M156.3 270.2c-12.7.1-23.3-12.9-21.5-23.3a20.921 20.921 0 0 1 .8-3.4c7-15.7 7-32.7 9.3-49.3 1.4-9.8 4.1-19.4 6-29.1a41.86 41.86 0 0 0 .4-7.9c0-4.8 2.2-7.4 6.6-9.4 9.1-4.2 18.6-5.7 28.5-6.4 6.1-.4 12-2.2 18-3.5 11.8-2.5 21.9 7.4 19 19a11.1 11.1 0 0 1-5.2 6.6c-10.2 4.5-20.6 8.5-31.9 9.3a8.569 8.569 0 0 0-5.9 3.7c-3.1 5-.9 8.5 5 8.3a31.06 31.06 0 0 0 7.9-1.3c5.2-1.5 8.4.8 11.5 4.6 3.4 4.1 5.5 8.5 2.5 13.1a27.025 27.025 0 0 1-9 8.8c-7.1 3.9-14.8 6.9-22.2 10.2-4.3 1.9-6.2 5.3-6 10 .3 6 2.6 7.1 8 4.3a128.765 128.765 0 0 1 19.4-8.6c4.1-1.3 8.9-1 13.3-.8 5.8.3 10.7 5 12.2 10.9 1.3 5.1-.5 9.6-5.7 13.3a40.663 40.663 0 0 1-7.3 4.2c-9.9 4.2-19.7 9-30 12.1-8.4 2.8-17.4 3.5-23.7 4.6z"/>
      <path id="Path_47" data-name="Path 47" class="cls-1" d="M476.9 143.7c-.3-11.6 1.8-22.6 9.3-31.9.3-.4.7-.8.7-1.3.9-8.6 7.6-13.1 13.2-18.3a30.731 30.731 0 0 0 5.3-6.6c7.8-13.8 20.9-18 35.4-19.1a14.3 14.3 0 0 1 8.8 2.9c7.4 5.5 14.9 11 17.2 21.1 1.6 7.1 4.4 13.9 6.8 20.8 2 5.9.4 11.5-1.6 17-2.4 6.5-4.8 13.1-7.7 19.5-1.3 2.9-3.6 5.4-5.6 8-.8 1-2.2 1.6-2.9 2.7-7.5 11-18.8 16.1-30.8 19.5-5.2 1.5-11.4 2.3-16.5 1-10.4-2.7-19.1-9.3-26.6-17-4.9-5.1-5-11.8-5-18.3zm64-34.4c-.9-1.5-2-6-4-6.4-3-.6-6.7 1.4-9.8 2.8-1.3.6-2 2.6-3.1 3.8a44.208 44.208 0 0 1-5 4.7c-6.6 5.5-10.1 12.7-9.6 21.2.5 8 8.6 11.7 14.4 6.4 8.9-8.1 15.5-18.1 17.1-32.5z"/>
      <path id="Path_48" data-name="Path 48" class="cls-1" d="M376.2 96.6c13.4-3.5 22.7 4.8 32.5 12 .7.5 1.5 1.2 1.6 1.9.6 7.8 2.7 16 1.2 23.4-1.7 8.4-14.3 9.1-20.9 1.9a23.488 23.488 0 0 1-2.3-3.2c-5.4-8.1-14.8-8.6-21.4-1.3-3.3 3.7-2.7 6.3 1.6 8.7 6.8 3.8 13.7 7.5 20.1 11.9 13.4 9.3 18 22.5 15.5 38.4a21.094 21.094 0 0 1-1.2 4.3c-9.8 25.8-45.9 34.3-66 15.4a51.577 51.577 0 0 1-9.4-12.8c-4-7.3 3.3-20.4 11.6-20.5 2.4 0 5.3 2.8 7.1 5 6.1 7.7 16.2 10.7 24.5 6.7 3.5-1.7 7.6-3.9 6.9-8.2-.4-2.7-3.4-5.4-5.9-7.1-5.2-3.5-10.5-7.2-16.4-9.4-10.9-4-17.2-10.4-20-22.4-2.6-11.1-.4-20 6.4-27.7 9-10.2 19-19.3 34.5-17z"/>
      <path id="Path_49" data-name="Path 49" class="cls-1" d="M281.6 117.1c2.7 0 5.3-.1 8 0 5.1.1 10 1 13.6 5.1a2.407 2.407 0 0 0 .8.6c11.4 4.1 13.1 13.6 13.6 24 .3 6.2-1.8 11.6-6.1 13.7-4.3 2-12.6 0-16.1-3.9a38.121 38.121 0 0 1-2.4-3.2c-5.5-8.1-14.6-8.6-21.3-1.3-3.3 3.6-2.7 6.2 1.7 8.7 6.9 3.9 14 7.7 20.5 12.2a36.678 36.678 0 0 1 14.7 39.5 13.088 13.088 0 0 1-.9 2.8c-10.1 25.9-45.8 34.3-66 15.4a51.576 51.576 0 0 1-9.4-12.8c-3.9-7.3 2.8-19.3 11.1-20.7 4-.7 5.5 2.2 7.4 4.8 6.4 8.7 17.3 11.4 26 6.4a13.788 13.788 0 0 0 2.5-1.7c4.6-3.7 4.6-8.4-.3-11.4-7.1-4.3-14.2-8.8-21.7-12.1-8.9-3.9-13.8-9.5-16.6-19.3-4.7-16.1 1.6-26.8 12.9-36.7 8-7.2 16.9-11.4 28-10.1z"/>
      <path id="Path_50" data-name="Path 50" class="cls-1" d="M465.5 104c-1.3 9.5-3 19.8-4 30.2-1.5 15.5-9.1 29.8-8.7 45.8.1 4.6-1.8 9.4-3.3 14-1.6 4.6-5.1 6.5-10.1 6.3-13.5-.7-19.9-9.3-17-22.6 3.7-17 7.4-34 10.5-51.2 1.5-8.3 1.6-16.9 2.5-25.3.6-6.1 4.5-10.3 9.1-13.7a9.823 9.823 0 0 1 6.1-1.3c8.9.9 14.9 7.9 14.9 17.8z"/>
    </g>
    <g id="Group_82" data-name="Group 82">
      <path id="Path_51" data-name="Path 51" class="cls-1" d="M291.3 319.3l-1.1-.6a55.2 55.2 0 0 1-.5-11.1c0-1.2.2-3.6.4-7.2.2-2.8.3-5.2.4-7.1a4.54 4.54 0 0 1-.4-1.8c.6-.9.9-3.2 1-7.1.3-9.2.3-14.2 0-14.9.5-1.3.9-1.9 1.2-1.9l3.4.1a5.129 5.129 0 0 1 2.4.9 19.489 19.489 0 0 1 2.6 1.8c1.2 1.2 1.8 4.2 1.6 9.2 0 1.2-.1 2.3-.1 3.2-.1.9-.1 1.8-.3 2.8a7.005 7.005 0 0 1-.6 2.3 10.349 10.349 0 0 1-1.1 2 4.891 4.891 0 0 1-1.6 1.6 12.95 12.95 0 0 1-2.4 1.3 19.845 19.845 0 0 1-3.2 1.1l-.3 9.2c0 1.7 0 4.2.1 7.5.1 3.6.1 6.1.1 7.5-.1.8-.6 1.2-1.6 1.2zm2.2-36.1a26.03 26.03 0 0 1-.3 3.6q-.15 2.1-.3 3.6l.5.8a3.645 3.645 0 0 0 2.1-.5 7.456 7.456 0 0 0 1.7-1.4 12.839 12.839 0 0 0 1.8-4.6 29.768 29.768 0 0 0 .6-5.1l.1-2.1v-2.2a5.663 5.663 0 0 0-.3-1.8 5.439 5.439 0 0 0-.7-1.7 4.031 4.031 0 0 0-1.4-1.1 4.767 4.767 0 0 0-2.2-.5c-.7 0-1.1.1-1.3.4a2.826 2.826 0 0 0-.4 1.6v5.5c.1 2.6.1 4.5.1 5.5z"/>
      <path id="Path_52" data-name="Path 52" class="cls-1" d="M333.9 306.3h-1.2q-1.65 0-2.1-.9a.749.749 0 0 1 .1-.5 1.082 1.082 0 0 1 .5-.4l.5-.4 2.2.1.3-.3c0-.1.1-.3.2-.7a3.444 3.444 0 0 0 .1-.9q.15-3.15 0-8.4-.15-6 0-8.4c0-1.6.2-4.6.5-9s.4-7.4.5-8.9a82.994 82.994 0 0 0-.1-8.9 6.334 6.334 0 0 0-2.3-.3h-1.8c-1 0-1.5-.5-1.4-1.4 0-.2.2-.4.7-.6a3.013 3.013 0 0 1 1.2-.3c1.7.1 3.6.2 5.8.5a12 12 0 0 1 3.5.8c.9.4 1.3.8 1.3 1.4a3.933 3.933 0 0 1-.2.6l-1.8.1a3.722 3.722 0 0 0-2.2-.5l-.4.2a20.573 20.573 0 0 1 .1 4.1c-.1 2-.2 5.1-.4 9.1-.2 4.1-.3 7.1-.4 9.2s-.1 4.9 0 8.4.1 6.3 0 8.5l-.1 1c0 .4-.1.8-.1 1.4 0 1.2 0 1.9.2 2.1l-.1.2c0 .5.5.8 1.7.8h2.2c1.5 0 2.3.4 2.3 1.2a1.433 1.433 0 0 1-.5 1.1 1.594 1.594 0 0 1-1.2.4 6.882 6.882 0 0 1-1.3-.2c-.5-.1-1-.1-1.3-.2a3.011 3.011 0 0 0-1.4.4 3.014 3.014 0 0 1-1.3.4c-1.4 0-2.1-.3-2.3-.8z"/>
      <path id="Path_53" data-name="Path 53" class="cls-1" d="M378.5 295.9l-.8-.7v-5.6l.1-1.4.1-1.4a11.075 11.075 0 0 0-.2-1.9c.1-4.2.1-10.5-.2-19.2-.3-8.9-.4-15-.3-18.4a33.8 33.8 0 0 1-6.4-.5c-1-.2-1.6-.6-1.5-1.3.2-.6.7-.8 1.5-.8 1.2 0 3.4.2 6.7.5 3.1.3 5.3.5 6.7.6h3.3c.9 0 1.4.4 1.4 1a.752.752 0 0 1-.5.7 2.166 2.166 0 0 1-1.2.2c-.7 0-1.7-.1-3.3-.2-1.5-.1-2.6-.2-3.3-.2-.2 0-.3.1-.3.2a4.953 4.953 0 0 0-.1 1.5c-.2 5-.1 12.6.2 22.6s.4 17.6.2 22.6c0 .4-.2.7-.7 1a1.834 1.834 0 0 1-1.4.7z"/>
      <path id="Path_54" data-name="Path 54" class="cls-1" d="M420.6 285.2l-.8-.7v-5.6l.1-1.4.1-1.4a11.075 11.075 0 0 0-.2-1.9c.1-4.2.1-10.5-.2-19.2-.3-8.9-.4-15-.3-18.4a33.8 33.8 0 0 1-6.4-.5c-1-.2-1.6-.6-1.5-1.3.2-.6.7-.8 1.5-.8 1.2 0 3.4.2 6.7.5 3.1.3 5.3.5 6.7.6h3.3c.9 0 1.4.4 1.4 1a.752.752 0 0 1-.5.7 2.166 2.166 0 0 1-1.2.2c-.7 0-1.7-.1-3.3-.2-1.5-.1-2.6-.2-3.3-.2-.2 0-.3.1-.3.2a4.953 4.953 0 0 0-.1 1.5c-.2 5-.1 12.6.2 22.6s.4 17.6.2 22.6c0 .4-.2.7-.7 1a1.834 1.834 0 0 1-1.4.7z"/>
      <path id="Path_55" data-name="Path 55" class="cls-1" d="M455.6 273.7l.4-.6c.4.1.8.2 1.3.3a5.017 5.017 0 0 0 1.4.3 4.471 4.471 0 0 0 3.1-1.2 7.521 7.521 0 0 0 2-3.5 28.323 28.323 0 0 0 1.4-7.5 19.591 19.591 0 0 0-.7-5.8 28.032 28.032 0 0 0-2.2-5.7l-.9-1.6-2.4-4.8a21.865 21.865 0 0 1-1.5-4.1 18.556 18.556 0 0 1-.8-6.2 12.442 12.442 0 0 1 .5-3.1c.3-1.1.7-2.3 1.1-3.4a8.805 8.805 0 0 1 2-2.9 3.743 3.743 0 0 1 2.8-1 3.7 3.7 0 0 1 1.9.7 1.926 1.926 0 0 1 1 1.5c0 .4-.4.6-1 .6a4.5 4.5 0 0 1-.8-.2 4.117 4.117 0 0 0-.8-.3 2.878 2.878 0 0 0-2.1.9 7.042 7.042 0 0 0-1.5 2.4 17.976 17.976 0 0 0-1.1 5.2 15.264 15.264 0 0 0 .3 3l.2 1.3c0 .2.2.7.4 1.6l.3 1.4.5 1.4 1.3 2.4.6 1c.7 1.2 1.2 2.2 1.7 3.1.4.9.9 1.8 1.3 2.9a13.9 13.9 0 0 1 1 3.1c.2.9.4 2.1.6 3.4a27.986 27.986 0 0 1 .1 4.2 20.669 20.669 0 0 1-1.3 6.9 15.848 15.848 0 0 1-1.7 3.2 6.111 6.111 0 0 1-2.4 2.1 6.574 6.574 0 0 1-3.4.8l-.4.2a4.594 4.594 0 0 1-1.6-.7 2.232 2.232 0 0 1-.6-1.3zm10-48.1z"/>
      <path id="Path_56" data-name="Path 56" class="cls-1" d="M495.9 263.1v-2.4c0-1.6.3-4.3.7-8.1a73.189 73.189 0 0 0 .6-8.1v-6.9c.1-2.1.2-5.1.5-9.2s.4-7.2.5-9.2c0-1.6.1-3.1.1-4.5l-.3-.4v-.5a2.982 2.982 0 0 1 .4-1.5 1.578 1.578 0 0 1 1.3-.5 11.268 11.268 0 0 1 2.4.5 22.385 22.385 0 0 1 3.1 1.1c.9.4 1.4.8 1.4 1.1l-.1.2a14.143 14.143 0 0 1 1.8 4.5 24.974 24.974 0 0 1 .3 5.8 26.842 26.842 0 0 1-1.5 9.1h.1a10.779 10.779 0 0 1-1.2 2 11.254 11.254 0 0 0-1.1 1.6 7.882 7.882 0 0 1 2.2 3.2 16.713 16.713 0 0 1 1.1 4.1c.1 1.4.1 2.7.2 4.1v3.1c-.1 4.9-1.8 8.5-4.9 10.8a9.425 9.425 0 0 1-6 1.7 1.433 1.433 0 0 1-1.1-.5c-.4-.2-.5-.6-.5-1.1zm3.3-8.4a10.392 10.392 0 0 0-.6 3.7v3.5a5.8 5.8 0 0 0 3.5-1.1 7.877 7.877 0 0 0 2.6-3.1 9.578 9.578 0 0 0 1.1-3.9V249a20.269 20.269 0 0 0-.4-3.1 12.537 12.537 0 0 0-1-3.4 6.9 6.9 0 0 0-1.8-2.4 4.929 4.929 0 0 0-2.9-1.1c-.4 3.7-.6 7.1-.7 10.5l-.1 1.8c.1 1.3.2 2.5.3 3.4zm.5-20.5v.9l.1.5.1.5h.6c3.4.1 5.2-3.3 5.4-10.1v-3.3l-.1-1.5-.1-.2a15.09 15.09 0 0 0-.7-4 4.394 4.394 0 0 0-1.2-1.8 2.875 2.875 0 0 0-1.8-.7c-1.1 0-1.8 3.3-2 10.1a21.035 21.035 0 0 0 0 2.6v1.5c0 1-.1 1.9-.1 2.6-.1 1-.1 1.9-.2 2.9z"/>
      <path id="Path_57" data-name="Path 57" class="cls-1" d="M544.7 254.5a7.345 7.345 0 0 1-2.6-.9 11.093 11.093 0 0 1-2.3-1.9q-1.05-1.35-1.5-7.8c-.3-4.3-.4-9.2-.3-14.6v-2.5c.1-6.9.2-12.1.2-15.7a69.123 69.123 0 0 0-.2-7.5l.5-1.1c1.2.2 1.7 1.6 1.6 4.3l-.4 20.4c0 1.6 0 4.4.2 8.2s.2 6.5.2 8.2c-.2 5.8 1.7 8.8 5.5 8.9 2.4.1 4-5.3 5-16l.2-1.6c.7-12.5 1.2-23 1.5-31.3l-.1-.7-.1-.7c0-.6.5-.9 1.3-.8.6 0 1 .2 1.1.5a9.545 9.545 0 0 1 .1 2.7 42.375 42.375 0 0 1-.7 7.8c0 .2.1.3.1.5 0 .5-.1 1.5-.3 3.1s-.3 2.6-.3 3v1.6c-.1 1-.2 2.7-.3 5.3-.2 5-.5 9.3-.7 12.7a39.042 39.042 0 0 1-2.2 11.3 8.017 8.017 0 0 1-2.3 3.6 4.552 4.552 0 0 1-3.2 1z"/>
      <path id="Path_58" data-name="Path 58" class="cls-1" d="M595.3 244.2l-1.1-.4q-.9-1.05-1.8-5.4c-.6-2.9-1.2-6.1-1.7-9.8-.4-3-.9-6-1.5-8.7-.5-2.6-1.1-3.9-1.7-3.9h-.3c-1.1 0-1.7.3-1.7 1-.1 2.8 0 8.4.2 16.9a51.8 51.8 0 0 0 .4 8.1l-.6 1.3h-1.1l-.5-.6c-.2-22.3-.1-38.4.2-48.5 0-.6.1-1.1.1-1.4a3.086 3.086 0 0 1 .5-1 1.606 1.606 0 0 1 1.1-.5 10.036 10.036 0 0 1 6.2 2.1 6.552 6.552 0 0 1 2.2 5.6l-.2 5.6a11.886 11.886 0 0 1-1 3.8c-.7 1.6-1.4 3.1-2.2 4.6-.7 1.2-1.1 1.8-1.1 1.9 0 .2.8 4.3 2.6 12.4 1.7 8.1 2.6 12.3 2.8 12.7a.774.774 0 0 0 .1.3 8.788 8.788 0 0 0 .5 1 3.16 3.16 0 0 1 .5 1.9c-.1.6-.4 1-.9 1zm-9.4-30.4l.1.2a3.452 3.452 0 0 0 2.7-1.4 9.959 9.959 0 0 0 1.9-3.7 34.8 34.8 0 0 0 1-4.1 14.659 14.659 0 0 0 .4-3.3 23.588 23.588 0 0 0-.1-2.9c-.1-.8-.3-1.6-.5-2.5a4.08 4.08 0 0 0-1.5-2.1 5.781 5.781 0 0 0-2.8-.8c-.3 0-.5.2-.7.6a3.079 3.079 0 0 0-.3 1.3c-.1 2.5-.1 5.6-.1 9.3 0 3.8-.1 6.9-.1 9.4z"/>
      <path id="Path_59" data-name="Path 59" class="cls-1" d="M622.8 210.2a39.991 39.991 0 0 1 .6-6l.6-4.8.1-1.1a76.309 76.309 0 0 1 1.1-8.1 10.63 10.63 0 0 1 2.4-5 7.488 7.488 0 0 1 5.3-2.3h1.2c1.6 0 2.4.4 2.3 1.2a1.02 1.02 0 0 1-.5.8 2.016 2.016 0 0 1-1.1.3l-.7-.1-.7-.1a3.244 3.244 0 0 0-2.3.8 5.821 5.821 0 0 0-1.8 2.4 25.543 25.543 0 0 0-1.4 3.5 21.474 21.474 0 0 0-.9 4c-.3 1.7-.5 3.2-.6 4.4s-.3 2.6-.4 4c-.1 2.1-.2 4.1-.3 5.9a31.457 31.457 0 0 0 .1 5.6 7.025 7.025 0 0 1 .6 2.5c.1 1.1.2 2.7.3 4.9a20.212 20.212 0 0 0 .5 4.6 6.383 6.383 0 0 0 1.8 3.2 6.075 6.075 0 0 0 4.2 1.4 3.292 3.292 0 0 0 1.9-.6 4.356 4.356 0 0 0 1.4-1.8 15.247 15.247 0 0 0 .9-2.5 17.766 17.766 0 0 0 .5-2.8c.2-2 .3-3.9.4-5.9l.1-4.2a4.276 4.276 0 0 0-2.7-.9h-1.5c-1.2 0-1.8-.4-1.8-1 0-.9.7-1.3 1.9-1.3a30.068 30.068 0 0 1 3.9.3 9.438 9.438 0 0 1 2.3.6q.9.3.9.9a15.09 15.09 0 0 1-.5 2.8 14.543 14.543 0 0 0-.5 2.9c0 1.6-.1 3.6 0 5.9v5.9c-2.7 2.6-5.4 3.8-8 3.7a12.481 12.481 0 0 1-5.2-1 5.338 5.338 0 0 1-2.4-3.3 40.056 40.056 0 0 1-1.2-7.8 68.609 68.609 0 0 1-.8-11.9z"/>
      <path id="Path_60" data-name="Path 60" class="cls-1" d="M681.3 227.5c.1-10.9.2-17.7.2-20.6l-.2-.3.3-.7a15.151 15.151 0 0 0-.2-2.9l-1.2-.3a7.719 7.719 0 0 1-1.5.2 13.178 13.178 0 0 1-2.5-.5 8.458 8.458 0 0 0-2.4-.4l-.8.3q0 1.65-.3 4.8-.15 3.15-.3 4.8l.2.3v6.4c.1 2.9.1 5 0 6.4a2.116 2.116 0 0 1-.4 1.4 1.1 1.1 0 0 1-1 .6c-1.1 0-1.6-1.6-1.6-4.7l.3-7.1.3-7q.15-7.05 0-7.5c.3-.5.4-2.2.5-5.1q.15-3.45 0-9-.15-6.45 0-9a1.777 1.777 0 0 1 .4-1 1.221 1.221 0 0 1 .9-.4c1 0 1.5 1.5 1.4 4.5-.1 2.6-.2 5.7-.4 9.5s-.4 6.9-.4 9.3c0 .6 1.9 1 5.9 1.1h.3a3.425 3.425 0 0 0 2.2-.5 2.561 2.561 0 0 0 .7-1.9c.1-2.5 0-6.1-.2-10.7-.2-4.9-.3-8.4-.2-10.6a1.234 1.234 0 0 1 .4-.8 1.613 1.613 0 0 1 .9-.3s.3.1.7.2l.7.3c-.1 4.3-.1 10.3-.1 18 .1 7.7.1 13.7-.1 18q-.3 8.85 0 15.3l-.5.9c.3-.7-.4-.9-2-1zm-1.7-27.8v-.2l.1.2z"/>
    </g>
  </g>
</svg>