<?xml version="1.0" standalone="no"?>
<!DOCTYPE svg PUBLIC "-//W3C//DTD SVG 1.1//EN" "http://www.w3.org/Graphics/SVG/1.1/DTD/svg11.dtd" >
<svg>
<defs>
<font id="Avenir-Light" horiz-adv-x="240" >
  <font-face 
    font-family="Avenir Light"
    font-weight="300"
    font-stretch="normal"
    units-per-em="1000"
    panose-1="2 11 4 2 2 2 3 2 2 4"
    ascent="800"
    descent="-200"
    x-height="462"
    cap-height="708"
    bbox="-167 -250 1000 936.001"
    underline-thickness="50"
    underline-position="-50"
    unicode-range="U+000D-U+FB02"
  />
<missing-glyph horiz-adv-x="512" 
d="M222 117v67h56v-67h-56zM225 234l-2.00098 16.999c0 37.333 4.33301 64.333 13 81c4.66699 8.66699 10.667 17.834 18 27.501s16.666 20.167 27.999 31.5c21.333 20 35 35.833 41 47.5s9 23.5 9 35.5c0 24 -7.5 44.167 -22.5 60.5s-32.833 24.5 -53.5 24.5
s-38.5 -7.33301 -53.5 -22s-24.5 -39 -28.5 -73l-50 8c4.66699 48 19.334 82.833 44.001 104.5s55 32.5 91 32.5s65.667 -11.833 89 -35.5s35 -55.5 35 -95.5c0 -21.333 -4.16699 -40.833 -12.5 -58.5s-25.166 -38.167 -50.499 -61.5c-24.667 -22 -39 -39.333 -43 -52
c-4 -13.333 -6 -37.333 -6 -72h-46zM461.999 49.999v617h-412v-617h412zM511.999 717.999v-718h-512v718h512z" />
    <glyph glyph-name=".notdef" horiz-adv-x="512" 
d="M222 117v67h56v-67h-56zM225 234l-2.00098 16.999c0 37.333 4.33301 64.333 13 81c4.66699 8.66699 10.667 17.834 18 27.501s16.666 20.167 27.999 31.5c21.333 20 35 35.833 41 47.5s9 23.5 9 35.5c0 24 -7.5 44.167 -22.5 60.5s-32.833 24.5 -53.5 24.5
s-38.5 -7.33301 -53.5 -22s-24.5 -39 -28.5 -73l-50 8c4.66699 48 19.334 82.833 44.001 104.5s55 32.5 91 32.5s65.667 -11.833 89 -35.5s35 -55.5 35 -95.5c0 -21.333 -4.16699 -40.833 -12.5 -58.5s-25.166 -38.167 -50.499 -61.5c-24.667 -22 -39 -39.333 -43 -52
c-4 -13.333 -6 -37.333 -6 -72h-46zM461.999 49.999v617h-412v-617h412zM511.999 717.999v-718h-512v718h512z" />
    <glyph glyph-name="nonmarkingreturn" unicode="&#xd;" horiz-adv-x="0" 
 />
    <glyph glyph-name="space" unicode=" " horiz-adv-x="260" 
 />
    <glyph glyph-name="exclam" unicode="!" horiz-adv-x="370" 
d="M215 186h-60v522h60v-522zM137 42c0 13.333 4.66699 24.666 14 33.999s20.666 14 33.999 14s24.666 -4.66699 33.999 -14s14 -20.666 14 -33.999s-4.66699 -24.666 -14 -33.999s-20.666 -14 -33.999 -14s-24.666 4.66699 -33.999 14s-14 20.666 -14 33.999z" />
    <glyph glyph-name="quotedbl" unicode="&#x22;" horiz-adv-x="520" 
d="M161 708h60v-228h-60v228zM299 708h60v-228h-60v228z" />
    <glyph glyph-name="numbersign" unicode="#" horiz-adv-x="520" 
d="M121 229h-108v48h115l22 156h-108v48h115l30 227h52l-31 -227h139l31 227h52l-31 -227h108v-48h-115l-21 -156h108v-48h-115l-30 -229h-52l30 229h-139l-30 -229h-52zM340 433h-138l-21 -156h138z" />
    <glyph glyph-name="dollar" unicode="$" horiz-adv-x="520" 
d="M281 42c18.667 0.666992 36 4.83105 52 12.498s30 17.834 42 30.501s21.333 27.5 28 44.5s10 35.5 10 55.5c0 10 -1.33301 20.333 -4 31s-7.16699 21 -13.5 31s-15.333 19.333 -27 28s-26.5 16.334 -44.5 23.001l-43 16v-272zM233 665.997
c-16 -2.66699 -31.167 -7.66504 -45.5 -14.998s-27 -16.833 -38 -28.5s-19.833 -25.334 -26.5 -41.001s-10 -32.834 -10 -51.501c0 -35.333 9.33301 -62 28 -80s43.667 -32.667 75 -44l17 -6v266zM233 -12.001c-18 0 -36.332 2.16699 -54.999 6.5s-36.834 11 -54.501 20
s-34.167 20 -49.5 33s-29 28.167 -41 45.5l57 39c16 -27.333 36.667 -48.833 62 -64.5s52.333 -24.167 81 -25.5v290l-71 26c-24.667 8.66699 -44.5 20.334 -59.5 35.001s-26.667 30 -35 46s-13.833 31.667 -16.5 47s-4 28.666 -4 39.999c0 28 5.5 53.5 16.5 76.5
s25.5 42.833 43.5 59.5s38 30 60 40s44 16 66 18v67h48v-67c16.667 0 33.334 -1.16699 50.001 -3.5s32.834 -6.83301 48.501 -13.5s30.667 -15.834 45 -27.501s28.166 -26.5 41.499 -44.5l-55 -40c-15.333 24 -34.833 42.5 -58.5 55.5s-47.5 19.5 -71.5 19.5v-282l70 -24
c14.667 -5.33301 29.667 -12.666 45 -21.999s29.166 -21.166 41.499 -35.499s22.333 -31.5 30 -51.5s11.5 -43.333 11.5 -70c0 -28.667 -5.5 -54.5 -16.5 -77.5s-25.667 -42.833 -44 -59.5s-39.5 -29.834 -63.5 -39.501s-48.667 -15.167 -74 -16.5v-67h-48v67z" />
    <glyph glyph-name="percent" unicode="%" horiz-adv-x="815" 
d="M614 742l46 -28l-457 -748l-45 28zM38 548c0 24 4.5 46.333 13.5 67s21.333 38.834 37 54.501s33.834 28 54.501 37s43 13.5 67 13.5s46.333 -4.5 67 -13.5s38.834 -21.333 54.501 -37s28 -33.834 37 -54.501s13.5 -43 13.5 -67s-4.5 -46.333 -13.5 -67
s-21.333 -38.834 -37 -54.501s-33.834 -28 -54.501 -37s-43 -13.5 -67 -13.5s-46.333 4.5 -67 13.5s-38.834 21.333 -54.501 37s-28 33.834 -37 54.501s-13.5 43 -13.5 67zM92 548c0 -16.667 3.16699 -32.167 9.5 -46.5s14.833 -26.833 25.5 -37.5s23.167 -19 37.5 -25
s29.5 -9 45.5 -9s31.167 3 45.5 9s26.833 14.333 37.5 25s19.167 23.167 25.5 37.5s9.5 29.833 9.5 46.5s-3.16699 32.167 -9.5 46.5s-14.833 26.833 -25.5 37.5s-23.167 19 -37.5 25s-29.5 9 -45.5 9s-31.167 -3 -45.5 -9s-26.833 -14.333 -37.5 -25
s-19.167 -23.167 -25.5 -37.5s-9.5 -29.833 -9.5 -46.5zM433 160c0 24 4.5 46.333 13.5 67s21.333 38.834 37 54.501s33.834 28 54.501 37s43 13.5 67 13.5s46.333 -4.5 67 -13.5s38.834 -21.333 54.501 -37s28 -33.834 37 -54.501s13.5 -43 13.5 -67
s-4.5 -46.333 -13.5 -67s-21.333 -38.834 -37 -54.501s-33.834 -28 -54.501 -37s-43 -13.5 -67 -13.5s-46.333 4.5 -67 13.5s-38.834 21.333 -54.501 37s-28 33.834 -37 54.501s-13.5 43 -13.5 67zM487 160c0 -16.667 3.16699 -32.167 9.5 -46.5s14.833 -26.833 25.5 -37.5
s23.167 -19 37.5 -25s29.5 -9 45.5 -9s31.167 3 45.5 9s26.833 14.333 37.5 25s19.167 23.167 25.5 37.5s9.5 29.833 9.5 46.5s-3.16699 32.167 -9.5 46.5s-14.833 26.833 -25.5 37.5s-23.167 19 -37.5 25s-29.5 9 -45.5 9s-31.167 -3 -45.5 -9s-26.833 -14.333 -37.5 -25
s-19.167 -23.167 -25.5 -37.5s-9.5 -29.833 -9.5 -46.5z" />
    <glyph glyph-name="ampersand" unicode="&#x26;" horiz-adv-x="704" 
d="M487 206l101.997 184.002h68l-128 -226l161 -169h-89l-106 114c-28.667 -38.667 -60.167 -69.5 -94.5 -92.5s-76.166 -34.5 -125.499 -34.5c-30 0 -58.167 4.83301 -84.5 14.5s-49.166 23.5 -68.499 41.5s-34.666 39.667 -45.999 65s-17 53.666 -17 84.999
c0 27.333 4.66699 51.333 14 72s21.5 39 36.5 55s32.167 30.5 51.5 43.5l60 38.5l-30.5 37.5c-10.333 13 -19.5 26.5 -27.5 40.5s-14.667 28.5 -20 43.5s-8 30.5 -8 46.5c0 25.333 4.83301 48 14.5 68s22.667 36.833 39 50.5s35.333 24.167 57 31.5s44.167 11 67.5 11
c20.667 0 40.667 -3.66699 60 -11s36.5 -17.5 51.5 -30.5s26.833 -28.667 35.5 -47s13 -38.833 13 -61.5c0 -25.333 -4.5 -47.333 -13.5 -66s-21 -35.334 -36 -50.001s-31.833 -27.667 -50.5 -39s-38 -22.333 -58 -33zM307.997 666.002
c-30 0 -55.332 -9.16602 -75.999 -27.499s-31 -42.5 -31 -72.5c0 -12 2.5 -24.333 7.5 -37s11.333 -25 19 -37s16 -23.333 25 -34l24.5 -29l44 24c15.333 8.66699 29.333 18.667 42 30s23.167 24.166 31.5 38.499s12.5 30.833 12.5 49.5c0 28 -9.33301 50.833 -28 68.5
s-42.334 26.5 -71.001 26.5zM258.998 355.003c-16 -9.33301 -31.832 -19.333 -47.499 -30s-30 -22.5 -43 -35.5s-23.5 -27.667 -31.5 -44s-12 -34.833 -12 -55.5c0 -22.667 4.16699 -43 12.5 -61s19.666 -33.5 33.999 -46.5s31.333 -23 51 -30s40.5 -10.5 62.5 -10.5
c18.667 0 36.167 3 52.5 9s31.5 14 45.5 24s27 21.5 39 34.5s23 26.833 33 41.5z" />
    <glyph glyph-name="quotesingle" unicode="'" horiz-adv-x="260" 
d="M100 708h60v-228h-60v228z" />
    <glyph glyph-name="parenleft" unicode="(" horiz-adv-x="260" 
d="M248 700c-22 -27.333 -41 -57.8301 -57 -91.4971s-29.5 -68.5 -40.5 -104.5s-19.167 -72.333 -24.5 -109s-8 -72.334 -8 -107.001c0 -78 11.333 -150.333 34 -217s54.667 -132.334 96 -197.001l-47 -30c-23.333 32 -43.833 66.167 -61.5 102.5s-32.5 73.5 -44.5 111.5
s-21.167 76.333 -27.5 115s-9.5 77 -9.5 115c0 79.333 12.167 157.666 36.5 234.999s58.5 147 102.5 209z" />
    <glyph glyph-name="parenright" unicode=")" horiz-adv-x="260" 
d="M12 -124c22 27.333 41 57.666 57 90.999s29.5 68 40.5 104s19.167 72.5 24.5 109.5s8 72.833 8 107.5c0 38.667 -3 76 -9 112s-14.5 71 -25.5 105s-24.5 67.167 -40.5 99.5s-34.333 64.833 -55 97.5l47 30c23.333 -32 43.833 -66.167 61.5 -102.5s32.5 -73.5 44.5 -111.5
s21.167 -76.333 27.5 -115s9.5 -77 9.5 -115c0 -79.333 -12.167 -157.666 -36.5 -234.999s-58.5 -147 -102.5 -209z" />
    <glyph glyph-name="asterisk" unicode="*" horiz-adv-x="444" 
d="M247 556l144 48l15 -48l-144 -47l91 -122l-37 -29l-94 125l-89 -125l-40 29l91 122l-146 50l14 45l147 -48v152h48v-152z" />
    <glyph glyph-name="plus" unicode="+" horiz-adv-x="666" 
d="M78 327h231v231h48v-231h231v-48h-231v-231h-48v231h-231v48z" />
    <glyph glyph-name="comma" unicode="," horiz-adv-x="260" 
d="M116 90h70l-77 -228h-59z" />
    <glyph glyph-name="hyphen" unicode="-" horiz-adv-x="333" 
d="M43 264h247v-54h-247v54z" />
    <glyph glyph-name="period" unicode="." horiz-adv-x="260" 
d="M82 42c0 13.333 4.66699 24.666 14 33.999s20.666 14 33.999 14s24.666 -4.66699 33.999 -14s14 -20.666 14 -33.999s-4.66699 -24.666 -14 -33.999s-20.666 -14 -33.999 -14s-24.666 4.66699 -33.999 14s-14 20.666 -14 33.999z" />
    <glyph glyph-name="slash" unicode="/" horiz-adv-x="370" 
d="M313 744l52 -18l-303 -762l-53 18z" />
    <glyph glyph-name="zero" unicode="0" horiz-adv-x="520" 
d="M26 354c0 25.333 1.16699 52.166 3.5 80.499s6.66602 56 12.999 83s15 52.667 26 77s25.167 45.833 42.5 64.5s38.166 33.5 62.499 44.5s53.166 16.5 86.499 16.5s62.166 -5.5 86.499 -16.5s45.166 -25.833 62.499 -44.5s31.5 -40.167 42.5 -64.5s19.667 -50 26 -77
s10.666 -54.667 12.999 -83s3.5 -55.166 3.5 -80.499c0 -26 -1.16699 -53 -3.5 -81s-6.66602 -55.5 -12.999 -82.5s-15 -52.667 -26 -77s-25.167 -45.833 -42.5 -64.5s-38.166 -33.5 -62.499 -44.5s-53.166 -16.5 -86.499 -16.5s-62.166 5.5 -86.499 16.5
s-45.166 25.833 -62.499 44.5s-31.5 40.167 -42.5 64.5s-19.667 50 -26 77s-10.666 54.5 -12.999 82.5s-3.5 55 -3.5 81zM92 354c0 -18.667 0.666016 -39.167 1.99902 -61.5s4 -45 8 -68s9.83301 -45.5 17.5 -67.5s17.667 -41.5 30 -58.5s27.5 -30.667 45.5 -41
s39.667 -15.5 65 -15.5c24.667 0 46.167 5.16699 64.5 15.5s33.666 24 45.999 41s22.333 36.5 30 58.5s13.5 44.5 17.5 67.5s6.66699 45.667 8 68s2 42.833 2 61.5c0 18 -0.666992 38.333 -2 61s-4 45.5 -8 68.5s-9.83301 45.5 -17.5 67.5s-17.667 41.5 -30 58.5
s-27.666 30.667 -45.999 41s-39.833 15.5 -64.5 15.5s-46.167 -5.16699 -64.5 -15.5s-33.666 -24 -45.999 -41s-22.333 -36.5 -30 -58.5s-13.5 -44.5 -17.5 -67.5s-6.66699 -45.833 -8 -68.5s-2 -43 -2 -61z" />
    <glyph glyph-name="one" unicode="1" horiz-adv-x="520" 
d="M261 624h-1l-128 -105l-37 46l175 143h51v-708h-60v624z" />
    <glyph glyph-name="two" unicode="2" horiz-adv-x="520" 
d="M41 70l265.999 280.998c12 12 24 24.833 36 38.5s22.833 28 32.5 43s17.5 30.833 23.5 47.5s9 34.667 9 54c0 41.333 -13.333 73.666 -40 96.999s-60.334 35 -101.001 35c-36.667 0 -67.667 -10.667 -93 -32s-41.666 -49.333 -48.999 -84l-70 7
c11.333 54.667 36.333 95.5 75 122.5s85.334 40.5 140.001 40.5c27.333 0 53.333 -4.16699 78 -12.5s46.334 -20.166 65.001 -35.499s33.5 -34.166 44.5 -56.499s16.5 -47.833 16.5 -76.5c0 -27.333 -4.16699 -52.666 -12.5 -75.999s-19.333 -45.5 -33 -66.5
s-29.334 -40.833 -47.001 -59.5l-53.5 -56l-221 -227h372v-54h-438v70z" />
    <glyph glyph-name="three" unicode="3" horiz-adv-x="520" 
d="M106 148c13.333 -34 31.4971 -60.167 54.4971 -78.5s54.5 -27.5 94.5 -27.5c26 0 49 4 69 12s36.5 19 49.5 33s22.833 30.333 29.5 49s10 38.667 10 60c0 26 -5.5 48.333 -16.5 67s-25.333 33.834 -43 45.501s-37.667 20.167 -60 25.5s-44.833 8 -67.5 8h-26v60h30
c18.667 0 37.5 2.5 56.5 7.5s36 12.833 51 23.5s27.167 24.5 36.5 41.5s14 37.5 14 61.5c0 38 -11.833 69.167 -35.5 93.5s-55.5 36.5 -95.5 36.5c-29.333 0 -55.666 -7.5 -78.999 -22.5s-41.666 -35.167 -54.999 -60.5l-57 32c19.333 36.667 45.833 63.334 79.5 80.001
s70.834 25 111.501 25c26.667 0 52 -3.83301 76 -11.5s45 -19 63 -34s32.167 -33.833 42.5 -56.5s15.5 -49.334 15.5 -80.001c0 -38.667 -10.667 -72.834 -32 -102.501s-52.666 -50.167 -93.999 -61.5v-2c22.667 -4 43.167 -11.5 61.5 -22.5s34.166 -24.5 47.499 -40.5
s23.666 -34 30.999 -54s11 -41.333 11 -64c0 -28 -4.5 -54.333 -13.5 -79s-22.667 -46.167 -41 -64.5s-41.166 -32.833 -68.499 -43.5s-59.333 -16 -96 -16c-53.333 0 -98.5 11.167 -135.5 33.5s-64.833 57.5 -83.5 105.5z" />
    <glyph glyph-name="four" unicode="4" horiz-adv-x="520" 
d="M329 174h-306v71l283 463h83v-480h108v-54h-108v-174h-60v174zM329 642h-2l-250 -414h252v414z" />
    <glyph glyph-name="five" unicode="5" horiz-adv-x="520" 
d="M451 654h-291.998l-3 -225c15.333 8 32 13.333 50 16s35.667 4 53 4c34 0 64.5 -6.16699 91.5 -18.5s50 -29.166 69 -50.499s33.667 -46.166 44 -74.499s15.5 -58.5 15.5 -90.5c0 -38 -6.83301 -71.333 -20.5 -100s-31.5 -52.334 -53.5 -71.001s-46.333 -32.667 -73 -42
s-53 -14 -79 -14c-52 0 -95.5 10.667 -130.5 32s-62.167 50.666 -81.5 87.999l62 31c6 -13.333 14.167 -25.833 24.5 -37.5s22.166 -22 35.499 -31s27.666 -16 42.999 -21s31 -7.5 47 -7.5s33.333 3.5 52 10.5s36 17.5 52 31.5s29.333 31.667 40 53s16 46 16 74
c0 25.333 -4.5 49.166 -13.5 71.499s-21.5 41.833 -37.5 58.5s-34.833 29.834 -56.5 39.501s-45.167 14.5 -70.5 14.5s-50 -4.5 -74 -13.5s-46 -20.5 -66 -34.5l6 361h350v-54z" />
    <glyph glyph-name="six" unicode="6" horiz-adv-x="520" 
d="M168 396l2.00195 -0.000976562c12 10 28.167 17.5 48.5 22.5s39.166 7.5 56.499 7.5c31.333 0 60.333 -5.66699 87 -17s49.667 -26.833 69 -46.5s34.333 -42.667 45 -69s16 -54.833 16 -85.5c0 -32 -5.83301 -61.5 -17.5 -88.5s-27.834 -50.167 -48.501 -69.5
s-45.167 -34.5 -73.5 -45.5s-59.166 -16.5 -92.499 -16.5s-64.166 5.5 -92.499 16.5s-52.833 26.167 -73.5 45.5s-36.834 42.5 -48.501 69.5s-17.5 56.5 -17.5 88.5c0 18.667 2 36.334 6 53.001s9.33301 32.5 16 47.5s13.667 29.167 21 42.5s14.666 26 21.999 38l192 319h76
zM260.002 373.999c-23.333 0 -45 -4.33301 -65 -13s-37.5 -20.5 -52.5 -35.5s-26.833 -32.667 -35.5 -53s-13 -41.833 -13 -64.5c0 -24.667 4 -47.167 12 -67.5s19.333 -37.833 34 -52.5s32.167 -26 52.5 -34s42.833 -12 67.5 -12s47.167 4 67.5 12s37.833 19.333 52.5 34
s26 32.167 34 52.5s12 42.833 12 67.5c0 22.667 -4.33301 44.167 -13 64.5s-20.5 38 -35.5 53s-32.667 26.833 -53 35.5s-41.833 13 -64.5 13z" />
    <glyph glyph-name="seven" unicode="7" horiz-adv-x="520" 
d="M443 654l-282 -654h-67l287 654h-340v54h402v-54z" />
    <glyph glyph-name="eight" unicode="8" horiz-adv-x="520" 
d="M66 536c0 27.333 5.00195 52.333 15.002 75s23.667 42 41 58s37.833 28.5 61.5 37.5s49.167 13.5 76.5 13.5s52.833 -4.5 76.5 -13.5s44.167 -21.5 61.5 -37.5s31 -35.333 41 -58s15 -47.667 15 -75c0 -16.667 -2.66699 -33.167 -8 -49.5s-12.833 -31.666 -22.5 -45.999
s-21.5 -26.833 -35.5 -37.5s-29.667 -18.334 -47 -23.001v-1c22.667 -4.66699 42.5 -12.834 59.5 -24.501s31.333 -25.667 43 -42s20.5 -34.333 26.5 -54s9 -40.167 9 -61.5c0 -32 -5.5 -60.833 -16.5 -86.5s-26.333 -47.5 -46 -65.5s-42.834 -32 -69.501 -42
s-55.667 -15 -87 -15s-60.333 5 -87 15s-49.834 24 -69.501 42s-35 39.833 -46 65.5s-16.5 54.5 -16.5 86.5c0 21.333 3 41.833 9 61.5s14.833 37.667 26.5 54s26 30.333 43 42s36.833 19.834 59.5 24.501v1c-17.333 4.66699 -33 12.334 -47 23.001
s-25.833 23.167 -35.5 37.5s-17.167 29.666 -22.5 45.999s-8 32.833 -8 49.5zM132.002 536c0 -18 3.16699 -34.833 9.5 -50.5s15 -29.334 26 -41.001s24.333 -21 40 -28s33.167 -10.5 52.5 -10.5c18.667 0 36 3.5 52 10.5s29.5 16.333 40.5 28s19.667 25.334 26 41.001
s9.5 32.5 9.5 50.5c0 39.333 -12.167 70.833 -36.5 94.5s-54.833 35.5 -91.5 35.5s-67.167 -11.833 -91.5 -35.5s-36.5 -55.167 -36.5 -94.5zM107.002 197c0 -21.333 3.6709 -41.333 11.0039 -60s17.666 -35 30.999 -49s29.333 -25.167 48 -33.5s39.667 -12.5 63 -12.5
s44.333 4.16699 63 12.5s34.667 19.5 48 33.5s23.666 30.333 30.999 49s11 38.667 11 60c0 23.333 -4 44.5 -12 63.5s-18.833 35.333 -32.5 49s-29.834 24.167 -48.501 31.5s-38.667 11 -60 11s-41.333 -3.66699 -60 -11s-34.834 -17.833 -48.501 -31.5s-24.5 -30 -32.5 -49
s-12 -40.167 -12 -63.5z" />
    <glyph glyph-name="nine" unicode="9" horiz-adv-x="520" 
d="M352 312l-2 0.000976562c-12 -10 -28.167 -17.5 -48.5 -22.5s-39.166 -7.5 -56.499 -7.5c-31.333 0 -60.333 5.66699 -87 17s-49.667 26.833 -69 46.5s-34.333 42.667 -45 69s-16 54.833 -16 85.5c0 32 5.83301 61.5 17.5 88.5s27.834 50.167 48.501 69.5
s45.167 34.5 73.5 45.5s59.166 16.5 92.499 16.5s64.166 -5.5 92.499 -16.5s52.833 -26.167 73.5 -45.5s36.834 -42.5 48.501 -69.5s17.5 -56.5 17.5 -88.5c0 -18.667 -2 -36.334 -6 -53.001s-9.33301 -32.5 -16 -47.5s-13.834 -29.167 -21.501 -42.5l-21.5 -38l-192 -319
h-76zM260 334.001c22.667 0 44.167 4.33301 64.5 13s38 20.5 53 35.5s26.833 32.5 35.5 52.5s13 41.667 13 65c0 24.667 -4 47.167 -12 67.5s-19.333 37.833 -34 52.5s-32.167 26 -52.5 34s-42.833 12 -67.5 12s-47.167 -4 -67.5 -12s-37.833 -19.333 -52.5 -34
s-26 -32.167 -34 -52.5s-12 -42.833 -12 -67.5c0 -23.333 4.33301 -45 13 -65s20.5 -37.5 35.5 -52.5s32.5 -26.833 52.5 -35.5s41.667 -13 65 -13z" />
    <glyph glyph-name="colon" unicode=":" horiz-adv-x="260" 
d="M82 420c0 13.333 4.66699 24.666 14 33.999s20.666 14 33.999 14s24.666 -4.66699 33.999 -14s14 -20.666 14 -33.999s-4.66699 -24.666 -14 -33.999s-20.666 -14 -33.999 -14s-24.666 4.66699 -33.999 14s-14 20.666 -14 33.999zM82 42
c0 13.333 4.66699 24.666 14 33.999s20.666 14 33.999 14s24.666 -4.66699 33.999 -14s14 -20.666 14 -33.999s-4.66699 -24.666 -14 -33.999s-20.666 -14 -33.999 -14s-24.666 4.66699 -33.999 14s-14 20.666 -14 33.999z" />
    <glyph glyph-name="semicolon" unicode=";" horiz-adv-x="260" 
d="M116 90h70l-77 -228h-59zM82 420c0 13.333 4.66699 24.666 14 33.999s20.666 14 33.999 14s24.666 -4.66699 33.999 -14s14 -20.666 14 -33.999s-4.66699 -24.666 -14 -33.999s-20.666 -14 -33.999 -14s-24.666 4.66699 -33.999 14s-14 20.666 -14 33.999z" />
    <glyph glyph-name="less" unicode="&#x3c;" horiz-adv-x="666" 
d="M584 511l-448 -208l448 -208v-50l-502 234v48l502 234v-50z" />
    <glyph glyph-name="equal" unicode="=" horiz-adv-x="666" 
d="M78 399h510v-48h-510v48zM78 255h510v-48h-510v48z" />
    <glyph glyph-name="greater" unicode="&#x3e;" horiz-adv-x="666" 
d="M82 95l448 208l-448 208v50l502 -234v-48l-502 -234v50z" />
    <glyph glyph-name="question" unicode="?" horiz-adv-x="463" 
d="M204 270c0 22 3.83203 41.333 11.499 58s17.334 31.667 29.001 45s24.167 26 37.5 38s25.833 24.833 37.5 38.5s21.334 28.5 29.001 44.5s11.5 35 11.5 57c0 36 -10.333 65.167 -31 87.5s-49.334 33.5 -86.001 33.5c-35.333 0 -64.166 -10.667 -86.499 -32
s-37.166 -49.333 -44.499 -84l-65 8c9.33301 51.333 31.666 91.166 66.999 119.499s78 42.5 128 42.5c26 0 50.333 -3.83301 73 -11.5s42.167 -18.834 58.5 -33.501s29.166 -32.667 38.499 -54s14 -45.666 14 -72.999c0 -28 -4 -51.667 -12 -71s-18 -36.333 -30 -51
s-25 -28.167 -39 -40.5s-27 -25 -39 -38s-22 -27.667 -30 -44s-12 -36.166 -12 -59.499v-64h-60v84zM186.999 42c0 13.333 4.66699 24.666 14 33.999s20.666 14 33.999 14s24.666 -4.66699 33.999 -14s14 -20.666 14 -33.999s-4.66699 -24.666 -14 -33.999
s-20.666 -14 -33.999 -14s-24.666 4.66699 -33.999 14s-14 20.666 -14 33.999z" />
    <glyph glyph-name="at" unicode="@" horiz-adv-x="800" 
d="M254 280c0 -28 7.49902 -50.835 22.499 -68.502s35.5 -26.5 61.5 -26.5c23.333 0 45.333 7.66699 66 23s38.667 34.5 54 57.5s27.333 47.667 36 74s13 50.5 13 72.5c0 32 -6.5 57 -19.5 75s-33.5 27 -61.5 27c-25.333 0 -48.5 -7.66699 -69.5 -23
s-39.167 -34.666 -54.5 -57.999s-27.166 -48.666 -35.499 -75.999s-12.5 -53 -12.5 -77zM524.999 258.998c-3.33301 -10.667 -6.00195 -20.333 -8.00195 -29s-3 -15 -3 -19c0 -5.33301 1.5 -11 4.5 -17s10.167 -9 21.5 -9c17.333 0 35.5 7.33301 54.5 22
s36.5 33.5 52.5 56.5s29.167 48.833 39.5 77.5s15.5 57 15.5 85c0 37.333 -7.83301 71.5 -23.5 102.5s-36.667 57.5 -63 79.5s-56.833 39.167 -91.5 51.5s-70.667 18.5 -108 18.5c-45.333 0 -87.5 -8.83301 -126.5 -26.5s-72.667 -41.334 -101 -71.001s-50.5 -64 -66.5 -103
s-24 -79.833 -24 -122.5c0 -44.667 8.33301 -86.667 25 -126s39.5 -73.833 68.5 -103.5s63 -53 102 -70s80.5 -25.5 124.5 -25.5c24.667 0 49.334 3.33301 74.001 10s48.167 15.834 70.5 27.501s42.833 25.5 61.5 41.5s34.667 33.667 48 53h58
c-15.333 -28 -34.333 -53 -57 -75s-47.667 -40.833 -75 -56.5s-56.333 -27.667 -87 -36s-61.667 -12.5 -93 -12.5c-54 0 -104 9.66699 -150 29s-85.5 45.833 -118.5 79.5s-58.833 73.167 -77.5 118.5s-28 94 -28 146s9.66699 100.5 29 145.5s45.666 84.333 78.999 118
s72.5 60 117.5 79s93.167 28.5 144.5 28.5c48.667 0 93.834 -7.66699 135.501 -23s77.834 -36.333 108.501 -63s54.667 -58.334 72 -95.001s26 -76.334 26 -119.001c0 -41.333 -6.83301 -80 -20.5 -116s-31.667 -67.333 -54 -94s-47.5 -47.5 -75.5 -62.5
s-56 -22.5 -84 -22.5c-17.333 0 -32 5.5 -44 16.5s-18 27.833 -18 50.5h-2c-13.333 -16.667 -31.666 -32 -54.999 -46s-48 -21 -74 -21c-22.667 0 -42.334 3.83301 -59.001 11.5s-30.667 18.334 -42 32.001s-19.833 29.334 -25.5 47.001s-8.5 36.5 -8.5 56.5
c0 34.667 5.5 69.334 16.5 104.001s26.667 65.667 47 93s45 49.666 74 66.999s61.833 26 98.5 26c22 0 42.833 -6.16699 62.5 -18.5s34.167 -33.833 43.5 -64.5h2l24 64h60z" />
    <glyph glyph-name="A" unicode="A" horiz-adv-x="685" 
d="M314 708h68l298 -708h-74l-77 188h-375l-80 -188h-69zM345 636l-165 -388h325z" />
    <glyph glyph-name="B" unicode="B" horiz-adv-x="630" 
d="M97 708l204.002 0.00390625c26.667 0 53.667 -2.16699 81 -6.5s51.833 -13.333 73.5 -27s39.334 -32.667 53.001 -57s20.5 -56.5 20.5 -96.5c0 -36 -10.667 -67.333 -32 -94s-53 -44.334 -95 -53.001v-2c23.333 -2 44.666 -7.5 63.999 -16.5s36 -21 50 -36
s24.833 -32.833 32.5 -53.5s11.5 -43.334 11.5 -68.001c0 -40.667 -7.83301 -73.834 -23.5 -99.501s-35.334 -45.834 -59.001 -60.501s-49.334 -24.667 -77.001 -30s-53.5 -8 -77.5 -8h-226v708zM163.002 402.004h137.001c34 0 61.667 4.16699 83 12.5s38 18.5 50 30.5
s20 24.833 24 38.5s6 26.167 6 37.5c0 24.667 -4.16699 45.167 -12.5 61.5s-19.5 29.333 -33.5 39s-30.333 16.5 -49 20.5s-38.334 6 -59.001 6h-146v-246zM163.003 60.0039l150.998 -0.00195312c38.667 0 69.834 4.66699 93.501 14s41.834 21 54.501 35
s21.167 28.833 25.5 44.5s6.5 29.834 6.5 42.501c0 26 -5 48.333 -15 67s-23 33.834 -39 45.501s-34.167 20.167 -54.5 25.5s-40.833 8 -61.5 8h-161v-282z" />
    <glyph glyph-name="C" unicode="C" horiz-adv-x="704" 
d="M680 111c-34 -46 -73.333 -78.999 -118 -98.999s-93 -30 -145 -30c-54 0 -103.5 9.16699 -148.5 27.5s-83.5 44 -115.5 77s-57 72.333 -75 118s-27 95.5 -27 149.5s9 103.667 27 149s43 84.5 75 117.5s70.5 58.833 115.5 77.5s94.5 28 148.5 28
c48 0 92.833 -8.5 134.5 -25.5s78.167 -45.5 109.5 -85.5l-54 -45c-22 33.333 -50.167 57.666 -84.5 72.999s-69.5 23 -105.5 23c-46 0 -87.5 -8 -124.5 -24s-68.5 -38 -94.5 -66s-46 -61 -60 -99s-21 -79 -21 -123s7 -85 21 -123s34 -71 60 -99s57.5 -50 94.5 -66
s78.5 -24 124.5 -24c18 0 36.667 2.16699 56 6.5s38.166 11 56.499 20s35.833 20.333 52.5 34s31.334 30.167 44.001 49.5z" />
    <glyph glyph-name="D" unicode="D" horiz-adv-x="741" 
d="M88 708l219 -0.00195312c61.333 0 113.333 -7.5 156 -22.5s78.167 -34.167 106.5 -57.5s50.666 -49.166 66.999 -77.499s28.333 -55.5 36 -81.5s12.5 -49.5 14.5 -70.5s3 -35.833 3 -44.5s-1 -23.5 -3 -44.5s-6.83301 -44.5 -14.5 -70.5s-19.667 -53.167 -36 -81.5
s-38.666 -54.166 -66.999 -77.499s-63.833 -42.5 -106.5 -57.5s-94.667 -22.5 -156 -22.5h-219v708zM154 59.998h136c46.667 0 90.334 5.83301 131.001 17.5s76 29.5 106 53.5s53.667 54.5 71 91.5s26 80.833 26 131.5s-8.66699 94.5 -26 131.5s-41 67.5 -71 91.5
s-65.333 41.833 -106 53.5s-84.334 17.5 -131.001 17.5h-136v-588z" />
    <glyph glyph-name="E" unicode="E" horiz-adv-x="593" 
d="M97 708h433v-60h-367v-252h344v-60h-344v-276h383v-60h-449v708z" />
    <glyph glyph-name="F" unicode="F" horiz-adv-x="556" 
d="M97 708h424v-60h-358v-252h333v-60h-333v-336h-66v708z" />
    <glyph glyph-name="G" unicode="G" horiz-adv-x="778" 
d="M681 46c-41.333 -23.333 -84.165 -39.833 -128.498 -49.5s-89.5 -14.5 -135.5 -14.5c-54 0 -103.5 9.16699 -148.5 27.5s-83.5 44 -115.5 77s-57 72.333 -75 118s-27 95.5 -27 149.5s9 103.667 27 149s43 84.5 75 117.5s70.5 58.833 115.5 77.5s94.5 28 148.5 28
c105.333 0 190.333 -32.667 255 -98l-48 -50c-10.667 12.667 -23.834 24.5 -39.501 35.5s-32.667 20.333 -51 28s-37.5 13.667 -57.5 18s-39.667 6.5 -59 6.5c-46 0 -87.5 -8 -124.5 -24s-68.5 -38 -94.5 -66s-46 -61 -60 -99s-21 -79 -21 -123s7 -85 21 -123s34 -71 60 -99
s57.5 -50 94.5 -66s78.5 -24 124.5 -24c38 0 73.667 3 107 9s63.666 17 90.999 33v238h-170v60h236v-336z" />
    <glyph glyph-name="H" unicode="H" horiz-adv-x="722" 
d="M97 708h66v-312h396v312h66v-708h-66v336h-396v-336h-66v708z" />
    <glyph glyph-name="I" unicode="I" horiz-adv-x="260" 
d="M97 708h66v-708h-66v708z" />
    <glyph glyph-name="J" unicode="J" horiz-adv-x="482" 
d="M385 208c0 -21.333 -1.49902 -44.998 -4.49902 -70.998s-11 -50.5 -24 -73.5s-32.333 -42.333 -58 -58s-61.5 -23.5 -107.5 -23.5c-52 0 -93.167 13.167 -123.5 39.5s-50.5 61.5 -60.5 105.5l66 12c16 -64.667 55.333 -97 118 -97c23.333 0 43.166 3.83301 59.499 11.5
s29.5 18.167 39.5 31.5s17.333 29.166 22 47.499s7 38.166 7 59.499v516h66v-500z" />
    <glyph glyph-name="K" unicode="K" horiz-adv-x="611" 
d="M97 708h66v-312h6l343 312h91l-358 -324l378 -384h-95l-359 366h-6v-366h-66v708z" />
    <glyph glyph-name="L" unicode="L" horiz-adv-x="500" 
d="M97 708h66v-648h330v-60h-396v708z" />
    <glyph glyph-name="M" unicode="M" horiz-adv-x="889" 
d="M90 708h99l258 -594l258 594h94v-708h-66v624h-2l-270 -624h-29l-274 624h-2v-624h-66v708z" />
    <glyph glyph-name="N" unicode="N" horiz-adv-x="778" 
d="M97 708h85l431 -620h2v620h66v-708h-85l-431 620h-2v-620h-66v708z" />
    <glyph glyph-name="O" unicode="O" horiz-adv-x="834" 
d="M51 354c0 54 9 103.667 27 149s43 84.5 75 117.5s70.5 58.833 115.5 77.5s94.5 28 148.5 28s103.5 -9.33301 148.5 -28s83.5 -44.5 115.5 -77.5s57 -72.167 75 -117.5s27 -95 27 -149s-9 -103.833 -27 -149.5s-43 -85 -75 -118s-70.5 -58.667 -115.5 -77
s-94.5 -27.5 -148.5 -27.5s-103.5 9.16699 -148.5 27.5s-83.5 44 -115.5 77s-57 72.333 -75 118s-27 95.5 -27 149.5zM117 354c0 -44 7 -85 21 -123s34 -71 60 -99s57.5 -50 94.5 -66s78.5 -24 124.5 -24s87.5 8 124.5 24s68.5 38 94.5 66s46 61 60 99s21 79 21 123
s-7 85 -21 123s-34 71 -60 99s-57.5 50 -94.5 66s-78.5 24 -124.5 24s-87.5 -8 -124.5 -24s-68.5 -38 -94.5 -66s-46 -61 -60 -99s-21 -79 -21 -123z" />
    <glyph glyph-name="P" unicode="P" horiz-adv-x="574" 
d="M97 708h204.003c24.667 0 50.5 -2.83301 77.5 -8.5s51.667 -15.5 74 -29.5s40.666 -33.167 54.999 -57.5s21.5 -54.833 21.5 -91.5c0 -32 -5.83301 -59.667 -17.5 -83s-27.334 -42.5 -47.001 -57.5s-42.334 -26.167 -68.001 -33.5s-52.5 -11 -80.5 -11h-153v-336h-66v708
zM163.003 396h150.001c18.667 0 37 2.16699 55 6.5s34 11.333 48 21s25.333 22.5 34 38.5s13 35.667 13 59c0 22.667 -4.5 42 -13.5 58s-20.667 29.167 -35 39.5s-30.833 17.833 -49.5 22.5s-37.334 7 -56.001 7h-146v-252z" />
    <glyph glyph-name="Q" unicode="Q" horiz-adv-x="834" 
d="M813 0l-390 -0.00195312c-49.333 0 -96.5 8.66699 -141.5 26s-84.5 41.833 -118.5 73.5s-61.167 69.834 -81.5 114.501s-30.5 94.334 -30.5 149.001c0 51.333 8.5 99.166 25.5 143.499s41 82.666 72 114.999s68.667 57.833 113 76.5s93.833 28 148.5 28
s104.167 -9.33301 148.5 -28s82 -44.167 113 -76.5s55 -70.666 72 -114.999s25.5 -92.166 25.5 -143.499c0 -31.333 -4 -62.5 -12 -93.5s-19.667 -60.167 -35 -87.5s-34 -51.5 -56 -72.5s-46.667 -36.833 -74 -47.5v-2h221v-60zM117 362.998
c0 -41.333 7.5 -80.499 22.5 -117.499s36 -69.167 63 -96.5s59 -49 96 -65s77.833 -24 122.5 -24c45.333 0 85.5 8.5 120.5 25.5s64.5 39.5 88.5 67.5s42.167 60.167 54.5 96.5s18.5 74.166 18.5 113.499c0 42.667 -6.66699 82.5 -20 119.5s-32.5 69.167 -57.5 96.5
s-55.667 48.666 -92 63.999s-77.5 23 -123.5 23s-87.167 -7.66699 -123.5 -23s-67 -36.666 -92 -63.999s-44.167 -59.5 -57.5 -96.5s-20 -76.833 -20 -119.5z" />
    <glyph glyph-name="R" unicode="R" horiz-adv-x="593" 
d="M163 396l140 -0.00390625c34.667 0 62.834 4.33301 84.501 13s38.5 19.334 50.5 32.001s20.167 26.334 24.5 41.001s6.5 28 6.5 40s-2.16699 25.333 -6.5 40s-12.5 28.334 -24.5 41.001s-28.833 23.334 -50.5 32.001s-49.834 13 -84.501 13h-140v-252zM97 707.996
l186.001 0.000976562c9.33301 0 22 -0.333008 38 -1s33.333 -2.66699 52 -6s37.667 -8.66602 57 -15.999s36.666 -18 51.999 -32s28 -31.667 38 -53s15 -47.333 15 -78c0 -34 -5.83301 -62 -17.5 -84s-26.334 -39.833 -44.001 -53.5s-37.167 -23.834 -58.5 -30.501
s-41.666 -11.334 -60.999 -14.001l206 -340h-75l-199 336h-123v-336h-66v708z" />
    <glyph glyph-name="S" unicode="S" horiz-adv-x="556" 
d="M116 131c17.333 -30 39.832 -52.3271 67.499 -66.9941s59.167 -22 94.5 -22c22 0 42.667 3.33301 62 10s36.166 16 50.499 28s25.666 26.5 33.999 43.5s12.5 36.167 12.5 57.5c0 24.667 -5.16699 45 -15.5 61s-24.166 29.167 -41.499 39.5s-36.833 19.166 -58.5 26.499
l-67 22c-23 7.33301 -45.333 15.666 -67 24.999s-41.167 21.5 -58.5 36.5s-31.166 33.833 -41.499 56.5s-15.5 50.667 -15.5 84c0 31.333 6.16699 59.166 18.5 83.499s29 44.666 50 60.999s45.167 28.666 72.5 36.999s56 12.5 86 12.5c38.667 0 74.5 -6.83301 107.5 -20.5
s61.5 -36.5 85.5 -68.5l-57 -41c-16.667 23.333 -36.167 40.833 -58.5 52.5s-48.833 17.5 -79.5 17.5c-21.333 0 -41.666 -2.83301 -60.999 -8.5s-36.166 -14 -50.499 -25s-25.833 -24.833 -34.5 -41.5s-13 -36.334 -13 -59.001c0 -35.333 9 -62.5 27 -81.5
s40.5 -34 67.5 -45s56.333 -20.667 88 -29s61 -19.5 88 -33.5s49.5 -33.5 67.5 -58.5s27 -59.5 27 -103.5c0 -32 -6 -60.333 -18 -85s-28.167 -45.5 -48.5 -62.5s-43.833 -29.833 -70.5 -38.5s-54.334 -13 -83.001 -13c-46.667 0 -89.667 8.16699 -129 24.5
s-73 43.833 -101 82.5z" />
    <glyph glyph-name="T" unicode="T" horiz-adv-x="574" 
d="M254 648h-242v60h550v-60h-242v-648h-66v648z" />
    <glyph glyph-name="U" unicode="U" horiz-adv-x="684" 
d="M600 271c0 -38 -4.33496 -74.333 -13.002 -109s-23.167 -65.334 -43.5 -92.001s-47 -48 -80 -64s-73.5 -24 -121.5 -24s-88.5 8 -121.5 24s-59.667 37.333 -80 64s-34.833 57.334 -43.5 92.001s-13 71 -13 109v437h66v-420c0 -25.333 2.33301 -52.333 7 -81
s13.834 -55.334 27.501 -80.001s33 -45 58 -61s58.167 -24 99.5 -24s74.5 8 99.5 24s44.333 36.333 58 61s22.834 51.334 27.501 80.001s7 55.667 7 81v420h66v-437z" />
    <glyph glyph-name="V" unicode="V" horiz-adv-x="593" 
d="M-3 708h71l228 -621l230 621h70l-269 -708h-66z" />
    <glyph glyph-name="W" unicode="W" horiz-adv-x="944" 
d="M5 708h68l176 -627h2l179 627h84l179 -627h2l176 627h68l-206 -708h-81l-179 630h-2l-179 -630h-81z" />
    <glyph glyph-name="X" unicode="X" horiz-adv-x="611" 
d="M267 372l-242 336h78l204 -288l201 288h79l-240 -336l263 -372h-82l-224 320l-224 -320h-79z" />
    <glyph glyph-name="Y" unicode="Y" horiz-adv-x="574" 
d="M254 305l-260 403h79l214 -336l219 336h74l-260 -403v-305h-66v305z" />
    <glyph glyph-name="Z" unicode="Z" horiz-adv-x="556" 
d="M23 52l414 596h-408v60h493v-54l-417 -594h428v-60h-510v52z" />
    <glyph glyph-name="bracketleft" unicode="[" horiz-adv-x="260" 
d="M224 684h-90v-792h90v-48h-150v888h150v-48z" />
    <glyph glyph-name="backslash" unicode="\" horiz-adv-x="370" 
d="M361 -18l-53 -18l-303 762l52 18z" />
    <glyph glyph-name="bracketright" unicode="]" horiz-adv-x="260" 
d="M36 -108h90v792h-90v48h150v-888h-150v48z" />
    <glyph glyph-name="asciicircum" unicode="^" horiz-adv-x="666" 
d="M310 708h46l228 -452h-56l-195 398l-194 -398h-57z" />
    <glyph glyph-name="underscore" unicode="_" horiz-adv-x="500" 
d="M0 -75h500v-50h-500v50z" />
    <glyph glyph-name="grave" unicode="`" 
d="M178 564h-50l-134 144h80z" />
    <glyph glyph-name="a" unicode="a" horiz-adv-x="519" 
d="M439 194c0 -22.667 0.165039 -43.002 0.498047 -61.002s0.833008 -34.667 1.5 -50s1.5 -29.666 2.5 -42.999s2.5 -26.666 4.5 -39.999h-56c-4 22.667 -6 47.667 -6 75h-2c-17.333 -30 -38.833 -52 -64.5 -66s-58.167 -21 -97.5 -21c-20 0 -39.667 2.5 -59 7.5
s-36.666 13 -51.999 24s-27.833 25.167 -37.5 42.5s-14.5 38.333 -14.5 63c0 35.333 9 63.333 27 84s40.167 36.167 66.5 46.5s54.333 17 84 20s55.834 4.5 78.501 4.5h70v28c0 40 -12.333 68.667 -37 86s-55.667 26 -93 26c-53.333 0 -100.333 -17.333 -141 -52l-35 41
c22 21.333 49.333 37.5 82 48.5s64 16.5 94 16.5c56 0 100.667 -13.167 134 -39.5s50 -68.833 50 -127.5v-113zM318.998 231.998c-25.333 0 -49.833 -1.66699 -73.5 -5s-45 -9 -64 -17s-34.167 -18.667 -45.5 -32s-17 -30 -17 -50c0 -14 3.16699 -26.5 9.5 -37.5
s14.5 -20 24.5 -27s21.167 -12.333 33.5 -16s24.833 -5.5 37.5 -5.5c32 0 58.333 4.66699 79 14s37.167 21.5 49.5 36.5s20.833 32 25.5 51s7 38.167 7 57.5v31h-66z" />
    <glyph glyph-name="b" unicode="b" horiz-adv-x="611" 
d="M67 756l60 -0.00195312v-375h2c9.33301 16 21 29.833 35 41.5s29.167 21.334 45.5 29.001s33.5 13.334 51.5 17.001s35.667 5.5 53 5.5c35.333 0 67.833 -6 97.5 -18s55.334 -28.833 77.001 -50.5s38.5 -47.334 50.5 -77.001s18 -62.167 18 -97.5s-6 -67.833 -18 -97.5
s-28.833 -55.334 -50.5 -77.001s-47.334 -38.5 -77.001 -50.5s-62.167 -18 -97.5 -18c-17.333 0 -35 1.83301 -53 5.5s-35.167 9.33398 -51.5 17.001s-31.5 17.334 -45.5 29.001s-25.667 25.5 -35 41.5h-2v-81h-60v756zM121 230.998c0 -26 5 -50.5 15 -73.5
s23.667 -43 41 -60s37.666 -30.5 60.999 -40.5s48.666 -15 75.999 -15c28 0 53.333 5 76 15s42 23.5 58 40.5s28.167 37 36.5 60s12.5 47.5 12.5 73.5s-4.16699 50.5 -12.5 73.5s-20.5 43 -36.5 60s-35.333 30.5 -58 40.5s-48 15 -76 15c-27.333 0 -52.666 -5 -75.999 -15
s-43.666 -23.5 -60.999 -40.5s-31 -37 -41 -60s-15 -47.5 -15 -73.5z" />
    <glyph glyph-name="c" unicode="c" horiz-adv-x="481" 
d="M467 68c-22.667 -27.333 -48.333 -47.502 -77 -60.502s-59.667 -19.5 -93 -19.5c-35.333 0 -68 6 -98 18s-55.667 28.833 -77 50.5s-38 47.334 -50 77.001s-18 62.167 -18 97.5s6 67.833 18 97.5s28.667 55.334 50 77.001s47 38.5 77 50.5s62.667 18 98 18
c34 0 65.5 -7 94.5 -21s54.833 -33.667 77.5 -59l-48 -36c-17.333 19.333 -36.333 34.5 -57 45.5s-43 16.5 -67 16.5c-28 0 -53.333 -5 -76 -15s-42 -23.5 -58 -40.5s-28.167 -37 -36.5 -60s-12.5 -47.5 -12.5 -73.5s4.16699 -50.5 12.5 -73.5s20.5 -43 36.5 -60
s35.333 -30.5 58 -40.5s48 -15 76 -15c25.333 0 48.5 5.83301 69.5 17.5s39.167 27.167 54.5 46.5z" />
    <glyph glyph-name="d" unicode="d" horiz-adv-x="611" 
d="M484 81l-2 0.00195312c-9.33301 -16 -21 -29.833 -35 -41.5s-29.167 -21.334 -45.5 -29.001s-33.5 -13.334 -51.5 -17.001s-35.667 -5.5 -53 -5.5c-35.333 0 -68 6 -98 18s-55.667 28.833 -77 50.5s-38 47.334 -50 77.001s-18 62.167 -18 97.5s6 67.833 18 97.5
s28.667 55.334 50 77.001s47 38.5 77 50.5s62.667 18 98 18c17.333 0 35 -1.83301 53 -5.5s35.167 -9.33398 51.5 -17.001s31.5 -17.334 45.5 -29.001s25.667 -25.5 35 -41.5h2v375h60v-756h-60v81zM490 231.002c0 26 -5 50.5 -15 73.5s-23.667 43 -41 60
s-37.666 30.5 -60.999 40.5s-48.666 15 -75.999 15c-28 0 -53.333 -5 -76 -15s-42 -23.5 -58 -40.5s-28.167 -37 -36.5 -60s-12.5 -47.5 -12.5 -73.5s4.16699 -50.5 12.5 -73.5s20.5 -43 36.5 -60s35.333 -30.5 58 -40.5s48 -15 76 -15c27.333 0 52.666 5 75.999 15
s43.666 23.5 60.999 40.5s31 37 41 60s15 47.5 15 73.5z" />
    <glyph glyph-name="e" unicode="e" horiz-adv-x="556" 
d="M488 87c-23.333 -35.333 -52.165 -60.667 -86.498 -76s-72.166 -23 -113.499 -23c-35.333 0 -67.333 6 -96 18s-53.334 28.833 -74.001 50.5s-36.5 47.334 -47.5 77.001s-16.5 62.5 -16.5 98.5c0 34.667 5.66699 66.667 17 96s27.333 54.833 48 76.5s45 38.667 73 51
s59 18.5 93 18.5c35.333 0 66.5 -6.16699 93.5 -18.5s49.667 -28.666 68 -48.999s32.166 -43.5 41.499 -69.5s14 -52.333 14 -79v-42h-388c0 -12.667 2.5 -28.834 7.5 -48.501s14.167 -38.834 27.5 -57.501s31.166 -34.667 53.499 -48s51.166 -20 86.499 -20
c30.667 0 60.334 7.33301 89.001 22s50.667 34.667 66 60zM442.001 269.999c0 20.667 -4.16602 39.998 -12.499 57.998s-19.666 33.833 -33.999 47.5s-31.333 24.5 -51 32.5s-40.5 12 -62.5 12c-32.667 0 -59.834 -6.66699 -81.501 -20s-38.834 -28.666 -51.501 -45.999
s-21.667 -34.166 -27 -50.499s-8 -27.5 -8 -33.5h328z" />
    <glyph glyph-name="f" unicode="f" horiz-adv-x="296" 
d="M114 408h-95.999v54h96v151c0 30 4.5 54.833 13.5 74.5s20.167 35.5 33.5 47.5s28.166 20.5 44.499 25.5s31.833 7.5 46.5 7.5c28 0 51 -4 69 -12l-12 -52c-13.333 6.66699 -31.333 10 -54 10c-54 0 -81 -41 -81 -123v-129h108v-54h-108v-408h-60v408z" />
    <glyph glyph-name="g" unicode="g" horiz-adv-x="611" 
d="M544 30c0 -57.333 -8.33691 -103.671 -25.0039 -139.004s-37.5 -62.666 -62.5 -81.999s-51.833 -32.333 -80.5 -39s-54.667 -10 -78 -10s-46.166 2.16699 -68.499 6.5s-43.5 10.666 -63.5 18.999s-38.167 18.5 -54.5 30.5s-30.5 25.667 -42.5 41l47 44
c21.333 -30 48 -52 80 -66s66 -21 102 -21c30.667 0 56.5 4 77.5 12s38.333 18.5 52 31.5s24.334 27.333 32.001 43s13.334 31.334 17.001 47.001s5.83398 30.5 6.50098 44.5s1 25.333 1 34v64h-2c-17.333 -28 -40.833 -50 -70.5 -66s-64.5 -24 -104.5 -24
c-34 0 -66 6.16699 -96 18.5s-56.167 29.333 -78.5 51s-40 46.834 -53 75.501s-19.5 59.334 -19.5 92.001s6.5 63.334 19.5 92.001s30.667 53.667 53 75s48.5 38.333 78.5 51s62 19 96 19c40 0 74.833 -8 104.5 -24s53.167 -38 70.5 -66h2v78h60v-432zM485.996 236.995
c0 25.333 -4.83301 49.166 -14.5 71.499s-22.667 41.666 -39 57.999s-35.666 29.333 -57.999 39s-46.166 14.5 -71.499 14.5s-49.166 -4.83301 -71.499 -14.5s-41.666 -22.667 -57.999 -39s-29.333 -35.666 -39 -57.999s-14.5 -46.166 -14.5 -71.499
s4.83301 -49.166 14.5 -71.499s22.667 -41.666 39 -57.999s35.666 -29.333 57.999 -39s46.166 -14.5 71.499 -14.5s49.166 4.83301 71.499 14.5s41.666 22.667 57.999 39s29.333 35.666 39 57.999s14.5 46.166 14.5 71.499z" />
    <glyph glyph-name="h" unicode="h" horiz-adv-x="556" 
d="M80 756l59.998 0.000976562v-375h2c12 25.333 32 47.166 60 65.499s60.667 27.5 98 27.5c36 0 65.333 -5.66699 88 -17s40.5 -26.166 53.5 -44.499s22 -39.5 27 -63.5s7.5 -48.667 7.5 -74v-275h-60v272c0 18.667 -1.66699 36.834 -5 54.501s-9.16602 33.5 -17.499 47.5
s-20 25.167 -35 33.5s-34.5 12.5 -58.5 12.5c-22 0 -42.833 -3.83301 -62.5 -11.5s-36.667 -19.334 -51 -35.001s-25.666 -35.334 -33.999 -59.001s-12.5 -51.5 -12.5 -83.5v-231h-60v756z" />
    <glyph glyph-name="i" unicode="i" 
d="M90 462h60v-462h-60v462zM75 645c0 12.667 4.33301 23.334 13 32.001s19.334 13 32.001 13s23.334 -4.33301 32.001 -13s13 -19.334 13 -32.001s-4.33301 -23.334 -13 -32.001s-19.334 -13 -32.001 -13s-23.334 4.33301 -32.001 13s-13 19.334 -13 32.001z" />
    <glyph glyph-name="j" unicode="j" 
d="M150 -81c0 -24 -1.83301 -45.667 -5.5 -65s-10.5 -36 -20.5 -50s-23.5 -24.833 -40.5 -32.5s-38.833 -11.5 -65.5 -11.5c-16 0 -32 3 -48 9l9 53c14 -5.33301 26.667 -8 38 -8c16 0 28.833 2.83301 38.5 8.5s17 13 22 22s8.33301 19.5 10 31.5s2.5 24.667 2.5 38v548h60
v-543zM75 645c0 12.667 4.33301 23.334 13 32.001s19.334 13 32.001 13s23.334 -4.33301 32.001 -13s13 -19.334 13 -32.001s-4.33301 -23.334 -13 -32.001s-19.334 -13 -32.001 -13s-23.334 4.33301 -32.001 13s-13 19.334 -13 32.001z" />
    <glyph glyph-name="k" unicode="k" horiz-adv-x="481" 
d="M80 756h60v-504l228 209h88l-238 -211l266 -250h-91l-253 244v-244h-60v756z" />
    <glyph glyph-name="l" unicode="l" 
d="M90 756h60v-756h-60v756z" />
    <glyph glyph-name="m" unicode="m" horiz-adv-x="852" 
d="M80 332c0 8.66699 -0.333008 19.1689 -1 31.502s-1.16699 24.833 -1.5 37.5s-0.833008 24.5 -1.5 35.5s-1 19.5 -1 25.5h60c0.666992 -17.333 1.16699 -34 1.5 -50s1.16602 -26.333 2.49902 -31h3c12 25.333 32 47.166 60 65.499s60.667 27.5 98 27.5
c30.667 0 58.667 -7.83301 84 -23.5s43.666 -41.167 54.999 -76.5c14.667 34.667 36.5 60 65.5 76s59.5 24 91.5 24c36 0 65.333 -5.66699 88 -17s40.5 -26.166 53.5 -44.499s22 -39.5 27 -63.5s7.5 -48.667 7.5 -74v-275h-60v272c0 18.667 -1.66699 36.834 -5 54.501
s-9.16602 33.5 -17.499 47.5s-20 25.167 -35 33.5s-34.5 12.5 -58.5 12.5c-28 0 -51 -5.16699 -69 -15.5s-32.167 -23.5 -42.5 -39.5s-17.666 -33.333 -21.999 -52s-6.5 -36.334 -6.5 -53.001v-260h-60v278c0 42.667 -7.83301 77 -23.5 103s-39.834 39 -72.501 39
c-22 0 -42.833 -3.83301 -62.5 -11.5s-36.667 -19.334 -51 -35.001s-25.666 -35.334 -33.999 -59.001s-12.5 -51.5 -12.5 -83.5v-231h-60v332z" />
    <glyph glyph-name="n" unicode="n" horiz-adv-x="556" 
d="M80 332c0 8.66699 -0.333984 19.168 -1.00098 31.501s-1.16699 24.833 -1.5 37.5s-0.833008 24.5 -1.5 35.5s-1 19.5 -1 25.5h60c0.666992 -17.333 1.16699 -34 1.5 -50s1.16602 -26.333 2.49902 -31h3c12 25.333 32 47.166 60 65.499s60.667 27.5 98 27.5
c36 0 65.333 -5.66699 88 -17s40.5 -26.166 53.5 -44.499s22 -39.5 27 -63.5s7.5 -48.667 7.5 -74v-275h-60v272c0 18.667 -1.66699 36.834 -5 54.501s-9.16602 33.5 -17.499 47.5s-20 25.167 -35 33.5s-34.5 12.5 -58.5 12.5c-22 0 -42.833 -3.83301 -62.5 -11.5
s-36.667 -19.334 -51 -35.001s-25.666 -35.334 -33.999 -59.001s-12.5 -51.5 -12.5 -83.5v-231h-60v332z" />
    <glyph glyph-name="o" unicode="o" horiz-adv-x="594" 
d="M54 231c0 35.333 6 67.833 18 97.5s28.667 55.334 50 77.001s47 38.5 77 50.5s62.667 18 98 18s67.833 -6 97.5 -18s55.334 -28.833 77.001 -50.5s38.5 -47.334 50.5 -77.001s18 -62.167 18 -97.5s-6 -67.833 -18 -97.5s-28.833 -55.334 -50.5 -77.001
s-47.334 -38.5 -77.001 -50.5s-62.167 -18 -97.5 -18s-68 6 -98 18s-55.667 28.833 -77 50.5s-38 47.334 -50 77.001s-18 62.167 -18 97.5zM114 231c0 -26 4.16699 -50.5 12.5 -73.5s20.5 -43 36.5 -60s35.333 -30.5 58 -40.5s48 -15 76 -15s53.333 5 76 15s42 23.5 58 40.5
s28.167 37 36.5 60s12.5 47.5 12.5 73.5s-4.16699 50.5 -12.5 73.5s-20.5 43 -36.5 60s-35.333 30.5 -58 40.5s-48 15 -76 15s-53.333 -5 -76 -15s-42 -23.5 -58 -40.5s-28.167 -37 -36.5 -60s-12.5 -47.5 -12.5 -73.5z" />
    <glyph glyph-name="p" unicode="p" horiz-adv-x="611" 
d="M67 462l60 -0.00195312v-81h2c9.33301 16 21 29.833 35 41.5s29.167 21.334 45.5 29.001s33.5 13.334 51.5 17.001s35.667 5.5 53 5.5c35.333 0 67.833 -6 97.5 -18s55.334 -28.833 77.001 -50.5s38.5 -47.334 50.5 -77.001s18 -62.167 18 -97.5s-6 -67.833 -18 -97.5
s-28.833 -55.334 -50.5 -77.001s-47.334 -38.5 -77.001 -50.5s-62.167 -18 -97.5 -18c-17.333 0 -35 1.83301 -53 5.5s-35.167 9.33398 -51.5 17.001s-31.5 17.334 -45.5 29.001s-25.667 25.5 -35 41.5h-2v-309h-60v690zM121 230.998c0 -26 5 -50.5 15 -73.5
s23.667 -43 41 -60s37.666 -30.5 60.999 -40.5s48.666 -15 75.999 -15c28 0 53.333 5 76 15s42 23.5 58 40.5s28.167 37 36.5 60s12.5 47.5 12.5 73.5s-4.16699 50.5 -12.5 73.5s-20.5 43 -36.5 60s-35.333 30.5 -58 40.5s-48 15 -76 15c-27.333 0 -52.666 -5 -75.999 -15
s-43.666 -23.5 -60.999 -40.5s-31 -37 -41 -60s-15 -47.5 -15 -73.5z" />
    <glyph glyph-name="q" unicode="q" horiz-adv-x="611" 
d="M484 81l-2 0.00195312c-9.33301 -16 -21 -29.833 -35 -41.5s-29.167 -21.334 -45.5 -29.001s-33.5 -13.334 -51.5 -17.001s-35.667 -5.5 -53 -5.5c-35.333 0 -68 6 -98 18s-55.667 28.833 -77 50.5s-38 47.334 -50 77.001s-18 62.167 -18 97.5s6 67.833 18 97.5
s28.667 55.334 50 77.001s47 38.5 77 50.5s62.667 18 98 18c17.333 0 35 -1.83301 53 -5.5s35.167 -9.33398 51.5 -17.001s31.5 -17.334 45.5 -29.001s25.667 -25.5 35 -41.5h2v81h60v-690h-60v309zM490 231.002c0 26 -5 50.5 -15 73.5s-23.667 43 -41 60
s-37.666 30.5 -60.999 40.5s-48.666 15 -75.999 15c-28 0 -53.333 -5 -76 -15s-42 -23.5 -58 -40.5s-28.167 -37 -36.5 -60s-12.5 -47.5 -12.5 -73.5s4.16699 -50.5 12.5 -73.5s20.5 -43 36.5 -60s35.333 -30.5 58 -40.5s48 -15 76 -15c27.333 0 52.666 5 75.999 15
s43.666 23.5 60.999 40.5s31 37 41 60s15 47.5 15 73.5z" />
    <glyph glyph-name="r" unicode="r" horiz-adv-x="333" 
d="M80 332c0 8.66699 -0.332031 19.1699 -0.999023 31.5029s-1.16699 24.833 -1.5 37.5s-0.833008 24.5 -1.5 35.5s-1 19.5 -1 25.5h60c0.666992 -17.333 1.16699 -34 1.5 -50s1.16602 -26.333 2.49902 -31c15.333 27.333 35 49.666 59 66.999s53.333 26 88 26
c6 0 11.833 -0.5 17.5 -1.5s11.5 -2.16699 17.5 -3.5l-7 -59c-8 2.66699 -15.667 4 -23 4c-26 0 -48.5 -4.16699 -67.5 -12.5s-34.667 -19.833 -47 -34.5s-21.5 -31.834 -27.5 -51.501s-9 -40.834 -9 -63.501v-252h-60v332z" />
    <glyph glyph-name="s" unicode="s" horiz-adv-x="426" 
d="M81 118c12.667 -24.667 31.332 -43.499 55.999 -56.499s50.667 -19.5 78 -19.5c12.667 0 25.334 2 38.001 6s24 9.66699 34 17s18.167 16.166 24.5 26.499s9.5 22.166 9.5 35.499c0 21.333 -6.83301 37.333 -20.5 48s-30.5 19 -50.5 25s-42 11.167 -66 15.5
s-46 11 -66 20s-36.833 21.5 -50.5 37.5s-20.5 38.667 -20.5 68c0 22.667 4.66699 42.334 14 59.001s21.5 30.5 36.5 41.5s31.833 19.167 50.5 24.5s37.667 8 57 8c38 0 70.833 -7 98.5 -21s49.167 -36 64.5 -66l-54 -32c-11.333 21.333 -25.5 37.5 -42.5 48.5
s-39.167 16.5 -66.5 16.5c-10.667 0 -21.834 -1.66699 -33.501 -5s-22.167 -8 -31.5 -14s-17.166 -13.667 -23.499 -23s-9.5 -20 -9.5 -32c0 -20.667 6.83301 -36 20.5 -46s30.5 -17.833 50.5 -23.5s42 -10.5 66 -14.5s46 -10.5 66 -19.5s36.833 -22 50.5 -39
s20.5 -41.167 20.5 -72.5c0 -24 -4.5 -44.833 -13.5 -62.5s-21.333 -32.5 -37 -44.5s-33.5 -21 -53.5 -27s-41 -9 -63 -9c-40 0 -76.5 7.66699 -109.5 23s-58.5 39 -76.5 71z" />
    <glyph glyph-name="t" unicode="t" horiz-adv-x="333" 
d="M306 408h-132.004v-301c0 -20.667 5.66699 -36.667 17 -48s27 -17 47 -17c11.333 0 22.833 1.5 34.5 4.5s22.834 6.83301 33.501 11.5l5 -54c-11.333 -4 -24.333 -7.66699 -39 -11s-27.667 -5 -39 -5c-21.333 0 -39.666 3.16699 -54.999 9.5s-27.666 14.833 -36.999 25.5
s-16.166 23.167 -20.499 37.5s-6.5 29.833 -6.5 46.5v301h-100v54h100v133h60v-133h132v-54z" />
    <glyph glyph-name="u" unicode="u" horiz-adv-x="556" 
d="M471 130c0 -8.66699 0.333984 -19.168 1.00098 -31.501s1.16699 -24.833 1.5 -37.5s0.833008 -24.5 1.5 -35.5s1 -19.5 1 -25.5h-60c-0.666992 17.333 -1.16699 34 -1.5 50s-1.16602 26.333 -2.49902 31h-3c-12 -25.333 -32 -47.166 -60 -65.499s-60.667 -27.5 -98 -27.5
c-36 0 -65.5 5.66699 -88.5 17s-41 26.166 -54 44.499s-21.833 39.5 -26.5 63.5s-7 48.667 -7 74v275h60v-272c0 -18.667 1.66699 -36.834 5 -54.501s9.16602 -33.5 17.499 -47.5s20 -25.167 35 -33.5s34.5 -12.5 58.5 -12.5c22 0 42.833 3.83301 62.5 11.5
s36.667 19.334 51 35.001s25.666 35.334 33.999 59.001s12.5 51.5 12.5 83.5v231h60v-332z" />
    <glyph glyph-name="v" unicode="v" horiz-adv-x="463" 
d="M15 462h68l154 -397l150 397h61l-182 -462h-62z" />
    <glyph glyph-name="w" unicode="w" horiz-adv-x="704" 
d="M15 462h66l112 -387h2l129 387h57l137 -387h2l109 387h60l-136 -462h-62l-138 378h-2l-129 -378h-62z" />
    <glyph glyph-name="x" unicode="x" horiz-adv-x="481" 
d="M198 250l-165 212h77l128 -175l127 175h75l-163 -212l198 -250h-78l-161 209l-158 -209h-72z" />
    <glyph glyph-name="y" unicode="y" horiz-adv-x="463" 
d="M210 -143c-11.333 -30 -26.999 -53.668 -46.999 -71.001s-46.667 -26 -80 -26c-10 0 -20 0.833008 -30 2.5s-19.667 3.83398 -29 6.50098l6 56c8.66699 -2.66699 17.5 -5.16699 26.5 -7.5s18.167 -3.5 27.5 -3.5c10.667 0 20.167 2.33301 28.5 7s15.5 10.667 21.5 18
s11.167 15.5 15.5 24.5s8.16602 18.167 11.499 27.5l42 107l-188 464h67l153 -389l149 389h64z" />
    <glyph glyph-name="z" unicode="z" horiz-adv-x="426" 
d="M27 36l277 372h-263v54h346v-36l-276 -372h288v-54h-372v36z" />
    <glyph glyph-name="braceleft" unicode="{" horiz-adv-x="333" 
d="M274 684l-23 0.00390625c-10 0 -18.5 -2.83301 -25.5 -8.5s-12.667 -13 -17 -22s-7.5 -19.333 -9.5 -31s-3 -23.834 -3 -36.501v-141c0 -26 -3 -48.5 -9 -67.5s-13 -34.833 -21 -47.5s-15.833 -22.334 -23.5 -29.001s-13.167 -10.667 -16.5 -12v-2
c3.33301 -2 8.83301 -6.33301 16.5 -13s15.5 -16.167 23.5 -28.5s15 -28 21 -47s9 -41.5 9 -67.5v-142c0 -12 1 -23.833 3 -35.5s5.16699 -22 9.5 -31s10 -16.333 17 -22s15.5 -8.5 25.5 -8.5h23v-48h-50c-28 0 -49.667 10.833 -65 32.5s-23 51.167 -23 88.5v146
c0 19.333 -1 38.166 -3 56.499s-5.66699 34.666 -11 48.999s-12.5 25.833 -21.5 34.5s-20.5 13 -34.5 13v48c14 0 25.5 4.33301 34.5 13s16.167 20.167 21.5 34.5s9 30.833 11 49.5s3 37.667 3 57v145c0 38 7.66699 67.667 23 89s37 32 65 32h50v-48z" />
    <glyph glyph-name="bar" unicode="|" horiz-adv-x="222" 
d="M135 750v-1000h-48v1000h48z" />
    <glyph glyph-name="braceright" unicode="}" horiz-adv-x="333" 
d="M59 -108l23 -0.00390625c10 0 18.5 2.83301 25.5 8.5s12.667 13 17 22s7.5 19.333 9.5 31s3 23.834 3 36.501v141c0 26 3 48.5 9 67.5s13 34.833 21 47.5s15.833 22.334 23.5 29.001s13.167 10.667 16.5 12v2c-3.33301 2 -8.83301 6.33301 -16.5 13
s-15.5 16.167 -23.5 28.5s-15 28 -21 47s-9 41.5 -9 67.5v142c0 12 -1 23.833 -3 35.5s-5.16699 22 -9.5 31s-10 16.333 -17 22s-15.5 8.5 -25.5 8.5h-23v48h50c28 0 49.667 -10.833 65 -32.5s23 -51.167 23 -88.5v-146c0 -19.333 1 -38.166 3 -56.499
s5.66699 -34.666 11 -48.999s12.5 -25.833 21.5 -34.5s20.5 -13 34.5 -13v-48c-14 0 -25.5 -4.33301 -34.5 -13s-16.167 -20.167 -21.5 -34.5s-9 -30.833 -11 -49.5s-3 -37.667 -3 -57v-145c0 -38 -7.66699 -67.667 -23 -89s-37 -32 -65 -32h-50v48z" />
    <glyph glyph-name="asciitilde" unicode="~" horiz-adv-x="666" 
d="M563 332c-5.33301 -11.333 -11.833 -22.502 -19.5 -33.502s-16.5 -20.667 -26.5 -29s-21.5 -15 -34.5 -20s-27.833 -7.5 -44.5 -7.5c-18.667 0 -37.834 4 -57.501 12l-57.5 24c-19.333 8.66699 -37.333 16.167 -54 22.5s-31.334 9.5 -44.001 9.5
c-20 0 -36.833 -7 -50.5 -21s-26.167 -29.667 -37.5 -47l-34 32c5.33301 10.667 11.833 21.334 19.5 32.001s16.5 20.334 26.5 29.001s21.5 15.667 34.5 21s27.833 8 44.5 8c18.667 0 37.834 -4 57.501 -12l57.5 -24c19.333 -8.66699 37.333 -16.167 54 -22.5
s31.334 -9.5 44.001 -9.5c20 0 36.833 7 50.5 21s26.167 29.667 37.5 47z" />
    <glyph glyph-name="uni00A0" unicode="&#xa0;" horiz-adv-x="260" 
 />
    <glyph glyph-name="exclamdown" unicode="&#xa1;" horiz-adv-x="370" 
d="M155 300h60v-522h-60v522zM233 444c0 -13.333 -4.66699 -24.666 -14 -33.999s-20.666 -14 -33.999 -14s-24.666 4.66699 -33.999 14s-14 20.666 -14 33.999s4.66699 24.666 14 33.999s20.666 14 33.999 14s24.666 -4.66699 33.999 -14s14 -20.666 14 -33.999z" />
    <glyph glyph-name="cent" unicode="&#xa2;" horiz-adv-x="520" 
d="M256 417c-23.333 -3.33301 -43.8359 -10.6641 -61.5029 -21.9971s-32.667 -25.333 -45 -42s-21.666 -35.334 -27.999 -56.001s-9.5 -42 -9.5 -64s3.33301 -43.167 10 -63.5s16.334 -38.833 29.001 -55.5s27.834 -30.834 45.501 -42.501s37.5 -19.834 59.5 -24.501v370z
M303.997 42.002c23.333 1.33301 44.832 7.83594 64.499 19.5029s36.834 26.5 51.501 44.5l46 -38c-42 -51.333 -96 -78 -162 -80v-69h-48v72c-30.667 4 -58.5 13 -83.5 27s-46.5 31.833 -64.5 53.5s-31.833 46.167 -41.5 73.5s-14.5 56.666 -14.5 87.999s5 60.5 15 87.5
s24 51 42 72s39.5 38.333 64.5 52s52.5 22.5 82.5 26.5v72h48v-71c32.667 -0.666992 62.834 -7.83398 90.501 -21.501s52.167 -32.5 73.5 -56.5l-48 -36c-15.333 17.333 -32.333 31.166 -51 41.499s-40.334 16.5 -65.001 18.5v-376z" />
    <glyph glyph-name="sterling" unicode="&#xa3;" horiz-adv-x="520" 
d="M58 54h104.996v288h-95v54h95v117c0 22.667 3.66699 46.167 11 70.5s19.333 46.666 36 66.999s38.334 37 65.001 50s59.334 19.5 98.001 19.5c52.667 0 100.334 -18.667 143.001 -56l-40 -48c-14 14 -29.833 25.833 -47.5 35.5s-37.167 14.5 -58.5 14.5
c-25.333 0 -46.833 -4.83301 -64.5 -14.5s-32.167 -21.667 -43.5 -36s-19.666 -30.166 -24.999 -47.499s-8 -33.333 -8 -48v-124h165v-54h-165v-288h245v-54h-416v54z" />
    <glyph glyph-name="currency" unicode="&#xa4;" horiz-adv-x="520" 
d="M71 197c-40 43.333 -60 95.666 -60 156.999s20 113.666 60 156.999l-57 55l34 37l57 -56c22 17.333 46.333 30.5 73 39.5s54 13.5 82 13.5s55.333 -4.5 82 -13.5s51 -22.167 73 -39.5l57 56l34 -37l-57 -55c40 -43.333 60 -95.666 60 -156.999s-20 -113.666 -60 -156.999
l57 -55l-34 -37l-57 56c-22 -17.333 -46.333 -30.5 -73 -39.5s-54 -13.5 -82 -13.5s-55.333 4.5 -82 13.5s-51 22.167 -73 39.5l-57 -56l-34 37zM71 354c0 -26.667 5 -51.667 15 -75s23.667 -43.666 41 -60.999s37.333 -31 60 -41s47 -15 73 -15s50.333 5 73 15
s42.667 23.667 60 41s31 37.666 41 60.999s15 48.333 15 75s-5 51.667 -15 75s-23.667 43.666 -41 60.999s-37.333 31 -60 41s-47 15 -73 15s-50.333 -5 -73 -15s-42.667 -23.667 -60 -41s-31 -37.666 -41 -60.999s-15 -48.333 -15 -75z" />
    <glyph glyph-name="yen" unicode="&#xa5;" horiz-adv-x="520" 
d="M227 180h-170v48h170v77l-9 16h-161v48h134l-191 339h68l192 -344l195 344h65l-191 -339h134v-48h-161l-9 -16v-77h170v-48h-170v-180h-66v180z" />
    <glyph glyph-name="brokenbar" unicode="&#xa6;" horiz-adv-x="222" 
d="M135 675v-350h-48v350h48zM135 175v-350h-48v350h48z" />
    <glyph glyph-name="section" unicode="&#xa7;" horiz-adv-x="520" 
d="M314 175c8.66699 4.66699 17.5 10.3311 26.5 16.998s17.167 14 24.5 22s13.333 16.833 18 26.5s7 19.834 7 30.501c0 12 -2.33301 23 -7 33s-10.667 19.167 -18 27.5s-15.333 15.666 -24 21.999s-17 11.5 -25 15.5l-75 41c-10.667 -3.33301 -21.667 -7.66602 -33 -12.999
s-21.833 -11.833 -31.5 -19.5s-17.5 -16.667 -23.5 -27s-9 -22.166 -9 -35.499c0 -25.333 6.66699 -44 20 -56s29.333 -22.667 48 -32zM125 5.99707c11.333 -30 28.001 -52.499 50.001 -67.499s48.667 -22.5 80 -22.5c14.667 0 29.334 2 44.001 6s27.667 10.167 39 18.5
s20.5 18.5 27.5 30.5s10.5 26 10.5 42c0 22.667 -7.33301 41.5 -22 56.5s-33 28.333 -55 40s-46 23 -72 34s-50 24 -72 39s-40.333 32.667 -55 53s-22 46.166 -22 77.499c0 16.667 2.83301 31.667 8.5 45s13.5 25.333 23.5 36s21.333 19.834 34 27.501s26 14.5 40 20.5
c-24 14.667 -43.667 32 -59 52s-23 45 -23 75c0 26 5.33301 48.667 16 68s24.834 35.666 42.501 48.999s37.5 23.333 59.5 30s44.667 10 68 10c16.667 0 33.167 -1.83301 49.5 -5.5s31.666 -9.16699 45.999 -16.5s27 -17 38 -29s19.833 -26.333 26.5 -43l-58 -34
c-9.33301 22.667 -23.166 39.667 -41.499 51s-39.5 17 -63.5 17c-15.333 0 -30 -2 -44 -6s-26.333 -10 -37 -18s-19.334 -18.167 -26.001 -30.5s-10 -26.5 -10 -42.5c0 -21.333 7.16699 -39.166 21.5 -53.499s32.166 -27.333 53.499 -39s44.333 -23 69 -34
s47.667 -23.833 69 -38.5s39.166 -32 53.499 -52s21.5 -44.667 21.5 -74c0 -30.667 -8.5 -56.834 -25.5 -78.501s-38.167 -39.5 -63.5 -53.5c22 -13.333 40 -30.5 54 -51.5s21 -44.833 21 -71.5s-5.16699 -50.334 -15.5 -71.001s-24.166 -38.167 -41.499 -52.5
s-37.166 -25.166 -59.499 -32.499s-45.5 -11 -69.5 -11c-20.667 0 -40.834 2.33301 -60.501 7s-37.834 12 -54.501 22s-31.667 22.5 -45 37.5s-24 32.833 -32 53.5z" />
    <glyph glyph-name="dieresis" unicode="&#xa8;" 
d="M-23 652c0 13.333 4.66699 24.666 14 33.999s20.666 14 33.999 14s24.666 -4.66699 33.999 -14s14 -20.666 14 -33.999s-4.66699 -24.666 -14 -33.999s-20.666 -14 -33.999 -14s-24.666 4.66699 -33.999 14s-14 20.666 -14 33.999zM167 652
c0 13.333 4.66699 24.666 14 33.999s20.666 14 33.999 14s24.666 -4.66699 33.999 -14s14 -20.666 14 -33.999s-4.66699 -24.666 -14 -33.999s-20.666 -14 -33.999 -14s-24.666 4.66699 -33.999 14s-14 20.666 -14 33.999z" />
    <glyph glyph-name="copyright" unicode="&#xa9;" horiz-adv-x="800" 
d="M540 431c-6 27.333 -20 51.335 -42 72.002s-51.333 31.334 -88 32.001c-25.333 0 -48 -4.83301 -68 -14.5s-36.833 -22.834 -50.5 -39.501s-24.167 -35.834 -31.5 -57.501s-11 -44.834 -11 -69.501s3.66699 -48 11 -70s17.833 -41.167 31.5 -57.5s30.5 -29.333 50.5 -39
s42.667 -14.5 68 -14.5c18 0 34.5 2.83301 49.5 8.5s28 13.334 39 23.001s20 20.667 27 33s11.833 25.5 14.5 39.5h54c-3.33301 -24.667 -10.333 -46.334 -21 -65.001s-24.334 -34.5 -41.001 -47.5s-35.5 -22.833 -56.5 -29.5s-43.167 -10 -66.5 -10
c-34 0 -64.333 5.66699 -91 17s-49 27.333 -67 48s-31.833 44.834 -41.5 72.501s-14.5 58.167 -14.5 91.5c0 32.667 4.83301 63 14.5 91s23.5 52.333 41.5 73s40.333 36.667 67 48s57 17 91 17c23.333 0 45.5 -3.33301 66.5 -10s39.833 -16.5 56.5 -29.5
s30.334 -28.833 41.001 -47.5s17.667 -40.334 21 -65.001h-54zM28 354.002c0 51.333 9.83301 99.5 29.5 144.5s46.334 84.333 80.001 118s73 60.334 118 80.001s93.167 29.5 144.5 29.5s99.5 -9.83301 144.5 -29.5s84.333 -46.334 118 -80.001s60.334 -73 80.001 -118
s29.5 -93.167 29.5 -144.5s-9.83301 -99.5 -29.5 -144.5s-46.334 -84.333 -80.001 -118s-73 -60.334 -118 -80.001s-93.167 -29.5 -144.5 -29.5s-99.5 9.83301 -144.5 29.5s-84.333 46.334 -118 80.001s-60.334 73 -80.001 118s-29.5 93.167 -29.5 144.5zM82 354.002
c0 -44 8.33301 -85.333 25 -124s39.334 -72.334 68.001 -101.001s62.334 -51.334 101.001 -68.001s80 -25 124 -25s85.333 8.33301 124 25s72.334 39.334 101.001 68.001s51.334 62.334 68.001 101.001s25 80 25 124s-8.33301 85.333 -25 124
s-39.334 72.334 -68.001 101.001s-62.334 51.334 -101.001 68.001s-80 25 -124 25s-85.333 -8.33301 -124 -25s-72.334 -39.334 -101.001 -68.001s-51.334 -62.334 -68.001 -101.001s-25 -80 -25 -124z" />
    <glyph glyph-name="ordfeminine" unicode="&#xaa;" horiz-adv-x="337" 
d="M250 602l-0.00292969 9.00195c-0.666992 10.667 -2.33398 20.167 -5.00098 28.5s-7.16699 15.333 -13.5 21s-14.666 10 -24.999 13s-23.5 4.5 -39.5 4.5c-20 0 -37.167 -3 -51.5 -9s-28.5 -14.667 -42.5 -26l-26 38c32 26 75.667 39 131 39c40 0 70 -8 90 -24
s30 -44.333 30 -85v-80c0 -17.333 0.166992 -34.5 0.5 -51.5s1.83301 -33.5 4.5 -49.5h-49c-2 7.33301 -3 14.666 -3 21.999s-0.333008 15.333 -1 24h-2c-11.333 -18.667 -25.666 -32 -42.999 -40s-37.666 -12 -60.999 -12c-14 0 -27.667 1.5 -41 4.5
s-25.166 7.66699 -35.499 14s-18.5 14.666 -24.5 24.999s-9 22.833 -9 37.5c0 19.333 4.5 35.333 13.5 48s20.833 22.667 35.5 30s31 12.333 49 15s36 4 54 4h64zM211.997 560.002c-14 0 -28.666 -0.667969 -43.999 -2.00098s-29.333 -4 -42 -8s-23.167 -9.5 -31.5 -16.5
s-12.5 -15.833 -12.5 -26.5c0 -12 7.5 -21.833 22.5 -29.5s31.5 -11.5 49.5 -11.5c17.333 0 32.166 2.83301 44.499 8.5s22.333 12.834 30 21.501s13.167 18.167 16.5 28.5s5 19.833 5 28.5v7h-38z" />
    <glyph glyph-name="guillemotleft" unicode="&#xab;" horiz-adv-x="481" 
d="M63 237l137 203l42 -29l-116 -174l118 -176l-44 -27zM229 237l137 203l42 -29l-116 -174l118 -176l-44 -27z" />
    <glyph glyph-name="logicalnot" unicode="&#xac;" horiz-adv-x="666" 
d="M540 351h-462v48h510v-265h-48v217z" />
    <glyph glyph-name="uni00AD" unicode="&#xad;" horiz-adv-x="333" 
d="M43 264h247v-54h-247v54z" />
    <glyph glyph-name="registered" unicode="&#xae;" horiz-adv-x="800" 
d="M319 141l-54.001 0.00195312v429h165c48.667 0 83.334 -10.167 104.001 -30.5s31 -49.833 31 -88.5c0 -20 -2.83301 -37 -8.5 -51s-13.5 -25.833 -23.5 -35.5s-21.5 -17.334 -34.5 -23.001s-26.833 -9.83398 -41.5 -12.501l128 -188h-61l-128 188h-77v-188z
M318.999 377.002l68.998 0.000976562c14.667 0 29.334 0.5 44.001 1.5s27.834 4 39.501 9s21.167 12.333 28.5 22s11 23.5 11 41.5c0 14 -2.83301 25.5 -8.5 34.5s-13 16.167 -22 21.5s-19.333 9.16602 -31 11.499s-23.167 3.5 -34.5 3.5h-96v-145zM27.9971 354.003
c0 51.333 9.83301 99.5 29.5 144.5s46.334 84.333 80.001 118s73 60.334 118 80.001s93.167 29.5 144.5 29.5s99.5 -9.83301 144.5 -29.5s84.333 -46.334 118 -80.001s60.334 -73 80.001 -118s29.5 -93.167 29.5 -144.5s-9.83301 -99.5 -29.5 -144.5
s-46.334 -84.333 -80.001 -118s-73 -60.334 -118 -80.001s-93.167 -29.5 -144.5 -29.5s-99.5 9.83301 -144.5 29.5s-84.333 46.334 -118 80.001s-60.334 73 -80.001 118s-29.5 93.167 -29.5 144.5zM81.9971 354.003c0 -44 8.33301 -85.333 25 -124
s39.334 -72.334 68.001 -101.001s62.334 -51.334 101.001 -68.001s80 -25 124 -25s85.333 8.33301 124 25s72.334 39.334 101.001 68.001s51.334 62.334 68.001 101.001s25 80 25 124s-8.33301 85.333 -25 124s-39.334 72.334 -68.001 101.001
s-62.334 51.334 -101.001 68.001s-80 25 -124 25s-85.333 -8.33301 -124 -25s-72.334 -39.334 -101.001 -68.001s-51.334 -62.334 -68.001 -101.001s-25 -80 -25 -124z" />
    <glyph glyph-name="macron" unicode="&#xaf;" 
d="M252 606h-264v48h264v-48z" />
    <glyph glyph-name="degree" unicode="&#xb0;" horiz-adv-x="400" 
d="M200 432c-20 0 -38.833 3.83301 -56.5 11.5s-33 18 -46 31s-23.167 28.333 -30.5 46s-11 36.5 -11 56.5s3.66699 38.667 11 56s17.5 32.5 30.5 45.5s28.333 23.167 46 30.5s36.5 11 56.5 11s38.667 -3.66699 56 -11s32.5 -17.5 45.5 -30.5s23.333 -28.167 31 -45.5
s11.5 -36 11.5 -56s-3.83301 -38.833 -11.5 -56.5s-18 -33 -31 -46s-28.167 -23.333 -45.5 -31s-36 -11.5 -56 -11.5zM200 480c26.667 0 49.334 9.33301 68.001 28s28 41.334 28 68.001s-9.33301 49.334 -28 68.001s-41.334 28 -68.001 28s-49.334 -9.33301 -68.001 -28
s-28 -41.334 -28 -68.001s9.33301 -49.334 28 -68.001s41.334 -28 68.001 -28z" />
    <glyph glyph-name="plusminus" unicode="&#xb1;" horiz-adv-x="666" 
d="M78 375h228v183h48v-183h234v-48h-234v-183h-48v183h-228v48zM82 96h502v-48h-502v48z" />
    <glyph glyph-name="twosuperior" unicode="&#xb2;" horiz-adv-x="338" 
d="M23 332l171.998 167.999c18 17.333 33.333 34 46 50s19 35.667 19 59c0 18.667 -7.33301 33.834 -22 45.501s-35.334 17.5 -62.001 17.5c-25.333 0 -44.666 -6 -57.999 -18s-22.666 -25.667 -27.999 -41l-51 4c4.66699 19.333 12.167 35.5 22.5 48.5s22 23.5 35 31.5
s26.667 13.833 41 17.5s27.833 5.5 40.5 5.5c38.667 0 71 -9.5 97 -28.5s39 -45.833 39 -80.5c0 -16 -2.66699 -31 -8 -45s-12.166 -27 -20.499 -39s-18 -23.667 -29 -35l-34.5 -34l-127 -121h220v-48h-292v43z" />
    <glyph glyph-name="threesuperior" unicode="&#xb3;" horiz-adv-x="338" 
d="M127 536l23.0039 -0.00292969c10 0 20.667 1.33301 32 4s21.666 6.83398 30.999 12.501s17 13.334 23 23.001s9 21.5 9 35.5c0 17.333 -7 31.833 -21 43.5s-32.667 17.5 -56 17.5c-19.333 0 -36.5 -4.5 -51.5 -13.5s-27.167 -21.167 -36.5 -36.5l-39 25
c13.333 21.333 30.666 38.833 51.999 52.5s46.333 20.5 75 20.5c18 0 35 -2.5 51 -7.5s30 -12.167 42 -21.5s21.333 -20.666 28 -33.999s10 -28.333 10 -45c0 -23.333 -7.83301 -43.833 -23.5 -61.5s-35.167 -30.167 -58.5 -37.5v-2c29.333 -4 52.333 -16 69 -36
s25 -43.667 25 -71c0 -18.667 -3.66699 -35.5 -11 -50.5s-17.5 -27.667 -30.5 -38s-28.333 -18.333 -46 -24s-36.834 -8.5 -57.501 -8.5c-32.667 0 -61 6.83301 -85 20.5s-42 36.5 -54 68.5l47 18c7.33301 -18 18 -32.333 32 -43s34 -16 60 -16c11.333 0 22.5 2 33.5 6
s20.667 9.5 29 16.5s15.166 15.167 20.499 24.5s8 19 8 29c0 16 -3.16699 29.167 -9.5 39.5s-14.666 18.5 -24.999 24.5s-22.333 10.333 -36 13s-27.834 4 -42.501 4h-17v48z" />
    <glyph glyph-name="acute" unicode="&#xb4;" 
d="M166 708h80l-134 -144h-50z" />
    <glyph glyph-name="mu" unicode="&#xb5;" horiz-adv-x="556" 
d="M471 130c0 -8.66699 0.333984 -19.1689 1.00098 -31.502s1.16699 -24.833 1.5 -37.5s0.833008 -24.5 1.5 -35.5s1 -19.5 1 -25.5h-60c-0.666992 17.333 -1.16699 34 -1.5 50s-1.16602 26.333 -2.49902 31h-3c-12 -25.333 -32 -47.166 -60 -65.499
s-60.667 -27.5 -98 -27.5c-27.333 0 -50.333 3.33301 -69 10s-34.667 16 -48 28v-254h-59v690h60v-272c0 -18.667 1.66699 -36.834 5 -54.501s9.16602 -33.5 17.499 -47.5s20 -25.167 35 -33.5s34.5 -12.5 58.5 -12.5c22 0 42.833 3.83301 62.5 11.5
s36.667 19.334 51 35.001s25.666 35.334 33.999 59.001s12.5 51.5 12.5 83.5v231h60v-332z" />
    <glyph glyph-name="paragraph" unicode="&#xb6;" horiz-adv-x="600" 
d="M267 323c-29.333 0 -56.668 5 -82.001 15s-47.166 23.667 -65.499 41s-32.833 37.333 -43.5 60s-16 47 -16 73c0 63.333 19.5 111.833 58.5 145.5s93.833 50.5 164.5 50.5h227v-834h-60v786h-123v-786h-60v449z" />
    <glyph glyph-name="periodcentered" unicode="&#xb7;" horiz-adv-x="260" 
d="M82 318c0 13.333 4.66699 24.666 14 33.999s20.666 14 33.999 14s24.666 -4.66699 33.999 -14s14 -20.666 14 -33.999s-4.66699 -24.666 -14 -33.999s-20.666 -14 -33.999 -14s-24.666 4.66699 -33.999 14s-14 20.666 -14 33.999z" />
    <glyph glyph-name="cedilla" unicode="&#xb8;" 
d="M124 -64l2.00098 -1.99707c8.66699 4.66699 19 7 31 7c21.333 0 40.5 -6 57.5 -18s25.5 -30 25.5 -54c0 -15.333 -3.33301 -28.333 -10 -39s-15.5 -19.334 -26.5 -26.001s-23.167 -11.667 -36.5 -15s-26.333 -5 -39 -5c-33.333 0 -65 7 -95 21l14 32
c22 -11.333 47.333 -17 76 -17c6.66699 0 13.667 0.833008 21 2.5s14.166 4.16699 20.499 7.5s11.5 7.66602 15.5 12.999s6 12 6 20c0 15.333 -6 26.166 -18 32.499s-24.667 9.5 -38 9.5c-15.333 0 -30 -2.66699 -44 -8l-16 15l63 88h38z" />
    <glyph glyph-name="onesuperior" unicode="&#xb9;" horiz-adv-x="338" 
d="M177 660l-85 -66l-25 34l110 86h54v-425h-54v371z" />
    <glyph glyph-name="ordmasculine" unicode="&#xba;" horiz-adv-x="386" 
d="M34 572c0 22 3.66699 42 11 60s18 33.5 32 46.5s30.667 23.167 50 30.5s41 11 65 11c22.667 0 43.834 -3.5 63.501 -10.5s36.667 -17 51 -30s25.5 -28.5 33.5 -46.5s12 -38.333 12 -61c0 -22 -4 -42 -12 -60s-19.167 -33.5 -33.5 -46.5s-31.333 -23.167 -51 -30.5
s-40.834 -11 -63.501 -11c-24 0 -45.667 3.66699 -65 11s-36 17.5 -50 30.5s-24.667 28.5 -32 46.5s-11 38 -11 60zM82 572c0 -14 2.66602 -27.3359 7.99902 -40.0029s12.833 -24 22.5 -34s21.334 -17.833 35.001 -23.5s28.5 -8.5 44.5 -8.5s30.833 2.83301 44.5 8.5
s25.5 13.334 35.5 23.001s17.833 20.834 23.5 33.501s8.5 26.334 8.5 41.001c0 30 -10.167 55.167 -30.5 75.5s-47.5 30.5 -81.5 30.5c-16 0 -30.667 -2.83301 -44 -8.5s-25 -13.5 -35 -23.5s-17.667 -21.333 -23 -34s-8 -26 -8 -40z" />
    <glyph glyph-name="guillemotright" unicode="&#xbb;" horiz-adv-x="481" 
d="M252 237l-137 -203l-42 29l116 174l-118 176l44 27zM418 237l-137 -203l-42 29l116 174l-118 176l44 27z" />
    <glyph glyph-name="onequarter" unicode="&#xbc;" horiz-adv-x="778" 
d="M146 660l-85 -66l-25 34l110 86h54v-425h-54v371zM571 742l46 -28l-457 -748l-45 28zM624 102h-190v45l185 277h59v-274h64v-48h-64v-102h-54v102zM624 352h-2l-134 -202h136v202z" />
    <glyph glyph-name="onehalf" unicode="&#xbd;" horiz-adv-x="778" 
d="M138 660l-85 -66l-25 34l110 86h54v-425h-54v371zM562 742l46 -28l-457 -748l-45 28zM458 43l171.998 167.999c18 17.333 33.333 34 46 50s19 35.667 19 59c0 18.667 -7.33301 33.834 -22 45.501s-35.334 17.5 -62.001 17.5c-25.333 0 -44.666 -6 -57.999 -18
s-22.666 -25.667 -27.999 -41l-51 4c4.66699 19.333 12.167 35.5 22.5 48.5s22 23.5 35 31.5s26.667 13.833 41 17.5s27.833 5.5 40.5 5.5c38.667 0 71 -9.5 97 -28.5s39 -45.833 39 -80.5c0 -16 -2.66699 -31 -8 -45s-12.166 -27 -20.499 -39s-18 -23.667 -29 -35
l-34.5 -34l-127 -121h220v-48h-292v43z" />
    <glyph glyph-name="threequarters" unicode="&#xbe;" horiz-adv-x="778" 
d="M121 536l23.0039 -0.00292969c10 0.666992 20.667 2.33398 32 5.00098s21.666 6.83398 30.999 12.501s17 13.167 23 22.5s9 21 9 35c0 17.333 -7 31.833 -21 43.5s-32.667 17.5 -56 17.5c-19.333 0 -36.5 -4.5 -51.5 -13.5s-27.167 -21.167 -36.5 -36.5l-39 25
c13.333 21.333 30.666 38.833 51.999 52.5s46.333 20.5 75 20.5c18 0 35 -2.5 51 -7.5s30 -12.167 42 -21.5s21.333 -20.666 28 -33.999s10 -28.333 10 -45c0 -23.333 -7.83301 -43.833 -23.5 -61.5s-35.167 -30.167 -58.5 -37.5v-2c29.333 -4 52.333 -16 69 -36
s25 -43.667 25 -71c0 -18.667 -3.66699 -35.5 -11 -50.5s-17.5 -27.667 -30.5 -38s-28.333 -18.333 -46 -24s-36.834 -8.5 -57.501 -8.5c-32.667 0 -61 6.83301 -85 20.5s-42.333 36.5 -55 68.5l48 18c7.33301 -18 18 -32.333 32 -43s34 -16 60 -16c11.333 0 22.5 2 33.5 6
s20.667 9.5 29 16.5s15.166 15.167 20.499 24.5s8 19 8 29c0 16 -3.16699 29.167 -9.5 39.5s-14.666 18.5 -24.999 24.5s-22.333 10.333 -36 13s-27.834 4 -42.501 4h-17v48zM622.004 741.997l46 -28l-457 -748l-45 28zM640.004 101.997h-190v45l185 277h59v-274h64v-48h-64
v-102h-54v102zM638.004 351.997h-2l-134 -202h136v202z" />
    <glyph glyph-name="questiondown" unicode="&#xbf;" horiz-adv-x="463" 
d="M259 216c0 -22 -3.83203 -41.333 -11.499 -58s-17.334 -31.667 -29.001 -45s-24.167 -26 -37.5 -38s-25.833 -24.833 -37.5 -38.5s-21.334 -28.5 -29.001 -44.5s-11.5 -35 -11.5 -57c0 -36 10.333 -65.167 31 -87.5s49.334 -33.5 86.001 -33.5
c35.333 0 64.166 10.667 86.499 32s37.166 49.333 44.499 84l65 -8c-9.33301 -51.333 -31.666 -91.166 -66.999 -119.499s-78 -42.5 -128 -42.5c-26 0 -50.333 3.83301 -73 11.5s-42.167 18.834 -58.5 33.501s-29.166 32.667 -38.499 54s-14 45.666 -14 72.999
c0 28 4 51.667 12 71s18 36.333 30 51s25 28.167 39 40.5s27 25 39 38s22 27.667 30 44s12 36.166 12 59.499v64h60v-84zM276.001 444c0 -13.333 -4.66699 -24.666 -14 -33.999s-20.666 -14 -33.999 -14s-24.666 4.66699 -33.999 14s-14 20.666 -14 33.999
s4.66699 24.666 14 33.999s20.666 14 33.999 14s24.666 -4.66699 33.999 -14s14 -20.666 14 -33.999z" />
    <glyph glyph-name="Agrave" unicode="&#xc0;" horiz-adv-x="685" 
d="M314 708h68l298 -708h-74l-77 188h-375l-80 -188h-69zM345 636l-165 -388h325zM401 752h-50l-134 144h80z" />
    <glyph glyph-name="Aacute" unicode="&#xc1;" horiz-adv-x="685" 
d="M314 708h68l298 -708h-74l-77 188h-375l-80 -188h-69zM345 636l-165 -388h325zM389 896h80l-134 -144h-50z" />
    <glyph glyph-name="Acircumflex" unicode="&#xc2;" horiz-adv-x="685" 
d="M314 708h68l298 -708h-74l-77 188h-375l-80 -188h-69zM345 636l-165 -388h325zM308 896h70l108 -144h-65l-81 108l-81 -108h-59z" />
    <glyph glyph-name="Atilde" unicode="&#xc3;" horiz-adv-x="685" 
d="M314 708h68l298 -708h-74l-77 188h-375l-80 -188h-69zM345 636l-165 -388h325zM187 769c1.33301 11.333 4.33203 23.168 8.99902 35.501s10.667 23.166 18 32.499c7.33301 10 16.333 18.167 27 24.5s22.667 9.5 36 9.5s26.333 -2.66699 39 -8s24.667 -11 36 -17l33 -15.5
c10.667 -5 20.667 -7.5 30 -7.5c14.667 0 25.667 5 33 15s12.333 21 15 33h36c-1.33301 -12 -4 -24.167 -8 -36.5s-9.5 -23.333 -16.5 -33s-15.5 -17.5 -25.5 -23.5s-21.333 -9 -34 -9c-13.333 0 -26.166 2.66699 -38.499 8l-36.5 16l-34.5 16c-11 5.33301 -21.5 8 -31.5 8
c-15.333 0 -26.833 -5 -34.5 -15s-13.167 -21 -16.5 -33h-36z" />
    <glyph glyph-name="Adieresis" unicode="&#xc4;" horiz-adv-x="685" 
d="M314 708h68l298 -708h-74l-77 188h-375l-80 -188h-69zM345 636l-165 -388h325zM200 840c0 13.333 4.66699 24.666 14 33.999s20.666 14 33.999 14s24.666 -4.66699 33.999 -14s14 -20.666 14 -33.999s-4.66699 -24.666 -14 -33.999s-20.666 -14 -33.999 -14
s-24.666 4.66699 -33.999 14s-14 20.666 -14 33.999zM390 840c0 13.333 4.66699 24.666 14 33.999s20.666 14 33.999 14s24.666 -4.66699 33.999 -14s14 -20.666 14 -33.999s-4.66699 -24.666 -14 -33.999s-20.666 -14 -33.999 -14s-24.666 4.66699 -33.999 14
s-14 20.666 -14 33.999z" />
    <glyph glyph-name="Aring" unicode="&#xc5;" horiz-adv-x="685" 
d="M314 708h68l298 -708h-74l-77 188h-375l-80 -188h-69zM345 636l-165 -388h325zM250 837c0 12.667 2.5 24.833 7.5 36.5s11.667 21.834 20 30.501s18.166 15.5 29.499 20.5s23.666 7.5 36.999 7.5c12.667 0 24.667 -2.66699 36 -8s21.166 -12.5 29.499 -21.5
s14.833 -19.167 19.5 -30.5s7 -23.333 7 -36c0 -12 -2.33301 -23.667 -7 -35s-11.167 -21.333 -19.5 -30s-18.166 -15.667 -29.499 -21s-23.333 -8 -36 -8c-13.333 0 -25.666 2.5 -36.999 7.5s-21.166 11.833 -29.499 20.5s-15 18.667 -20 30s-7.5 23.666 -7.5 36.999z
M400 836.999c0 16.667 -5.33203 30.668 -15.999 42.001s-24.334 17 -41.001 17s-30.334 -5.83301 -41.001 -17.5s-16 -25.834 -16 -42.501s5.5 -30.5 16.5 -41.5s24.5 -16.5 40.5 -16.5c16.667 0 30.334 5.66699 41.001 17s16 25.333 16 42z" />
    <glyph glyph-name="AE" unicode="&#xc6;" horiz-adv-x="926" 
d="M456 708h403v-60h-293v-252h276v-60h-276v-276h301v-60h-367v188h-312l-123 -188h-70zM500 648h-12l-261 -400h273v400z" />
    <glyph glyph-name="Ccedilla" unicode="&#xc7;" horiz-adv-x="704" 
d="M680 111c-34 -46 -73.3301 -78.9961 -117.997 -98.9961s-93 -30 -145 -30h-13.5c-4.33301 0 -8.83301 0.333008 -13.5 1l-34 -47l2 -2c8.66699 4.66699 19 7 31 7c21.333 0 40.5 -6 57.5 -18s25.5 -30 25.5 -54c0 -15.333 -3.33301 -28.333 -10 -39
s-15.5 -19.334 -26.5 -26.001s-23.167 -11.667 -36.5 -15s-26.333 -5 -39 -5c-33.333 0 -65 7 -95 21l14 32c22 -11.333 47.333 -17 76 -17c6.66699 0 13.667 0.833008 21 2.5s14.166 4.16699 20.499 7.5s11.5 7.66602 15.5 12.999s6 12 6 20c0 15.333 -6 26.166 -18 32.499
s-24.667 9.5 -38 9.5c-15.333 0 -30 -2.66699 -44 -8l-16 15l54 75c-45.333 6 -86.833 19.5 -124.5 40.5s-69.834 47.5 -96.501 79.5s-47.334 69 -62.001 111s-22 87.333 -22 136c0 54 9 103.667 27 149s43 84.5 75 117.5s70.5 58.833 115.5 77.5s94.5 28 148.5 28
c48 0 92.833 -8.5 134.5 -25.5s78.167 -45.5 109.5 -85.5l-54 -45c-22 33.333 -50.167 57.666 -84.5 72.999s-69.5 23 -105.5 23c-46 0 -87.5 -8 -124.5 -24s-68.5 -38 -94.5 -66s-46 -61 -60 -99s-21 -79 -21 -123s7 -85 21 -123s34 -71 60 -99s57.5 -50 94.5 -66
s78.5 -24 124.5 -24c18 0 36.667 2.16699 56 6.5s38.166 11 56.499 20s35.833 20.333 52.5 34s31.334 30.167 44.001 49.5z" />
    <glyph glyph-name="Egrave" unicode="&#xc8;" horiz-adv-x="593" 
d="M97 708h433v-60h-367v-252h344v-60h-344v-276h383v-60h-449v708zM355 752h-50l-134 144h80z" />
    <glyph glyph-name="Eacute" unicode="&#xc9;" horiz-adv-x="593" 
d="M97 708h433v-60h-367v-252h344v-60h-344v-276h383v-60h-449v708zM343 896h80l-134 -144h-50z" />
    <glyph glyph-name="Ecircumflex" unicode="&#xca;" horiz-adv-x="593" 
d="M97 708h433v-60h-367v-252h344v-60h-344v-276h383v-60h-449v708zM262 896h70l108 -144h-65l-81 108l-81 -108h-59z" />
    <glyph glyph-name="Edieresis" unicode="&#xcb;" horiz-adv-x="593" 
d="M97 708h433v-60h-367v-252h344v-60h-344v-276h383v-60h-449v708zM154 840c0 13.333 4.66699 24.666 14 33.999s20.666 14 33.999 14s24.666 -4.66699 33.999 -14s14 -20.666 14 -33.999s-4.66699 -24.666 -14 -33.999s-20.666 -14 -33.999 -14
s-24.666 4.66699 -33.999 14s-14 20.666 -14 33.999zM344 840c0 13.333 4.66699 24.666 14 33.999s20.666 14 33.999 14s24.666 -4.66699 33.999 -14s14 -20.666 14 -33.999s-4.66699 -24.666 -14 -33.999s-20.666 -14 -33.999 -14s-24.666 4.66699 -33.999 14
s-14 20.666 -14 33.999z" />
    <glyph glyph-name="Igrave" unicode="&#xcc;" horiz-adv-x="260" 
d="M97 708h66v-708h-66v708zM188 752h-50l-134 144h80z" />
    <glyph glyph-name="Iacute" unicode="&#xcd;" horiz-adv-x="260" 
d="M97 708h66v-708h-66v708zM176 896h80l-134 -144h-50z" />
    <glyph glyph-name="Icircumflex" unicode="&#xce;" horiz-adv-x="260" 
d="M97 708h66v-708h-66v708zM95 896h70l108 -144h-65l-81 108l-81 -108h-59z" />
    <glyph glyph-name="Idieresis" unicode="&#xcf;" horiz-adv-x="260" 
d="M97 708h66v-708h-66v708zM-13 840c0 13.333 4.66699 24.666 14 33.999s20.666 14 33.999 14s24.666 -4.66699 33.999 -14s14 -20.666 14 -33.999s-4.66699 -24.666 -14 -33.999s-20.666 -14 -33.999 -14s-24.666 4.66699 -33.999 14s-14 20.666 -14 33.999zM177 840
c0 13.333 4.66699 24.666 14 33.999s20.666 14 33.999 14s24.666 -4.66699 33.999 -14s14 -20.666 14 -33.999s-4.66699 -24.666 -14 -33.999s-20.666 -14 -33.999 -14s-24.666 4.66699 -33.999 14s-14 20.666 -14 33.999z" />
    <glyph glyph-name="Eth" unicode="&#xd0;" horiz-adv-x="741" 
d="M154 396h258v-54h-258v-282h136c46.667 0 90.334 5.83301 131.001 17.5s76 29.5 106 53.5s53.667 54.5 71 91.5s26 80.833 26 131.5s-8.66699 94.5 -26 131.5s-41 67.5 -71 91.5s-65.333 41.833 -106 53.5s-84.334 17.5 -131.001 17.5h-136v-252zM88 342l-78 -0.00195312
v54h78v312h219c61.333 0 113.333 -7.5 156 -22.5s78.167 -34.167 106.5 -57.5s50.666 -49.166 66.999 -77.499s28.333 -55.5 36 -81.5s12.5 -49.5 14.5 -70.5s3 -35.833 3 -44.5s-1 -23.5 -3 -44.5s-6.83301 -44.5 -14.5 -70.5s-19.667 -53.167 -36 -81.5
s-38.666 -54.166 -66.999 -77.499s-63.833 -42.5 -106.5 -57.5s-94.667 -22.5 -156 -22.5h-219v342z" />
    <glyph glyph-name="Ntilde" unicode="&#xd1;" horiz-adv-x="778" 
d="M97 708h85l431 -620h2v620h66v-708h-85l-431 620h-2v-620h-66v708zM233 769c1.33301 11.333 4.33203 23.168 8.99902 35.501s10.667 23.166 18 32.499c7.33301 10 16.333 18.167 27 24.5s22.667 9.5 36 9.5s26.333 -2.66699 39 -8s24.667 -11 36 -17l33 -15.5
c10.667 -5 20.667 -7.5 30 -7.5c14.667 0 25.667 5 33 15s12.333 21 15 33h36c-1.33301 -12 -4 -24.167 -8 -36.5s-9.5 -23.333 -16.5 -33s-15.5 -17.5 -25.5 -23.5s-21.333 -9 -34 -9c-13.333 0 -26.166 2.66699 -38.499 8l-36.5 16l-34.5 16c-11 5.33301 -21.5 8 -31.5 8
c-15.333 0 -26.833 -5 -34.5 -15s-13.167 -21 -16.5 -33h-36z" />
    <glyph glyph-name="Ograve" unicode="&#xd2;" horiz-adv-x="834" 
d="M51 354c0 54 9 103.667 27 149s43 84.5 75 117.5s70.5 58.833 115.5 77.5s94.5 28 148.5 28s103.5 -9.33301 148.5 -28s83.5 -44.5 115.5 -77.5s57 -72.167 75 -117.5s27 -95 27 -149s-9 -103.833 -27 -149.5s-43 -85 -75 -118s-70.5 -58.667 -115.5 -77
s-94.5 -27.5 -148.5 -27.5s-103.5 9.16699 -148.5 27.5s-83.5 44 -115.5 77s-57 72.333 -75 118s-27 95.5 -27 149.5zM117 354c0 -44 7 -85 21 -123s34 -71 60 -99s57.5 -50 94.5 -66s78.5 -24 124.5 -24s87.5 8 124.5 24s68.5 38 94.5 66s46 61 60 99s21 79 21 123
s-7 85 -21 123s-34 71 -60 99s-57.5 50 -94.5 66s-78.5 24 -124.5 24s-87.5 -8 -124.5 -24s-68.5 -38 -94.5 -66s-46 -61 -60 -99s-21 -79 -21 -123zM475 752h-50l-134 144h80z" />
    <glyph glyph-name="Oacute" unicode="&#xd3;" horiz-adv-x="834" 
d="M51 354c0 54 9 103.667 27 149s43 84.5 75 117.5s70.5 58.833 115.5 77.5s94.5 28 148.5 28s103.5 -9.33301 148.5 -28s83.5 -44.5 115.5 -77.5s57 -72.167 75 -117.5s27 -95 27 -149s-9 -103.833 -27 -149.5s-43 -85 -75 -118s-70.5 -58.667 -115.5 -77
s-94.5 -27.5 -148.5 -27.5s-103.5 9.16699 -148.5 27.5s-83.5 44 -115.5 77s-57 72.333 -75 118s-27 95.5 -27 149.5zM117 354c0 -44 7 -85 21 -123s34 -71 60 -99s57.5 -50 94.5 -66s78.5 -24 124.5 -24s87.5 8 124.5 24s68.5 38 94.5 66s46 61 60 99s21 79 21 123
s-7 85 -21 123s-34 71 -60 99s-57.5 50 -94.5 66s-78.5 24 -124.5 24s-87.5 -8 -124.5 -24s-68.5 -38 -94.5 -66s-46 -61 -60 -99s-21 -79 -21 -123zM463 896h80l-134 -144h-50z" />
    <glyph glyph-name="Ocircumflex" unicode="&#xd4;" horiz-adv-x="834" 
d="M51 354c0 54 9 103.667 27 149s43 84.5 75 117.5s70.5 58.833 115.5 77.5s94.5 28 148.5 28s103.5 -9.33301 148.5 -28s83.5 -44.5 115.5 -77.5s57 -72.167 75 -117.5s27 -95 27 -149s-9 -103.833 -27 -149.5s-43 -85 -75 -118s-70.5 -58.667 -115.5 -77
s-94.5 -27.5 -148.5 -27.5s-103.5 9.16699 -148.5 27.5s-83.5 44 -115.5 77s-57 72.333 -75 118s-27 95.5 -27 149.5zM117 354c0 -44 7 -85 21 -123s34 -71 60 -99s57.5 -50 94.5 -66s78.5 -24 124.5 -24s87.5 8 124.5 24s68.5 38 94.5 66s46 61 60 99s21 79 21 123
s-7 85 -21 123s-34 71 -60 99s-57.5 50 -94.5 66s-78.5 24 -124.5 24s-87.5 -8 -124.5 -24s-68.5 -38 -94.5 -66s-46 -61 -60 -99s-21 -79 -21 -123zM382 896h70l108 -144h-65l-81 108l-81 -108h-59z" />
    <glyph glyph-name="Otilde" unicode="&#xd5;" horiz-adv-x="834" 
d="M51 354c0 54 9 103.667 27 149s43 84.5 75 117.5s70.5 58.833 115.5 77.5s94.5 28 148.5 28s103.5 -9.33301 148.5 -28s83.5 -44.5 115.5 -77.5s57 -72.167 75 -117.5s27 -95 27 -149s-9 -103.833 -27 -149.5s-43 -85 -75 -118s-70.5 -58.667 -115.5 -77
s-94.5 -27.5 -148.5 -27.5s-103.5 9.16699 -148.5 27.5s-83.5 44 -115.5 77s-57 72.333 -75 118s-27 95.5 -27 149.5zM117 354c0 -44 7 -85 21 -123s34 -71 60 -99s57.5 -50 94.5 -66s78.5 -24 124.5 -24s87.5 8 124.5 24s68.5 38 94.5 66s46 61 60 99s21 79 21 123
s-7 85 -21 123s-34 71 -60 99s-57.5 50 -94.5 66s-78.5 24 -124.5 24s-87.5 -8 -124.5 -24s-68.5 -38 -94.5 -66s-46 -61 -60 -99s-21 -79 -21 -123zM261 769c1.33301 11.333 4.33203 23.168 8.99902 35.501s10.667 23.166 18 32.499c7.33301 10 16.333 18.167 27 24.5
s22.667 9.5 36 9.5s26.333 -2.66699 39 -8s24.667 -11 36 -17l33 -15.5c10.667 -5 20.667 -7.5 30 -7.5c14.667 0 25.667 5 33 15s12.333 21 15 33h36c-1.33301 -12 -4 -24.167 -8 -36.5s-9.5 -23.333 -16.5 -33s-15.5 -17.5 -25.5 -23.5s-21.333 -9 -34 -9
c-13.333 0 -26.166 2.66699 -38.499 8l-36.5 16l-34.5 16c-11 5.33301 -21.5 8 -31.5 8c-15.333 0 -26.833 -5 -34.5 -15s-13.167 -21 -16.5 -33h-36z" />
    <glyph glyph-name="Odieresis" unicode="&#xd6;" horiz-adv-x="834" 
d="M51 354c0 54 9 103.667 27 149s43 84.5 75 117.5s70.5 58.833 115.5 77.5s94.5 28 148.5 28s103.5 -9.33301 148.5 -28s83.5 -44.5 115.5 -77.5s57 -72.167 75 -117.5s27 -95 27 -149s-9 -103.833 -27 -149.5s-43 -85 -75 -118s-70.5 -58.667 -115.5 -77
s-94.5 -27.5 -148.5 -27.5s-103.5 9.16699 -148.5 27.5s-83.5 44 -115.5 77s-57 72.333 -75 118s-27 95.5 -27 149.5zM117 354c0 -44 7 -85 21 -123s34 -71 60 -99s57.5 -50 94.5 -66s78.5 -24 124.5 -24s87.5 8 124.5 24s68.5 38 94.5 66s46 61 60 99s21 79 21 123
s-7 85 -21 123s-34 71 -60 99s-57.5 50 -94.5 66s-78.5 24 -124.5 24s-87.5 -8 -124.5 -24s-68.5 -38 -94.5 -66s-46 -61 -60 -99s-21 -79 -21 -123zM274 840c0 13.333 4.66699 24.666 14 33.999s20.666 14 33.999 14s24.666 -4.66699 33.999 -14s14 -20.666 14 -33.999
s-4.66699 -24.666 -14 -33.999s-20.666 -14 -33.999 -14s-24.666 4.66699 -33.999 14s-14 20.666 -14 33.999zM464 840c0 13.333 4.66699 24.666 14 33.999s20.666 14 33.999 14s24.666 -4.66699 33.999 -14s14 -20.666 14 -33.999s-4.66699 -24.666 -14 -33.999
s-20.666 -14 -33.999 -14s-24.666 4.66699 -33.999 14s-14 20.666 -14 33.999z" />
    <glyph glyph-name="multiply" unicode="&#xd7;" horiz-adv-x="666" 
d="M334 337l199 198l33 -34l-199 -198l198 -198l-34 -34l-197 199l-199 -199l-35 34l200 198l-198 198l34 34z" />
    <glyph glyph-name="Oslash" unicode="&#xd8;" horiz-adv-x="834" 
d="M144 97c-30 32.667 -52.999 70.666 -68.999 113.999s-24 91 -24 143c0 54 9 103.667 27 149s43 84.5 75 117.5s70.5 58.833 115.5 77.5s94.5 28 148.5 28c46.667 0 89.667 -6.83301 129 -20.5s74.666 -33.167 105.999 -58.5l74 81l34 -31l-75 -81
c31.333 -32.667 55.5 -71.167 72.5 -115.5s25.5 -93.166 25.5 -146.499c0 -54 -9 -103.833 -27 -149.5s-43 -85 -75 -118s-70.5 -58.667 -115.5 -77s-94.5 -27.5 -148.5 -27.5c-48 0 -92 7.16699 -132 21.5s-75.667 34.833 -107 61.5l-75 -81l-35 31zM609.001 600.999
c-25.333 20.667 -54 36.667 -86 48s-67.333 17 -106 17c-46 0 -87.5 -8 -124.5 -24s-68.5 -38 -94.5 -66s-46 -61 -60 -99s-21 -79 -21 -123c0 -84.667 23.667 -154.667 71 -210zM220.001 110.999c25.333 -22 54.5 -39.001 87.5 -51.001s69.5 -18 109.5 -18
c46 0 87.5 8 124.5 24s68.5 38 94.5 66s46 61 60 99s21 79 21 123c0 42.667 -6.5 82.334 -19.5 119.001s-31.5 68.667 -55.5 96z" />
    <glyph glyph-name="Ugrave" unicode="&#xd9;" horiz-adv-x="684" 
d="M600 271c0 -38 -4.33496 -74.333 -13.002 -109s-23.167 -65.334 -43.5 -92.001s-47 -48 -80 -64s-73.5 -24 -121.5 -24s-88.5 8 -121.5 24s-59.667 37.333 -80 64s-34.833 57.334 -43.5 92.001s-13 71 -13 109v437h66v-420c0 -25.333 2.33301 -52.333 7 -81
s13.834 -55.334 27.501 -80.001s33 -45 58 -61s58.167 -24 99.5 -24s74.5 8 99.5 24s44.333 36.333 58 61s22.834 51.334 27.501 80.001s7 55.667 7 81v420h66v-437zM399.998 752h-50l-134 144h80z" />
    <glyph glyph-name="Uacute" unicode="&#xda;" horiz-adv-x="684" 
d="M600 271c0 -38 -4.33496 -74.333 -13.002 -109s-23.167 -65.334 -43.5 -92.001s-47 -48 -80 -64s-73.5 -24 -121.5 -24s-88.5 8 -121.5 24s-59.667 37.333 -80 64s-34.833 57.334 -43.5 92.001s-13 71 -13 109v437h66v-420c0 -25.333 2.33301 -52.333 7 -81
s13.834 -55.334 27.501 -80.001s33 -45 58 -61s58.167 -24 99.5 -24s74.5 8 99.5 24s44.333 36.333 58 61s22.834 51.334 27.501 80.001s7 55.667 7 81v420h66v-437zM387.998 896h80l-134 -144h-50z" />
    <glyph glyph-name="Ucircumflex" unicode="&#xdb;" horiz-adv-x="684" 
d="M600 271c0 -38 -4.33496 -74.333 -13.002 -109s-23.167 -65.334 -43.5 -92.001s-47 -48 -80 -64s-73.5 -24 -121.5 -24s-88.5 8 -121.5 24s-59.667 37.333 -80 64s-34.833 57.334 -43.5 92.001s-13 71 -13 109v437h66v-420c0 -25.333 2.33301 -52.333 7 -81
s13.834 -55.334 27.501 -80.001s33 -45 58 -61s58.167 -24 99.5 -24s74.5 8 99.5 24s44.333 36.333 58 61s22.834 51.334 27.501 80.001s7 55.667 7 81v420h66v-437zM306.998 896h70l108 -144h-65l-81 108l-81 -108h-59z" />
    <glyph glyph-name="Udieresis" unicode="&#xdc;" horiz-adv-x="684" 
d="M600 271c0 -38 -4.33496 -74.333 -13.002 -109s-23.167 -65.334 -43.5 -92.001s-47 -48 -80 -64s-73.5 -24 -121.5 -24s-88.5 8 -121.5 24s-59.667 37.333 -80 64s-34.833 57.334 -43.5 92.001s-13 71 -13 109v437h66v-420c0 -25.333 2.33301 -52.333 7 -81
s13.834 -55.334 27.501 -80.001s33 -45 58 -61s58.167 -24 99.5 -24s74.5 8 99.5 24s44.333 36.333 58 61s22.834 51.334 27.501 80.001s7 55.667 7 81v420h66v-437zM198.998 840c0 13.333 4.66699 24.666 14 33.999s20.666 14 33.999 14s24.666 -4.66699 33.999 -14
s14 -20.666 14 -33.999s-4.66699 -24.666 -14 -33.999s-20.666 -14 -33.999 -14s-24.666 4.66699 -33.999 14s-14 20.666 -14 33.999zM388.998 840c0 13.333 4.66699 24.666 14 33.999s20.666 14 33.999 14s24.666 -4.66699 33.999 -14s14 -20.666 14 -33.999
s-4.66699 -24.666 -14 -33.999s-20.666 -14 -33.999 -14s-24.666 4.66699 -33.999 14s-14 20.666 -14 33.999z" />
    <glyph glyph-name="Yacute" unicode="&#xdd;" horiz-adv-x="574" 
d="M254 305l-260 403h79l214 -336l219 336h74l-260 -403v-305h-66v305zM333 896h80l-134 -144h-50z" />
    <glyph glyph-name="Thorn" unicode="&#xde;" horiz-adv-x="574" 
d="M97 708h65.0029v-156h139c24.667 0 50.5 -2.83301 77.5 -8.5s51.667 -15.5 74 -29.5s40.666 -33.167 54.999 -57.5s21.5 -54.833 21.5 -91.5c0 -32 -5.83301 -59.667 -17.5 -83s-27.334 -42.5 -47.001 -57.5s-42.334 -26.167 -68.001 -33.5s-52.5 -11 -80.5 -11h-153
v-180h-66v708zM163.003 240h150.001c18.667 0 37 2.16699 55 6.5s34 11.333 48 21s25.333 22.5 34 38.5s13 35.667 13 59c0 22.667 -4.5 42 -13.5 58s-20.667 29.167 -35 39.5s-30.833 17.833 -49.5 22.5s-37.334 7 -56.001 7h-146v-252z" />
    <glyph glyph-name="germandbls" unicode="&#xdf;" horiz-adv-x="593" 
d="M266 458l15 -0.00195312c40 0 72.5 11.5 97.5 34.5s37.5 54.5 37.5 94.5c0 42 -12.167 73.667 -36.5 95s-55.5 32 -93.5 32c-27.333 0 -50.333 -5 -69 -15s-33.667 -23.667 -45 -41s-19.5 -37.5 -24.5 -60.5s-7.5 -47.167 -7.5 -72.5v-525h-60v534
c0 34 4.5 65.333 13.5 94s22.5 53.334 40.5 74.001s40.167 36.834 66.5 48.501s56.5 17.5 90.5 17.5c26 0 50.333 -4 73 -12s42.167 -19.5 58.5 -34.5s29.333 -33.667 39 -56s14.5 -47.833 14.5 -76.5c0 -39.333 -9 -72.5 -27 -99.5s-42 -45.167 -72 -54.5v-2
c18.667 -3.33301 37.334 -9 56.001 -17s35.667 -20 51 -36s27.833 -36.833 37.5 -62.5s14.5 -57.834 14.5 -96.501c0 -36 -6.16699 -68.167 -18.5 -96.5s-29.5 -52.166 -51.5 -71.499s-48 -34 -78 -44s-63 -15 -99 -15c-8 0 -15.833 0.333008 -23.5 1s-15.5 2 -23.5 4v58
c8.66699 -3.33301 17.334 -5.66602 26.001 -6.99902s17.667 -2 27 -2c26.667 0 51.167 4 73.5 12s41.5 19.5 57.5 34.5s28.333 33.167 37 54.5s13 45 13 71c0 31.333 -5.16699 58.666 -15.5 81.999s-24.333 42.5 -42 57.5s-37.834 26.167 -60.501 33.5
s-46.334 11 -71.001 11h-21v54z" />
    <glyph glyph-name="agrave" unicode="&#xe0;" horiz-adv-x="519" 
d="M439 194c0 -22.667 0.165039 -43.002 0.498047 -61.002s0.833008 -34.667 1.5 -50s1.5 -29.666 2.5 -42.999s2.5 -26.666 4.5 -39.999h-56c-4 22.667 -6 47.667 -6 75h-2c-17.333 -30 -38.833 -52 -64.5 -66s-58.167 -21 -97.5 -21c-20 0 -39.667 2.5 -59 7.5
s-36.666 13 -51.999 24s-27.833 25.167 -37.5 42.5s-14.5 38.333 -14.5 63c0 35.333 9 63.333 27 84s40.167 36.167 66.5 46.5s54.333 17 84 20s55.834 4.5 78.501 4.5h70v28c0 40 -12.333 68.667 -37 86s-55.667 26 -93 26c-53.333 0 -100.333 -17.333 -141 -52l-35 41
c22 21.333 49.333 37.5 82 48.5s64 16.5 94 16.5c56 0 100.667 -13.167 134 -39.5s50 -68.833 50 -127.5v-113zM318.998 231.998c-25.333 0 -49.833 -1.66699 -73.5 -5s-45 -9 -64 -17s-34.167 -18.667 -45.5 -32s-17 -30 -17 -50c0 -14 3.16699 -26.5 9.5 -37.5
s14.5 -20 24.5 -27s21.167 -12.333 33.5 -16s24.833 -5.5 37.5 -5.5c32 0 58.333 4.66699 79 14s37.167 21.5 49.5 36.5s20.833 32 25.5 51s7 38.167 7 57.5v31h-66zM317.998 563.998h-50l-134 144h80z" />
    <glyph glyph-name="aacute" unicode="&#xe1;" horiz-adv-x="519" 
d="M439 194c0 -22.667 0.165039 -43.002 0.498047 -61.002s0.833008 -34.667 1.5 -50s1.5 -29.666 2.5 -42.999s2.5 -26.666 4.5 -39.999h-56c-4 22.667 -6 47.667 -6 75h-2c-17.333 -30 -38.833 -52 -64.5 -66s-58.167 -21 -97.5 -21c-20 0 -39.667 2.5 -59 7.5
s-36.666 13 -51.999 24s-27.833 25.167 -37.5 42.5s-14.5 38.333 -14.5 63c0 35.333 9 63.333 27 84s40.167 36.167 66.5 46.5s54.333 17 84 20s55.834 4.5 78.501 4.5h70v28c0 40 -12.333 68.667 -37 86s-55.667 26 -93 26c-53.333 0 -100.333 -17.333 -141 -52l-35 41
c22 21.333 49.333 37.5 82 48.5s64 16.5 94 16.5c56 0 100.667 -13.167 134 -39.5s50 -68.833 50 -127.5v-113zM318.998 231.998c-25.333 0 -49.833 -1.66699 -73.5 -5s-45 -9 -64 -17s-34.167 -18.667 -45.5 -32s-17 -30 -17 -50c0 -14 3.16699 -26.5 9.5 -37.5
s14.5 -20 24.5 -27s21.167 -12.333 33.5 -16s24.833 -5.5 37.5 -5.5c32 0 58.333 4.66699 79 14s37.167 21.5 49.5 36.5s20.833 32 25.5 51s7 38.167 7 57.5v31h-66zM305.998 707.998h80l-134 -144h-50z" />
    <glyph glyph-name="acircumflex" unicode="&#xe2;" horiz-adv-x="519" 
d="M439 194c0 -22.667 0.165039 -43.002 0.498047 -61.002s0.833008 -34.667 1.5 -50s1.5 -29.666 2.5 -42.999s2.5 -26.666 4.5 -39.999h-56c-4 22.667 -6 47.667 -6 75h-2c-17.333 -30 -38.833 -52 -64.5 -66s-58.167 -21 -97.5 -21c-20 0 -39.667 2.5 -59 7.5
s-36.666 13 -51.999 24s-27.833 25.167 -37.5 42.5s-14.5 38.333 -14.5 63c0 35.333 9 63.333 27 84s40.167 36.167 66.5 46.5s54.333 17 84 20s55.834 4.5 78.501 4.5h70v28c0 40 -12.333 68.667 -37 86s-55.667 26 -93 26c-53.333 0 -100.333 -17.333 -141 -52l-35 41
c22 21.333 49.333 37.5 82 48.5s64 16.5 94 16.5c56 0 100.667 -13.167 134 -39.5s50 -68.833 50 -127.5v-113zM318.998 231.998c-25.333 0 -49.833 -1.66699 -73.5 -5s-45 -9 -64 -17s-34.167 -18.667 -45.5 -32s-17 -30 -17 -50c0 -14 3.16699 -26.5 9.5 -37.5
s14.5 -20 24.5 -27s21.167 -12.333 33.5 -16s24.833 -5.5 37.5 -5.5c32 0 58.333 4.66699 79 14s37.167 21.5 49.5 36.5s20.833 32 25.5 51s7 38.167 7 57.5v31h-66zM224.998 707.998h70l108 -144h-65l-81 108l-81 -108h-59z" />
    <glyph glyph-name="atilde" unicode="&#xe3;" horiz-adv-x="519" 
d="M439 194c0 -22.667 0.165039 -43.002 0.498047 -61.002s0.833008 -34.667 1.5 -50s1.5 -29.666 2.5 -42.999s2.5 -26.666 4.5 -39.999h-56c-4 22.667 -6 47.667 -6 75h-2c-17.333 -30 -38.833 -52 -64.5 -66s-58.167 -21 -97.5 -21c-20 0 -39.667 2.5 -59 7.5
s-36.666 13 -51.999 24s-27.833 25.167 -37.5 42.5s-14.5 38.333 -14.5 63c0 35.333 9 63.333 27 84s40.167 36.167 66.5 46.5s54.333 17 84 20s55.834 4.5 78.501 4.5h70v28c0 40 -12.333 68.667 -37 86s-55.667 26 -93 26c-53.333 0 -100.333 -17.333 -141 -52l-35 41
c22 21.333 49.333 37.5 82 48.5s64 16.5 94 16.5c56 0 100.667 -13.167 134 -39.5s50 -68.833 50 -127.5v-113zM318.998 231.998c-25.333 0 -49.833 -1.66699 -73.5 -5s-45 -9 -64 -17s-34.167 -18.667 -45.5 -32s-17 -30 -17 -50c0 -14 3.16699 -26.5 9.5 -37.5
s14.5 -20 24.5 -27s21.167 -12.333 33.5 -16s24.833 -5.5 37.5 -5.5c32 0 58.333 4.66699 79 14s37.167 21.5 49.5 36.5s20.833 32 25.5 51s7 38.167 7 57.5v31h-66zM103.998 580.998c1.33301 11.333 4.33203 23.168 8.99902 35.501s10.667 23.166 18 32.499
c7.33301 10 16.333 18.167 27 24.5s22.667 9.5 36 9.5s26.333 -2.66699 39 -8s24.667 -11 36 -17l33 -15.5c10.667 -5 20.667 -7.5 30 -7.5c14.667 0 25.667 5 33 15s12.333 21 15 33h36c-1.33301 -12 -4 -24.167 -8 -36.5s-9.5 -23.333 -16.5 -33s-15.333 -17.5 -25 -23.5
s-21.167 -9 -34.5 -9s-26.166 2.66699 -38.499 8l-36.5 16l-34.5 16c-11 5.33301 -21.5 8 -31.5 8c-15.333 0 -26.833 -5 -34.5 -15s-13.167 -21 -16.5 -33h-36z" />
    <glyph glyph-name="adieresis" unicode="&#xe4;" horiz-adv-x="519" 
d="M439 194c0 -22.667 0.165039 -43.002 0.498047 -61.002s0.833008 -34.667 1.5 -50s1.5 -29.666 2.5 -42.999s2.5 -26.666 4.5 -39.999h-56c-4 22.667 -6 47.667 -6 75h-2c-17.333 -30 -38.833 -52 -64.5 -66s-58.167 -21 -97.5 -21c-20 0 -39.667 2.5 -59 7.5
s-36.666 13 -51.999 24s-27.833 25.167 -37.5 42.5s-14.5 38.333 -14.5 63c0 35.333 9 63.333 27 84s40.167 36.167 66.5 46.5s54.333 17 84 20s55.834 4.5 78.501 4.5h70v28c0 40 -12.333 68.667 -37 86s-55.667 26 -93 26c-53.333 0 -100.333 -17.333 -141 -52l-35 41
c22 21.333 49.333 37.5 82 48.5s64 16.5 94 16.5c56 0 100.667 -13.167 134 -39.5s50 -68.833 50 -127.5v-113zM318.998 231.998c-25.333 0 -49.833 -1.66699 -73.5 -5s-45 -9 -64 -17s-34.167 -18.667 -45.5 -32s-17 -30 -17 -50c0 -14 3.16699 -26.5 9.5 -37.5
s14.5 -20 24.5 -27s21.167 -12.333 33.5 -16s24.833 -5.5 37.5 -5.5c32 0 58.333 4.66699 79 14s37.167 21.5 49.5 36.5s20.833 32 25.5 51s7 38.167 7 57.5v31h-66zM116.998 651.998c0 13.333 4.66699 24.666 14 33.999s20.666 14 33.999 14s24.666 -4.66699 33.999 -14
s14 -20.666 14 -33.999s-4.66699 -24.666 -14 -33.999s-20.666 -14 -33.999 -14s-24.666 4.66699 -33.999 14s-14 20.666 -14 33.999zM306.998 651.998c0 13.333 4.66699 24.666 14 33.999s20.666 14 33.999 14s24.666 -4.66699 33.999 -14s14 -20.666 14 -33.999
s-4.66699 -24.666 -14 -33.999s-20.666 -14 -33.999 -14s-24.666 4.66699 -33.999 14s-14 20.666 -14 33.999z" />
    <glyph glyph-name="aring" unicode="&#xe5;" horiz-adv-x="519" 
d="M439 194c0 -22.667 0.165039 -43.002 0.498047 -61.002s0.833008 -34.667 1.5 -50s1.5 -29.666 2.5 -42.999s2.5 -26.666 4.5 -39.999h-56c-4 22.667 -6 47.667 -6 75h-2c-17.333 -30 -38.833 -52 -64.5 -66s-58.167 -21 -97.5 -21c-20 0 -39.667 2.5 -59 7.5
s-36.666 13 -51.999 24s-27.833 25.167 -37.5 42.5s-14.5 38.333 -14.5 63c0 35.333 9 63.333 27 84s40.167 36.167 66.5 46.5s54.333 17 84 20s55.834 4.5 78.501 4.5h70v28c0 40 -12.333 68.667 -37 86s-55.667 26 -93 26c-53.333 0 -100.333 -17.333 -141 -52l-35 41
c22 21.333 49.333 37.5 82 48.5s64 16.5 94 16.5c56 0 100.667 -13.167 134 -39.5s50 -68.833 50 -127.5v-113zM318.998 231.998c-25.333 0 -49.833 -1.66699 -73.5 -5s-45 -9 -64 -17s-34.167 -18.667 -45.5 -32s-17 -30 -17 -50c0 -14 3.16699 -26.5 9.5 -37.5
s14.5 -20 24.5 -27s21.167 -12.333 33.5 -16s24.833 -5.5 37.5 -5.5c32 0 58.333 4.66699 79 14s37.167 21.5 49.5 36.5s20.833 32 25.5 51s7 38.167 7 57.5v31h-66zM166.998 648.998c0 12.667 2.5 24.8301 7.5 36.4971s11.667 21.834 20 30.501s18.166 15.5 29.499 20.5
s23.666 7.5 36.999 7.5c12.667 0 24.667 -2.66699 36 -8s21.166 -12.5 29.499 -21.5s14.833 -19.167 19.5 -30.5s7 -23.333 7 -36c0 -12 -2.33301 -23.667 -7 -35s-11.167 -21.333 -19.5 -30s-18.166 -15.667 -29.499 -21s-23.333 -8 -36 -8
c-13.333 0 -25.666 2.5 -36.999 7.5s-21.166 11.833 -29.499 20.5s-15 18.834 -20 30.501s-7.5 23.834 -7.5 36.501zM316.998 648.994c0 16.667 -5.33203 30.668 -15.999 42.001s-24.334 17 -41.001 17s-30.334 -5.83301 -41.001 -17.5s-16 -25.834 -16 -42.501
s5.5 -30.5 16.5 -41.5s24.5 -16.5 40.5 -16.5c16.667 0 30.334 5.66699 41.001 17s16 25.333 16 42z" />
    <glyph glyph-name="ae" unicode="&#xe6;" horiz-adv-x="852" 
d="M392 279c0 45.333 -11.1689 80.166 -33.502 104.499s-58.5 36.5 -108.5 36.5c-53.333 0 -100.333 -17.333 -141 -52l-35 41c22 21.333 49.333 37.5 82 48.5s64 16.5 94 16.5c42 0 78.167 -6.83301 108.5 -20.5s54.166 -38.834 71.499 -75.501
c8.66699 16 19.334 30 32.001 42s26.5 22 41.5 30s30.667 14 47 18s32.5 6 48.5 6c28 0 54.667 -4.16699 80 -12.5s47.5 -21.5 66.5 -39.5s34.167 -41.167 45.5 -69.5s17 -62.166 17 -101.499v-35h-356c-1.33301 -24 1.33398 -46.5 8.00098 -67.5s16.667 -39.333 30 -55
s30.166 -28.167 50.499 -37.5s44.166 -14 71.499 -14c28.667 0 54.334 6.5 77.001 19.5s41.334 31.167 56.001 54.5l47 -34c-26 -34 -53.5 -58.167 -82.5 -72.5s-64.833 -21.5 -107.5 -21.5c-40.667 0 -77 9 -109 27s-56.333 47 -73 87
c-19.333 -41.333 -47 -70.666 -83 -87.999s-76 -26 -120 -26c-20 0 -39.667 2.5 -59 7.5s-36.666 13 -51.999 24s-27.833 25.167 -37.5 42.5s-14.5 38.333 -14.5 63c0 14.667 2.83301 30.5 8.5 47.5s16.5 32.667 32.5 47s38.5 26.333 67.5 36s67.167 14.5 114.5 14.5h115v9z
M274.998 216c-35.333 0 -63.5 -3.33301 -84.5 -10s-37.167 -14.5 -48.5 -23.5s-18.833 -18.667 -22.5 -29s-5.5 -18.833 -5.5 -25.5c0 -14 3.16699 -26.5 9.5 -37.5s14.5 -20 24.5 -27s21.167 -12.333 33.5 -16s24.833 -5.5 37.5 -5.5c30.667 0 57 4.66699 79 14
s40 21.833 54 37.5s24.167 34 30.5 55s9.5 43.5 9.5 67.5h-117zM747.998 270c0 20.667 -3.00195 40.168 -9.00195 58.501s-15 34.166 -27 47.499s-27.167 24 -45.5 32s-40.166 12 -65.499 12c-23.333 0 -44.166 -4 -62.499 -12s-33.833 -18.833 -46.5 -32.5
s-22.5 -29.5 -29.5 -47.5s-10.5 -37.333 -10.5 -58h296z" />
    <glyph glyph-name="ccedilla" unicode="&#xe7;" horiz-adv-x="481" 
d="M467 68c-22.667 -27.333 -48.332 -47.5 -76.999 -60.5s-59.667 -19.5 -93 -19.5c-6 0 -10.667 0.333008 -14 1l-38 -53l2 -2c8.66699 4.66699 19 7 31 7c21.333 0 40.5 -6 57.5 -18s25.5 -30 25.5 -54c0 -15.333 -3.33301 -28.333 -10 -39s-15.5 -19.334 -26.5 -26.001
s-23.167 -11.667 -36.5 -15s-26.333 -5 -39 -5c-33.333 0 -65 7 -95 21l14 32c22 -11.333 47.333 -17 76 -17c6.66699 0 13.667 0.833008 21 2.5s14.166 4.16699 20.499 7.5s11.5 7.66602 15.5 12.999s6 12 6 20c0 15.333 -6 26.166 -18 32.499s-24.667 9.5 -38 9.5
c-15.333 0 -30 -2.66699 -44 -8l-16 15l57 81c-28.667 4.66699 -55 13.834 -79 27.501s-44.5 30.834 -61.5 51.501s-30.167 44.5 -39.5 71.5s-14 56.167 -14 87.5c0 35.333 6 67.833 18 97.5s28.667 55.334 50 77.001s47 38.5 77 50.5s62.667 18 98 18
c34 0 65.5 -7 94.5 -21s54.833 -33.667 77.5 -59l-48 -36c-17.333 19.333 -36.333 34.5 -57 45.5s-43 16.5 -67 16.5c-28 0 -53.333 -5 -76 -15s-42 -23.5 -58 -40.5s-28.167 -37 -36.5 -60s-12.5 -47.5 -12.5 -73.5s4.16699 -50.5 12.5 -73.5s20.5 -43 36.5 -60
s35.333 -30.5 58 -40.5s48 -15 76 -15c25.333 0 48.5 5.83301 69.5 17.5s39.167 27.167 54.5 46.5z" />
    <glyph glyph-name="egrave" unicode="&#xe8;" horiz-adv-x="556" 
d="M488 87c-23.333 -35.333 -52.165 -60.667 -86.498 -76s-72.166 -23 -113.499 -23c-35.333 0 -67.333 6 -96 18s-53.334 28.833 -74.001 50.5s-36.5 47.334 -47.5 77.001s-16.5 62.5 -16.5 98.5c0 34.667 5.66699 66.667 17 96s27.333 54.833 48 76.5s45 38.667 73 51
s59 18.5 93 18.5c35.333 0 66.5 -6.16699 93.5 -18.5s49.667 -28.666 68 -48.999s32.166 -43.5 41.499 -69.5s14 -52.333 14 -79v-42h-388c0 -12.667 2.5 -28.834 7.5 -48.501s14.167 -38.834 27.5 -57.501s31.166 -34.667 53.499 -48s51.166 -20 86.499 -20
c30.667 0 60.334 7.33301 89.001 22s50.667 34.667 66 60zM442.001 269.999c0 20.667 -4.16602 39.998 -12.499 57.998s-19.666 33.833 -33.999 47.5s-31.333 24.5 -51 32.5s-40.5 12 -62.5 12c-32.667 0 -59.834 -6.66699 -81.501 -20s-38.834 -28.666 -51.501 -45.999
s-21.667 -34.166 -27 -50.499s-8 -27.5 -8 -33.5h328zM336.002 563.997h-50l-134 144h80z" />
    <glyph glyph-name="eacute" unicode="&#xe9;" horiz-adv-x="556" 
d="M488 87c-23.333 -35.333 -52.165 -60.667 -86.498 -76s-72.166 -23 -113.499 -23c-35.333 0 -67.333 6 -96 18s-53.334 28.833 -74.001 50.5s-36.5 47.334 -47.5 77.001s-16.5 62.5 -16.5 98.5c0 34.667 5.66699 66.667 17 96s27.333 54.833 48 76.5s45 38.667 73 51
s59 18.5 93 18.5c35.333 0 66.5 -6.16699 93.5 -18.5s49.667 -28.666 68 -48.999s32.166 -43.5 41.499 -69.5s14 -52.333 14 -79v-42h-388c0 -12.667 2.5 -28.834 7.5 -48.501s14.167 -38.834 27.5 -57.501s31.166 -34.667 53.499 -48s51.166 -20 86.499 -20
c30.667 0 60.334 7.33301 89.001 22s50.667 34.667 66 60zM442.001 269.999c0 20.667 -4.16602 39.998 -12.499 57.998s-19.666 33.833 -33.999 47.5s-31.333 24.5 -51 32.5s-40.5 12 -62.5 12c-32.667 0 -59.834 -6.66699 -81.501 -20s-38.834 -28.666 -51.501 -45.999
s-21.667 -34.166 -27 -50.499s-8 -27.5 -8 -33.5h328zM324.002 707.997h80l-134 -144h-50z" />
    <glyph glyph-name="ecircumflex" unicode="&#xea;" horiz-adv-x="556" 
d="M488 87c-23.333 -35.333 -52.165 -60.667 -86.498 -76s-72.166 -23 -113.499 -23c-35.333 0 -67.333 6 -96 18s-53.334 28.833 -74.001 50.5s-36.5 47.334 -47.5 77.001s-16.5 62.5 -16.5 98.5c0 34.667 5.66699 66.667 17 96s27.333 54.833 48 76.5s45 38.667 73 51
s59 18.5 93 18.5c35.333 0 66.5 -6.16699 93.5 -18.5s49.667 -28.666 68 -48.999s32.166 -43.5 41.499 -69.5s14 -52.333 14 -79v-42h-388c0 -12.667 2.5 -28.834 7.5 -48.501s14.167 -38.834 27.5 -57.501s31.166 -34.667 53.499 -48s51.166 -20 86.499 -20
c30.667 0 60.334 7.33301 89.001 22s50.667 34.667 66 60zM442.001 269.999c0 20.667 -4.16602 39.998 -12.499 57.998s-19.666 33.833 -33.999 47.5s-31.333 24.5 -51 32.5s-40.5 12 -62.5 12c-32.667 0 -59.834 -6.66699 -81.501 -20s-38.834 -28.666 -51.501 -45.999
s-21.667 -34.166 -27 -50.499s-8 -27.5 -8 -33.5h328zM243.002 707.997h70l108 -144h-65l-81 108l-81 -108h-59z" />
    <glyph glyph-name="edieresis" unicode="&#xeb;" horiz-adv-x="556" 
d="M488 87c-23.333 -35.333 -52.165 -60.667 -86.498 -76s-72.166 -23 -113.499 -23c-35.333 0 -67.333 6 -96 18s-53.334 28.833 -74.001 50.5s-36.5 47.334 -47.5 77.001s-16.5 62.5 -16.5 98.5c0 34.667 5.66699 66.667 17 96s27.333 54.833 48 76.5s45 38.667 73 51
s59 18.5 93 18.5c35.333 0 66.5 -6.16699 93.5 -18.5s49.667 -28.666 68 -48.999s32.166 -43.5 41.499 -69.5s14 -52.333 14 -79v-42h-388c0 -12.667 2.5 -28.834 7.5 -48.501s14.167 -38.834 27.5 -57.501s31.166 -34.667 53.499 -48s51.166 -20 86.499 -20
c30.667 0 60.334 7.33301 89.001 22s50.667 34.667 66 60zM442.001 269.999c0 20.667 -4.16602 39.998 -12.499 57.998s-19.666 33.833 -33.999 47.5s-31.333 24.5 -51 32.5s-40.5 12 -62.5 12c-32.667 0 -59.834 -6.66699 -81.501 -20s-38.834 -28.666 -51.501 -45.999
s-21.667 -34.166 -27 -50.499s-8 -27.5 -8 -33.5h328zM135.002 651.997c0 13.333 4.66699 24.666 14 33.999s20.666 14 33.999 14s24.666 -4.66699 33.999 -14s14 -20.666 14 -33.999s-4.66699 -24.666 -14 -33.999s-20.666 -14 -33.999 -14s-24.666 4.66699 -33.999 14
s-14 20.666 -14 33.999zM325.002 651.997c0 13.333 4.66699 24.666 14 33.999s20.666 14 33.999 14s24.666 -4.66699 33.999 -14s14 -20.666 14 -33.999s-4.66699 -24.666 -14 -33.999s-20.666 -14 -33.999 -14s-24.666 4.66699 -33.999 14s-14 20.666 -14 33.999z" />
    <glyph glyph-name="igrave" unicode="&#xec;" 
d="M90 462h60v-462h-60v462zM178 564h-50l-134 144h80z" />
    <glyph glyph-name="iacute" unicode="&#xed;" 
d="M90 462h60v-462h-60v462zM166 708h80l-134 -144h-50z" />
    <glyph glyph-name="icircumflex" unicode="&#xee;" 
d="M90 462h60v-462h-60v462zM85 708h70l108 -144h-65l-81 108l-81 -108h-59z" />
    <glyph glyph-name="idieresis" unicode="&#xef;" 
d="M90 462h60v-462h-60v462zM-23 652c0 13.333 4.66699 24.666 14 33.999s20.666 14 33.999 14s24.666 -4.66699 33.999 -14s14 -20.666 14 -33.999s-4.66699 -24.666 -14 -33.999s-20.666 -14 -33.999 -14s-24.666 4.66699 -33.999 14s-14 20.666 -14 33.999zM167 652
c0 13.333 4.66699 24.666 14 33.999s20.666 14 33.999 14s24.666 -4.66699 33.999 -14s14 -20.666 14 -33.999s-4.66699 -24.666 -14 -33.999s-20.666 -14 -33.999 -14s-24.666 4.66699 -33.999 14s-14 20.666 -14 33.999z" />
    <glyph glyph-name="eth" unicode="&#xf0;" horiz-adv-x="594" 
d="M253 660c-15.333 14 -31.6631 28.1621 -48.9961 42.4951s-32.333 26.166 -45 35.499l52 30c15.333 -11.333 31.666 -24.166 48.999 -38.499s32.666 -28.166 45.999 -41.499l104 56l36 -30l-106 -57c14.667 -13.333 33.334 -32 56.001 -56s44.667 -52.833 66 -86.5
s39.666 -72.167 54.999 -115.5s23 -91 23 -143c0 -41.333 -6 -78.666 -18 -111.999s-28.833 -61.5 -50.5 -84.5s-47.334 -40.667 -77.001 -53s-62.167 -18.5 -97.5 -18.5s-68 6 -98 18s-55.667 28.833 -77 50.5s-38 47.334 -50 77.001s-18 62.167 -18 97.5s6 67.833 18 97.5
s28.667 55.334 50 77.001s47 38.5 77 50.5s62.667 18 98 18c28 0 54.5 -4.33301 79.5 -13s48.167 -22.667 69.5 -42l2 2c-25.333 44.667 -52.333 84.834 -81 120.501s-55.334 64.5 -80.001 86.5l-107 -57l-31 33zM114.003 230.995c0 -26 4.16699 -50.5 12.5 -73.5
s20.5 -43 36.5 -60s35.333 -30.5 58 -40.5s48 -15 76 -15s53.333 5 76 15s42 23.5 58 40.5s28.167 37 36.5 60s12.5 47.5 12.5 73.5s-4.16699 50.5 -12.5 73.5s-20.5 43 -36.5 60s-35.333 30.5 -58 40.5s-48 15 -76 15s-53.333 -5 -76 -15s-42 -23.5 -58 -40.5
s-28.167 -37 -36.5 -60s-12.5 -47.5 -12.5 -73.5z" />
    <glyph glyph-name="ntilde" unicode="&#xf1;" horiz-adv-x="556" 
d="M80 332c0 8.66699 -0.333984 19.168 -1.00098 31.501s-1.16699 24.833 -1.5 37.5s-0.833008 24.5 -1.5 35.5s-1 19.5 -1 25.5h60c0.666992 -17.333 1.16699 -34 1.5 -50s1.16602 -26.333 2.49902 -31h3c12 25.333 32 47.166 60 65.499s60.667 27.5 98 27.5
c36 0 65.333 -5.66699 88 -17s40.5 -26.166 53.5 -44.499s22 -39.5 27 -63.5s7.5 -48.667 7.5 -74v-275h-60v272c0 18.667 -1.66699 36.834 -5 54.501s-9.16602 33.5 -17.499 47.5s-20 25.167 -35 33.5s-34.5 12.5 -58.5 12.5c-22 0 -42.833 -3.83301 -62.5 -11.5
s-36.667 -19.334 -51 -35.001s-25.666 -35.334 -33.999 -59.001s-12.5 -51.5 -12.5 -83.5v-231h-60v332zM121.999 581.001c1.33301 11.333 4.33203 23.168 8.99902 35.501s10.667 23.166 18 32.499c7.33301 10 16.333 18.167 27 24.5s22.667 9.5 36 9.5
s26.333 -2.66699 39 -8s24.667 -11 36 -17l33 -15.5c10.667 -5 20.667 -7.5 30 -7.5c14.667 0 25.667 5 33 15s12.333 21 15 33h36c-1.33301 -12 -4 -24.167 -8 -36.5s-9.5 -23.333 -16.5 -33s-15.333 -17.5 -25 -23.5s-21.167 -9 -34.5 -9s-26.166 2.66699 -38.499 8
l-36.5 16l-34.5 16c-11 5.33301 -21.5 8 -31.5 8c-15.333 0 -26.833 -5 -34.5 -15s-13.167 -21 -16.5 -33h-36z" />
    <glyph glyph-name="ograve" unicode="&#xf2;" horiz-adv-x="594" 
d="M54 231c0 35.333 6 67.833 18 97.5s28.667 55.334 50 77.001s47 38.5 77 50.5s62.667 18 98 18s67.833 -6 97.5 -18s55.334 -28.833 77.001 -50.5s38.5 -47.334 50.5 -77.001s18 -62.167 18 -97.5s-6 -67.833 -18 -97.5s-28.833 -55.334 -50.5 -77.001
s-47.334 -38.5 -77.001 -50.5s-62.167 -18 -97.5 -18s-68 6 -98 18s-55.667 28.833 -77 50.5s-38 47.334 -50 77.001s-18 62.167 -18 97.5zM114 231c0 -26 4.16699 -50.5 12.5 -73.5s20.5 -43 36.5 -60s35.333 -30.5 58 -40.5s48 -15 76 -15s53.333 5 76 15s42 23.5 58 40.5
s28.167 37 36.5 60s12.5 47.5 12.5 73.5s-4.16699 50.5 -12.5 73.5s-20.5 43 -36.5 60s-35.333 30.5 -58 40.5s-48 15 -76 15s-53.333 -5 -76 -15s-42 -23.5 -58 -40.5s-28.167 -37 -36.5 -60s-12.5 -47.5 -12.5 -73.5zM355 564h-50l-134 144h80z" />
    <glyph glyph-name="oacute" unicode="&#xf3;" horiz-adv-x="594" 
d="M54 231c0 35.333 6 67.833 18 97.5s28.667 55.334 50 77.001s47 38.5 77 50.5s62.667 18 98 18s67.833 -6 97.5 -18s55.334 -28.833 77.001 -50.5s38.5 -47.334 50.5 -77.001s18 -62.167 18 -97.5s-6 -67.833 -18 -97.5s-28.833 -55.334 -50.5 -77.001
s-47.334 -38.5 -77.001 -50.5s-62.167 -18 -97.5 -18s-68 6 -98 18s-55.667 28.833 -77 50.5s-38 47.334 -50 77.001s-18 62.167 -18 97.5zM114 231c0 -26 4.16699 -50.5 12.5 -73.5s20.5 -43 36.5 -60s35.333 -30.5 58 -40.5s48 -15 76 -15s53.333 5 76 15s42 23.5 58 40.5
s28.167 37 36.5 60s12.5 47.5 12.5 73.5s-4.16699 50.5 -12.5 73.5s-20.5 43 -36.5 60s-35.333 30.5 -58 40.5s-48 15 -76 15s-53.333 -5 -76 -15s-42 -23.5 -58 -40.5s-28.167 -37 -36.5 -60s-12.5 -47.5 -12.5 -73.5zM343 708h80l-134 -144h-50z" />
    <glyph glyph-name="ocircumflex" unicode="&#xf4;" horiz-adv-x="594" 
d="M54 231c0 35.333 6 67.833 18 97.5s28.667 55.334 50 77.001s47 38.5 77 50.5s62.667 18 98 18s67.833 -6 97.5 -18s55.334 -28.833 77.001 -50.5s38.5 -47.334 50.5 -77.001s18 -62.167 18 -97.5s-6 -67.833 -18 -97.5s-28.833 -55.334 -50.5 -77.001
s-47.334 -38.5 -77.001 -50.5s-62.167 -18 -97.5 -18s-68 6 -98 18s-55.667 28.833 -77 50.5s-38 47.334 -50 77.001s-18 62.167 -18 97.5zM114 231c0 -26 4.16699 -50.5 12.5 -73.5s20.5 -43 36.5 -60s35.333 -30.5 58 -40.5s48 -15 76 -15s53.333 5 76 15s42 23.5 58 40.5
s28.167 37 36.5 60s12.5 47.5 12.5 73.5s-4.16699 50.5 -12.5 73.5s-20.5 43 -36.5 60s-35.333 30.5 -58 40.5s-48 15 -76 15s-53.333 -5 -76 -15s-42 -23.5 -58 -40.5s-28.167 -37 -36.5 -60s-12.5 -47.5 -12.5 -73.5zM262 708h70l108 -144h-65l-81 108l-81 -108h-59z" />
    <glyph glyph-name="otilde" unicode="&#xf5;" horiz-adv-x="594" 
d="M54 231c0 35.333 6 67.833 18 97.5s28.667 55.334 50 77.001s47 38.5 77 50.5s62.667 18 98 18s67.833 -6 97.5 -18s55.334 -28.833 77.001 -50.5s38.5 -47.334 50.5 -77.001s18 -62.167 18 -97.5s-6 -67.833 -18 -97.5s-28.833 -55.334 -50.5 -77.001
s-47.334 -38.5 -77.001 -50.5s-62.167 -18 -97.5 -18s-68 6 -98 18s-55.667 28.833 -77 50.5s-38 47.334 -50 77.001s-18 62.167 -18 97.5zM114 231c0 -26 4.16699 -50.5 12.5 -73.5s20.5 -43 36.5 -60s35.333 -30.5 58 -40.5s48 -15 76 -15s53.333 5 76 15s42 23.5 58 40.5
s28.167 37 36.5 60s12.5 47.5 12.5 73.5s-4.16699 50.5 -12.5 73.5s-20.5 43 -36.5 60s-35.333 30.5 -58 40.5s-48 15 -76 15s-53.333 -5 -76 -15s-42 -23.5 -58 -40.5s-28.167 -37 -36.5 -60s-12.5 -47.5 -12.5 -73.5zM141 581
c1.33301 11.333 4.33203 23.168 8.99902 35.501s10.667 23.166 18 32.499c7.33301 10 16.333 18.167 27 24.5s22.667 9.5 36 9.5s26.333 -2.66699 39 -8s24.667 -11 36 -17l33 -15.5c10.667 -5 20.667 -7.5 30 -7.5c14.667 0 25.667 5 33 15s12.333 21 15 33h36
c-1.33301 -12 -4 -24.167 -8 -36.5s-9.5 -23.333 -16.5 -33s-15.333 -17.5 -25 -23.5s-21.167 -9 -34.5 -9s-26.166 2.66699 -38.499 8l-36.5 16l-34.5 16c-11 5.33301 -21.5 8 -31.5 8c-15.333 0 -26.833 -5 -34.5 -15s-13.167 -21 -16.5 -33h-36z" />
    <glyph glyph-name="odieresis" unicode="&#xf6;" horiz-adv-x="594" 
d="M54 231c0 35.333 6 67.833 18 97.5s28.667 55.334 50 77.001s47 38.5 77 50.5s62.667 18 98 18s67.833 -6 97.5 -18s55.334 -28.833 77.001 -50.5s38.5 -47.334 50.5 -77.001s18 -62.167 18 -97.5s-6 -67.833 -18 -97.5s-28.833 -55.334 -50.5 -77.001
s-47.334 -38.5 -77.001 -50.5s-62.167 -18 -97.5 -18s-68 6 -98 18s-55.667 28.833 -77 50.5s-38 47.334 -50 77.001s-18 62.167 -18 97.5zM114 231c0 -26 4.16699 -50.5 12.5 -73.5s20.5 -43 36.5 -60s35.333 -30.5 58 -40.5s48 -15 76 -15s53.333 5 76 15s42 23.5 58 40.5
s28.167 37 36.5 60s12.5 47.5 12.5 73.5s-4.16699 50.5 -12.5 73.5s-20.5 43 -36.5 60s-35.333 30.5 -58 40.5s-48 15 -76 15s-53.333 -5 -76 -15s-42 -23.5 -58 -40.5s-28.167 -37 -36.5 -60s-12.5 -47.5 -12.5 -73.5zM154 652c0 13.333 4.66699 24.666 14 33.999
s20.666 14 33.999 14s24.666 -4.66699 33.999 -14s14 -20.666 14 -33.999s-4.66699 -24.666 -14 -33.999s-20.666 -14 -33.999 -14s-24.666 4.66699 -33.999 14s-14 20.666 -14 33.999zM344 652c0 13.333 4.66699 24.666 14 33.999s20.666 14 33.999 14
s24.666 -4.66699 33.999 -14s14 -20.666 14 -33.999s-4.66699 -24.666 -14 -33.999s-20.666 -14 -33.999 -14s-24.666 4.66699 -33.999 14s-14 20.666 -14 33.999z" />
    <glyph glyph-name="divide" unicode="&#xf7;" horiz-adv-x="666" 
d="M78 327h510v-48h-510v48zM282 457c0 14 5 26 15 36s22 15 36 15s26 -5 36 -15s15 -22 15 -36s-5 -26 -15 -36s-22 -15 -36 -15s-26 5 -36 15s-15 22 -15 36zM282 149c0 14.667 5 26.667 15 36s22 14.333 36 15c14 0 26 -5 36 -15s15 -22 15 -36s-5 -26 -15 -36
s-22 -15 -36 -15s-26 5 -36 15s-15 22 -15 36z" />
    <glyph glyph-name="oslash" unicode="&#xf8;" horiz-adv-x="594" 
d="M109 73c-36.667 42.667 -54.998 95.334 -54.998 158.001c0 35.333 6 67.833 18 97.5s28.667 55.334 50 77.001s47 38.5 77 50.5s62.667 18 98 18c31.333 0 60.166 -4.66699 86.499 -14s49.833 -22.333 70.5 -39l69 70l32 -29l-71 -71c18 -20.667 31.833 -44.5 41.5 -71.5
s14.5 -56.5 14.5 -88.5c0 -35.333 -6 -67.833 -18 -97.5s-28.833 -55.334 -50.5 -77.001s-47.334 -38.5 -77.001 -50.5s-62.167 -18 -97.5 -18c-32 0 -61.333 4.66699 -88 14s-50 22.666 -70 39.999l-68 -69l-32 29zM413.002 380c-15.333 12.667 -32.668 22.5 -52.001 29.5
s-40.666 10.5 -63.999 10.5c-28 0 -53.333 -5 -76 -15s-42 -23.5 -58 -40.5s-28.167 -37 -36.5 -60s-12.5 -47.5 -12.5 -73.5c0 -22 3 -43 9 -63s15 -37.667 27 -53zM180 83c14.667 -13.333 31.833 -23.5 51.5 -30.5s41.5 -10.5 65.5 -10.5c28 0 53.333 5 76 15
s42 23.5 58 40.5s28.167 37 36.5 60s12.5 47.5 12.5 73.5c0 23.333 -3.16699 45 -9.5 65s-15.5 37.667 -27.5 53z" />
    <glyph glyph-name="ugrave" unicode="&#xf9;" horiz-adv-x="556" 
d="M471 130c0 -8.66699 0.333984 -19.168 1.00098 -31.501s1.16699 -24.833 1.5 -37.5s0.833008 -24.5 1.5 -35.5s1 -19.5 1 -25.5h-60c-0.666992 17.333 -1.16699 34 -1.5 50s-1.16602 26.333 -2.49902 31h-3c-12 -25.333 -32 -47.166 -60 -65.499s-60.667 -27.5 -98 -27.5
c-36 0 -65.5 5.66699 -88.5 17s-41 26.166 -54 44.499s-21.833 39.5 -26.5 63.5s-7 48.667 -7 74v275h60v-272c0 -18.667 1.66699 -36.834 5 -54.501s9.16602 -33.5 17.499 -47.5s20 -25.167 35 -33.5s34.5 -12.5 58.5 -12.5c22 0 42.833 3.83301 62.5 11.5
s36.667 19.334 51 35.001s25.666 35.334 33.999 59.001s12.5 51.5 12.5 83.5v231h60v-332zM336.001 563.999h-50l-134 144h80z" />
    <glyph glyph-name="uacute" unicode="&#xfa;" horiz-adv-x="556" 
d="M471 130c0 -8.66699 0.333984 -19.168 1.00098 -31.501s1.16699 -24.833 1.5 -37.5s0.833008 -24.5 1.5 -35.5s1 -19.5 1 -25.5h-60c-0.666992 17.333 -1.16699 34 -1.5 50s-1.16602 26.333 -2.49902 31h-3c-12 -25.333 -32 -47.166 -60 -65.499s-60.667 -27.5 -98 -27.5
c-36 0 -65.5 5.66699 -88.5 17s-41 26.166 -54 44.499s-21.833 39.5 -26.5 63.5s-7 48.667 -7 74v275h60v-272c0 -18.667 1.66699 -36.834 5 -54.501s9.16602 -33.5 17.499 -47.5s20 -25.167 35 -33.5s34.5 -12.5 58.5 -12.5c22 0 42.833 3.83301 62.5 11.5
s36.667 19.334 51 35.001s25.666 35.334 33.999 59.001s12.5 51.5 12.5 83.5v231h60v-332zM324.001 707.999h80l-134 -144h-50z" />
    <glyph glyph-name="ucircumflex" unicode="&#xfb;" horiz-adv-x="556" 
d="M471 130c0 -8.66699 0.333984 -19.168 1.00098 -31.501s1.16699 -24.833 1.5 -37.5s0.833008 -24.5 1.5 -35.5s1 -19.5 1 -25.5h-60c-0.666992 17.333 -1.16699 34 -1.5 50s-1.16602 26.333 -2.49902 31h-3c-12 -25.333 -32 -47.166 -60 -65.499s-60.667 -27.5 -98 -27.5
c-36 0 -65.5 5.66699 -88.5 17s-41 26.166 -54 44.499s-21.833 39.5 -26.5 63.5s-7 48.667 -7 74v275h60v-272c0 -18.667 1.66699 -36.834 5 -54.501s9.16602 -33.5 17.499 -47.5s20 -25.167 35 -33.5s34.5 -12.5 58.5 -12.5c22 0 42.833 3.83301 62.5 11.5
s36.667 19.334 51 35.001s25.666 35.334 33.999 59.001s12.5 51.5 12.5 83.5v231h60v-332zM243.001 707.999h70l108 -144h-65l-81 108l-81 -108h-59z" />
    <glyph glyph-name="udieresis" unicode="&#xfc;" horiz-adv-x="556" 
d="M471 130c0 -8.66699 0.333984 -19.168 1.00098 -31.501s1.16699 -24.833 1.5 -37.5s0.833008 -24.5 1.5 -35.5s1 -19.5 1 -25.5h-60c-0.666992 17.333 -1.16699 34 -1.5 50s-1.16602 26.333 -2.49902 31h-3c-12 -25.333 -32 -47.166 -60 -65.499s-60.667 -27.5 -98 -27.5
c-36 0 -65.5 5.66699 -88.5 17s-41 26.166 -54 44.499s-21.833 39.5 -26.5 63.5s-7 48.667 -7 74v275h60v-272c0 -18.667 1.66699 -36.834 5 -54.501s9.16602 -33.5 17.499 -47.5s20 -25.167 35 -33.5s34.5 -12.5 58.5 -12.5c22 0 42.833 3.83301 62.5 11.5
s36.667 19.334 51 35.001s25.666 35.334 33.999 59.001s12.5 51.5 12.5 83.5v231h60v-332zM135.001 651.999c0 13.333 4.66699 24.666 14 33.999s20.666 14 33.999 14s24.666 -4.66699 33.999 -14s14 -20.666 14 -33.999s-4.66699 -24.666 -14 -33.999
s-20.666 -14 -33.999 -14s-24.666 4.66699 -33.999 14s-14 20.666 -14 33.999zM325.001 651.999c0 13.333 4.66699 24.666 14 33.999s20.666 14 33.999 14s24.666 -4.66699 33.999 -14s14 -20.666 14 -33.999s-4.66699 -24.666 -14 -33.999s-20.666 -14 -33.999 -14
s-24.666 4.66699 -33.999 14s-14 20.666 -14 33.999z" />
    <glyph glyph-name="yacute" unicode="&#xfd;" horiz-adv-x="463" 
d="M210 -143c-11.333 -30 -26.999 -53.668 -46.999 -71.001s-46.667 -26 -80 -26c-10 0 -20 0.833008 -30 2.5s-19.667 3.83398 -29 6.50098l6 56c8.66699 -2.66699 17.5 -5.16699 26.5 -7.5s18.167 -3.5 27.5 -3.5c10.667 0 20.167 2.33301 28.5 7s15.5 10.667 21.5 18
s11.167 15.5 15.5 24.5s8.16602 18.167 11.499 27.5l42 107l-188 464h67l153 -389l149 389h64zM278.001 707.999h80l-134 -144h-50z" />
    <glyph glyph-name="thorn" unicode="&#xfe;" horiz-adv-x="611" 
d="M67 756l60 -0.00195312v-375h2c9.33301 16 21 29.833 35 41.5s29.167 21.334 45.5 29.001s33.5 13.334 51.5 17.001s35.667 5.5 53 5.5c35.333 0 67.833 -6 97.5 -18s55.334 -28.833 77.001 -50.5s38.5 -47.334 50.5 -77.001s18 -62.167 18 -97.5s-6 -67.833 -18 -97.5
s-28.833 -55.334 -50.5 -77.001s-47.334 -38.5 -77.001 -50.5s-62.167 -18 -97.5 -18c-17.333 0 -35 1.83301 -53 5.5s-35.167 9.33398 -51.5 17.001s-31.5 17.334 -45.5 29.001s-25.667 25.5 -35 41.5h-2v-309h-60v984zM121 230.998c0 -26 5 -50.5 15 -73.5
s23.667 -43 41 -60s37.666 -30.5 60.999 -40.5s48.666 -15 75.999 -15c28 0 53.333 5 76 15s42 23.5 58 40.5s28.167 37 36.5 60s12.5 47.5 12.5 73.5s-4.16699 50.5 -12.5 73.5s-20.5 43 -36.5 60s-35.333 30.5 -58 40.5s-48 15 -76 15c-27.333 0 -52.666 -5 -75.999 -15
s-43.666 -23.5 -60.999 -40.5s-31 -37 -41 -60s-15 -47.5 -15 -73.5z" />
    <glyph glyph-name="ydieresis" unicode="&#xff;" horiz-adv-x="463" 
d="M210 -143c-11.333 -30 -26.999 -53.668 -46.999 -71.001s-46.667 -26 -80 -26c-10 0 -20 0.833008 -30 2.5s-19.667 3.83398 -29 6.50098l6 56c8.66699 -2.66699 17.5 -5.16699 26.5 -7.5s18.167 -3.5 27.5 -3.5c10.667 0 20.167 2.33301 28.5 7s15.5 10.667 21.5 18
s11.167 15.5 15.5 24.5s8.16602 18.167 11.499 27.5l42 107l-188 464h67l153 -389l149 389h64zM89.001 651.999c0 13.333 4.66699 24.666 14 33.999s20.666 14 33.999 14s24.666 -4.66699 33.999 -14s14 -20.666 14 -33.999s-4.66699 -24.666 -14 -33.999
s-20.666 -14 -33.999 -14s-24.666 4.66699 -33.999 14s-14 20.666 -14 33.999zM279.001 651.999c0 13.333 4.66699 24.666 14 33.999s20.666 14 33.999 14s24.666 -4.66699 33.999 -14s14 -20.666 14 -33.999s-4.66699 -24.666 -14 -33.999s-20.666 -14 -33.999 -14
s-24.666 4.66699 -33.999 14s-14 20.666 -14 33.999z" />
    <glyph glyph-name="Amacron" unicode="&#x100;" horiz-adv-x="685" 
d="M314 708h68l298 -708h-74l-77 188h-375l-80 -188h-69zM345 636l-165 -388h325zM477 799h-264v48h264v-48z" />
    <glyph glyph-name="amacron" unicode="&#x101;" horiz-adv-x="519" 
d="M439 194c0 -22.667 0.165039 -43.002 0.498047 -61.002s0.833008 -34.667 1.5 -50s1.5 -29.666 2.5 -42.999s2.5 -26.666 4.5 -39.999h-56c-4 22.667 -6 47.667 -6 75h-2c-17.333 -30 -38.833 -52 -64.5 -66s-58.167 -21 -97.5 -21c-20 0 -39.667 2.5 -59 7.5
s-36.666 13 -51.999 24s-27.833 25.167 -37.5 42.5s-14.5 38.333 -14.5 63c0 35.333 9 63.333 27 84s40.167 36.167 66.5 46.5s54.333 17 84 20s55.834 4.5 78.501 4.5h70v28c0 40 -12.333 68.667 -37 86s-55.667 26 -93 26c-53.333 0 -100.333 -17.333 -141 -52l-35 41
c22 21.333 49.333 37.5 82 48.5s64 16.5 94 16.5c56 0 100.667 -13.167 134 -39.5s50 -68.833 50 -127.5v-113zM318.998 231.998c-25.333 0 -49.833 -1.66699 -73.5 -5s-45 -9 -64 -17s-34.167 -18.667 -45.5 -32s-17 -30 -17 -50c0 -14 3.16699 -26.5 9.5 -37.5
s14.5 -20 24.5 -27s21.167 -12.333 33.5 -16s24.833 -5.5 37.5 -5.5c32 0 58.333 4.66699 79 14s37.167 21.5 49.5 36.5s20.833 32 25.5 51s7 38.167 7 57.5v31h-66zM403.998 605.998h-264v48h264v-48z" />
    <glyph glyph-name="Abreve" unicode="&#x102;" horiz-adv-x="685" 
d="M314 708h68l298 -708h-74l-77 188h-375l-80 -188h-69zM345 636l-165 -388h325zM262 881c4 -26.667 15.167 -46.333 33.5 -59s40.5 -19 66.5 -19c30 0 53.167 5.5 69.5 16.5s27.833 31.5 34.5 61.5h42c-4.66699 -40 -20.167 -71 -46.5 -93s-59.5 -33 -99.5 -33
s-73.167 11 -99.5 33s-40.5 53 -42.5 93h42z" />
    <glyph glyph-name="abreve" unicode="&#x103;" horiz-adv-x="519" 
d="M439 194c0 -22.667 0.165039 -43.002 0.498047 -61.002s0.833008 -34.667 1.5 -50s1.5 -29.666 2.5 -42.999s2.5 -26.666 4.5 -39.999h-56c-4 22.667 -6 47.667 -6 75h-2c-17.333 -30 -38.833 -52 -64.5 -66s-58.167 -21 -97.5 -21c-20 0 -39.667 2.5 -59 7.5
s-36.666 13 -51.999 24s-27.833 25.167 -37.5 42.5s-14.5 38.333 -14.5 63c0 35.333 9 63.333 27 84s40.167 36.167 66.5 46.5s54.333 17 84 20s55.834 4.5 78.501 4.5h70v28c0 40 -12.333 68.667 -37 86s-55.667 26 -93 26c-53.333 0 -100.333 -17.333 -141 -52l-35 41
c22 21.333 49.333 37.5 82 48.5s64 16.5 94 16.5c56 0 100.667 -13.167 134 -39.5s50 -68.833 50 -127.5v-113zM318.998 231.998c-25.333 0 -49.833 -1.66699 -73.5 -5s-45 -9 -64 -17s-34.167 -18.667 -45.5 -32s-17 -30 -17 -50c0 -14 3.16699 -26.5 9.5 -37.5
s14.5 -20 24.5 -27s21.167 -12.333 33.5 -16s24.833 -5.5 37.5 -5.5c32 0 58.333 4.66699 79 14s37.167 21.5 49.5 36.5s20.833 32 25.5 51s7 38.167 7 57.5v31h-66zM169.998 707.998c4 -26.667 15.167 -46.332 33.5 -58.999s40.5 -19 66.5 -19c30 0 53.167 5.66699 69.5 17
s27.833 31.666 34.5 60.999h42c-4.66699 -40 -20.167 -71 -46.5 -93s-59.5 -33 -99.5 -33c-39.333 0 -72.333 11 -99 33s-41 53 -43 93h42z" />
    <glyph glyph-name="Aogonek" unicode="&#x104;" horiz-adv-x="685" 
d="M695 -183c-10.667 -9.33301 -22.833 -17.166 -36.5 -23.499s-29.834 -9.5 -48.501 -9.5c-26.667 0 -48.667 7.33301 -66 22s-26 34.667 -26 60c0 14 2.66699 27.333 8 40s12.166 24.5 20.499 35.5s17.833 21.5 28.5 31.5s21 19 31 27l-77 188h-375l-80 -188h-69l309 708
h68l298 -708h-29c-7.33301 -5.33301 -15.166 -12.333 -23.499 -21s-16.166 -18.334 -23.499 -29.001s-13.5 -22 -18.5 -34s-7.5 -24.333 -7.5 -37c0 -31.333 14.333 -47 43 -47c14 0 25.5 2.5 34.5 7.5s15.833 10.167 20.5 15.5zM345.001 636l-165 -388h325z" />
    <glyph glyph-name="aogonek" unicode="&#x105;" horiz-adv-x="519" 
d="M481 -183c-10.667 -9.33301 -22.8311 -17.168 -36.498 -23.501s-29.834 -9.5 -48.501 -9.5c-26.667 0 -48.667 7.33301 -66 22s-26 34.667 -26 60c0 14 2.66699 27.333 8 40s12.166 24.5 20.499 35.5s17.833 21.5 28.5 31.5s21 19 31 27c-4 22.667 -6 47.667 -6 75h-2
c-17.333 -30 -38.666 -52 -63.999 -66s-58 -21 -98 -21c-20 0 -39.667 2.5 -59 7.5s-36.666 13 -51.999 24s-27.833 25.167 -37.5 42.5s-14.5 38.333 -14.5 63c0 35.333 9 63.333 27 84s40.167 36.167 66.5 46.5s54.166 17 83.499 20s55.666 4.5 78.999 4.5h70v28
c0 40 -12.167 68.667 -36.5 86s-55.5 26 -93.5 26c-53.333 0 -100.333 -17.333 -141 -52l-35 41c22 21.333 49.333 37.5 82 48.5s64 16.5 94 16.5c56 0 100.667 -13.167 134 -39.5s50 -68.833 50 -127.5v-113c0 -22.667 0.166992 -43 0.5 -61s0.666016 -34.667 0.999023 -50
s1.16602 -29.666 2.49902 -42.999s3 -26.666 5 -39.999h-11c-7.33301 -5.33301 -15.166 -12.333 -23.499 -21s-16.166 -18.334 -23.499 -29.001s-13.5 -22 -18.5 -34s-7.5 -24.333 -7.5 -37c0 -31.333 14.333 -47 43 -47c14 0 25.5 2.5 34.5 7.5s15.833 10.167 20.5 15.5z
M319.003 231.998c-25.333 0 -49.833 -1.66699 -73.5 -5s-45 -9 -64 -17s-34.167 -18.667 -45.5 -32s-17 -30 -17 -50c0 -14 3.16699 -26.5 9.5 -37.5s14.5 -20 24.5 -27s21.167 -12.333 33.5 -16s24.833 -5.5 37.5 -5.5c32 0 58.333 4.66699 79 14s37.167 21.5 49.5 36.5
s20.833 32 25.5 51s7 38.167 7 57.5v31h-66z" />
    <glyph glyph-name="Cacute" unicode="&#x106;" horiz-adv-x="704" 
d="M680 111c-34 -46 -73.333 -78.999 -118 -98.999s-93 -30 -145 -30c-54 0 -103.5 9.16699 -148.5 27.5s-83.5 44 -115.5 77s-57 72.333 -75 118s-27 95.5 -27 149.5s9 103.667 27 149s43 84.5 75 117.5s70.5 58.833 115.5 77.5s94.5 28 148.5 28
c48 0 92.833 -8.5 134.5 -25.5s78.167 -45.5 109.5 -85.5l-54 -45c-22 33.333 -50.167 57.666 -84.5 72.999s-69.5 23 -105.5 23c-46 0 -87.5 -8 -124.5 -24s-68.5 -38 -94.5 -66s-46 -61 -60 -99s-21 -79 -21 -123s7 -85 21 -123s34 -71 60 -99s57.5 -50 94.5 -66
s78.5 -24 124.5 -24c18 0 36.667 2.16699 56 6.5s38.166 11 56.499 20s35.833 20.333 52.5 34s31.334 30.167 44.001 49.5zM445 896.001h80l-134 -144h-50z" />
    <glyph glyph-name="cacute" unicode="&#x107;" horiz-adv-x="481" 
d="M467 68c-22.667 -27.333 -48.333 -47.502 -77 -60.502s-59.667 -19.5 -93 -19.5c-35.333 0 -68 6 -98 18s-55.667 28.833 -77 50.5s-38 47.334 -50 77.001s-18 62.167 -18 97.5s6 67.833 18 97.5s28.667 55.334 50 77.001s47 38.5 77 50.5s62.667 18 98 18
c34 0 65.5 -7 94.5 -21s54.833 -33.667 77.5 -59l-48 -36c-17.333 19.333 -36.333 34.5 -57 45.5s-43 16.5 -67 16.5c-28 0 -53.333 -5 -76 -15s-42 -23.5 -58 -40.5s-28.167 -37 -36.5 -60s-12.5 -47.5 -12.5 -73.5s4.16699 -50.5 12.5 -73.5s20.5 -43 36.5 -60
s35.333 -30.5 58 -40.5s48 -15 76 -15c25.333 0 48.5 5.83301 69.5 17.5s39.167 27.167 54.5 46.5zM341.001 707.998h80l-134 -144h-50z" />
    <glyph glyph-name="Ccircumflex" unicode="&#x108;" horiz-adv-x="704" 
d="M680 111c-34 -46 -73.333 -78.999 -118 -98.999s-93 -30 -145 -30c-54 0 -103.5 9.16699 -148.5 27.5s-83.5 44 -115.5 77s-57 72.333 -75 118s-27 95.5 -27 149.5s9 103.667 27 149s43 84.5 75 117.5s70.5 58.833 115.5 77.5s94.5 28 148.5 28
c48 0 92.833 -8.5 134.5 -25.5s78.167 -45.5 109.5 -85.5l-54 -45c-22 33.333 -50.167 57.666 -84.5 72.999s-69.5 23 -105.5 23c-46 0 -87.5 -8 -124.5 -24s-68.5 -38 -94.5 -66s-46 -61 -60 -99s-21 -79 -21 -123s7 -85 21 -123s34 -71 60 -99s57.5 -50 94.5 -66
s78.5 -24 124.5 -24c18 0 36.667 2.16699 56 6.5s38.166 11 56.499 20s35.833 20.333 52.5 34s31.334 30.167 44.001 49.5zM382 896.001h70l108 -144h-65l-81 108l-81 -108h-59z" />
    <glyph glyph-name="ccircumflex" unicode="&#x109;" horiz-adv-x="481" 
d="M467 68c-22.667 -27.333 -48.333 -47.502 -77 -60.502s-59.667 -19.5 -93 -19.5c-35.333 0 -68 6 -98 18s-55.667 28.833 -77 50.5s-38 47.334 -50 77.001s-18 62.167 -18 97.5s6 67.833 18 97.5s28.667 55.334 50 77.001s47 38.5 77 50.5s62.667 18 98 18
c34 0 65.5 -7 94.5 -21s54.833 -33.667 77.5 -59l-48 -36c-17.333 19.333 -36.333 34.5 -57 45.5s-43 16.5 -67 16.5c-28 0 -53.333 -5 -76 -15s-42 -23.5 -58 -40.5s-28.167 -37 -36.5 -60s-12.5 -47.5 -12.5 -73.5s4.16699 -50.5 12.5 -73.5s20.5 -43 36.5 -60
s35.333 -30.5 58 -40.5s48 -15 76 -15c25.333 0 48.5 5.83301 69.5 17.5s39.167 27.167 54.5 46.5zM259.001 707.998h70l108 -144h-65l-81 108l-81 -108h-59z" />
    <glyph glyph-name="Cdotaccent" unicode="&#x10a;" horiz-adv-x="704" 
d="M680 111c-34 -46 -73.333 -78.999 -118 -98.999s-93 -30 -145 -30c-54 0 -103.5 9.16699 -148.5 27.5s-83.5 44 -115.5 77s-57 72.333 -75 118s-27 95.5 -27 149.5s9 103.667 27 149s43 84.5 75 117.5s70.5 58.833 115.5 77.5s94.5 28 148.5 28
c48 0 92.833 -8.5 134.5 -25.5s78.167 -45.5 109.5 -85.5l-54 -45c-22 33.333 -50.167 57.666 -84.5 72.999s-69.5 23 -105.5 23c-46 0 -87.5 -8 -124.5 -24s-68.5 -38 -94.5 -66s-46 -61 -60 -99s-21 -79 -21 -123s7 -85 21 -123s34 -71 60 -99s57.5 -50 94.5 -66
s78.5 -24 124.5 -24c18 0 36.667 2.16699 56 6.5s38.166 11 56.499 20s35.833 20.333 52.5 34s31.334 30.167 44.001 49.5zM372 840.001c0 13.333 4.66699 24.666 14 33.999s20.666 14 33.999 14s24.666 -4.66699 33.999 -14s14 -20.666 14 -33.999
s-4.66699 -24.666 -14 -33.999s-20.666 -14 -33.999 -14s-24.666 4.66699 -33.999 14s-14 20.666 -14 33.999z" />
    <glyph glyph-name="cdotaccent" unicode="&#x10b;" horiz-adv-x="481" 
d="M467 68c-22.667 -27.333 -48.333 -47.502 -77 -60.502s-59.667 -19.5 -93 -19.5c-35.333 0 -68 6 -98 18s-55.667 28.833 -77 50.5s-38 47.334 -50 77.001s-18 62.167 -18 97.5s6 67.833 18 97.5s28.667 55.334 50 77.001s47 38.5 77 50.5s62.667 18 98 18
c34 0 65.5 -7 94.5 -21s54.833 -33.667 77.5 -59l-48 -36c-17.333 19.333 -36.333 34.5 -57 45.5s-43 16.5 -67 16.5c-28 0 -53.333 -5 -76 -15s-42 -23.5 -58 -40.5s-28.167 -37 -36.5 -60s-12.5 -47.5 -12.5 -73.5s4.16699 -50.5 12.5 -73.5s20.5 -43 36.5 -60
s35.333 -30.5 58 -40.5s48 -15 76 -15c25.333 0 48.5 5.83301 69.5 17.5s39.167 27.167 54.5 46.5zM249.001 651.998c0 13.333 4.66699 24.666 14 33.999s20.666 14 33.999 14s24.666 -4.66699 33.999 -14s14 -20.666 14 -33.999s-4.66699 -24.666 -14 -33.999
s-20.666 -14 -33.999 -14s-24.666 4.66699 -33.999 14s-14 20.666 -14 33.999z" />
    <glyph glyph-name="Ccaron" unicode="&#x10c;" horiz-adv-x="704" 
d="M680 111c-34 -46 -73.333 -78.999 -118 -98.999s-93 -30 -145 -30c-54 0 -103.5 9.16699 -148.5 27.5s-83.5 44 -115.5 77s-57 72.333 -75 118s-27 95.5 -27 149.5s9 103.667 27 149s43 84.5 75 117.5s70.5 58.833 115.5 77.5s94.5 28 148.5 28
c48 0 92.833 -8.5 134.5 -25.5s78.167 -45.5 109.5 -85.5l-54 -45c-22 33.333 -50.167 57.666 -84.5 72.999s-69.5 23 -105.5 23c-46 0 -87.5 -8 -124.5 -24s-68.5 -38 -94.5 -66s-46 -61 -60 -99s-21 -79 -21 -123s7 -85 21 -123s34 -71 60 -99s57.5 -50 94.5 -66
s78.5 -24 124.5 -24c18 0 36.667 2.16699 56 6.5s38.166 11 56.499 20s35.833 20.333 52.5 34s31.334 30.167 44.001 49.5zM450 752.001h-70l-109 144h62l83 -114l86 114h54z" />
    <glyph glyph-name="ccaron" unicode="&#x10d;" horiz-adv-x="481" 
d="M467 68c-22.667 -27.333 -48.333 -47.502 -77 -60.502s-59.667 -19.5 -93 -19.5c-35.333 0 -68 6 -98 18s-55.667 28.833 -77 50.5s-38 47.334 -50 77.001s-18 62.167 -18 97.5s6 67.833 18 97.5s28.667 55.334 50 77.001s47 38.5 77 50.5s62.667 18 98 18
c34 0 65.5 -7 94.5 -21s54.833 -33.667 77.5 -59l-48 -36c-17.333 19.333 -36.333 34.5 -57 45.5s-43 16.5 -67 16.5c-28 0 -53.333 -5 -76 -15s-42 -23.5 -58 -40.5s-28.167 -37 -36.5 -60s-12.5 -47.5 -12.5 -73.5s4.16699 -50.5 12.5 -73.5s20.5 -43 36.5 -60
s35.333 -30.5 58 -40.5s48 -15 76 -15c25.333 0 48.5 5.83301 69.5 17.5s39.167 27.167 54.5 46.5zM327.001 563.998h-70l-109 144h62l83 -114l86 114h54z" />
    <glyph glyph-name="Dcaron" unicode="&#x10e;" horiz-adv-x="741" 
d="M88 708l219 -0.00195312c61.333 0 113.333 -7.5 156 -22.5s78.167 -34.167 106.5 -57.5s50.666 -49.166 66.999 -77.499s28.333 -55.5 36 -81.5s12.5 -49.5 14.5 -70.5s3 -35.833 3 -44.5s-1 -23.5 -3 -44.5s-6.83301 -44.5 -14.5 -70.5s-19.667 -53.167 -36 -81.5
s-38.666 -54.166 -66.999 -77.499s-63.833 -42.5 -106.5 -57.5s-94.667 -22.5 -156 -22.5h-219v708zM154 59.998h136c46.667 0 90.334 5.83301 131.001 17.5s76 29.5 106 53.5s53.667 54.5 71 91.5s26 80.833 26 131.5s-8.66699 94.5 -26 131.5s-41 67.5 -71 91.5
s-65.333 41.833 -106 53.5s-84.334 17.5 -131.001 17.5h-136v-588zM360 751.998h-70l-109 144h62l83 -114l86 114h54z" />
    <glyph glyph-name="dcaron" unicode="&#x10f;" horiz-adv-x="611" 
d="M484 81l-2 0.00195312c-9.33301 -16 -21 -29.833 -35 -41.5s-29.167 -21.334 -45.5 -29.001s-33.5 -13.334 -51.5 -17.001s-35.667 -5.5 -53 -5.5c-35.333 0 -68 6 -98 18s-55.667 28.833 -77 50.5s-38 47.334 -50 77.001s-18 62.167 -18 97.5s6 67.833 18 97.5
s28.667 55.334 50 77.001s47 38.5 77 50.5s62.667 18 98 18c17.333 0 35 -1.83301 53 -5.5s35.167 -9.33398 51.5 -17.001s31.5 -17.334 45.5 -29.001s25.667 -25.5 35 -41.5h2v375h60v-756h-60v81zM490 231.002c0 26 -5 50.5 -15 73.5s-23.667 43 -41 60
s-37.666 30.5 -60.999 40.5s-48.666 15 -75.999 15c-28 0 -53.333 -5 -76 -15s-42 -23.5 -58 -40.5s-28.167 -37 -36.5 -60s-12.5 -47.5 -12.5 -73.5s4.16699 -50.5 12.5 -73.5s20.5 -43 36.5 -60s35.333 -30.5 58 -40.5s48 -15 76 -15c27.333 0 52.666 5 75.999 15
s43.666 23.5 60.999 40.5s31 37 41 60s15 47.5 15 73.5zM668 708.002h65l-63 -185h-53z" />
    <glyph glyph-name="Dcroat" unicode="&#x110;" horiz-adv-x="741" 
d="M154 396h258v-54h-258v-282h136c46.667 0 90.334 5.83301 131.001 17.5s76 29.5 106 53.5s53.667 54.5 71 91.5s26 80.833 26 131.5s-8.66699 94.5 -26 131.5s-41 67.5 -71 91.5s-65.333 41.833 -106 53.5s-84.334 17.5 -131.001 17.5h-136v-252zM88 342l-78 -0.00195312
v54h78v312h219c61.333 0 113.333 -7.5 156 -22.5s78.167 -34.167 106.5 -57.5s50.666 -49.166 66.999 -77.499s28.333 -55.5 36 -81.5s12.5 -49.5 14.5 -70.5s3 -35.833 3 -44.5s-1 -23.5 -3 -44.5s-6.83301 -44.5 -14.5 -70.5s-19.667 -53.167 -36 -81.5
s-38.666 -54.166 -66.999 -77.499s-63.833 -42.5 -106.5 -57.5s-94.667 -22.5 -156 -22.5h-219v342z" />
    <glyph glyph-name="dcroat" unicode="&#x111;" horiz-adv-x="611" 
d="M484 81l-2 0.00195312c-9.33301 -16 -21 -29.833 -35 -41.5s-29.167 -21.334 -45.5 -29.001s-33.5 -13.334 -51.5 -17.001s-35.667 -5.5 -53 -5.5c-35.333 0 -68 6 -98 18s-55.667 28.833 -77 50.5s-38 47.334 -50 77.001s-18 62.167 -18 97.5s6 67.833 18 97.5
s28.667 55.334 50 77.001s47 38.5 77 50.5s62.667 18 98 18c17.333 0 35 -1.83301 53 -5.5s35.167 -9.33398 51.5 -17.001s31.5 -17.334 45.5 -29.001s25.667 -25.5 35 -41.5h2v200h-162v53h162v122h60v-122h72v-53h-72v-581h-60v81zM490 231.002c0 26 -5 50.5 -15 73.5
s-23.667 43 -41 60s-37.833 30.5 -61.5 40.5s-48.834 15 -75.501 15c-28 0 -53.333 -5 -76 -15s-42 -23.5 -58 -40.5s-28.167 -37 -36.5 -60s-12.5 -47.5 -12.5 -73.5s4.16699 -50.5 12.5 -73.5s20.5 -43 36.5 -60s35.333 -30.5 58 -40.5s48 -15 76 -15
c26.667 0 51.834 5 75.501 15s44.167 23.5 61.5 40.5s31 37 41 60s15 47.5 15 73.5z" />
    <glyph glyph-name="Emacron" unicode="&#x112;" horiz-adv-x="593" 
d="M97 708h433v-60h-367v-252h344v-60h-344v-276h383v-60h-449v708zM453 799h-264v48h264v-48z" />
    <glyph glyph-name="emacron" unicode="&#x113;" horiz-adv-x="556" 
d="M488 87c-23.333 -35.333 -52.165 -60.667 -86.498 -76s-72.166 -23 -113.499 -23c-35.333 0 -67.333 6 -96 18s-53.334 28.833 -74.001 50.5s-36.5 47.334 -47.5 77.001s-16.5 62.5 -16.5 98.5c0 34.667 5.66699 66.667 17 96s27.333 54.833 48 76.5s45 38.667 73 51
s59 18.5 93 18.5c35.333 0 66.5 -6.16699 93.5 -18.5s49.667 -28.666 68 -48.999s32.166 -43.5 41.499 -69.5s14 -52.333 14 -79v-42h-388c0 -12.667 2.5 -28.834 7.5 -48.501s14.167 -38.834 27.5 -57.501s31.166 -34.667 53.499 -48s51.166 -20 86.499 -20
c30.667 0 60.334 7.33301 89.001 22s50.667 34.667 66 60zM442.001 269.999c0 20.667 -4.16602 39.998 -12.499 57.998s-19.666 33.833 -33.999 47.5s-31.333 24.5 -51 32.5s-40.5 12 -62.5 12c-32.667 0 -59.834 -6.66699 -81.501 -20s-38.834 -28.666 -51.501 -45.999
s-21.667 -34.166 -27 -50.499s-8 -27.5 -8 -33.5h328zM426.002 605.997h-264v48h264v-48z" />
    <glyph glyph-name="Ebreve" unicode="&#x114;" horiz-adv-x="593" 
d="M97 708h433v-60h-367v-252h344v-60h-344v-276h383v-60h-449v708zM219 881c4 -26.667 15.167 -46.333 33.5 -59s40.5 -19 66.5 -19c30 0 53.167 5.5 69.5 16.5s27.833 31.5 34.5 61.5h42c-4.66699 -40 -20.167 -71 -46.5 -93s-59.5 -33 -99.5 -33s-73.167 11 -99.5 33
s-40.5 53 -42.5 93h42z" />
    <glyph glyph-name="ebreve" unicode="&#x115;" horiz-adv-x="556" 
d="M488 87c-23.333 -35.333 -52.165 -60.667 -86.498 -76s-72.166 -23 -113.499 -23c-35.333 0 -67.333 6 -96 18s-53.334 28.833 -74.001 50.5s-36.5 47.334 -47.5 77.001s-16.5 62.5 -16.5 98.5c0 34.667 5.66699 66.667 17 96s27.333 54.833 48 76.5s45 38.667 73 51
s59 18.5 93 18.5c35.333 0 66.5 -6.16699 93.5 -18.5s49.667 -28.666 68 -48.999s32.166 -43.5 41.499 -69.5s14 -52.333 14 -79v-42h-388c0 -12.667 2.5 -28.834 7.5 -48.501s14.167 -38.834 27.5 -57.501s31.166 -34.667 53.499 -48s51.166 -20 86.499 -20
c30.667 0 60.334 7.33301 89.001 22s50.667 34.667 66 60zM442.001 269.999c0 20.667 -4.16602 39.998 -12.499 57.998s-19.666 33.833 -33.999 47.5s-31.333 24.5 -51 32.5s-40.5 12 -62.5 12c-32.667 0 -59.834 -6.66699 -81.501 -20s-38.834 -28.666 -51.501 -45.999
s-21.667 -34.166 -27 -50.499s-8 -27.5 -8 -33.5h328zM192.002 707.997c4 -26.667 15.167 -46.332 33.5 -58.999s40.5 -19 66.5 -19c30 0 53.167 5.66699 69.5 17s27.833 31.666 34.5 60.999h42c-4.66699 -40 -20.167 -71 -46.5 -93s-59.5 -33 -99.5 -33
c-39.333 0 -72.333 11 -99 33s-41 53 -43 93h42z" />
    <glyph glyph-name="Edotaccent" unicode="&#x116;" horiz-adv-x="593" 
d="M97 708h433v-60h-367v-252h344v-60h-344v-276h383v-60h-449v708zM276 840c0 13.333 4.66699 24.666 14 33.999s20.666 14 33.999 14s24.666 -4.66699 33.999 -14s14 -20.666 14 -33.999s-4.66699 -24.666 -14 -33.999s-20.666 -14 -33.999 -14
s-24.666 4.66699 -33.999 14s-14 20.666 -14 33.999z" />
    <glyph glyph-name="edotaccent" unicode="&#x117;" horiz-adv-x="556" 
d="M488 87c-23.333 -35.333 -52.165 -60.667 -86.498 -76s-72.166 -23 -113.499 -23c-35.333 0 -67.333 6 -96 18s-53.334 28.833 -74.001 50.5s-36.5 47.334 -47.5 77.001s-16.5 62.5 -16.5 98.5c0 34.667 5.66699 66.667 17 96s27.333 54.833 48 76.5s45 38.667 73 51
s59 18.5 93 18.5c35.333 0 66.5 -6.16699 93.5 -18.5s49.667 -28.666 68 -48.999s32.166 -43.5 41.499 -69.5s14 -52.333 14 -79v-42h-388c0 -12.667 2.5 -28.834 7.5 -48.501s14.167 -38.834 27.5 -57.501s31.166 -34.667 53.499 -48s51.166 -20 86.499 -20
c30.667 0 60.334 7.33301 89.001 22s50.667 34.667 66 60zM442.001 269.999c0 20.667 -4.16602 39.998 -12.499 57.998s-19.666 33.833 -33.999 47.5s-31.333 24.5 -51 32.5s-40.5 12 -62.5 12c-32.667 0 -59.834 -6.66699 -81.501 -20s-38.834 -28.666 -51.501 -45.999
s-21.667 -34.166 -27 -50.499s-8 -27.5 -8 -33.5h328zM249.002 651.997c0 13.333 4.66699 24.666 14 33.999s20.666 14 33.999 14s24.666 -4.66699 33.999 -14s14 -20.666 14 -33.999s-4.66699 -24.666 -14 -33.999s-20.666 -14 -33.999 -14s-24.666 4.66699 -33.999 14
s-14 20.666 -14 33.999z" />
    <glyph glyph-name="Eogonek" unicode="&#x118;" horiz-adv-x="593" 
d="M97 708h433.001v-60h-367v-252h344v-60h-344v-276h383v-60h-52c-7.33301 -5.33301 -15.166 -12.333 -23.499 -21s-16.166 -18.334 -23.499 -29.001s-13.5 -22 -18.5 -34s-7.5 -24.333 -7.5 -37c0 -31.333 14.333 -47 43 -47c14 0 25.5 2.5 34.5 7.5
s15.833 10.167 20.5 15.5l19 -38c-10.667 -9.33301 -22.834 -17.166 -36.501 -23.499s-29.834 -9.5 -48.501 -9.5c-26.667 0 -48.667 7.33301 -66 22s-26 34.667 -26 60c0 14 2.66699 27.333 8 40s12.166 24.5 20.499 35.5s17.833 21.5 28.5 31.5s21 19 31 27h-352v708z" />
    <glyph glyph-name="eogonek" unicode="&#x119;" horiz-adv-x="556" 
d="M388 -183c-10.667 -9.33301 -22.8291 -17.166 -36.4961 -23.499s-29.834 -9.5 -48.501 -9.5c-26.667 0 -48.667 7.33301 -66 22s-26 34.667 -26 60c0 24.667 7.5 47.334 22.5 68.001s31.833 38.667 50.5 54c-34.667 0.666992 -66.167 7.16699 -94.5 19.5
s-52.5 29.166 -72.5 50.499s-35.5 46.833 -46.5 76.5s-16.5 62.167 -16.5 97.5c0 34.667 5.66699 66.667 17 96s27.333 54.833 48 76.5s45 38.667 73 51s59 18.5 93 18.5c35.333 0 66.5 -6.16699 93.5 -18.5s49.667 -28.666 68 -48.999s32.166 -43.5 41.499 -69.5
s14 -52.333 14 -79v-42h-388c0 -12.667 2.5 -28.834 7.5 -48.501s14.167 -38.834 27.5 -57.501s31.166 -34.667 53.499 -48s51.166 -20 86.499 -20c15.333 0 30.5 1.83301 45.5 5.5s29.333 9 43 16s26.167 15.667 37.5 26s21 21.833 29 34.5l44 -37
c-19.333 -28.667 -42 -50.667 -68 -66s-55 -25.333 -87 -30c-14 -12 -27.833 -28 -41.5 -48s-20.5 -41.333 -20.5 -64c0 -31.333 14.333 -47 43 -47c14 0 25.5 2.5 34.5 7.5s15.833 10.167 20.5 15.5zM442.005 270c0 20.667 -4.16602 39.998 -12.499 57.998
s-19.666 33.833 -33.999 47.5s-31.333 24.5 -51 32.5s-40.5 12 -62.5 12c-32.667 0 -59.834 -6.66699 -81.501 -20s-38.834 -28.666 -51.501 -45.999s-21.667 -34.166 -27 -50.499s-8 -27.5 -8 -33.5h328z" />
    <glyph glyph-name="Ecaron" unicode="&#x11a;" horiz-adv-x="593" 
d="M97 708h433v-60h-367v-252h344v-60h-344v-276h383v-60h-449v708zM354 752h-70l-109 144h62l83 -114l86 114h54z" />
    <glyph glyph-name="ecaron" unicode="&#x11b;" horiz-adv-x="556" 
d="M488 87c-23.333 -35.333 -52.165 -60.667 -86.498 -76s-72.166 -23 -113.499 -23c-35.333 0 -67.333 6 -96 18s-53.334 28.833 -74.001 50.5s-36.5 47.334 -47.5 77.001s-16.5 62.5 -16.5 98.5c0 34.667 5.66699 66.667 17 96s27.333 54.833 48 76.5s45 38.667 73 51
s59 18.5 93 18.5c35.333 0 66.5 -6.16699 93.5 -18.5s49.667 -28.666 68 -48.999s32.166 -43.5 41.499 -69.5s14 -52.333 14 -79v-42h-388c0 -12.667 2.5 -28.834 7.5 -48.501s14.167 -38.834 27.5 -57.501s31.166 -34.667 53.499 -48s51.166 -20 86.499 -20
c30.667 0 60.334 7.33301 89.001 22s50.667 34.667 66 60zM442.001 269.999c0 20.667 -4.16602 39.998 -12.499 57.998s-19.666 33.833 -33.999 47.5s-31.333 24.5 -51 32.5s-40.5 12 -62.5 12c-32.667 0 -59.834 -6.66699 -81.501 -20s-38.834 -28.666 -51.501 -45.999
s-21.667 -34.166 -27 -50.499s-8 -27.5 -8 -33.5h328zM327.002 563.997h-70l-109 144h62l83 -114l86 114h54z" />
    <glyph glyph-name="Gcircumflex" unicode="&#x11c;" horiz-adv-x="778" 
d="M681 46c-41.333 -23.333 -84.165 -39.833 -128.498 -49.5s-89.5 -14.5 -135.5 -14.5c-54 0 -103.5 9.16699 -148.5 27.5s-83.5 44 -115.5 77s-57 72.333 -75 118s-27 95.5 -27 149.5s9 103.667 27 149s43 84.5 75 117.5s70.5 58.833 115.5 77.5s94.5 28 148.5 28
c105.333 0 190.333 -32.667 255 -98l-48 -50c-10.667 12.667 -23.834 24.5 -39.501 35.5s-32.667 20.333 -51 28s-37.5 13.667 -57.5 18s-39.667 6.5 -59 6.5c-46 0 -87.5 -8 -124.5 -24s-68.5 -38 -94.5 -66s-46 -61 -60 -99s-21 -79 -21 -123s7 -85 21 -123s34 -71 60 -99
s57.5 -50 94.5 -66s78.5 -24 124.5 -24c38 0 73.667 3 107 9s63.666 17 90.999 33v238h-170v60h236v-336zM380.001 896h70l108 -144h-65l-81 108l-81 -108h-59z" />
    <glyph glyph-name="gcircumflex" unicode="&#x11d;" horiz-adv-x="611" 
d="M544 30c0 -57.333 -8.33691 -103.671 -25.0039 -139.004s-37.5 -62.666 -62.5 -81.999s-51.833 -32.333 -80.5 -39s-54.667 -10 -78 -10s-46.166 2.16699 -68.499 6.5s-43.5 10.666 -63.5 18.999s-38.167 18.5 -54.5 30.5s-30.5 25.667 -42.5 41l47 44
c21.333 -30 48 -52 80 -66s66 -21 102 -21c30.667 0 56.5 4 77.5 12s38.333 18.5 52 31.5s24.334 27.333 32.001 43s13.334 31.334 17.001 47.001s5.83398 30.5 6.50098 44.5s1 25.333 1 34v64h-2c-17.333 -28 -40.833 -50 -70.5 -66s-64.5 -24 -104.5 -24
c-34 0 -66 6.16699 -96 18.5s-56.167 29.333 -78.5 51s-40 46.834 -53 75.501s-19.5 59.334 -19.5 92.001s6.5 63.334 19.5 92.001s30.667 53.667 53 75s48.5 38.333 78.5 51s62 19 96 19c40 0 74.833 -8 104.5 -24s53.167 -38 70.5 -66h2v78h60v-432zM485.996 236.995
c0 25.333 -4.83301 49.166 -14.5 71.499s-22.667 41.666 -39 57.999s-35.666 29.333 -57.999 39s-46.166 14.5 -71.499 14.5s-49.166 -4.83301 -71.499 -14.5s-41.666 -22.667 -57.999 -39s-29.333 -35.666 -39 -57.999s-14.5 -46.166 -14.5 -71.499
s4.83301 -49.166 14.5 -71.499s22.667 -41.666 39 -57.999s35.666 -29.333 57.999 -39s46.166 -14.5 71.499 -14.5s49.166 4.83301 71.499 14.5s41.666 22.667 57.999 39s29.333 35.666 39 57.999s14.5 46.166 14.5 71.499zM293.996 707.995h70l108 -144h-65l-81 108
l-81 -108h-59z" />
    <glyph glyph-name="Gbreve" unicode="&#x11e;" horiz-adv-x="778" 
d="M681 46c-41.333 -23.333 -84.165 -39.833 -128.498 -49.5s-89.5 -14.5 -135.5 -14.5c-54 0 -103.5 9.16699 -148.5 27.5s-83.5 44 -115.5 77s-57 72.333 -75 118s-27 95.5 -27 149.5s9 103.667 27 149s43 84.5 75 117.5s70.5 58.833 115.5 77.5s94.5 28 148.5 28
c105.333 0 190.333 -32.667 255 -98l-48 -50c-10.667 12.667 -23.834 24.5 -39.501 35.5s-32.667 20.333 -51 28s-37.5 13.667 -57.5 18s-39.667 6.5 -59 6.5c-46 0 -87.5 -8 -124.5 -24s-68.5 -38 -94.5 -66s-46 -61 -60 -99s-21 -79 -21 -123s7 -85 21 -123s34 -71 60 -99
s57.5 -50 94.5 -66s78.5 -24 124.5 -24c38 0 73.667 3 107 9s63.666 17 90.999 33v238h-170v60h236v-336zM313.001 881c4 -26.667 15.167 -46.333 33.5 -59s40.5 -19 66.5 -19c30 0 53.167 5.5 69.5 16.5s27.833 31.5 34.5 61.5h42c-4.66699 -40 -20.167 -71 -46.5 -93
s-59.5 -33 -99.5 -33s-73.167 11 -99.5 33s-40.5 53 -42.5 93h42z" />
    <glyph glyph-name="gbreve" unicode="&#x11f;" horiz-adv-x="611" 
d="M544 30c0 -57.333 -8.33691 -103.671 -25.0039 -139.004s-37.5 -62.666 -62.5 -81.999s-51.833 -32.333 -80.5 -39s-54.667 -10 -78 -10s-46.166 2.16699 -68.499 6.5s-43.5 10.666 -63.5 18.999s-38.167 18.5 -54.5 30.5s-30.5 25.667 -42.5 41l47 44
c21.333 -30 48 -52 80 -66s66 -21 102 -21c30.667 0 56.5 4 77.5 12s38.333 18.5 52 31.5s24.334 27.333 32.001 43s13.334 31.334 17.001 47.001s5.83398 30.5 6.50098 44.5s1 25.333 1 34v64h-2c-17.333 -28 -40.833 -50 -70.5 -66s-64.5 -24 -104.5 -24
c-34 0 -66 6.16699 -96 18.5s-56.167 29.333 -78.5 51s-40 46.834 -53 75.501s-19.5 59.334 -19.5 92.001s6.5 63.334 19.5 92.001s30.667 53.667 53 75s48.5 38.333 78.5 51s62 19 96 19c40 0 74.833 -8 104.5 -24s53.167 -38 70.5 -66h2v78h60v-432zM485.996 236.995
c0 25.333 -4.83301 49.166 -14.5 71.499s-22.667 41.666 -39 57.999s-35.666 29.333 -57.999 39s-46.166 14.5 -71.499 14.5s-49.166 -4.83301 -71.499 -14.5s-41.666 -22.667 -57.999 -39s-29.333 -35.666 -39 -57.999s-14.5 -46.166 -14.5 -71.499
s4.83301 -49.166 14.5 -71.499s22.667 -41.666 39 -57.999s35.666 -29.333 57.999 -39s46.166 -14.5 71.499 -14.5s49.166 4.83301 71.499 14.5s41.666 22.667 57.999 39s29.333 35.666 39 57.999s14.5 46.166 14.5 71.499zM226.996 707.995
c4 -26.667 15.167 -46.332 33.5 -58.999s40.5 -19 66.5 -19c30 0 53.167 5.66699 69.5 17s27.833 31.666 34.5 60.999h42c-4.66699 -40 -20.167 -71 -46.5 -93s-59.5 -33 -99.5 -33c-39.333 0 -72.333 11 -99 33s-41 53 -43 93h42z" />
    <glyph glyph-name="Gdotaccent" unicode="&#x120;" horiz-adv-x="778" 
d="M681 46c-41.333 -23.333 -84.165 -39.833 -128.498 -49.5s-89.5 -14.5 -135.5 -14.5c-54 0 -103.5 9.16699 -148.5 27.5s-83.5 44 -115.5 77s-57 72.333 -75 118s-27 95.5 -27 149.5s9 103.667 27 149s43 84.5 75 117.5s70.5 58.833 115.5 77.5s94.5 28 148.5 28
c105.333 0 190.333 -32.667 255 -98l-48 -50c-10.667 12.667 -23.834 24.5 -39.501 35.5s-32.667 20.333 -51 28s-37.5 13.667 -57.5 18s-39.667 6.5 -59 6.5c-46 0 -87.5 -8 -124.5 -24s-68.5 -38 -94.5 -66s-46 -61 -60 -99s-21 -79 -21 -123s7 -85 21 -123s34 -71 60 -99
s57.5 -50 94.5 -66s78.5 -24 124.5 -24c38 0 73.667 3 107 9s63.666 17 90.999 33v238h-170v60h236v-336zM370.001 840c0 13.333 4.66699 24.666 14 33.999s20.666 14 33.999 14s24.666 -4.66699 33.999 -14s14 -20.666 14 -33.999s-4.66699 -24.666 -14 -33.999
s-20.666 -14 -33.999 -14s-24.666 4.66699 -33.999 14s-14 20.666 -14 33.999z" />
    <glyph glyph-name="gdotaccent" unicode="&#x121;" horiz-adv-x="611" 
d="M544 30c0 -57.333 -8.33691 -103.671 -25.0039 -139.004s-37.5 -62.666 -62.5 -81.999s-51.833 -32.333 -80.5 -39s-54.667 -10 -78 -10s-46.166 2.16699 -68.499 6.5s-43.5 10.666 -63.5 18.999s-38.167 18.5 -54.5 30.5s-30.5 25.667 -42.5 41l47 44
c21.333 -30 48 -52 80 -66s66 -21 102 -21c30.667 0 56.5 4 77.5 12s38.333 18.5 52 31.5s24.334 27.333 32.001 43s13.334 31.334 17.001 47.001s5.83398 30.5 6.50098 44.5s1 25.333 1 34v64h-2c-17.333 -28 -40.833 -50 -70.5 -66s-64.5 -24 -104.5 -24
c-34 0 -66 6.16699 -96 18.5s-56.167 29.333 -78.5 51s-40 46.834 -53 75.501s-19.5 59.334 -19.5 92.001s6.5 63.334 19.5 92.001s30.667 53.667 53 75s48.5 38.333 78.5 51s62 19 96 19c40 0 74.833 -8 104.5 -24s53.167 -38 70.5 -66h2v78h60v-432zM485.996 236.995
c0 25.333 -4.83301 49.166 -14.5 71.499s-22.667 41.666 -39 57.999s-35.666 29.333 -57.999 39s-46.166 14.5 -71.499 14.5s-49.166 -4.83301 -71.499 -14.5s-41.666 -22.667 -57.999 -39s-29.333 -35.666 -39 -57.999s-14.5 -46.166 -14.5 -71.499
s4.83301 -49.166 14.5 -71.499s22.667 -41.666 39 -57.999s35.666 -29.333 57.999 -39s46.166 -14.5 71.499 -14.5s49.166 4.83301 71.499 14.5s41.666 22.667 57.999 39s29.333 35.666 39 57.999s14.5 46.166 14.5 71.499zM283.996 651.995
c0 13.333 4.66699 24.666 14 33.999s20.666 14 33.999 14s24.666 -4.66699 33.999 -14s14 -20.666 14 -33.999s-4.66699 -24.666 -14 -33.999s-20.666 -14 -33.999 -14s-24.666 4.66699 -33.999 14s-14 20.666 -14 33.999z" />
    <glyph glyph-name="Gcommaaccent" unicode="&#x122;" horiz-adv-x="778" 
d="M681 46c-41.333 -23.333 -84.165 -39.833 -128.498 -49.5s-89.5 -14.5 -135.5 -14.5c-54 0 -103.5 9.16699 -148.5 27.5s-83.5 44 -115.5 77s-57 72.333 -75 118s-27 95.5 -27 149.5s9 103.667 27 149s43 84.5 75 117.5s70.5 58.833 115.5 77.5s94.5 28 148.5 28
c105.333 0 190.333 -32.667 255 -98l-48 -50c-10.667 12.667 -23.834 24.5 -39.501 35.5s-32.667 20.333 -51 28s-37.5 13.667 -57.5 18s-39.667 6.5 -59 6.5c-46 0 -87.5 -8 -124.5 -24s-68.5 -38 -94.5 -66s-46 -61 -60 -99s-21 -79 -21 -123s7 -85 21 -123s34 -71 60 -99
s57.5 -50 94.5 -66s78.5 -24 124.5 -24c38 0 73.667 3 107 9s63.666 17 90.999 33v238h-170v60h236v-336zM387.001 -66h65l-62 -165h-53z" />
    <glyph glyph-name="gcommaaccent" unicode="&#x123;" horiz-adv-x="611" 
d="M544 30c0 -57.333 -8.33691 -103.671 -25.0039 -139.004s-37.5 -62.666 -62.5 -81.999s-51.833 -32.333 -80.5 -39s-54.667 -10 -78 -10s-46.166 2.16699 -68.499 6.5s-43.5 10.666 -63.5 18.999s-38.167 18.5 -54.5 30.5s-30.5 25.667 -42.5 41l47 44
c21.333 -30 48 -52 80 -66s66 -21 102 -21c30.667 0 56.5 4 77.5 12s38.333 18.5 52 31.5s24.334 27.333 32.001 43s13.334 31.334 17.001 47.001s5.83398 30.5 6.50098 44.5s1 25.333 1 34v64h-2c-17.333 -28 -40.833 -50 -70.5 -66s-64.5 -24 -104.5 -24
c-34 0 -66 6.16699 -96 18.5s-56.167 29.333 -78.5 51s-40 46.834 -53 75.501s-19.5 59.334 -19.5 92.001s6.5 63.334 19.5 92.001s30.667 53.667 53 75s48.5 38.333 78.5 51s62 19 96 19c40 0 74.833 -8 104.5 -24s53.167 -38 70.5 -66h2v78h60v-432zM485.996 236.995
c0 25.333 -4.83301 49.166 -14.5 71.499s-22.667 41.666 -39 57.999s-35.666 29.333 -57.999 39s-46.166 14.5 -71.499 14.5s-49.166 -4.83301 -71.499 -14.5s-41.666 -22.667 -57.999 -39s-29.333 -35.666 -39 -57.999s-14.5 -46.166 -14.5 -71.499
s4.83301 -49.166 14.5 -71.499s22.667 -41.666 39 -57.999s35.666 -29.333 57.999 -39s46.166 -14.5 71.499 -14.5s49.166 4.83301 71.499 14.5s41.666 22.667 57.999 39s29.333 35.666 39 57.999s14.5 46.166 14.5 71.499zM349.996 593.995h-65l63 165h53z" />
    <glyph glyph-name="Hcircumflex" unicode="&#x124;" horiz-adv-x="722" 
d="M97 708h66v-312h396v312h66v-708h-66v336h-396v-336h-66v708zM325 896h70l108 -144h-65l-81 108l-81 -108h-59z" />
    <glyph glyph-name="hcircumflex" unicode="&#x125;" horiz-adv-x="556" 
d="M80 756l59.998 0.000976562v-375h2c12 25.333 32 47.166 60 65.499s60.667 27.5 98 27.5c36 0 65.333 -5.66699 88 -17s40.5 -26.166 53.5 -44.499s22 -39.5 27 -63.5s7.5 -48.667 7.5 -74v-275h-60v272c0 18.667 -1.66699 36.834 -5 54.501s-9.16602 33.5 -17.499 47.5
s-20 25.167 -35 33.5s-34.5 12.5 -58.5 12.5c-22 0 -42.833 -3.83301 -62.5 -11.5s-36.667 -19.334 -51 -35.001s-25.666 -35.334 -33.999 -59.001s-12.5 -51.5 -12.5 -83.5v-231h-60v756zM215.998 936.001h70l108 -144h-65l-81 108l-81 -108h-59z" />
    <glyph glyph-name="Hbar" unicode="&#x126;" horiz-adv-x="722" 
d="M97 708h66v-111h396v111h66v-708h-66v336h-396v-336h-66v708zM559 396v153h-396v-153h396z" />
    <glyph glyph-name="hbar" unicode="&#x127;" horiz-adv-x="556" 
d="M80 581l-72.002 0.000976562v53h72v122h60v-122h162v-53h-162v-200h2c12 25.333 32 47.166 60 65.499s60.667 27.5 98 27.5c36 0 65.333 -5.66699 88 -17s40.5 -26.166 53.5 -44.499s22 -39.5 27 -63.5s7.5 -48.667 7.5 -74v-275h-60v272
c0 18.667 -1.66699 36.834 -5 54.501s-9.16602 33.5 -17.499 47.5s-20 25.167 -35 33.5s-34.5 12.5 -58.5 12.5c-22 0 -42.833 -3.83301 -62.5 -11.5s-36.667 -19.334 -51 -35.001s-25.666 -35.334 -33.999 -59.001s-12.5 -51.5 -12.5 -83.5v-231h-60v581z" />
    <glyph glyph-name="Itilde" unicode="&#x128;" horiz-adv-x="260" 
d="M97 708h66v-708h-66v708zM-25 769c1.33301 11.333 4.33203 23.168 8.99902 35.501s10.667 23.166 18 32.499c7.33301 10 16.333 18.167 27 24.5s22.667 9.5 36 9.5s26.333 -2.66699 39 -8s24.667 -11 36 -17l33 -15.5c10.667 -5 20.667 -7.5 30 -7.5
c14.667 0 25.667 5 33 15s12.333 21 15 33h36c-1.33301 -12 -4 -24.167 -8 -36.5s-9.5 -23.333 -16.5 -33s-15.5 -17.5 -25.5 -23.5s-21.333 -9 -34 -9c-13.333 0 -26.166 2.66699 -38.499 8l-36.5 16l-34.5 16c-11 5.33301 -21.5 8 -31.5 8c-15.333 0 -26.833 -5 -34.5 -15
s-13.167 -21 -16.5 -33h-36z" />
    <glyph glyph-name="itilde" unicode="&#x129;" 
d="M90 462h60v-462h-60v462zM-34 581c1.33301 11.333 4.33203 23.168 8.99902 35.501s10.667 23.166 18 32.499c7.33301 10 16.333 18.167 27 24.5s22.667 9.5 36 9.5s26.333 -2.66699 39 -8s24.667 -11 36 -17l33 -15.5c10.667 -5 20.667 -7.5 30 -7.5
c14.667 0 25.667 5 33 15s12.333 21 15 33h36c-1.33301 -12 -4 -24.167 -8 -36.5s-9.5 -23.333 -16.5 -33s-15.333 -17.5 -25 -23.5s-21.167 -9 -34.5 -9s-26.166 2.66699 -38.499 8l-36.5 16l-34.5 16c-11 5.33301 -21.5 8 -31.5 8c-15.333 0 -26.833 -5 -34.5 -15
s-13.167 -21 -16.5 -33h-36z" />
    <glyph glyph-name="Imacron" unicode="&#x12a;" horiz-adv-x="260" 
d="M97 708h66v-708h-66v708zM261 799h-264v48h264v-48z" />
    <glyph glyph-name="imacron" unicode="&#x12b;" 
d="M90 462h60v-462h-60v462zM253 606h-264v48h264v-48z" />
    <glyph glyph-name="Iogonek" unicode="&#x12e;" horiz-adv-x="260" 
d="M97 708h66.001v-708h-13c-7.33301 -5.33301 -15.166 -12.333 -23.499 -21s-16.166 -18.334 -23.499 -29.001s-13.5 -22 -18.5 -34s-7.5 -24.333 -7.5 -37c0 -31.333 14.333 -47 43 -47c14 0 25.5 2.5 34.5 7.5s15.833 10.167 20.5 15.5l19 -38
c-10.667 -9.33301 -22.834 -17.166 -36.501 -23.499s-29.834 -9.5 -48.501 -9.5c-26.667 0 -48.667 7.33301 -66 22s-26 34.667 -26 60c0 14 2.66699 27.333 8 40s12.166 24.5 20.499 35.5s17.833 21.5 28.5 31.5s21 19 31 27h-8v708z" />
    <glyph glyph-name="iogonek" unicode="&#x12f;" 
d="M90 462h60.001v-462h-10c-7.33301 -5.33301 -15.166 -12.333 -23.499 -21s-16.166 -18.334 -23.499 -29.001s-13.5 -22 -18.5 -34s-7.5 -24.333 -7.5 -37c0 -31.333 14.333 -47 43 -47c14 0 25.5 2.5 34.5 7.5s15.833 10.167 20.5 15.5l19 -38
c-10.667 -9.33301 -22.834 -17.166 -36.501 -23.499s-29.834 -9.5 -48.501 -9.5c-26.667 0 -48.667 7.33301 -66 22s-26 34.667 -26 60c0 14 2.66699 27.333 8 40s12.166 24.5 20.499 35.5s17.833 21.5 28.5 31.5s21 19 31 27h-5v462zM75.001 645
c0 12.667 4.33301 23.334 13 32.001s19.334 13 32.001 13s23.334 -4.33301 32.001 -13s13 -19.334 13 -32.001s-4.33301 -23.334 -13 -32.001s-19.334 -13 -32.001 -13s-23.334 4.33301 -32.001 13s-13 19.334 -13 32.001z" />
    <glyph glyph-name="Idotaccent" unicode="&#x130;" horiz-adv-x="260" 
d="M97 708h66v-708h-66v708zM86 840c0 13.333 4.66699 24.666 14 33.999s20.666 14 33.999 14s24.666 -4.66699 33.999 -14s14 -20.666 14 -33.999s-4.66699 -24.666 -14 -33.999s-20.666 -14 -33.999 -14s-24.666 4.66699 -33.999 14s-14 20.666 -14 33.999z" />
    <glyph glyph-name="dotlessi" unicode="&#x131;" 
d="M90 462h60v-462h-60v462z" />
    <glyph glyph-name="IJ" unicode="&#x132;" horiz-adv-x="708" 
d="M97 708h66v-708h-66v708zM611 208c0 -21.333 -1.49902 -44.998 -4.49902 -70.998s-11 -50.5 -24 -73.5s-32.333 -42.333 -58 -58s-61.5 -23.5 -107.5 -23.5c-52 0 -93.167 13.167 -123.5 39.5s-50.5 61.5 -60.5 105.5l66 12c16 -64.667 55.333 -97 118 -97
c23.333 0 43.166 3.83301 59.499 11.5s29.5 18.167 39.5 31.5s17.333 29.166 22 47.499s7 38.166 7 59.499v516h66v-500z" />
    <glyph glyph-name="ij" unicode="&#x133;" horiz-adv-x="455" 
d="M90 462h60v-462h-60v462zM75 645c0 12.667 4.33301 23.334 13 32.001s19.334 13 32.001 13s23.334 -4.33301 32.001 -13s13 -19.334 13 -32.001s-4.33301 -23.334 -13 -32.001s-19.334 -13 -32.001 -13s-23.334 4.33301 -32.001 13s-13 19.334 -13 32.001zM365 -81
c0 -24 -1.83301 -45.667 -5.5 -65s-10.5 -36 -20.5 -50s-23.5 -24.833 -40.5 -32.5s-38.833 -11.5 -65.5 -11.5c-16 0 -32 3 -48 9l9 53c14 -5.33301 26.667 -8 38 -8c16 0 28.833 2.83301 38.5 8.5s17 13 22 22s8.33301 19.5 10 31.5s2.5 24.667 2.5 38v548h60v-543z
M290 645c0 12.667 4.33301 23.334 13 32.001s19.334 13 32.001 13s23.334 -4.33301 32.001 -13s13 -19.334 13 -32.001s-4.33301 -23.334 -13 -32.001s-19.334 -13 -32.001 -13s-23.334 4.33301 -32.001 13s-13 19.334 -13 32.001z" />
    <glyph glyph-name="Jcircumflex" unicode="&#x134;" horiz-adv-x="482" 
d="M385 208c0 -21.333 -1.49902 -44.998 -4.49902 -70.998s-11 -50.5 -24 -73.5s-32.333 -42.333 -58 -58s-61.5 -23.5 -107.5 -23.5c-52 0 -93.167 13.167 -123.5 39.5s-50.5 61.5 -60.5 105.5l66 12c16 -64.667 55.333 -97 118 -97c23.333 0 43.166 3.83301 59.499 11.5
s29.5 18.167 39.5 31.5s17.333 29.166 22 47.499s7 38.166 7 59.499v516h66v-500zM315.001 896.002h70l108 -144h-65l-81 108l-81 -108h-59z" />
    <glyph glyph-name="jcircumflex" unicode="&#x135;" 
d="M150 -81c0 -24 -1.83398 -45.667 -5.50098 -65s-10.5 -36 -20.5 -50s-23.5 -24.833 -40.5 -32.5s-38.833 -11.5 -65.5 -11.5c-16 0 -32 3 -48 9l9 53c14.667 -5.33301 27.334 -8 38.001 -8c16 0 28.833 2.83301 38.5 8.5s17 13 22 22s8.33301 19.5 10 31.5
s2.5 24.667 2.5 38v548h60v-543zM84.999 708h70l108 -144h-65l-81 108l-81 -108h-59z" />
    <glyph glyph-name="Kcommaaccent" unicode="&#x136;" horiz-adv-x="611" 
d="M97 708h66v-312h6l343 312h91l-358 -324l378 -384h-95l-359 366h-6v-366h-66v708zM311 -66h65l-62 -165h-53z" />
    <glyph glyph-name="kcommaaccent" unicode="&#x137;" horiz-adv-x="481" 
d="M80 756h60v-504l228 209h88l-238 -211l266 -250h-91l-253 244v-244h-60v756zM211 -66h65l-62 -165h-53z" />
    <glyph glyph-name="Lacute" unicode="&#x139;" horiz-adv-x="500" 
d="M97 708h66v-648h330v-60h-396v708zM176 896h80l-134 -144h-50z" />
    <glyph glyph-name="lacute" unicode="&#x13a;" 
d="M90 756h60v-756h-60v756zM174 936h80l-134 -144h-50z" />
    <glyph glyph-name="Lcommaaccent" unicode="&#x13b;" horiz-adv-x="500" 
d="M97 708h66v-648h330v-60h-396v708zM270 -66h65l-62 -165h-53z" />
    <glyph glyph-name="lcommaaccent" unicode="&#x13c;" 
d="M90 756h60v-756h-60v756zM113 -66h65l-62 -165h-53z" />
    <glyph glyph-name="Lcaron" unicode="&#x13d;" horiz-adv-x="500" 
d="M97 708h66v-648h330v-60h-396v708zM283 708h65l-63 -185h-53z" />
    <glyph glyph-name="lcaron" unicode="&#x13e;" 
d="M90 756h60v-756h-60v756zM270 708h65l-63 -185h-53z" />
    <glyph glyph-name="Ldot" unicode="&#x13f;" horiz-adv-x="500" 
d="M97 708h66v-648h330v-60h-396v708zM338 345c0 13.333 4.66699 24.666 14 33.999s20.666 14 33.999 14s24.666 -4.66699 33.999 -14s14 -20.666 14 -33.999s-4.66699 -24.666 -14 -33.999s-20.666 -14 -33.999 -14s-24.666 4.66699 -33.999 14s-14 20.666 -14 33.999z" />
    <glyph glyph-name="ldot" unicode="&#x140;" horiz-adv-x="336" 
d="M90 756h60v-756h-60v756zM234 375c0 13.333 4.66699 24.666 14 33.999s20.666 14 33.999 14s24.666 -4.66699 33.999 -14s14 -20.666 14 -33.999s-4.66699 -24.666 -14 -33.999s-20.666 -14 -33.999 -14s-24.666 4.66699 -33.999 14s-14 20.666 -14 33.999z" />
    <glyph glyph-name="Lslash" unicode="&#x141;" horiz-adv-x="500" 
d="M97 231l-72 -64v65l72 63v413h66v-358l216 189v-62l-216 -189v-228h330v-60h-396v231z" />
    <glyph glyph-name="lslash" unicode="&#x142;" 
d="M90 324l-84 -85v67l84 85v365h60v-305l84 86v-67l-84 -85v-385h-60v324z" />
    <glyph glyph-name="Nacute" unicode="&#x143;" horiz-adv-x="778" 
d="M97 708h85l431 -620h2v620h66v-708h-85l-431 620h-2v-620h-66v708zM446 896h80l-134 -144h-50z" />
    <glyph glyph-name="nacute" unicode="&#x144;" horiz-adv-x="556" 
d="M80 332c0 8.66699 -0.333984 19.168 -1.00098 31.501s-1.16699 24.833 -1.5 37.5s-0.833008 24.5 -1.5 35.5s-1 19.5 -1 25.5h60c0.666992 -17.333 1.16699 -34 1.5 -50s1.16602 -26.333 2.49902 -31h3c12 25.333 32 47.166 60 65.499s60.667 27.5 98 27.5
c36 0 65.333 -5.66699 88 -17s40.5 -26.166 53.5 -44.499s22 -39.5 27 -63.5s7.5 -48.667 7.5 -74v-275h-60v272c0 18.667 -1.66699 36.834 -5 54.501s-9.16602 33.5 -17.499 47.5s-20 25.167 -35 33.5s-34.5 12.5 -58.5 12.5c-22 0 -42.833 -3.83301 -62.5 -11.5
s-36.667 -19.334 -51 -35.001s-25.666 -35.334 -33.999 -59.001s-12.5 -51.5 -12.5 -83.5v-231h-60v332zM311.999 708.001h80l-134 -144h-50z" />
    <glyph glyph-name="Ncommaaccent" unicode="&#x145;" horiz-adv-x="778" 
d="M97 708h85l431 -620h2v620h66v-708h-85l-431 620h-2v-620h-66v708zM363 -66h65l-62 -165h-53z" />
    <glyph glyph-name="ncommaaccent" unicode="&#x146;" horiz-adv-x="556" 
d="M80 332c0 8.66699 -0.333984 19.168 -1.00098 31.501s-1.16699 24.833 -1.5 37.5s-0.833008 24.5 -1.5 35.5s-1 19.5 -1 25.5h60c0.666992 -17.333 1.16699 -34 1.5 -50s1.16602 -26.333 2.49902 -31h3c12 25.333 32 47.166 60 65.499s60.667 27.5 98 27.5
c36 0 65.333 -5.66699 88 -17s40.5 -26.166 53.5 -44.499s22 -39.5 27 -63.5s7.5 -48.667 7.5 -74v-275h-60v272c0 18.667 -1.66699 36.834 -5 54.501s-9.16602 33.5 -17.499 47.5s-20 25.167 -35 33.5s-34.5 12.5 -58.5 12.5c-22 0 -42.833 -3.83301 -62.5 -11.5
s-36.667 -19.334 -51 -35.001s-25.666 -35.334 -33.999 -59.001s-12.5 -51.5 -12.5 -83.5v-231h-60v332zM254.999 -65.999h65l-62 -165h-53z" />
    <glyph glyph-name="Ncaron" unicode="&#x147;" horiz-adv-x="778" 
d="M97 708h85l431 -620h2v620h66v-708h-85l-431 620h-2v-620h-66v708zM425 752h-70l-109 144h62l83 -114l86 114h54z" />
    <glyph glyph-name="ncaron" unicode="&#x148;" horiz-adv-x="556" 
d="M80 332c0 8.66699 -0.333984 19.168 -1.00098 31.501s-1.16699 24.833 -1.5 37.5s-0.833008 24.5 -1.5 35.5s-1 19.5 -1 25.5h60c0.666992 -17.333 1.16699 -34 1.5 -50s1.16602 -26.333 2.49902 -31h3c12 25.333 32 47.166 60 65.499s60.667 27.5 98 27.5
c36 0 65.333 -5.66699 88 -17s40.5 -26.166 53.5 -44.499s22 -39.5 27 -63.5s7.5 -48.667 7.5 -74v-275h-60v272c0 18.667 -1.66699 36.834 -5 54.501s-9.16602 33.5 -17.499 47.5s-20 25.167 -35 33.5s-34.5 12.5 -58.5 12.5c-22 0 -42.833 -3.83301 -62.5 -11.5
s-36.667 -19.334 -51 -35.001s-25.666 -35.334 -33.999 -59.001s-12.5 -51.5 -12.5 -83.5v-231h-60v332zM317.999 564.001h-70l-109 144h62l83 -114l86 114h54z" />
    <glyph glyph-name="napostrophe" unicode="&#x149;" horiz-adv-x="556" 
d="M80 332c0 8.66699 -0.333984 19.168 -1.00098 31.501s-1.16699 24.833 -1.5 37.5s-0.833008 24.5 -1.5 35.5s-1 19.5 -1 25.5h60c0.666992 -17.333 1.16699 -34 1.5 -50s1.16602 -26.333 2.49902 -31h3c12 25.333 32 47.166 60 65.499s60.667 27.5 98 27.5
c36 0 65.333 -5.66699 88 -17s40.5 -26.166 53.5 -44.499s22 -39.5 27 -63.5s7.5 -48.667 7.5 -74v-275h-60v272c0 18.667 -1.66699 36.834 -5 54.501s-9.16602 33.5 -17.499 47.5s-20 25.167 -35 33.5s-34.5 12.5 -58.5 12.5c-22 0 -42.833 -3.83301 -62.5 -11.5
s-36.667 -19.334 -51 -35.001s-25.666 -35.334 -33.999 -59.001s-12.5 -51.5 -12.5 -83.5v-231h-60v332zM64.999 708.001h65l-63 -185h-53z" />
    <glyph glyph-name="Omacron" unicode="&#x14c;" horiz-adv-x="834" 
d="M51 354c0 54 9 103.667 27 149s43 84.5 75 117.5s70.5 58.833 115.5 77.5s94.5 28 148.5 28s103.5 -9.33301 148.5 -28s83.5 -44.5 115.5 -77.5s57 -72.167 75 -117.5s27 -95 27 -149s-9 -103.833 -27 -149.5s-43 -85 -75 -118s-70.5 -58.667 -115.5 -77
s-94.5 -27.5 -148.5 -27.5s-103.5 9.16699 -148.5 27.5s-83.5 44 -115.5 77s-57 72.333 -75 118s-27 95.5 -27 149.5zM117 354c0 -44 7 -85 21 -123s34 -71 60 -99s57.5 -50 94.5 -66s78.5 -24 124.5 -24s87.5 8 124.5 24s68.5 38 94.5 66s46 61 60 99s21 79 21 123
s-7 85 -21 123s-34 71 -60 99s-57.5 50 -94.5 66s-78.5 24 -124.5 24s-87.5 -8 -124.5 -24s-68.5 -38 -94.5 -66s-46 -61 -60 -99s-21 -79 -21 -123zM550 799h-264v48h264v-48z" />
    <glyph glyph-name="omacron" unicode="&#x14d;" horiz-adv-x="594" 
d="M54 231c0 35.333 6 67.833 18 97.5s28.667 55.334 50 77.001s47 38.5 77 50.5s62.667 18 98 18s67.833 -6 97.5 -18s55.334 -28.833 77.001 -50.5s38.5 -47.334 50.5 -77.001s18 -62.167 18 -97.5s-6 -67.833 -18 -97.5s-28.833 -55.334 -50.5 -77.001
s-47.334 -38.5 -77.001 -50.5s-62.167 -18 -97.5 -18s-68 6 -98 18s-55.667 28.833 -77 50.5s-38 47.334 -50 77.001s-18 62.167 -18 97.5zM114 231c0 -26 4.16699 -50.5 12.5 -73.5s20.5 -43 36.5 -60s35.333 -30.5 58 -40.5s48 -15 76 -15s53.333 5 76 15s42 23.5 58 40.5
s28.167 37 36.5 60s12.5 47.5 12.5 73.5s-4.16699 50.5 -12.5 73.5s-20.5 43 -36.5 60s-35.333 30.5 -58 40.5s-48 15 -76 15s-53.333 -5 -76 -15s-42 -23.5 -58 -40.5s-28.167 -37 -36.5 -60s-12.5 -47.5 -12.5 -73.5zM430 606h-264v48h264v-48z" />
    <glyph glyph-name="Obreve" unicode="&#x14e;" horiz-adv-x="834" 
d="M51 354c0 54 9 103.667 27 149s43 84.5 75 117.5s70.5 58.833 115.5 77.5s94.5 28 148.5 28s103.5 -9.33301 148.5 -28s83.5 -44.5 115.5 -77.5s57 -72.167 75 -117.5s27 -95 27 -149s-9 -103.833 -27 -149.5s-43 -85 -75 -118s-70.5 -58.667 -115.5 -77
s-94.5 -27.5 -148.5 -27.5s-103.5 9.16699 -148.5 27.5s-83.5 44 -115.5 77s-57 72.333 -75 118s-27 95.5 -27 149.5zM117 354c0 -44 7 -85 21 -123s34 -71 60 -99s57.5 -50 94.5 -66s78.5 -24 124.5 -24s87.5 8 124.5 24s68.5 38 94.5 66s46 61 60 99s21 79 21 123
s-7 85 -21 123s-34 71 -60 99s-57.5 50 -94.5 66s-78.5 24 -124.5 24s-87.5 -8 -124.5 -24s-68.5 -38 -94.5 -66s-46 -61 -60 -99s-21 -79 -21 -123zM316 881c4 -26.667 15.167 -46.333 33.5 -59s40.5 -19 66.5 -19c30 0 53.167 5.5 69.5 16.5s27.833 31.5 34.5 61.5h42
c-4.66699 -40 -20.167 -71 -46.5 -93s-59.5 -33 -99.5 -33s-73.167 11 -99.5 33s-40.5 53 -42.5 93h42z" />
    <glyph glyph-name="obreve" unicode="&#x14f;" horiz-adv-x="594" 
d="M54 231c0 35.333 6 67.833 18 97.5s28.667 55.334 50 77.001s47 38.5 77 50.5s62.667 18 98 18s67.833 -6 97.5 -18s55.334 -28.833 77.001 -50.5s38.5 -47.334 50.5 -77.001s18 -62.167 18 -97.5s-6 -67.833 -18 -97.5s-28.833 -55.334 -50.5 -77.001
s-47.334 -38.5 -77.001 -50.5s-62.167 -18 -97.5 -18s-68 6 -98 18s-55.667 28.833 -77 50.5s-38 47.334 -50 77.001s-18 62.167 -18 97.5zM114 231c0 -26 4.16699 -50.5 12.5 -73.5s20.5 -43 36.5 -60s35.333 -30.5 58 -40.5s48 -15 76 -15s53.333 5 76 15s42 23.5 58 40.5
s28.167 37 36.5 60s12.5 47.5 12.5 73.5s-4.16699 50.5 -12.5 73.5s-20.5 43 -36.5 60s-35.333 30.5 -58 40.5s-48 15 -76 15s-53.333 -5 -76 -15s-42 -23.5 -58 -40.5s-28.167 -37 -36.5 -60s-12.5 -47.5 -12.5 -73.5zM196 708c4 -26.667 15.167 -46.332 33.5 -58.999
s40.5 -19 66.5 -19c30 0 53.167 5.66699 69.5 17s27.833 31.666 34.5 60.999h42c-4.66699 -40 -20.167 -71 -46.5 -93s-59.5 -33 -99.5 -33c-39.333 0 -72.333 11 -99 33s-41 53 -43 93h42z" />
    <glyph glyph-name="Ohungarumlaut" unicode="&#x150;" horiz-adv-x="834" 
d="M51 354c0 54 9 103.667 27 149s43 84.5 75 117.5s70.5 58.833 115.5 77.5s94.5 28 148.5 28s103.5 -9.33301 148.5 -28s83.5 -44.5 115.5 -77.5s57 -72.167 75 -117.5s27 -95 27 -149s-9 -103.833 -27 -149.5s-43 -85 -75 -118s-70.5 -58.667 -115.5 -77
s-94.5 -27.5 -148.5 -27.5s-103.5 9.16699 -148.5 27.5s-83.5 44 -115.5 77s-57 72.333 -75 118s-27 95.5 -27 149.5zM117 354c0 -44 7 -85 21 -123s34 -71 60 -99s57.5 -50 94.5 -66s78.5 -24 124.5 -24s87.5 8 124.5 24s68.5 38 94.5 66s46 61 60 99s21 79 21 123
s-7 85 -21 123s-34 71 -60 99s-57.5 50 -94.5 66s-78.5 24 -124.5 24s-87.5 -8 -124.5 -24s-68.5 -38 -94.5 -66s-46 -61 -60 -99s-21 -79 -21 -123zM412 896h80l-134 -144h-50zM558 896h80l-134 -144h-50z" />
    <glyph glyph-name="ohungarumlaut" unicode="&#x151;" horiz-adv-x="594" 
d="M54 231c0 35.333 6 67.833 18 97.5s28.667 55.334 50 77.001s47 38.5 77 50.5s62.667 18 98 18s67.833 -6 97.5 -18s55.334 -28.833 77.001 -50.5s38.5 -47.334 50.5 -77.001s18 -62.167 18 -97.5s-6 -67.833 -18 -97.5s-28.833 -55.334 -50.5 -77.001
s-47.334 -38.5 -77.001 -50.5s-62.167 -18 -97.5 -18s-68 6 -98 18s-55.667 28.833 -77 50.5s-38 47.334 -50 77.001s-18 62.167 -18 97.5zM114 231c0 -26 4.16699 -50.5 12.5 -73.5s20.5 -43 36.5 -60s35.333 -30.5 58 -40.5s48 -15 76 -15s53.333 5 76 15s42 23.5 58 40.5
s28.167 37 36.5 60s12.5 47.5 12.5 73.5s-4.16699 50.5 -12.5 73.5s-20.5 43 -36.5 60s-35.333 30.5 -58 40.5s-48 15 -76 15s-53.333 -5 -76 -15s-42 -23.5 -58 -40.5s-28.167 -37 -36.5 -60s-12.5 -47.5 -12.5 -73.5zM295 708h80l-134 -144h-50zM441 708h80l-134 -144h-50
z" />
    <glyph glyph-name="OE" unicode="&#x152;" horiz-adv-x="944" 
d="M581 60h304.001v-60h-472c-47.333 -0 -92.5 8.33301 -135.5 25s-80.667 40.5 -113 71.5s-58 68.333 -77 112s-28.5 92.167 -28.5 145.5c0 58.667 10.833 110 32.5 154s50.5 80.833 86.5 110.5s77.167 52 123.5 67s94.166 22.5 143.499 22.5h432v-60h-296v-252h279v-60
h-279v-276zM515.001 648l-78 -0.000976562c-35.333 0 -71.333 -5.66699 -108 -17s-70.167 -29 -100.5 -53s-55.166 -54.5 -74.499 -91.5s-29 -81.167 -29 -132.5c0 -55.333 10.5 -101.666 31.5 -138.999s47 -67.5 78 -90.5s64.167 -39.5 99.5 -49.5s67.666 -15 96.999 -15
h84v588z" />
    <glyph glyph-name="oe" unicode="&#x153;" horiz-adv-x="907" 
d="M803 270c0 20.667 -3.00195 40.168 -9.00195 58.501s-15 34.166 -27 47.499s-27.167 24 -45.5 32s-40.166 12 -65.499 12c-23.333 0 -44.166 -4 -62.499 -12s-33.833 -18.833 -46.5 -32.5s-22.5 -29.5 -29.5 -47.5s-10.5 -37.333 -10.5 -58h296zM506.998 216.001
c-1.33301 -24 1.33496 -46.5039 8.00195 -67.5039s16.667 -39.333 30 -55s30.166 -28.167 50.499 -37.5s44.166 -14 71.499 -14c28.667 0 54.334 6.5 77.001 19.5s41.334 31.167 56.001 54.5l47 -34c-26 -34 -53.5 -58.167 -82.5 -72.5s-64.833 -21.5 -107.5 -21.5
c-40.667 0 -77 9 -109 27s-56.333 47 -73 87h-2c-19.333 -37.333 -46.333 -65.666 -81 -84.999s-74 -29 -118 -29c-33.333 0 -64 6 -92 18s-52.167 28.833 -72.5 50.5s-36.333 47.334 -48 77.001s-17.5 62.167 -17.5 97.5s5.83301 67.833 17.5 97.5s27.667 55.334 48 77.001
s44.5 38.5 72.5 50.5s58.667 18 92 18s61.666 -4.5 84.999 -13.5s42.666 -19.667 57.999 -32s27.5 -25 36.5 -38s15.5 -23.5 19.5 -31.5c6 13.333 14 26.833 24 40.5s22.333 26 37 37s32 20 52 27s42.667 10.5 68 10.5c28 0 54.667 -4.16699 80 -12.5s47.5 -21.5 66.5 -39.5
s34.167 -41.167 45.5 -69.5s17 -62.166 17 -101.499v-35h-356zM103.999 230.997c0 -24.667 4 -48.3301 12 -70.9971s19.5 -42.834 34.5 -60.501s33 -31.667 54 -42s44.833 -15.5 71.5 -15.5s50.5 5 71.5 15s38.833 23.5 53.5 40.5s26 37 34 60s12 47.5 12 73.5
s-4 50.5 -12 73.5s-19.333 43 -34 60s-32.5 30.5 -53.5 40.5s-44.833 15 -71.5 15s-50.5 -5.16699 -71.5 -15.5s-39 -24.333 -54 -42s-26.5 -37.834 -34.5 -60.501s-12 -46.334 -12 -71.001z" />
    <glyph glyph-name="Racute" unicode="&#x154;" horiz-adv-x="593" 
d="M163 396l140 -0.00390625c34.667 0 62.834 4.33301 84.501 13s38.5 19.334 50.5 32.001s20.167 26.334 24.5 41.001s6.5 28 6.5 40s-2.16699 25.333 -6.5 40s-12.5 28.334 -24.5 41.001s-28.833 23.334 -50.5 32.001s-49.834 13 -84.501 13h-140v-252zM97 707.996
l186.001 0.000976562c9.33301 0 22 -0.333008 38 -1s33.333 -2.66699 52 -6s37.667 -8.66602 57 -15.999s36.666 -18 51.999 -32s28 -31.667 38 -53s15 -47.333 15 -78c0 -34 -5.83301 -62 -17.5 -84s-26.334 -39.833 -44.001 -53.5s-37.167 -23.834 -58.5 -30.501
s-41.666 -11.334 -60.999 -14.001l206 -340h-75l-199 336h-123v-336h-66v708zM332.001 895.997h80l-134 -144h-50z" />
    <glyph glyph-name="racute" unicode="&#x155;" horiz-adv-x="333" 
d="M80 332c0 8.66699 -0.332031 19.1699 -0.999023 31.5029s-1.16699 24.833 -1.5 37.5s-0.833008 24.5 -1.5 35.5s-1 19.5 -1 25.5h60c0.666992 -17.333 1.16699 -34 1.5 -50s1.16602 -26.333 2.49902 -31c15.333 27.333 35 49.666 59 66.999s53.333 26 88 26
c6 0 11.833 -0.5 17.5 -1.5s11.5 -2.16699 17.5 -3.5l-7 -59c-8 2.66699 -15.667 4 -23 4c-26 0 -48.5 -4.16699 -67.5 -12.5s-34.667 -19.833 -47 -34.5s-21.5 -31.834 -27.5 -51.501s-9 -40.834 -9 -63.501v-252h-60v332zM233.001 708.003h80l-134 -144h-50z" />
    <glyph glyph-name="Rcommaaccent" unicode="&#x156;" horiz-adv-x="593" 
d="M163 396l140 -0.00390625c34.667 0 62.834 4.33301 84.501 13s38.5 19.334 50.5 32.001s20.167 26.334 24.5 41.001s6.5 28 6.5 40s-2.16699 25.333 -6.5 40s-12.5 28.334 -24.5 41.001s-28.833 23.334 -50.5 32.001s-49.834 13 -84.501 13h-140v-252zM97 707.996
l186.001 0.000976562c9.33301 0 22 -0.333008 38 -1s33.333 -2.66699 52 -6s37.667 -8.66602 57 -15.999s36.666 -18 51.999 -32s28 -31.667 38 -53s15 -47.333 15 -78c0 -34 -5.83301 -62 -17.5 -84s-26.334 -39.833 -44.001 -53.5s-37.167 -23.834 -58.5 -30.501
s-41.666 -11.334 -60.999 -14.001l206 -340h-75l-199 336h-123v-336h-66v708zM269.001 -66.0029h65l-62 -165h-53z" />
    <glyph glyph-name="rcommaaccent" unicode="&#x157;" horiz-adv-x="333" 
d="M80 332c0 8.66699 -0.332031 19.1699 -0.999023 31.5029s-1.16699 24.833 -1.5 37.5s-0.833008 24.5 -1.5 35.5s-1 19.5 -1 25.5h60c0.666992 -17.333 1.16699 -34 1.5 -50s1.16602 -26.333 2.49902 -31c15.333 27.333 35 49.666 59 66.999s53.333 26 88 26
c6 0 11.833 -0.5 17.5 -1.5s11.5 -2.16699 17.5 -3.5l-7 -59c-8 2.66699 -15.667 4 -23 4c-26 0 -48.5 -4.16699 -67.5 -12.5s-34.667 -19.833 -47 -34.5s-21.5 -31.834 -27.5 -51.501s-9 -40.834 -9 -63.501v-252h-60v332zM128.001 -65.9971h65l-62 -165h-53z" />
    <glyph glyph-name="Rcaron" unicode="&#x158;" horiz-adv-x="593" 
d="M163 396l140 -0.00390625c34.667 0 62.834 4.33301 84.501 13s38.5 19.334 50.5 32.001s20.167 26.334 24.5 41.001s6.5 28 6.5 40s-2.16699 25.333 -6.5 40s-12.5 28.334 -24.5 41.001s-28.833 23.334 -50.5 32.001s-49.834 13 -84.501 13h-140v-252zM97 707.996
l186.001 0.000976562c9.33301 0 22 -0.333008 38 -1s33.333 -2.66699 52 -6s37.667 -8.66602 57 -15.999s36.666 -18 51.999 -32s28 -31.667 38 -53s15 -47.333 15 -78c0 -34 -5.83301 -62 -17.5 -84s-26.334 -39.833 -44.001 -53.5s-37.167 -23.834 -58.5 -30.501
s-41.666 -11.334 -60.999 -14.001l206 -340h-75l-199 336h-123v-336h-66v708zM329.001 751.997h-70l-109 144h62l83 -114l86 114h54z" />
    <glyph glyph-name="rcaron" unicode="&#x159;" horiz-adv-x="333" 
d="M80 332c0 8.66699 -0.332031 19.1699 -0.999023 31.5029s-1.16699 24.833 -1.5 37.5s-0.833008 24.5 -1.5 35.5s-1 19.5 -1 25.5h60c0.666992 -17.333 1.16699 -34 1.5 -50s1.16602 -26.333 2.49902 -31c15.333 27.333 35 49.666 59 66.999s53.333 26 88 26
c6 0 11.833 -0.5 17.5 -1.5s11.5 -2.16699 17.5 -3.5l-7 -59c-8 2.66699 -15.667 4 -23 4c-26 0 -48.5 -4.16699 -67.5 -12.5s-34.667 -19.833 -47 -34.5s-21.5 -31.834 -27.5 -51.501s-9 -40.834 -9 -63.501v-252h-60v332zM222.001 564.003h-70l-109 144h62l83 -114l86 114
h54z" />
    <glyph glyph-name="Sacute" unicode="&#x15a;" horiz-adv-x="556" 
d="M116 131c17.333 -30 39.832 -52.3271 67.499 -66.9941s59.167 -22 94.5 -22c22 0 42.667 3.33301 62 10s36.166 16 50.499 28s25.666 26.5 33.999 43.5s12.5 36.167 12.5 57.5c0 24.667 -5.16699 45 -15.5 61s-24.166 29.167 -41.499 39.5s-36.833 19.166 -58.5 26.499
l-67 22c-23 7.33301 -45.333 15.666 -67 24.999s-41.167 21.5 -58.5 36.5s-31.166 33.833 -41.499 56.5s-15.5 50.667 -15.5 84c0 31.333 6.16699 59.166 18.5 83.499s29 44.666 50 60.999s45.167 28.666 72.5 36.999s56 12.5 86 12.5c38.667 0 74.5 -6.83301 107.5 -20.5
s61.5 -36.5 85.5 -68.5l-57 -41c-16.667 23.333 -36.167 40.833 -58.5 52.5s-48.833 17.5 -79.5 17.5c-21.333 0 -41.666 -2.83301 -60.999 -8.5s-36.166 -14 -50.499 -25s-25.833 -24.833 -34.5 -41.5s-13 -36.334 -13 -59.001c0 -35.333 9 -62.5 27 -81.5
s40.5 -34 67.5 -45s56.333 -20.667 88 -29s61 -19.5 88 -33.5s49.5 -33.5 67.5 -58.5s27 -59.5 27 -103.5c0 -32 -6 -60.333 -18 -85s-28.167 -45.5 -48.5 -62.5s-43.833 -29.833 -70.5 -38.5s-54.334 -13 -83.001 -13c-46.667 0 -89.667 8.16699 -129 24.5
s-73 43.833 -101 82.5zM341.999 896.006h80l-134 -144h-50z" />
    <glyph glyph-name="sacute" unicode="&#x15b;" horiz-adv-x="426" 
d="M81 118c12.667 -24.667 31.332 -43.499 55.999 -56.499s50.667 -19.5 78 -19.5c12.667 0 25.334 2 38.001 6s24 9.66699 34 17s18.167 16.166 24.5 26.499s9.5 22.166 9.5 35.499c0 21.333 -6.83301 37.333 -20.5 48s-30.5 19 -50.5 25s-42 11.167 -66 15.5
s-46 11 -66 20s-36.833 21.5 -50.5 37.5s-20.5 38.667 -20.5 68c0 22.667 4.66699 42.334 14 59.001s21.5 30.5 36.5 41.5s31.833 19.167 50.5 24.5s37.667 8 57 8c38 0 70.833 -7 98.5 -21s49.167 -36 64.5 -66l-54 -32c-11.333 21.333 -25.5 37.5 -42.5 48.5
s-39.167 16.5 -66.5 16.5c-10.667 0 -21.834 -1.66699 -33.501 -5s-22.167 -8 -31.5 -14s-17.166 -13.667 -23.499 -23s-9.5 -20 -9.5 -32c0 -20.667 6.83301 -36 20.5 -46s30.5 -17.833 50.5 -23.5s42 -10.5 66 -14.5s46 -10.5 66 -19.5s36.833 -22 50.5 -39
s20.5 -41.167 20.5 -72.5c0 -24 -4.5 -44.833 -13.5 -62.5s-21.333 -32.5 -37 -44.5s-33.5 -21 -53.5 -27s-41 -9 -63 -9c-40 0 -76.5 7.66699 -109.5 23s-58.5 39 -76.5 71zM265.998 708.001h80l-134 -144h-50z" />
    <glyph glyph-name="Scircumflex" unicode="&#x15c;" horiz-adv-x="556" 
d="M116 131c17.333 -30 39.832 -52.3271 67.499 -66.9941s59.167 -22 94.5 -22c22 0 42.667 3.33301 62 10s36.166 16 50.499 28s25.666 26.5 33.999 43.5s12.5 36.167 12.5 57.5c0 24.667 -5.16699 45 -15.5 61s-24.166 29.167 -41.499 39.5s-36.833 19.166 -58.5 26.499
l-67 22c-23 7.33301 -45.333 15.666 -67 24.999s-41.167 21.5 -58.5 36.5s-31.166 33.833 -41.499 56.5s-15.5 50.667 -15.5 84c0 31.333 6.16699 59.166 18.5 83.499s29 44.666 50 60.999s45.167 28.666 72.5 36.999s56 12.5 86 12.5c38.667 0 74.5 -6.83301 107.5 -20.5
s61.5 -36.5 85.5 -68.5l-57 -41c-16.667 23.333 -36.167 40.833 -58.5 52.5s-48.833 17.5 -79.5 17.5c-21.333 0 -41.666 -2.83301 -60.999 -8.5s-36.166 -14 -50.499 -25s-25.833 -24.833 -34.5 -41.5s-13 -36.334 -13 -59.001c0 -35.333 9 -62.5 27 -81.5
s40.5 -34 67.5 -45s56.333 -20.667 88 -29s61 -19.5 88 -33.5s49.5 -33.5 67.5 -58.5s27 -59.5 27 -103.5c0 -32 -6 -60.333 -18 -85s-28.167 -45.5 -48.5 -62.5s-43.833 -29.833 -70.5 -38.5s-54.334 -13 -83.001 -13c-46.667 0 -89.667 8.16699 -129 24.5
s-73 43.833 -101 82.5zM262.999 896.006h70l108 -144h-65l-81 108l-81 -108h-59z" />
    <glyph glyph-name="scircumflex" unicode="&#x15d;" horiz-adv-x="426" 
d="M81 118c12.667 -24.667 31.332 -43.499 55.999 -56.499s50.667 -19.5 78 -19.5c12.667 0 25.334 2 38.001 6s24 9.66699 34 17s18.167 16.166 24.5 26.499s9.5 22.166 9.5 35.499c0 21.333 -6.83301 37.333 -20.5 48s-30.5 19 -50.5 25s-42 11.167 -66 15.5
s-46 11 -66 20s-36.833 21.5 -50.5 37.5s-20.5 38.667 -20.5 68c0 22.667 4.66699 42.334 14 59.001s21.5 30.5 36.5 41.5s31.833 19.167 50.5 24.5s37.667 8 57 8c38 0 70.833 -7 98.5 -21s49.167 -36 64.5 -66l-54 -32c-11.333 21.333 -25.5 37.5 -42.5 48.5
s-39.167 16.5 -66.5 16.5c-10.667 0 -21.834 -1.66699 -33.501 -5s-22.167 -8 -31.5 -14s-17.166 -13.667 -23.499 -23s-9.5 -20 -9.5 -32c0 -20.667 6.83301 -36 20.5 -46s30.5 -17.833 50.5 -23.5s42 -10.5 66 -14.5s46 -10.5 66 -19.5s36.833 -22 50.5 -39
s20.5 -41.167 20.5 -72.5c0 -24 -4.5 -44.833 -13.5 -62.5s-21.333 -32.5 -37 -44.5s-33.5 -21 -53.5 -27s-41 -9 -63 -9c-40 0 -76.5 7.66699 -109.5 23s-58.5 39 -76.5 71zM181.998 708.001h70l108 -144h-65l-81 108l-81 -108h-59z" />
    <glyph glyph-name="Scedilla" unicode="&#x15e;" horiz-adv-x="556" 
d="M116 131c17.333 -30 39.667 -52.3252 67 -66.9922s59 -22 95 -22c22 0 42.667 3.33301 62 10s36.166 16 50.499 28s25.666 26.5 33.999 43.5s12.5 36.167 12.5 57.5c0 24.667 -5.16699 45 -15.5 61s-24.166 29.167 -41.499 39.5s-36.833 19.166 -58.5 26.499l-67 22
c-23 7.33301 -45.333 15.666 -67 24.999s-41.167 21.5 -58.5 36.5s-31.166 33.833 -41.499 56.5s-15.5 50.667 -15.5 84c0 31.333 6.16699 59.166 18.5 83.499s29 44.666 50 60.999s45.167 28.666 72.5 36.999s56 12.5 86 12.5c38.667 0 74.5 -6.83301 107.5 -20.5
s61.5 -36.5 85.5 -68.5l-57 -41c-32.667 46.667 -78.667 70 -138 70c-21.333 0 -41.666 -2.83301 -60.999 -8.5s-36.166 -14 -50.499 -25s-25.833 -24.833 -34.5 -41.5s-13 -36.334 -13 -59.001c0 -35.333 9 -62.5 27 -81.5s40.5 -34 67.5 -45s56.333 -20.667 88 -29
s61 -19.5 88 -33.5s49.5 -33.5 67.5 -58.5s27 -59.5 27 -103.5c0 -30.667 -5.66699 -58 -17 -82s-26.5 -44.333 -45.5 -61s-41 -29.667 -66 -39s-50.833 -14.666 -77.5 -15.999l-34 -47l2 -2c8.66699 4.66699 19 7 31 7c21.333 0 40.5 -6 57.5 -18s25.5 -30 25.5 -54
c0 -15.333 -3.33301 -28.333 -10 -39s-15.5 -19.334 -26.5 -26.001s-23.167 -11.667 -36.5 -15s-26.333 -5 -39 -5c-33.333 0 -65 7 -95 21l14 32c22.667 -11.333 48 -17 76 -17c6.66699 0 13.667 0.833008 21 2.5s14.166 4.16699 20.499 7.5s11.5 7.66602 15.5 12.999
s6 12 6 20c0 15.333 -6 26.166 -18 32.499s-24.667 9.5 -38 9.5c-14.667 0 -29.334 -2.66699 -44.001 -8l-16 15l50 71c-42 2.66699 -80.5 12 -115.5 28s-65.167 42 -90.5 78z" />
    <glyph glyph-name="scedilla" unicode="&#x15f;" horiz-adv-x="426" 
d="M81 118c12.667 -24.667 31.168 -43.4961 55.501 -56.4961s50.5 -19.5 78.5 -19.5c12.667 0 25.334 2 38.001 6s24 9.66699 34 17s18.167 16.166 24.5 26.499s9.5 22.166 9.5 35.499c0 21.333 -6.83301 37.333 -20.5 48s-30.5 19 -50.5 25s-42 11.167 -66 15.5
s-46 11 -66 20s-36.833 21.5 -50.5 37.5s-20.5 38.667 -20.5 68c0 22.667 4.66699 42.334 14 59.001s21.5 30.5 36.5 41.5s31.833 19.167 50.5 24.5s37.667 8 57 8c38 0 70.833 -7 98.5 -21s49.167 -36 64.5 -66l-54 -32c-11.333 21.333 -25.333 37.5 -42 48.5
s-39 16.5 -67 16.5c-10.667 0 -21.834 -1.66699 -33.501 -5s-22.167 -8 -31.5 -14s-17.166 -13.667 -23.499 -23s-9.5 -20 -9.5 -32c0 -20.667 6.83301 -36 20.5 -46s30.5 -17.833 50.5 -23.5s42 -10.5 66 -14.5s46 -10.5 66 -19.5s36.833 -22 50.5 -39
s20.5 -41.167 20.5 -72.5c0 -22 -4 -41.5 -12 -58.5s-18.833 -31.5 -32.5 -43.5s-29.5 -21.333 -47.5 -28s-37 -10.667 -57 -12l-39 -53l2 -2c8.66699 4.66699 19 7 31 7c21.333 0 40.5 -6 57.5 -18s25.5 -30 25.5 -54c0 -15.333 -3.33301 -28.333 -10 -39
s-15.5 -19.334 -26.5 -26.001s-23.167 -11.667 -36.5 -15s-26.333 -5 -39 -5c-33.333 0 -65 7 -95 21l14 32c22.667 -11.333 48 -17 76 -17c6.66699 0 13.667 0.833008 21 2.5s14.166 4.16699 20.499 7.5s11.5 7.66602 15.5 12.999s6 12 6 20c0 15.333 -6 26.166 -18 32.499
s-24.667 9.5 -38 9.5c-14.667 0 -29.334 -2.66699 -44.001 -8l-16 15l55 77c-36 2 -68.5 10.5 -97.5 25.5s-51.833 37.5 -68.5 67.5z" />
    <glyph glyph-name="Scaron" unicode="&#x160;" horiz-adv-x="556" 
d="M116 131c17.333 -30 39.832 -52.3271 67.499 -66.9941s59.167 -22 94.5 -22c22 0 42.667 3.33301 62 10s36.166 16 50.499 28s25.666 26.5 33.999 43.5s12.5 36.167 12.5 57.5c0 24.667 -5.16699 45 -15.5 61s-24.166 29.167 -41.499 39.5s-36.833 19.166 -58.5 26.499
l-67 22c-23 7.33301 -45.333 15.666 -67 24.999s-41.167 21.5 -58.5 36.5s-31.166 33.833 -41.499 56.5s-15.5 50.667 -15.5 84c0 31.333 6.16699 59.166 18.5 83.499s29 44.666 50 60.999s45.167 28.666 72.5 36.999s56 12.5 86 12.5c38.667 0 74.5 -6.83301 107.5 -20.5
s61.5 -36.5 85.5 -68.5l-57 -41c-16.667 23.333 -36.167 40.833 -58.5 52.5s-48.833 17.5 -79.5 17.5c-21.333 0 -41.666 -2.83301 -60.999 -8.5s-36.166 -14 -50.499 -25s-25.833 -24.833 -34.5 -41.5s-13 -36.334 -13 -59.001c0 -35.333 9 -62.5 27 -81.5
s40.5 -34 67.5 -45s56.333 -20.667 88 -29s61 -19.5 88 -33.5s49.5 -33.5 67.5 -58.5s27 -59.5 27 -103.5c0 -32 -6 -60.333 -18 -85s-28.167 -45.5 -48.5 -62.5s-43.833 -29.833 -70.5 -38.5s-54.334 -13 -83.001 -13c-46.667 0 -89.667 8.16699 -129 24.5
s-73 43.833 -101 82.5zM310.999 752.006h-70l-109 144h62l83 -114l86 114h54z" />
    <glyph glyph-name="scaron" unicode="&#x161;" horiz-adv-x="426" 
d="M81 118c12.667 -24.667 31.332 -43.499 55.999 -56.499s50.667 -19.5 78 -19.5c12.667 0 25.334 2 38.001 6s24 9.66699 34 17s18.167 16.166 24.5 26.499s9.5 22.166 9.5 35.499c0 21.333 -6.83301 37.333 -20.5 48s-30.5 19 -50.5 25s-42 11.167 -66 15.5
s-46 11 -66 20s-36.833 21.5 -50.5 37.5s-20.5 38.667 -20.5 68c0 22.667 4.66699 42.334 14 59.001s21.5 30.5 36.5 41.5s31.833 19.167 50.5 24.5s37.667 8 57 8c38 0 70.833 -7 98.5 -21s49.167 -36 64.5 -66l-54 -32c-11.333 21.333 -25.5 37.5 -42.5 48.5
s-39.167 16.5 -66.5 16.5c-10.667 0 -21.834 -1.66699 -33.501 -5s-22.167 -8 -31.5 -14s-17.166 -13.667 -23.499 -23s-9.5 -20 -9.5 -32c0 -20.667 6.83301 -36 20.5 -46s30.5 -17.833 50.5 -23.5s42 -10.5 66 -14.5s46 -10.5 66 -19.5s36.833 -22 50.5 -39
s20.5 -41.167 20.5 -72.5c0 -24 -4.5 -44.833 -13.5 -62.5s-21.333 -32.5 -37 -44.5s-33.5 -21 -53.5 -27s-41 -9 -63 -9c-40 0 -76.5 7.66699 -109.5 23s-58.5 39 -76.5 71zM245.998 564.001h-70l-109 144h62l83 -114l86 114h54z" />
    <glyph glyph-name="Tcommaaccent" unicode="&#x162;" horiz-adv-x="574" 
d="M254 648h-242v60h550v-60h-242v-648h-66v648zM259 -66h65l-62 -165h-53z" />
    <glyph glyph-name="tcommaaccent" unicode="&#x163;" horiz-adv-x="333" 
d="M306 408h-132.004v-301c0 -20.667 5.66699 -36.667 17 -48s27 -17 47 -17c11.333 0 22.833 1.5 34.5 4.5s22.834 6.83301 33.501 11.5l5 -54c-11.333 -4 -24.333 -7.66699 -39 -11s-27.667 -5 -39 -5c-21.333 0 -39.666 3.16699 -54.999 9.5s-27.666 14.833 -36.999 25.5
s-16.166 23.167 -20.499 37.5s-6.5 29.833 -6.5 46.5v301h-100v54h100v133h60v-133h132v-54zM157.996 -66h65l-62 -165h-53z" />
    <glyph glyph-name="Tcaron" unicode="&#x164;" horiz-adv-x="574" 
d="M254 648h-242v60h550v-60h-242v-648h-66v648zM324 752h-70l-109 144h62l83 -114l86 114h54z" />
    <glyph glyph-name="tcaron" unicode="&#x165;" horiz-adv-x="333" 
d="M306 408h-132.004v-301c0 -20.667 5.66699 -36.667 17 -48s27 -17 47 -17c11.333 0 22.833 1.5 34.5 4.5s22.834 6.83301 33.501 11.5l5 -54c-11.333 -4 -24.333 -7.66699 -39 -11s-27.667 -5 -39 -5c-21.333 0 -39.666 3.16699 -54.999 9.5s-27.666 14.833 -36.999 25.5
s-16.166 23.167 -20.499 37.5s-6.5 29.833 -6.5 46.5v301h-100v54h100v133h60v-133h132v-54zM277.996 708h65l-63 -185h-53z" />
    <glyph glyph-name="Tbar" unicode="&#x166;" horiz-adv-x="574" 
d="M470 414h-150v-414h-66v414h-148v48h148v186h-242v60h550v-60h-242v-186h150v-48z" />
    <glyph glyph-name="tbar" unicode="&#x167;" horiz-adv-x="333" 
d="M291 277h-117.004v-170c0 -20.667 5.66699 -36.667 17 -48s27 -17 47 -17c11.333 0 22.833 1.5 34.5 4.5s22.834 6.83301 33.501 11.5l5 -54c-11.333 -4 -24.333 -7.66699 -39 -11s-27.667 -5 -39 -5c-21.333 0 -39.666 3.16699 -54.999 9.5s-27.666 14.833 -36.999 25.5
s-16.166 23.167 -20.499 37.5s-6.5 29.833 -6.5 46.5v170h-87v48h87v83h-100v54h100v133h60v-133h132v-54h-132v-83h117v-48z" />
    <glyph glyph-name="Utilde" unicode="&#x168;" horiz-adv-x="684" 
d="M600 271c0 -38 -4.33496 -74.333 -13.002 -109s-23.167 -65.334 -43.5 -92.001s-47 -48 -80 -64s-73.5 -24 -121.5 -24s-88.5 8 -121.5 24s-59.667 37.333 -80 64s-34.833 57.334 -43.5 92.001s-13 71 -13 109v437h66v-420c0 -25.333 2.33301 -52.333 7 -81
s13.834 -55.334 27.501 -80.001s33 -45 58 -61s58.167 -24 99.5 -24s74.5 8 99.5 24s44.333 36.333 58 61s22.834 51.334 27.501 80.001s7 55.667 7 81v420h66v-437zM186.998 769c1.33301 11.333 4.33203 23.168 8.99902 35.501s10.667 23.166 18 32.499
c7.33301 10 16.333 18.167 27 24.5s22.667 9.5 36 9.5s26.333 -2.66699 39 -8s24.667 -11 36 -17l33 -15.5c10.667 -5 20.667 -7.5 30 -7.5c14.667 0 25.667 5 33 15s12.333 21 15 33h36c-1.33301 -12 -4 -24.167 -8 -36.5s-9.5 -23.333 -16.5 -33s-15.5 -17.5 -25.5 -23.5
s-21.333 -9 -34 -9c-13.333 0 -26.166 2.66699 -38.499 8l-36.5 16l-34.5 16c-11 5.33301 -21.5 8 -31.5 8c-15.333 0 -26.833 -5 -34.5 -15s-13.167 -21 -16.5 -33h-36z" />
    <glyph glyph-name="utilde" unicode="&#x169;" horiz-adv-x="556" 
d="M471 130c0 -8.66699 0.333984 -19.168 1.00098 -31.501s1.16699 -24.833 1.5 -37.5s0.833008 -24.5 1.5 -35.5s1 -19.5 1 -25.5h-60c-0.666992 17.333 -1.16699 34 -1.5 50s-1.16602 26.333 -2.49902 31h-3c-12 -25.333 -32 -47.166 -60 -65.499s-60.667 -27.5 -98 -27.5
c-36 0 -65.5 5.66699 -88.5 17s-41 26.166 -54 44.499s-21.833 39.5 -26.5 63.5s-7 48.667 -7 74v275h60v-272c0 -18.667 1.66699 -36.834 5 -54.501s9.16602 -33.5 17.499 -47.5s20 -25.167 35 -33.5s34.5 -12.5 58.5 -12.5c22 0 42.833 3.83301 62.5 11.5
s36.667 19.334 51 35.001s25.666 35.334 33.999 59.001s12.5 51.5 12.5 83.5v231h60v-332zM121.001 580.999c1.33301 11.333 4.33203 23.168 8.99902 35.501s10.667 23.166 18 32.499c7.33301 10 16.333 18.167 27 24.5s22.667 9.5 36 9.5s26.333 -2.66699 39 -8
s24.667 -11 36 -17l33 -15.5c10.667 -5 20.667 -7.5 30 -7.5c14.667 0 25.667 5 33 15s12.333 21 15 33h36c-1.33301 -12 -4 -24.167 -8 -36.5s-9.5 -23.333 -16.5 -33s-15.333 -17.5 -25 -23.5s-21.167 -9 -34.5 -9s-26.166 2.66699 -38.499 8l-36.5 16l-34.5 16
c-11 5.33301 -21.5 8 -31.5 8c-15.333 0 -26.833 -5 -34.5 -15s-13.167 -21 -16.5 -33h-36z" />
    <glyph glyph-name="Umacron" unicode="&#x16a;" horiz-adv-x="684" 
d="M600 271c0 -38 -4.33496 -74.333 -13.002 -109s-23.167 -65.334 -43.5 -92.001s-47 -48 -80 -64s-73.5 -24 -121.5 -24s-88.5 8 -121.5 24s-59.667 37.333 -80 64s-34.833 57.334 -43.5 92.001s-13 71 -13 109v437h66v-420c0 -25.333 2.33301 -52.333 7 -81
s13.834 -55.334 27.501 -80.001s33 -45 58 -61s58.167 -24 99.5 -24s74.5 8 99.5 24s44.333 36.333 58 61s22.834 51.334 27.501 80.001s7 55.667 7 81v420h66v-437zM474.998 799h-264v48h264v-48z" />
    <glyph glyph-name="umacron" unicode="&#x16b;" horiz-adv-x="556" 
d="M471 130c0 -8.66699 0.333984 -19.168 1.00098 -31.501s1.16699 -24.833 1.5 -37.5s0.833008 -24.5 1.5 -35.5s1 -19.5 1 -25.5h-60c-0.666992 17.333 -1.16699 34 -1.5 50s-1.16602 26.333 -2.49902 31h-3c-12 -25.333 -32 -47.166 -60 -65.499s-60.667 -27.5 -98 -27.5
c-36 0 -65.5 5.66699 -88.5 17s-41 26.166 -54 44.499s-21.833 39.5 -26.5 63.5s-7 48.667 -7 74v275h60v-272c0 -18.667 1.66699 -36.834 5 -54.501s9.16602 -33.5 17.499 -47.5s20 -25.167 35 -33.5s34.5 -12.5 58.5 -12.5c22 0 42.833 3.83301 62.5 11.5
s36.667 19.334 51 35.001s25.666 35.334 33.999 59.001s12.5 51.5 12.5 83.5v231h60v-332zM409.001 605.999h-264v48h264v-48z" />
    <glyph glyph-name="Ubreve" unicode="&#x16c;" horiz-adv-x="684" 
d="M600 271c0 -38 -4.33496 -74.333 -13.002 -109s-23.167 -65.334 -43.5 -92.001s-47 -48 -80 -64s-73.5 -24 -121.5 -24s-88.5 8 -121.5 24s-59.667 37.333 -80 64s-34.833 57.334 -43.5 92.001s-13 71 -13 109v437h66v-420c0 -25.333 2.33301 -52.333 7 -81
s13.834 -55.334 27.501 -80.001s33 -45 58 -61s58.167 -24 99.5 -24s74.5 8 99.5 24s44.333 36.333 58 61s22.834 51.334 27.501 80.001s7 55.667 7 81v420h66v-437zM240.998 881c4 -26.667 15.167 -46.333 33.5 -59s40.5 -19 66.5 -19c30 0 53.167 5.5 69.5 16.5
s27.833 31.5 34.5 61.5h42c-4.66699 -40 -20.167 -71 -46.5 -93s-59.5 -33 -99.5 -33s-73.167 11 -99.5 33s-40.5 53 -42.5 93h42z" />
    <glyph glyph-name="ubreve" unicode="&#x16d;" horiz-adv-x="556" 
d="M471 130c0 -8.66699 0.333984 -19.168 1.00098 -31.501s1.16699 -24.833 1.5 -37.5s0.833008 -24.5 1.5 -35.5s1 -19.5 1 -25.5h-60c-0.666992 17.333 -1.16699 34 -1.5 50s-1.16602 26.333 -2.49902 31h-3c-12 -25.333 -32 -47.166 -60 -65.499s-60.667 -27.5 -98 -27.5
c-36 0 -65.5 5.66699 -88.5 17s-41 26.166 -54 44.499s-21.833 39.5 -26.5 63.5s-7 48.667 -7 74v275h60v-272c0 -18.667 1.66699 -36.834 5 -54.501s9.16602 -33.5 17.499 -47.5s20 -25.167 35 -33.5s34.5 -12.5 58.5 -12.5c22 0 42.833 3.83301 62.5 11.5
s36.667 19.334 51 35.001s25.666 35.334 33.999 59.001s12.5 51.5 12.5 83.5v231h60v-332zM175.001 707.999c4 -26.667 15.167 -46.332 33.5 -58.999s40.5 -19 66.5 -19c30 0 53.167 5.66699 69.5 17s27.833 31.666 34.5 60.999h42c-4.66699 -40 -20.167 -71 -46.5 -93
s-59.5 -33 -99.5 -33c-39.333 0 -72.333 11 -99 33s-41 53 -43 93h42z" />
    <glyph glyph-name="Uring" unicode="&#x16e;" horiz-adv-x="684" 
d="M600 271c0 -38 -4.33496 -74.333 -13.002 -109s-23.167 -65.334 -43.5 -92.001s-47 -48 -80 -64s-73.5 -24 -121.5 -24s-88.5 8 -121.5 24s-59.667 37.333 -80 64s-34.833 57.334 -43.5 92.001s-13 71 -13 109v437h66v-420c0 -25.333 2.33301 -52.333 7 -81
s13.834 -55.334 27.501 -80.001s33 -45 58 -61s58.167 -24 99.5 -24s74.5 8 99.5 24s44.333 36.333 58 61s22.834 51.334 27.501 80.001s7 55.667 7 81v420h66v-437zM249.998 837c0 12.667 2.5 24.833 7.5 36.5s11.667 21.834 20 30.501s18.166 15.5 29.499 20.5
s23.666 7.5 36.999 7.5c12.667 0 24.667 -2.66699 36 -8s21.166 -12.5 29.499 -21.5s14.833 -19.167 19.5 -30.5s7 -23.333 7 -36c0 -12 -2.33301 -23.667 -7 -35s-11.167 -21.333 -19.5 -30s-18.166 -15.667 -29.499 -21s-23.333 -8 -36 -8
c-13.333 0 -25.666 2.5 -36.999 7.5s-21.166 11.833 -29.499 20.5s-15 18.667 -20 30s-7.5 23.666 -7.5 36.999zM399.998 836.999c0 16.667 -5.33203 30.668 -15.999 42.001s-24.334 17 -41.001 17s-30.334 -5.83301 -41.001 -17.5s-16 -25.834 -16 -42.501
s5.5 -30.5 16.5 -41.5s24.5 -16.5 40.5 -16.5c16.667 0 30.334 5.66699 41.001 17s16 25.333 16 42z" />
    <glyph glyph-name="uring" unicode="&#x16f;" horiz-adv-x="556" 
d="M471 130c0 -8.66699 0.333984 -19.168 1.00098 -31.501s1.16699 -24.833 1.5 -37.5s0.833008 -24.5 1.5 -35.5s1 -19.5 1 -25.5h-60c-0.666992 17.333 -1.16699 34 -1.5 50s-1.16602 26.333 -2.49902 31h-3c-12 -25.333 -32 -47.166 -60 -65.499s-60.667 -27.5 -98 -27.5
c-36 0 -65.5 5.66699 -88.5 17s-41 26.166 -54 44.499s-21.833 39.5 -26.5 63.5s-7 48.667 -7 74v275h60v-272c0 -18.667 1.66699 -36.834 5 -54.501s9.16602 -33.5 17.499 -47.5s20 -25.167 35 -33.5s34.5 -12.5 58.5 -12.5c22 0 42.833 3.83301 62.5 11.5
s36.667 19.334 51 35.001s25.666 35.334 33.999 59.001s12.5 51.5 12.5 83.5v231h60v-332zM184.001 648.999c0 12.667 2.5 24.8301 7.5 36.4971s11.667 21.834 20 30.501s18.166 15.5 29.499 20.5s23.666 7.5 36.999 7.5c12.667 0 24.667 -2.66699 36 -8
s21.166 -12.5 29.499 -21.5s14.833 -19.167 19.5 -30.5s7 -23.333 7 -36c0 -12 -2.33301 -23.667 -7 -35s-11.167 -21.333 -19.5 -30s-18.166 -15.667 -29.499 -21s-23.333 -8 -36 -8c-13.333 0 -25.666 2.5 -36.999 7.5s-21.166 11.833 -29.499 20.5s-15 18.834 -20 30.501
s-7.5 23.834 -7.5 36.501zM334.001 648.995c0 16.667 -5.33203 30.668 -15.999 42.001s-24.334 17 -41.001 17s-30.334 -5.83301 -41.001 -17.5s-16 -25.834 -16 -42.501s5.5 -30.5 16.5 -41.5s24.5 -16.5 40.5 -16.5c16.667 0 30.334 5.66699 41.001 17s16 25.333 16 42z
" />
    <glyph glyph-name="Uhungarumlaut" unicode="&#x170;" horiz-adv-x="684" 
d="M600 271c0 -38 -4.33496 -74.333 -13.002 -109s-23.167 -65.334 -43.5 -92.001s-47 -48 -80 -64s-73.5 -24 -121.5 -24s-88.5 8 -121.5 24s-59.667 37.333 -80 64s-34.833 57.334 -43.5 92.001s-13 71 -13 109v437h66v-420c0 -25.333 2.33301 -52.333 7 -81
s13.834 -55.334 27.501 -80.001s33 -45 58 -61s58.167 -24 99.5 -24s74.5 8 99.5 24s44.333 36.333 58 61s22.834 51.334 27.501 80.001s7 55.667 7 81v420h66v-437zM325.998 896h80l-134 -144h-50zM471.998 896h80l-134 -144h-50z" />
    <glyph glyph-name="uhungarumlaut" unicode="&#x171;" horiz-adv-x="556" 
d="M471 130c0 -8.66699 0.333984 -19.168 1.00098 -31.501s1.16699 -24.833 1.5 -37.5s0.833008 -24.5 1.5 -35.5s1 -19.5 1 -25.5h-60c-0.666992 17.333 -1.16699 34 -1.5 50s-1.16602 26.333 -2.49902 31h-3c-12 -25.333 -32 -47.166 -60 -65.499s-60.667 -27.5 -98 -27.5
c-36 0 -65.5 5.66699 -88.5 17s-41 26.166 -54 44.499s-21.833 39.5 -26.5 63.5s-7 48.667 -7 74v275h60v-272c0 -18.667 1.66699 -36.834 5 -54.501s9.16602 -33.5 17.499 -47.5s20 -25.167 35 -33.5s34.5 -12.5 58.5 -12.5c22 0 42.833 3.83301 62.5 11.5
s36.667 19.334 51 35.001s25.666 35.334 33.999 59.001s12.5 51.5 12.5 83.5v231h60v-332zM260.001 707.999h80l-134 -144h-50zM406.001 707.999h80l-134 -144h-50z" />
    <glyph glyph-name="Uogonek" unicode="&#x172;" horiz-adv-x="684" 
d="M442 -183c-10.667 -9.33301 -22.835 -17.165 -36.502 -23.498s-29.834 -9.5 -48.501 -9.5c-26.667 0 -48.667 7.33301 -66 22s-26 34.667 -26 60c0 23.333 6.66699 44.833 20 64.5s28.666 37.167 45.999 52.5c-46 1.33301 -84.667 10.166 -116 26.499
s-56.833 37.666 -76.5 63.999s-33.667 56.5 -42 90.5s-12.5 69.667 -12.5 107v437h66v-420c0 -25.333 2.33301 -52.333 7 -81s13.834 -55.334 27.501 -80.001s33 -45 58 -61s58.167 -24 99.5 -24c40.667 0 73.667 8 99 24s44.833 36.333 58.5 61
s22.834 51.334 27.501 80.001s7 55.667 7 81v420h66v-437c0 -35.333 -3.83301 -69.333 -11.5 -102s-20.167 -62 -37.5 -88s-40.166 -47.667 -68.499 -65s-62.833 -28 -103.5 -32c-13.333 -12.667 -25.666 -28.167 -36.999 -46.5s-17 -37.833 -17 -58.5
c0 -31.333 14.333 -47 43 -47c14 0 25.5 2.5 34.5 7.5s15.833 10.167 20.5 15.5z" />
    <glyph glyph-name="uogonek" unicode="&#x173;" horiz-adv-x="556" 
d="M505 -183c-10.667 -9.33301 -22.832 -17.167 -36.499 -23.5s-29.834 -9.5 -48.501 -9.5c-26.667 0 -48.667 7.33301 -66 22s-26 34.667 -26 60c0 14 2.66699 27.333 8 40s12.166 24.5 20.499 35.5s17.833 21.5 28.5 31.5s21 19 31 27
c-0.666992 17.333 -1.16699 34 -1.5 50s-1.16602 26.333 -2.49902 31h-3c-12 -25.333 -32 -47.166 -60 -65.499s-60.667 -27.5 -98 -27.5c-36 0 -65.5 5.66699 -88.5 17s-41 26.166 -54 44.499s-21.833 39.5 -26.5 63.5s-7 48.667 -7 74v275h60v-272
c0 -18.667 1.66699 -36.834 5 -54.501s9.16602 -33.5 17.499 -47.5s20 -25.167 35 -33.5s34.5 -12.5 58.5 -12.5c22 0 42.833 3.83301 62.5 11.5s36.667 19.334 51 35.001s25.666 35.334 33.999 59.001s12.5 51.5 12.5 83.5v231h60v-332
c0 -8.66699 0.333008 -19.167 1 -31.5s1.16699 -24.833 1.5 -37.5s0.833008 -24.5 1.5 -35.5s1 -19.5 1 -25.5h-15c-7.33301 -5.33301 -15.166 -12.333 -23.499 -21s-16.166 -18.334 -23.499 -29.001s-13.5 -22 -18.5 -34s-7.5 -24.333 -7.5 -37
c0 -31.333 14.333 -47 43 -47c14 0 25.5 2.5 34.5 7.5s15.833 10.167 20.5 15.5z" />
    <glyph glyph-name="Wcircumflex" unicode="&#x174;" horiz-adv-x="944" 
d="M5 708h68l176 -627h2l179 627h84l179 -627h2l176 627h68l-206 -708h-81l-179 630h-2l-179 -630h-81zM437 896h70l108 -144h-65l-81 108l-81 -108h-59z" />
    <glyph glyph-name="wcircumflex" unicode="&#x175;" horiz-adv-x="704" 
d="M15 462h66l112 -387h2l129 387h57l137 -387h2l109 387h60l-136 -462h-62l-138 378h-2l-129 -378h-62zM318 708h70l108 -144h-65l-81 108l-81 -108h-59z" />
    <glyph glyph-name="Ycircumflex" unicode="&#x176;" horiz-adv-x="574" 
d="M254 305l-260 403h79l214 -336l219 336h74l-260 -403v-305h-66v305zM252 896h70l108 -144h-65l-81 108l-81 -108h-59z" />
    <glyph glyph-name="ycircumflex" unicode="&#x177;" horiz-adv-x="463" 
d="M210 -143c-11.333 -30 -26.999 -53.668 -46.999 -71.001s-46.667 -26 -80 -26c-10 0 -20 0.833008 -30 2.5s-19.667 3.83398 -29 6.50098l6 56c8.66699 -2.66699 17.5 -5.16699 26.5 -7.5s18.167 -3.5 27.5 -3.5c10.667 0 20.167 2.33301 28.5 7s15.5 10.667 21.5 18
s11.167 15.5 15.5 24.5s8.16602 18.167 11.499 27.5l42 107l-188 464h67l153 -389l149 389h64zM202.001 707.999h70l108 -144h-65l-81 108l-81 -108h-59z" />
    <glyph glyph-name="Ydieresis" unicode="&#x178;" horiz-adv-x="574" 
d="M254 305l-260 403h79l214 -336l219 336h74l-260 -403v-305h-66v305zM144 840c0 13.333 4.66699 24.666 14 33.999s20.666 14 33.999 14s24.666 -4.66699 33.999 -14s14 -20.666 14 -33.999s-4.66699 -24.666 -14 -33.999s-20.666 -14 -33.999 -14
s-24.666 4.66699 -33.999 14s-14 20.666 -14 33.999zM334 840c0 13.333 4.66699 24.666 14 33.999s20.666 14 33.999 14s24.666 -4.66699 33.999 -14s14 -20.666 14 -33.999s-4.66699 -24.666 -14 -33.999s-20.666 -14 -33.999 -14s-24.666 4.66699 -33.999 14
s-14 20.666 -14 33.999z" />
    <glyph glyph-name="Zacute" unicode="&#x179;" horiz-adv-x="556" 
d="M23 52l414 596h-408v60h493v-54l-417 -594h428v-60h-510v52zM329 896h80l-134 -144h-50z" />
    <glyph glyph-name="zacute" unicode="&#x17a;" horiz-adv-x="426" 
d="M27 36l277 372h-263v54h346v-36l-276 -372h288v-54h-372v36zM266 708h80l-134 -144h-50z" />
    <glyph glyph-name="Zdotaccent" unicode="&#x17b;" horiz-adv-x="556" 
d="M23 52l414 596h-408v60h493v-54l-417 -594h428v-60h-510v52zM246 840c0 13.333 4.66699 24.666 14 33.999s20.666 14 33.999 14s24.666 -4.66699 33.999 -14s14 -20.666 14 -33.999s-4.66699 -24.666 -14 -33.999s-20.666 -14 -33.999 -14s-24.666 4.66699 -33.999 14
s-14 20.666 -14 33.999z" />
    <glyph glyph-name="zdotaccent" unicode="&#x17c;" horiz-adv-x="426" 
d="M27 36l277 372h-263v54h346v-36l-276 -372h288v-54h-372v36zM184 652c0 13.333 4.66699 24.666 14 33.999s20.666 14 33.999 14s24.666 -4.66699 33.999 -14s14 -20.666 14 -33.999s-4.66699 -24.666 -14 -33.999s-20.666 -14 -33.999 -14s-24.666 4.66699 -33.999 14
s-14 20.666 -14 33.999z" />
    <glyph glyph-name="Zcaron" unicode="&#x17d;" horiz-adv-x="556" 
d="M23 52l414 596h-408v60h493v-54l-417 -594h428v-60h-510v52zM311 752h-70l-109 144h62l83 -114l86 114h54z" />
    <glyph glyph-name="zcaron" unicode="&#x17e;" horiz-adv-x="426" 
d="M27 36l277 372h-263v54h346v-36l-276 -372h288v-54h-372v36zM246 564h-70l-109 144h62l83 -114l86 114h54z" />
    <glyph glyph-name="florin" unicode="&#x192;" horiz-adv-x="520" 
d="M395 371l-116.995 0.00195312l-72 -391c-7.33301 -38.667 -22.166 -69 -44.499 -91s-55.166 -33 -98.499 -33c-14 0 -27.833 1.66699 -41.5 5s-26.167 9.66602 -37.5 18.999l30 47c7.33301 -6 15.666 -10.333 24.999 -13s18.666 -4 27.999 -4
c26.667 0 46.167 9.5 58.5 28.5s21.833 46.5 28.5 82.5l64 350h-108v48h117l29 154c3.33301 17.333 8.16602 34.833 14.499 52.5s15.166 33.5 26.499 47.5s25.333 25.333 42 34s36.667 13 60 13c32.667 0 62.667 -10 90 -30l-32 -45c-8.66699 6 -17.834 11 -27.501 15
s-19.834 6 -30.501 6c-25.333 0 -44.333 -8.83301 -57 -26.5s-21.334 -38.834 -26.001 -63.501l-29 -157h108v-48z" />
    <glyph glyph-name="Scommaaccent" unicode="&#x218;" horiz-adv-x="556" 
d="M116 131c17.333 -30 39.832 -52.3271 67.499 -66.9941s59.167 -22 94.5 -22c22 0 42.667 3.33301 62 10s36.166 16 50.499 28s25.666 26.5 33.999 43.5s12.5 36.167 12.5 57.5c0 24.667 -5.16699 45 -15.5 61s-24.166 29.167 -41.499 39.5s-36.833 19.166 -58.5 26.499
l-67 22c-23 7.33301 -45.333 15.666 -67 24.999s-41.167 21.5 -58.5 36.5s-31.166 33.833 -41.499 56.5s-15.5 50.667 -15.5 84c0 31.333 6.16699 59.166 18.5 83.499s29 44.666 50 60.999s45.167 28.666 72.5 36.999s56 12.5 86 12.5c38.667 0 74.5 -6.83301 107.5 -20.5
s61.5 -36.5 85.5 -68.5l-57 -41c-16.667 23.333 -36.167 40.833 -58.5 52.5s-48.833 17.5 -79.5 17.5c-21.333 0 -41.666 -2.83301 -60.999 -8.5s-36.166 -14 -50.499 -25s-25.833 -24.833 -34.5 -41.5s-13 -36.334 -13 -59.001c0 -35.333 9 -62.5 27 -81.5
s40.5 -34 67.5 -45s56.333 -20.667 88 -29s61 -19.5 88 -33.5s49.5 -33.5 67.5 -58.5s27 -59.5 27 -103.5c0 -32 -6 -60.333 -18 -85s-28.167 -45.5 -48.5 -62.5s-43.833 -29.833 -70.5 -38.5s-54.334 -13 -83.001 -13c-46.667 0 -89.667 8.16699 -129 24.5
s-73 43.833 -101 82.5zM253.999 -65.9941h65l-62 -165h-53z" />
    <glyph glyph-name="scommaaccent" unicode="&#x219;" horiz-adv-x="426" 
d="M81 118c12.667 -24.667 31.332 -43.499 55.999 -56.499s50.667 -19.5 78 -19.5c12.667 0 25.334 2 38.001 6s24 9.66699 34 17s18.167 16.166 24.5 26.499s9.5 22.166 9.5 35.499c0 21.333 -6.83301 37.333 -20.5 48s-30.5 19 -50.5 25s-42 11.167 -66 15.5
s-46 11 -66 20s-36.833 21.5 -50.5 37.5s-20.5 38.667 -20.5 68c0 22.667 4.66699 42.334 14 59.001s21.5 30.5 36.5 41.5s31.833 19.167 50.5 24.5s37.667 8 57 8c38 0 70.833 -7 98.5 -21s49.167 -36 64.5 -66l-54 -32c-11.333 21.333 -25.5 37.5 -42.5 48.5
s-39.167 16.5 -66.5 16.5c-10.667 0 -21.834 -1.66699 -33.501 -5s-22.167 -8 -31.5 -14s-17.166 -13.667 -23.499 -23s-9.5 -20 -9.5 -32c0 -20.667 6.83301 -36 20.5 -46s30.5 -17.833 50.5 -23.5s42 -10.5 66 -14.5s46 -10.5 66 -19.5s36.833 -22 50.5 -39
s20.5 -41.167 20.5 -72.5c0 -24 -4.5 -44.833 -13.5 -62.5s-21.333 -32.5 -37 -44.5s-33.5 -21 -53.5 -27s-41 -9 -63 -9c-40 0 -76.5 7.66699 -109.5 23s-58.5 39 -76.5 71zM191.998 -65.999h65l-62 -165h-53z" />
    <glyph glyph-name="uni021A" unicode="&#x21a;" horiz-adv-x="574" 
d="M254 648h-242v60h550v-60h-242v-648h-66v648zM259 -66h65l-62 -165h-53z" />
    <glyph glyph-name="uni021B" unicode="&#x21b;" horiz-adv-x="333" 
d="M306 408h-132.004v-301c0 -20.667 5.66699 -36.667 17 -48s27 -17 47 -17c11.333 0 22.833 1.5 34.5 4.5s22.834 6.83301 33.501 11.5l5 -54c-11.333 -4 -24.333 -7.66699 -39 -11s-27.667 -5 -39 -5c-21.333 0 -39.666 3.16699 -54.999 9.5s-27.666 14.833 -36.999 25.5
s-16.166 23.167 -20.499 37.5s-6.5 29.833 -6.5 46.5v301h-100v54h100v133h60v-133h132v-54zM157.996 -66h65l-62 -165h-53z" />
    <glyph glyph-name="dotlessj" unicode="&#x237;" 
d="M150 -81c0 -24 -1.83398 -45.667 -5.50098 -65s-10.5 -36 -20.5 -50s-23.5 -24.833 -40.5 -32.5s-38.833 -11.5 -65.5 -11.5c-16 0 -32 3 -48 9l9 53c14.667 -5.33301 27.334 -8 38.001 -8c16 0 28.833 2.83301 38.5 8.5s17 13 22 22s8.33301 19.5 10 31.5
s2.5 24.667 2.5 38v548h60v-543z" />
    <glyph glyph-name="circumflex" unicode="&#x2c6;" 
d="M85 708h70l108 -144h-65l-81 108l-81 -108h-59z" />
    <glyph glyph-name="caron" unicode="&#x2c7;" 
d="M153 564h-70l-109 144h62l83 -114l86 114h54z" />
    <glyph glyph-name="uni02C9" unicode="&#x2c9;" 
d="M252 606h-264v48h264v-48z" />
    <glyph glyph-name="breve" unicode="&#x2d8;" 
d="M18 708c4 -26.667 15.167 -46.332 33.5 -58.999s40.5 -19 66.5 -19c30 0 53.167 5.66699 69.5 17s27.833 31.666 34.5 60.999h42c-4.66699 -40 -20.167 -71 -46.5 -93s-59.5 -33 -99.5 -33c-39.333 0 -72.333 11 -99 33s-41 53 -43 93h42z" />
    <glyph glyph-name="dotaccent" unicode="&#x2d9;" 
d="M75 652c0 13.333 4.66699 24.666 14 33.999s20.666 14 33.999 14s24.666 -4.66699 33.999 -14s14 -20.666 14 -33.999s-4.66699 -24.666 -14 -33.999s-20.666 -14 -33.999 -14s-24.666 4.66699 -33.999 14s-14 20.666 -14 33.999z" />
    <glyph glyph-name="ring" unicode="&#x2da;" 
d="M27 649c0 12.667 2.5 24.8301 7.5 36.4971s11.667 21.834 20 30.501s18.166 15.5 29.499 20.5s23.666 7.5 36.999 7.5c12.667 0 24.667 -2.66699 36 -8s21.166 -12.5 29.499 -21.5s14.833 -19.167 19.5 -30.5s7 -23.333 7 -36c0 -12 -2.33301 -23.667 -7 -35
s-11.167 -21.333 -19.5 -30s-18.166 -15.667 -29.499 -21s-23.333 -8 -36 -8c-13.333 0 -25.666 2.5 -36.999 7.5s-21.166 11.833 -29.499 20.5s-15 18.834 -20 30.501s-7.5 23.834 -7.5 36.501zM177 648.996c0 16.667 -5.33203 30.668 -15.999 42.001
s-24.334 17 -41.001 17s-30.334 -5.83301 -41.001 -17.5s-16 -25.834 -16 -42.501s5.5 -30.5 16.5 -41.5s24.5 -16.5 40.5 -16.5c16.667 0 30.334 5.66699 41.001 17s16 25.333 16 42z" />
    <glyph glyph-name="ogonek" unicode="&#x2db;" 
d="M187 -183c-10.667 -9.33301 -22.833 -17.168 -36.5 -23.501s-29.834 -9.5 -48.501 -9.5c-26.667 0 -48.667 7.33301 -66 22s-26 34.667 -26 60c0 14 2.66699 27.333 8 40s12.166 24.667 20.499 36s17.833 21.833 28.5 31.5s21 18.5 31 26.5h45
c-7.33301 -5.33301 -15.166 -12.333 -23.499 -21s-16.166 -18.167 -23.499 -28.5s-13.5 -21.666 -18.5 -33.999s-7.5 -24.833 -7.5 -37.5c0 -31.333 14.333 -47 43 -47c14 0 25.5 2.5 34.5 7.5s15.833 10.167 20.5 15.5z" />
    <glyph glyph-name="tilde" unicode="&#x2dc;" 
d="M-36 581c1.33301 11.333 4.33203 23.168 8.99902 35.501s10.667 23.166 18 32.499c7.33301 10 16.333 18.167 27 24.5s22.667 9.5 36 9.5s26.333 -2.66699 39 -8s24.667 -11 36 -17l33 -15.5c10.667 -5 20.667 -7.5 30 -7.5c14.667 0 25.667 5 33 15s12.333 21 15 33h36
c-1.33301 -12 -4 -24.167 -8 -36.5s-9.5 -23.333 -16.5 -33s-15.333 -17.5 -25 -23.5s-21.167 -9 -34.5 -9s-26.166 2.66699 -38.499 8l-36.5 16l-34.5 16c-11 5.33301 -21.5 8 -31.5 8c-15.333 0 -26.833 -5 -34.5 -15s-13.167 -21 -16.5 -33h-36z" />
    <glyph glyph-name="hungarumlaut" unicode="&#x2dd;" 
d="M93 708h80l-134 -144h-50zM239 708h80l-134 -144h-50z" />
    <glyph glyph-name="uni0394" unicode="&#x394;" horiz-adv-x="670" 
d="M15 0l281 712h74l287 -712h-642zM332 645l-226 -583h455z" />
    <glyph glyph-name="uni03A9" unicode="&#x3a9;" horiz-adv-x="744" 
d="M434 0l-0.000976562 181.002c30 5.33301 56.5 14.833 79.5 28.5s42.333 30.834 58 51.501s27.334 44 35.001 70s11.5 54 11.5 84c0 36 -6.5 69 -19.5 99s-30.833 55.833 -53.5 77.5s-49.334 38.5 -80.001 50.5s-63.667 18 -99 18s-68.333 -6.16699 -99 -18.5
s-57.334 -29.333 -80.001 -51s-40.5 -47.5 -53.5 -77.5s-19.5 -62.667 -19.5 -98c0 -29.333 3.83301 -57.166 11.5 -83.499s19.334 -49.833 35.001 -70.5s35 -38 58 -52s49.5 -23.333 79.5 -28v-181h-251v58h197v82c-31.333 8.66699 -59.166 22 -83.499 40
s-45 39.167 -62 63.5s-29.833 51.166 -38.5 80.499s-13 60 -13 92c0 44.667 8.5 85.667 25.5 123s40.167 69.5 69.5 96.5s63.333 48 102 63s79.667 22.5 123 22.5c42.667 0 83.334 -7.5 122.001 -22.5s72.5 -36 101.5 -63s52 -59.167 69 -96.5s25.5 -78 25.5 -122
c0 -32 -4.33301 -62.833 -13 -92.5s-21.334 -56.834 -38.001 -81.501s-37.167 -45.834 -61.5 -63.501s-52.5 -30.834 -84.5 -39.501v-82h197v-58h-251z" />
    <glyph glyph-name="uni03BC" unicode="&#x3bc;" horiz-adv-x="556" 
d="M471 130c0 -8.66699 0.333984 -19.1689 1.00098 -31.502s1.16699 -24.833 1.5 -37.5s0.833008 -24.5 1.5 -35.5s1 -19.5 1 -25.5h-60c-0.666992 17.333 -1.16699 34 -1.5 50s-1.16602 26.333 -2.49902 31h-3c-12 -25.333 -32 -47.166 -60 -65.499
s-60.667 -27.5 -98 -27.5c-27.333 0 -50.333 3.33301 -69 10s-34.667 16 -48 28v-254h-59v690h60v-272c0 -18.667 1.66699 -36.834 5 -54.501s9.16602 -33.5 17.499 -47.5s20 -25.167 35 -33.5s34.5 -12.5 58.5 -12.5c22 0 42.833 3.83301 62.5 11.5
s36.667 19.334 51 35.001s25.666 35.334 33.999 59.001s12.5 51.5 12.5 83.5v231h60v-332z" />
    <glyph glyph-name="pi" unicode="&#x3c0;" horiz-adv-x="563" 
d="M524 9c-10 -4.66699 -19.333 -8.33398 -28 -11.001s-18.667 -4 -30 -4c-18 0 -32 3 -42 9s-17.333 14.167 -22 24.5s-7.5 22.166 -8.5 35.499s-1.5 27.333 -1.5 42v310h-232v-415h-52v415h-70v47h482v-47h-76v-317c0 -8 0.333008 -15.667 1 -23s2.5 -13.666 5.5 -18.999
s7.33301 -9.66602 13 -12.999s13.834 -5 24.501 -5c5.33301 0 11.166 0.666992 17.499 2s12.5 3 18.5 5v-36z" />
    <glyph glyph-name="endash" unicode="&#x2013;" horiz-adv-x="500" 
d="M0 264h500v-54h-500v54z" />
    <glyph glyph-name="emdash" unicode="&#x2014;" horiz-adv-x="1000" 
d="M0 264h1000v-54h-1000v54z" />
    <glyph glyph-name="quoteleft" unicode="&#x2018;" horiz-adv-x="260" 
d="M134 480h-72l76 228h60z" />
    <glyph glyph-name="quoteright" unicode="&#x2019;" horiz-adv-x="260" 
d="M125 708h73l-77 -228h-59z" />
    <glyph glyph-name="quotesinglbase" unicode="&#x201a;" horiz-adv-x="260" 
d="M125 90h73l-77 -228h-59z" />
    <glyph glyph-name="quotedblleft" unicode="&#x201c;" horiz-adv-x="520" 
d="M178 480h-73l77 228h59zM352 480h-73l77 228h59z" />
    <glyph glyph-name="quotedblright" unicode="&#x201d;" horiz-adv-x="520" 
d="M342 708h73l-77 -228h-59zM168 708h73l-77 -228h-59z" />
    <glyph glyph-name="quotedblbase" unicode="&#x201e;" horiz-adv-x="520" 
d="M342 90h73l-77 -228h-59zM168 90h73l-77 -228h-59z" />
    <glyph glyph-name="dagger" unicode="&#x2020;" horiz-adv-x="520" 
d="M230 461h-192v48h192v199h60v-199h192v-48h-192v-587h-60v587z" />
    <glyph glyph-name="daggerdbl" unicode="&#x2021;" horiz-adv-x="520" 
d="M230 73h-192v48h192v340h-192v48h192v199h60v-199h192v-48h-192v-340h192v-48h-192v-199h-60v199z" />
    <glyph glyph-name="bullet" unicode="&#x2022;" horiz-adv-x="500" 
d="M73 354c0 24.667 4.66699 47.667 14 69s22 40 38 56s34.667 28.667 56 38s44.333 14 69 14s47.667 -4.66699 69 -14s40 -22 56 -38s28.667 -34.667 38 -56s14 -44.333 14 -69s-4.66699 -47.667 -14 -69s-22 -40 -38 -56s-34.667 -28.667 -56 -38s-44.333 -14 -69 -14
s-47.667 4.66699 -69 14s-40 22 -56 38s-28.667 34.667 -38 56s-14 44.333 -14 69z" />
    <glyph glyph-name="ellipsis" unicode="&#x2026;" horiz-adv-x="1000" 
d="M119 42c0 13.333 4.66699 24.666 14 33.999s20.666 14 33.999 14s24.666 -4.66699 33.999 -14s14 -20.666 14 -33.999s-4.66699 -24.666 -14 -33.999s-20.666 -14 -33.999 -14s-24.666 4.66699 -33.999 14s-14 20.666 -14 33.999zM452 42
c0 13.333 4.66699 24.666 14 33.999s20.666 14 33.999 14s24.666 -4.66699 33.999 -14s14 -20.666 14 -33.999s-4.66699 -24.666 -14 -33.999s-20.666 -14 -33.999 -14s-24.666 4.66699 -33.999 14s-14 20.666 -14 33.999zM785 42c0 13.333 4.66699 24.666 14 33.999
s20.666 14 33.999 14s24.666 -4.66699 33.999 -14s14 -20.666 14 -33.999s-4.66699 -24.666 -14 -33.999s-20.666 -14 -33.999 -14s-24.666 4.66699 -33.999 14s-14 20.666 -14 33.999z" />
    </font>
</defs>
</svg>
